<svg width="205" height="32" viewBox="0 0 205 32" fill="none" xmlns="http://www.w3.org/2000/svg">
<rect width="205" height="32" rx="16" fill="white"/>
<g clip-path="url(#clip0_882_5700)">
<path d="M38.5068 25.5H21.5068L19.5068 14.5H40.5068L38.5068 25.5Z" stroke="black" stroke-miterlimit="10" stroke-linecap="round" stroke-linejoin="round"/>
<path d="M41.5068 12.5H18.5068V14.5H41.5068V12.5Z" stroke="black" stroke-miterlimit="10" stroke-linecap="round" stroke-linejoin="round"/>
<path d="M21.5068 10.5L27.5068 4.5" stroke="black" stroke-miterlimit="10" stroke-linecap="round" stroke-linejoin="round"/>
<path d="M38.5068 10.5L32.5068 4.5" stroke="black" stroke-miterlimit="10" stroke-linecap="round" stroke-linejoin="round"/>
</g>
<path d="M70.8986 16.52H67.5526C67.3286 16.52 67.1046 16.4267 66.8806 16.24L66.5026 15.918C66.3066 15.7593 66.2086 15.5727 66.2086 15.358V12.46C66.2086 12.18 66.3206 11.9467 66.5446 11.76L66.8806 11.48C67.1046 11.2933 67.3286 11.2 67.5526 11.2H71.2766C71.5006 11.2 71.7246 11.2933 71.9486 11.48L72.2846 11.76C72.5086 11.9467 72.6206 12.18 72.6206 12.46V13.02H71.4446V12.754C71.4446 12.614 71.4352 12.5253 71.4166 12.488C71.4072 12.4413 71.3606 12.3853 71.2766 12.32C71.1926 12.2547 71.1272 12.2173 71.0806 12.208C71.0339 12.1893 70.9266 12.18 70.7586 12.18H68.0706C67.9026 12.18 67.7952 12.1893 67.7486 12.208C67.7019 12.2173 67.6366 12.2547 67.5526 12.32C67.4686 12.3853 67.4172 12.4413 67.3986 12.488C67.3892 12.5253 67.3846 12.614 67.3846 12.754V14.966C67.3846 15.106 67.3892 15.1993 67.3986 15.246C67.4172 15.2833 67.4686 15.3347 67.5526 15.4C67.6366 15.4653 67.7019 15.5073 67.7486 15.526C67.7952 15.5353 67.9026 15.54 68.0706 15.54H71.4166C71.6406 15.54 71.8646 15.6333 72.0886 15.82L72.4246 16.1C72.6486 16.2867 72.7606 16.52 72.7606 16.8V19.74C72.7606 20.02 72.6486 20.2533 72.4246 20.44L72.0886 20.72C71.8646 20.9067 71.6406 21 71.4166 21H67.4126C67.1886 21 66.9646 20.9067 66.7406 20.72L66.4046 20.44C66.1806 20.2533 66.0686 20.02 66.0686 19.74V19.18H67.2446V19.446C67.2446 19.586 67.2492 19.6793 67.2586 19.726C67.2772 19.7633 67.3286 19.8147 67.4126 19.88C67.4966 19.9453 67.5619 19.9873 67.6086 20.006C67.6552 20.0153 67.7626 20.02 67.9306 20.02H70.8986C71.0666 20.02 71.1739 20.0153 71.2206 20.006C71.2672 19.9873 71.3326 19.9453 71.4166 19.88C71.5006 19.8147 71.5472 19.7633 71.5566 19.726C71.5752 19.6793 71.5846 19.586 71.5846 19.446V17.094C71.5846 16.954 71.5752 16.8653 71.5566 16.828C71.5472 16.7813 71.5006 16.7253 71.4166 16.66C71.3326 16.5947 71.2672 16.5573 71.2206 16.548C71.1739 16.5293 71.0666 16.52 70.8986 16.52ZM79.9136 19.74L80.7536 20.44L80.4176 20.72C80.2496 20.86 80.1329 20.944 80.0676 20.972C80.0116 20.9907 79.8996 21 79.7316 21H75.9936C75.7696 21 75.5456 20.9067 75.3216 20.72L74.9856 20.44C74.7616 20.2533 74.6496 20.02 74.6496 19.74V15.26C74.6496 14.98 74.7616 14.7467 74.9856 14.56L75.3216 14.28C75.5456 14.0933 75.7696 14 75.9936 14H79.2556C79.4422 14 79.6662 14.0933 79.9276 14.28L80.2776 14.56C80.5016 14.728 80.6136 14.9613 80.6136 15.26V18.13H75.8256V19.446C75.8256 19.586 75.8302 19.6793 75.8396 19.726C75.8582 19.7633 75.9096 19.8147 75.9936 19.88C76.0776 19.9453 76.1429 19.9873 76.1896 20.006C76.2362 20.0153 76.3436 20.02 76.5116 20.02H79.2276C79.3956 20.02 79.5076 20.0107 79.5636 19.992C79.6289 19.964 79.7456 19.88 79.9136 19.74ZM79.4376 17.22V15.554C79.4376 15.414 79.4282 15.3253 79.4096 15.288C79.4002 15.2413 79.3536 15.1853 79.2696 15.12C79.1856 15.0547 79.1202 15.0173 79.0736 15.008C79.0269 14.9893 78.9196 14.98 78.7516 14.98H76.5116C76.3436 14.98 76.2362 14.9893 76.1896 15.008C76.1429 15.0173 76.0776 15.0547 75.9936 15.12C75.9096 15.1853 75.8582 15.2413 75.8396 15.288C75.8302 15.3253 75.8256 15.414 75.8256 15.554V17.22H79.4376ZM82.3621 10.64H83.5381V19.25C83.5381 19.4647 83.5475 19.6 83.5661 19.656C83.5848 19.7027 83.6501 19.7633 83.7621 19.838C83.8835 19.9313 83.9535 20.006 83.9721 20.062C84.0001 20.1087 84.0141 20.2393 84.0141 20.454V21H83.5941C83.4168 21 83.3001 20.9907 83.2441 20.972C83.1881 20.9533 83.0901 20.8973 82.9501 20.804L82.6421 20.594C82.5021 20.5007 82.4181 20.426 82.3901 20.37C82.3715 20.314 82.3621 20.1787 82.3621 19.964V10.64ZM91.0288 19.74L91.8688 20.44L91.5328 20.72C91.3648 20.86 91.2481 20.944 91.1828 20.972C91.1268 20.9907 91.0148 21 90.8468 21H87.1088C86.8848 21 86.6608 20.9067 86.4368 20.72L86.1008 20.44C85.8768 20.2533 85.7648 20.02 85.7648 19.74V15.26C85.7648 14.98 85.8768 14.7467 86.1008 14.56L86.4368 14.28C86.6608 14.0933 86.8848 14 87.1088 14H90.3708C90.5575 14 90.7815 14.0933 91.0428 14.28L91.3928 14.56C91.6168 14.728 91.7288 14.9613 91.7288 15.26V18.13H86.9408V19.446C86.9408 19.586 86.9455 19.6793 86.9548 19.726C86.9735 19.7633 87.0248 19.8147 87.1088 19.88C87.1928 19.9453 87.2581 19.9873 87.3048 20.006C87.3515 20.0153 87.4588 20.02 87.6268 20.02H90.3428C90.5108 20.02 90.6228 20.0107 90.6788 19.992C90.7441 19.964 90.8608 19.88 91.0288 19.74ZM90.5528 17.22V15.554C90.5528 15.414 90.5435 15.3253 90.5248 15.288C90.5155 15.2413 90.4688 15.1853 90.3848 15.12C90.3008 15.0547 90.2355 15.0173 90.1888 15.008C90.1421 14.9893 90.0348 14.98 89.8668 14.98H87.6268C87.4588 14.98 87.3515 14.9893 87.3048 15.008C87.2581 15.0173 87.1928 15.0547 87.1088 15.12C87.0248 15.1853 86.9735 15.2413 86.9548 15.288C86.9455 15.3253 86.9408 15.414 86.9408 15.554V17.22H90.5528ZM99.0074 15.82H97.8314V15.554C97.8314 15.414 97.822 15.3253 97.8034 15.288C97.794 15.2413 97.7474 15.1853 97.6634 15.12C97.5794 15.0547 97.514 15.0173 97.4674 15.008C97.4207 14.9893 97.3134 14.98 97.1454 14.98H95.2694C95.1014 14.98 94.994 14.9893 94.9474 15.008C94.9007 15.0173 94.8354 15.0547 94.7514 15.12C94.6674 15.1853 94.616 15.2413 94.5974 15.288C94.588 15.3253 94.5834 15.414 94.5834 15.554V19.446C94.5834 19.586 94.588 19.6793 94.5974 19.726C94.616 19.7633 94.6674 19.8147 94.7514 19.88C94.8354 19.9453 94.9007 19.9873 94.9474 20.006C94.994 20.0153 95.1014 20.02 95.2694 20.02H97.1454C97.3134 20.02 97.4207 20.0153 97.4674 20.006C97.514 19.9873 97.5794 19.9453 97.6634 19.88C97.7474 19.8147 97.794 19.7633 97.8034 19.726C97.822 19.6793 97.8314 19.586 97.8314 19.446V19.18H99.0074V19.74C99.0074 20.02 98.8954 20.2533 98.6714 20.44L98.3354 20.72C98.1114 20.9067 97.8874 21 97.6634 21H94.7514C94.5274 21 94.3034 20.9067 94.0794 20.72L93.7434 20.44C93.5194 20.2533 93.4074 20.02 93.4074 19.74V15.26C93.4074 14.98 93.5194 14.7467 93.7434 14.56L94.0794 14.28C94.3034 14.0933 94.5274 14 94.7514 14H97.6634C97.8874 14 98.1114 14.0933 98.3354 14.28L98.6714 14.56C98.8954 14.7467 99.0074 14.98 99.0074 15.26V15.82ZM102.222 12.04V14H104.014C104.136 14.0933 104.206 14.168 104.224 14.224C104.252 14.2707 104.266 14.4013 104.266 14.616V14.98H102.222V19.446C102.222 19.586 102.227 19.6793 102.236 19.726C102.255 19.7633 102.306 19.8147 102.39 19.88C102.474 19.9453 102.54 19.9873 102.586 20.006C102.633 20.0153 102.74 20.02 102.908 20.02H104.182C104.304 20.1133 104.374 20.188 104.392 20.244C104.42 20.2907 104.434 20.4213 104.434 20.636V21H102.39C102.166 21 101.942 20.9067 101.718 20.72L101.382 20.44C101.158 20.2533 101.046 20.02 101.046 19.74V14.98H100.374C100.253 14.8867 100.178 14.8167 100.15 14.77C100.132 14.714 100.122 14.5787 100.122 14.364V14H101.046V12.04H102.222ZM109.263 21L112.623 11.2H114.275L117.705 21H116.529L115.801 18.97H111.139L110.439 21H109.263ZM113.477 12.04H113.421C113.421 12.152 113.389 12.2873 113.323 12.446L111.433 18.06H115.507L113.575 12.446C113.51 12.2873 113.477 12.152 113.477 12.04ZM123.111 14.98H121.109C120.941 14.98 120.834 14.9893 120.787 15.008C120.741 15.0173 120.675 15.0547 120.591 15.12C120.507 15.1853 120.456 15.2413 120.437 15.288C120.428 15.3253 120.423 15.414 120.423 15.554V19.446C120.423 19.586 120.428 19.6793 120.437 19.726C120.456 19.7633 120.507 19.8147 120.591 19.88C120.675 19.9453 120.741 19.9873 120.787 20.006C120.834 20.0153 120.941 20.02 121.109 20.02H123.097C123.265 20.02 123.377 20.0107 123.433 19.992C123.499 19.9733 123.615 19.9127 123.783 19.81C123.951 19.7073 124.049 19.6327 124.077 19.586C124.105 19.5393 124.119 19.446 124.119 19.306V15.82C124.119 15.6333 124.007 15.4467 123.783 15.26C123.559 15.0733 123.335 14.98 123.111 14.98ZM123.265 21H120.591C120.367 21 120.143 20.9067 119.919 20.72L119.583 20.44C119.359 20.2533 119.247 20.02 119.247 19.74V15.26C119.247 14.98 119.359 14.7467 119.583 14.56L119.919 14.28C120.143 14.0933 120.367 14 120.591 14H123.055C123.279 14 123.503 14.0933 123.727 14.28C123.951 14.504 124.063 14.644 124.063 14.7H124.119V10.64H125.295V19.446C125.295 19.586 125.3 19.6793 125.309 19.726C125.328 19.7633 125.379 19.8147 125.463 19.88C125.547 19.9453 125.594 20.0013 125.603 20.048C125.622 20.0853 125.631 20.174 125.631 20.314V21H125.141C124.973 21 124.857 20.9907 124.791 20.972C124.735 20.944 124.651 20.8833 124.539 20.79C124.39 20.6687 124.315 20.552 124.315 20.44H124.259C124.259 20.552 124.157 20.6687 123.951 20.79C123.783 20.8927 123.667 20.9533 123.601 20.972C123.545 20.9907 123.433 21 123.265 21ZM129.89 19.712L131.738 14H132.9L130.464 21H129.12L126.684 14H127.846L129.694 19.712C129.74 19.852 129.764 19.964 129.764 20.048H129.82C129.82 19.964 129.843 19.852 129.89 19.712ZM139.208 19.74L140.048 20.44L139.712 20.72C139.544 20.86 139.428 20.944 139.362 20.972C139.306 20.9907 139.194 21 139.026 21H135.288C135.064 21 134.84 20.9067 134.616 20.72L134.28 20.44C134.056 20.2533 133.944 20.02 133.944 19.74V15.26C133.944 14.98 134.056 14.7467 134.28 14.56L134.616 14.28C134.84 14.0933 135.064 14 135.288 14H138.55C138.737 14 138.961 14.0933 139.222 14.28L139.572 14.56C139.796 14.728 139.908 14.9613 139.908 15.26V18.13H135.12V19.446C135.12 19.586 135.125 19.6793 135.134 19.726C135.153 19.7633 135.204 19.8147 135.288 19.88C135.372 19.9453 135.438 19.9873 135.484 20.006C135.531 20.0153 135.638 20.02 135.806 20.02H138.522C138.69 20.02 138.802 20.0107 138.858 19.992C138.924 19.964 139.04 19.88 139.208 19.74ZM138.732 17.22V15.554C138.732 15.414 138.723 15.3253 138.704 15.288C138.695 15.2413 138.648 15.1853 138.564 15.12C138.48 15.0547 138.415 15.0173 138.368 15.008C138.322 14.9893 138.214 14.98 138.046 14.98H135.806C135.638 14.98 135.531 14.9893 135.484 15.008C135.438 15.0173 135.372 15.0547 135.288 15.12C135.204 15.1853 135.153 15.2413 135.134 15.288C135.125 15.3253 135.12 15.414 135.12 15.554V17.22H138.732ZM141.587 14H142.077C142.245 14 142.357 14.014 142.413 14.042C142.478 14.0607 142.567 14.1167 142.679 14.21C142.828 14.3313 142.903 14.448 142.903 14.56H142.959C142.959 14.448 143.062 14.3313 143.267 14.21C143.435 14.1073 143.547 14.0467 143.603 14.028C143.668 14.0093 143.785 14 143.953 14H146.431C146.655 14 146.879 14.0933 147.103 14.28L147.439 14.56C147.663 14.7467 147.775 14.98 147.775 15.26V21H146.599V15.554C146.599 15.414 146.59 15.3253 146.571 15.288C146.562 15.2413 146.515 15.1853 146.431 15.12C146.347 15.0547 146.282 15.0173 146.235 15.008C146.188 14.9893 146.081 14.98 145.913 14.98H144.121C143.953 14.98 143.836 14.9893 143.771 15.008C143.715 15.0267 143.603 15.0873 143.435 15.19C143.267 15.2927 143.169 15.3673 143.141 15.414C143.113 15.4607 143.099 15.554 143.099 15.694V21H141.923V15.554C141.923 15.414 141.914 15.3253 141.895 15.288C141.886 15.2413 141.839 15.1853 141.755 15.12C141.671 15.0547 141.62 15.0033 141.601 14.966C141.592 14.9193 141.587 14.826 141.587 14.686V14ZM151.058 12.04V14H152.85C152.972 14.0933 153.042 14.168 153.06 14.224C153.088 14.2707 153.102 14.4013 153.102 14.616V14.98H151.058V19.446C151.058 19.586 151.063 19.6793 151.072 19.726C151.091 19.7633 151.142 19.8147 151.226 19.88C151.31 19.9453 151.376 19.9873 151.422 20.006C151.469 20.0153 151.576 20.02 151.744 20.02H153.018C153.14 20.1133 153.21 20.188 153.228 20.244C153.256 20.2907 153.27 20.4213 153.27 20.636V21H151.226C151.002 21 150.778 20.9067 150.554 20.72L150.218 20.44C149.994 20.2533 149.882 20.02 149.882 19.74V14.98H149.21C149.089 14.8867 149.014 14.8167 148.986 14.77C148.968 14.714 148.958 14.5787 148.958 14.364V14H149.882V12.04H151.058ZM158.281 21H156.083C155.859 21 155.635 20.9067 155.411 20.72L155.075 20.44C154.851 20.2533 154.739 20.02 154.739 19.74V14H155.915V19.446C155.915 19.586 155.92 19.6793 155.929 19.726C155.948 19.7633 155.999 19.8147 156.083 19.88C156.167 19.9453 156.233 19.9873 156.279 20.006C156.326 20.0153 156.433 20.02 156.601 20.02H158.113C158.281 20.02 158.393 20.0107 158.449 19.992C158.515 19.9733 158.631 19.9127 158.799 19.81C158.967 19.7073 159.065 19.6327 159.093 19.586C159.121 19.5393 159.135 19.446 159.135 19.306V14H160.311V19.446C160.311 19.586 160.316 19.6793 160.325 19.726C160.344 19.7633 160.395 19.8147 160.479 19.88C160.563 19.9453 160.61 20.0013 160.619 20.048C160.638 20.0853 160.647 20.174 160.647 20.314V21H160.157C159.989 21 159.873 20.9907 159.807 20.972C159.751 20.944 159.667 20.8833 159.555 20.79C159.406 20.6687 159.331 20.552 159.331 20.44H159.275C159.275 20.552 159.173 20.6687 158.967 20.79C158.799 20.8927 158.683 20.9533 158.617 20.972C158.561 20.9907 158.449 21 158.281 21ZM162.327 14H162.817C162.985 14 163.097 14.014 163.153 14.042C163.219 14.0607 163.307 14.1167 163.419 14.21C163.569 14.3313 163.643 14.448 163.643 14.56H163.699C163.699 14.448 163.802 14.3313 164.007 14.21C164.175 14.1073 164.287 14.0467 164.343 14.028C164.409 14.0093 164.525 14 164.693 14H165.981C166.205 14 166.429 14.0933 166.653 14.28L166.989 14.56L166.149 15.26L165.981 15.12C165.897 15.0547 165.832 15.0173 165.785 15.008C165.739 14.9893 165.631 14.98 165.463 14.98H164.861C164.693 14.98 164.577 14.9893 164.511 15.008C164.455 15.0267 164.343 15.0873 164.175 15.19C164.007 15.2927 163.909 15.3673 163.881 15.414C163.853 15.4607 163.839 15.554 163.839 15.694V21H162.663V15.554C162.663 15.414 162.654 15.3253 162.635 15.288C162.626 15.2413 162.579 15.1853 162.495 15.12C162.411 15.0547 162.36 15.0033 162.341 14.966C162.332 14.9193 162.327 14.826 162.327 14.686V14ZM173.443 19.74L174.283 20.44L173.947 20.72C173.779 20.86 173.662 20.944 173.597 20.972C173.541 20.9907 173.429 21 173.261 21H169.523C169.299 21 169.075 20.9067 168.851 20.72L168.515 20.44C168.291 20.2533 168.179 20.02 168.179 19.74V15.26C168.179 14.98 168.291 14.7467 168.515 14.56L168.851 14.28C169.075 14.0933 169.299 14 169.523 14H172.785C172.972 14 173.196 14.0933 173.457 14.28L173.807 14.56C174.031 14.728 174.143 14.9613 174.143 15.26V18.13H169.355V19.446C169.355 19.586 169.36 19.6793 169.369 19.726C169.388 19.7633 169.439 19.8147 169.523 19.88C169.607 19.9453 169.672 19.9873 169.719 20.006C169.766 20.0153 169.873 20.02 170.041 20.02H172.757C172.925 20.02 173.037 20.0107 173.093 19.992C173.158 19.964 173.275 19.88 173.443 19.74ZM172.967 17.22V15.554C172.967 15.414 172.958 15.3253 172.939 15.288C172.93 15.2413 172.883 15.1853 172.799 15.12C172.715 15.0547 172.65 15.0173 172.603 15.008C172.556 14.9893 172.449 14.98 172.281 14.98H170.041C169.873 14.98 169.766 14.9893 169.719 15.008C169.672 15.0173 169.607 15.0547 169.523 15.12C169.439 15.1853 169.388 15.2413 169.369 15.288C169.36 15.3253 169.355 15.414 169.355 15.554V17.22H172.967Z" fill="black"/>
<defs>
<clipPath id="clip0_882_5700">
<rect width="24" height="24" fill="white" transform="translate(18 3)"/>
</clipPath>
</defs>
</svg>
