<svg width="141" height="32" viewBox="0 0 141 32" fill="none" xmlns="http://www.w3.org/2000/svg">
<rect width="141" height="32" rx="16" fill="white"/>
<g clip-path="url(#clip0_891_12397)">
<path d="M28.0892 24.7499H13.9225L12.2559 15.5833H29.7559L28.0892 24.7499Z" stroke="black" stroke-miterlimit="10" stroke-linecap="round" stroke-linejoin="round"/>
<path d="M30.5895 13.9167H11.4229V15.5834H30.5895V13.9167Z" stroke="black" stroke-miterlimit="10" stroke-linecap="round" stroke-linejoin="round"/>
<path d="M13.9229 12.25L18.9229 7.25" stroke="black" stroke-miterlimit="10" stroke-linecap="round" stroke-linejoin="round"/>
<path d="M28.0898 12.25L23.0898 7.25" stroke="black" stroke-miterlimit="10" stroke-linecap="round" stroke-linejoin="round"/>
</g>
<path d="M59.3057 15.2031C59.8799 15.2031 60.3265 15.1234 60.6455 14.9639C61.1468 14.7132 61.3975 14.262 61.3975 13.6104C61.3975 12.9541 61.1309 12.512 60.5977 12.2842C60.2969 12.1566 59.8503 12.0928 59.2578 12.0928H56.8311V15.2031H59.3057ZM59.7637 19.8379C60.5977 19.8379 61.1924 19.5964 61.5479 19.1133C61.7712 18.8079 61.8828 18.4388 61.8828 18.0059C61.8828 17.2767 61.557 16.7799 60.9053 16.5156C60.5589 16.3743 60.1009 16.3037 59.5312 16.3037H56.8311V19.8379H59.7637ZM55.498 10.958H59.8115C60.9873 10.958 61.8236 11.3089 62.3203 12.0107C62.612 12.4255 62.7578 12.904 62.7578 13.4463C62.7578 14.0798 62.5778 14.5993 62.2178 15.0049C62.0309 15.2191 61.762 15.415 61.4111 15.5928C61.9261 15.7887 62.3112 16.0098 62.5664 16.2559C63.0176 16.6934 63.2432 17.2972 63.2432 18.0674C63.2432 18.7145 63.0404 19.3001 62.6348 19.8242C62.0286 20.6081 61.0648 21 59.7432 21H55.498V10.958ZM65.9365 13.6787V18.5391C65.9365 18.9128 65.9958 19.2181 66.1143 19.4551C66.333 19.8926 66.7409 20.1113 67.3379 20.1113C68.1947 20.1113 68.778 19.7285 69.0879 18.9629C69.2565 18.5527 69.3408 17.9899 69.3408 17.2744V13.6787H70.5713V21H69.4092L69.4229 19.9199C69.2633 20.1979 69.0651 20.4326 68.8281 20.624C68.3587 21.0068 67.7891 21.1982 67.1191 21.1982C66.0755 21.1982 65.3646 20.8496 64.9863 20.1523C64.7812 19.7786 64.6787 19.2796 64.6787 18.6553V13.6787H65.9365ZM77.0723 13.6787H78.4326C78.2594 14.1481 77.8743 15.2191 77.2773 16.8916C76.8307 18.1494 76.457 19.1748 76.1562 19.9678C75.4453 21.8363 74.944 22.9756 74.6523 23.3857C74.3607 23.7959 73.8594 24.001 73.1484 24.001C72.9753 24.001 72.8408 23.9941 72.7451 23.9805C72.654 23.9668 72.54 23.9417 72.4033 23.9053V22.7842C72.6175 22.8434 72.7725 22.8799 72.8682 22.8936C72.9639 22.9072 73.0482 22.9141 73.1211 22.9141C73.349 22.9141 73.5153 22.8753 73.6201 22.7979C73.7295 22.7249 73.8206 22.6338 73.8936 22.5244C73.9163 22.488 73.9984 22.3011 74.1396 21.9639C74.2809 21.6266 74.3835 21.376 74.4473 21.2119L71.7402 13.6787H73.1348L75.0967 19.6396L77.0723 13.6787ZM84.4482 17.7598C84.4801 18.3294 84.6146 18.792 84.8516 19.1475C85.3027 19.8128 86.098 20.1455 87.2373 20.1455C87.7477 20.1455 88.2126 20.0726 88.6318 19.9268C89.443 19.6442 89.8486 19.1383 89.8486 18.4092C89.8486 17.8623 89.6777 17.4727 89.3359 17.2402C88.9896 17.0124 88.4473 16.8141 87.709 16.6455L86.3486 16.3379C85.46 16.1374 84.8311 15.9163 84.4619 15.6748C83.8239 15.2555 83.5049 14.6289 83.5049 13.7949C83.5049 12.8926 83.8171 12.152 84.4414 11.5732C85.0658 10.9945 85.9499 10.7051 87.0938 10.7051C88.1465 10.7051 89.0397 10.9603 89.7734 11.4707C90.5117 11.9766 90.8809 12.7878 90.8809 13.9043H89.6025C89.5342 13.3665 89.3883 12.9541 89.165 12.667C88.7503 12.1429 88.0462 11.8809 87.0527 11.8809C86.2507 11.8809 85.6742 12.0495 85.3232 12.3867C84.9723 12.724 84.7969 13.1159 84.7969 13.5625C84.7969 14.0547 85.002 14.4147 85.4121 14.6426C85.681 14.7884 86.2894 14.9707 87.2373 15.1895L88.6455 15.5107C89.3245 15.6657 89.8486 15.8776 90.2178 16.1465C90.8558 16.6159 91.1748 17.2972 91.1748 18.1904C91.1748 19.3024 90.7692 20.0977 89.958 20.5762C89.1514 21.0547 88.2126 21.2939 87.1416 21.2939C85.8929 21.2939 84.9154 20.9749 84.209 20.3369C83.5026 19.7035 83.1562 18.8444 83.1699 17.7598H84.4482ZM92.7334 10.9238H93.9639V14.6699C94.2555 14.3008 94.5176 14.041 94.75 13.8906C95.1465 13.6309 95.641 13.501 96.2334 13.501C97.2952 13.501 98.0153 13.8724 98.3936 14.6152C98.5986 15.0208 98.7012 15.5837 98.7012 16.3037V21H97.4365V16.3857C97.4365 15.848 97.3682 15.4538 97.2314 15.2031C97.0081 14.8021 96.5889 14.6016 95.9736 14.6016C95.4632 14.6016 95.0007 14.777 94.5859 15.1279C94.1712 15.4788 93.9639 16.1419 93.9639 17.1172V21H92.7334V10.9238ZM100.526 13.7129H101.777V21H100.526V13.7129ZM100.526 10.958H101.777V12.3525H100.526V10.958ZM106.733 20.1729C107.308 20.1729 107.784 19.9336 108.162 19.4551C108.545 18.972 108.736 18.252 108.736 17.2949C108.736 16.7116 108.652 16.2103 108.483 15.791C108.164 14.9844 107.581 14.5811 106.733 14.5811C105.881 14.5811 105.298 15.0072 104.983 15.8594C104.815 16.3151 104.73 16.8939 104.73 17.5957C104.73 18.1608 104.815 18.6416 104.983 19.0381C105.302 19.7946 105.886 20.1729 106.733 20.1729ZM103.548 13.7129H104.744V14.6836C104.99 14.3509 105.259 14.0934 105.551 13.9111C105.965 13.6377 106.453 13.501 107.014 13.501C107.843 13.501 108.547 13.82 109.126 14.458C109.705 15.0915 109.994 15.9984 109.994 17.1787C109.994 18.7738 109.577 19.9131 108.743 20.5967C108.215 21.0296 107.599 21.2461 106.897 21.2461C106.346 21.2461 105.883 21.1253 105.51 20.8838C105.291 20.7471 105.047 20.5124 104.778 20.1797V23.9189H103.548V13.7129Z" fill="black"/>
<defs>
<clipPath id="clip0_891_12397">
<rect width="20" height="20" fill="white" transform="translate(11 6)"/>
</clipPath>
</defs>
</svg>
