<svg width="120" height="32" viewBox="0 0 120 32" fill="none" xmlns="http://www.w3.org/2000/svg">
<rect width="120" height="32" rx="16" fill="white"/>
<g clip-path="url(#clip0_891_12362)">
<path d="M15.25 17.9166V8.33325C15.25 7.64325 15.8092 7.08325 16.5 7.08325C17.19 7.08325 17.75 7.64325 17.75 8.33325V12.0833H19.4167C19.8767 12.0833 20.25 12.4566 20.25 12.9166H21.9167C22.3767 12.9166 22.75 13.2899 22.75 13.7499H24C24.69 13.7499 25.25 14.3099 25.25 14.9999V17.5824C25.25 18.3566 25.1417 19.1274 24.9292 19.8724L23.5834 24.5833H16.0834C14.8334 22.9166 11.5692 17.3558 11.5692 17.3558C11.2875 16.9574 11.335 16.4158 11.6784 16.0708C12.0475 15.7016 12.6392 15.6783 13.0359 16.0191L15.25 17.9166Z" stroke="black" stroke-miterlimit="10" stroke-linecap="round" stroke-linejoin="round"/>
<path d="M20.25 12.9165V14.5832" stroke="black" stroke-miterlimit="10" stroke-linecap="round" stroke-linejoin="round"/>
<path d="M17.75 11.6665V14.5832" stroke="black" stroke-miterlimit="10" stroke-linecap="round" stroke-linejoin="round"/>
<path d="M22.75 13.75V15.4167" stroke="black" stroke-miterlimit="10" stroke-linecap="round" stroke-linejoin="round"/>
</g>
<path d="M37.0176 17.7598C37.0495 18.3294 37.1839 18.792 37.4209 19.1475C37.8721 19.8128 38.6673 20.1455 39.8066 20.1455C40.3171 20.1455 40.7819 20.0726 41.2012 19.9268C42.0124 19.6442 42.418 19.1383 42.418 18.4092C42.418 17.8623 42.2471 17.4727 41.9053 17.2402C41.5589 17.0124 41.0166 16.8141 40.2783 16.6455L38.918 16.3379C38.0293 16.1374 37.4004 15.9163 37.0312 15.6748C36.3932 15.2555 36.0742 14.6289 36.0742 13.7949C36.0742 12.8926 36.3864 12.152 37.0107 11.5732C37.6351 10.9945 38.5192 10.7051 39.6631 10.7051C40.7158 10.7051 41.609 10.9603 42.3428 11.4707C43.0811 11.9766 43.4502 12.7878 43.4502 13.9043H42.1719C42.1035 13.3665 41.9577 12.9541 41.7344 12.667C41.3197 12.1429 40.6156 11.8809 39.6221 11.8809C38.82 11.8809 38.2435 12.0495 37.8926 12.3867C37.5417 12.724 37.3662 13.1159 37.3662 13.5625C37.3662 14.0547 37.5713 14.4147 37.9814 14.6426C38.2503 14.7884 38.8587 14.9707 39.8066 15.1895L41.2148 15.5107C41.8939 15.6657 42.418 15.8776 42.7871 16.1465C43.4251 16.6159 43.7441 17.2972 43.7441 18.1904C43.7441 19.3024 43.3385 20.0977 42.5273 20.5762C41.7207 21.0547 40.7819 21.2939 39.7109 21.2939C38.4622 21.2939 37.4847 20.9749 36.7783 20.3369C36.0719 19.7035 35.7256 18.8444 35.7393 17.7598H37.0176ZM48.3516 13.5146C48.8711 13.5146 49.3747 13.6377 49.8623 13.8838C50.3499 14.1253 50.7214 14.4398 50.9766 14.8271C51.2227 15.1963 51.3867 15.627 51.4688 16.1191C51.5417 16.4564 51.5781 16.9941 51.5781 17.7324H46.2119C46.2347 18.4753 46.4102 19.0723 46.7383 19.5234C47.0664 19.9701 47.5745 20.1934 48.2627 20.1934C48.9053 20.1934 49.418 19.9814 49.8008 19.5576C50.0195 19.3115 50.1745 19.0267 50.2656 18.7031H51.4756C51.4437 18.972 51.3366 19.2728 51.1543 19.6055C50.9766 19.9336 50.776 20.2025 50.5527 20.4121C50.179 20.7767 49.7165 21.0228 49.165 21.1504C48.8688 21.2233 48.5339 21.2598 48.1602 21.2598C47.2487 21.2598 46.4762 20.9294 45.8428 20.2686C45.2093 19.6032 44.8926 18.6735 44.8926 17.4795C44.8926 16.3037 45.2116 15.349 45.8496 14.6152C46.4876 13.8815 47.3216 13.5146 48.3516 13.5146ZM50.3135 16.7549C50.2633 16.2217 50.1471 15.7956 49.9648 15.4766C49.6276 14.8841 49.0648 14.5879 48.2764 14.5879C47.7113 14.5879 47.2373 14.793 46.8545 15.2031C46.4717 15.6087 46.2689 16.126 46.2461 16.7549H50.3135ZM53.1299 10.958H54.3604V21H53.1299V10.958ZM59.2617 13.5146C59.7812 13.5146 60.2848 13.6377 60.7725 13.8838C61.2601 14.1253 61.6315 14.4398 61.8867 14.8271C62.1328 15.1963 62.2969 15.627 62.3789 16.1191C62.4518 16.4564 62.4883 16.9941 62.4883 17.7324H57.1221C57.1449 18.4753 57.3203 19.0723 57.6484 19.5234C57.9766 19.9701 58.4847 20.1934 59.1729 20.1934C59.8154 20.1934 60.3281 19.9814 60.7109 19.5576C60.9297 19.3115 61.0846 19.0267 61.1758 18.7031H62.3857C62.3538 18.972 62.2467 19.2728 62.0645 19.6055C61.8867 19.9336 61.6862 20.2025 61.4629 20.4121C61.0892 20.7767 60.6266 21.0228 60.0752 21.1504C59.779 21.2233 59.444 21.2598 59.0703 21.2598C58.1589 21.2598 57.3864 20.9294 56.7529 20.2686C56.1195 19.6032 55.8027 18.6735 55.8027 17.4795C55.8027 16.3037 56.1217 15.349 56.7598 14.6152C57.3978 13.8815 58.2318 13.5146 59.2617 13.5146ZM61.2236 16.7549C61.1735 16.2217 61.0573 15.7956 60.875 15.4766C60.5378 14.8841 59.9749 14.5879 59.1865 14.5879C58.6214 14.5879 58.1475 14.793 57.7646 15.2031C57.3818 15.6087 57.179 16.126 57.1562 16.7549H61.2236ZM66.8291 13.4668C67.654 13.4668 68.3239 13.6673 68.8389 14.0684C69.3584 14.4694 69.6706 15.1598 69.7754 16.1396H68.5791C68.5062 15.6885 68.3398 15.3148 68.0801 15.0186C67.8203 14.7178 67.4033 14.5674 66.8291 14.5674C66.0452 14.5674 65.4847 14.9502 65.1475 15.7158C64.9287 16.2126 64.8193 16.8255 64.8193 17.5547C64.8193 18.2884 64.9743 18.9059 65.2842 19.4072C65.5941 19.9085 66.0817 20.1592 66.7471 20.1592C67.2575 20.1592 67.6608 20.0042 67.957 19.6943C68.2578 19.3799 68.4652 18.9515 68.5791 18.4092H69.7754C69.6387 19.3799 69.2969 20.0908 68.75 20.542C68.2031 20.9886 67.5036 21.2119 66.6514 21.2119C65.6943 21.2119 64.931 20.8633 64.3613 20.166C63.7917 19.4642 63.5068 18.5892 63.5068 17.541C63.5068 16.2559 63.819 15.2555 64.4434 14.54C65.0677 13.8245 65.863 13.4668 66.8291 13.4668ZM71.252 11.6348H72.4961V13.6787H73.665V14.6836H72.4961V19.4619C72.4961 19.7171 72.5827 19.888 72.7559 19.9746C72.8516 20.0247 73.0111 20.0498 73.2344 20.0498C73.2936 20.0498 73.3574 20.0498 73.4258 20.0498C73.4941 20.0452 73.5739 20.0384 73.665 20.0293V21C73.5238 21.041 73.3757 21.0706 73.2207 21.0889C73.0703 21.1071 72.9062 21.1162 72.7285 21.1162C72.1543 21.1162 71.7646 20.9704 71.5596 20.6787C71.3545 20.3825 71.252 19.9997 71.252 19.5303V14.6836H70.2607V13.6787H71.252V11.6348ZM79.8516 17.7598C79.8835 18.3294 80.0179 18.792 80.2549 19.1475C80.7061 19.8128 81.5013 20.1455 82.6406 20.1455C83.151 20.1455 83.6159 20.0726 84.0352 19.9268C84.8464 19.6442 85.252 19.1383 85.252 18.4092C85.252 17.8623 85.0811 17.4727 84.7393 17.2402C84.3929 17.0124 83.8506 16.8141 83.1123 16.6455L81.752 16.3379C80.8633 16.1374 80.2344 15.9163 79.8652 15.6748C79.2272 15.2555 78.9082 14.6289 78.9082 13.7949C78.9082 12.8926 79.2204 12.152 79.8447 11.5732C80.4691 10.9945 81.3532 10.7051 82.4971 10.7051C83.5498 10.7051 84.443 10.9603 85.1768 11.4707C85.915 11.9766 86.2842 12.7878 86.2842 13.9043H85.0059C84.9375 13.3665 84.7917 12.9541 84.5684 12.667C84.1536 12.1429 83.4495 11.8809 82.4561 11.8809C81.654 11.8809 81.0775 12.0495 80.7266 12.3867C80.3757 12.724 80.2002 13.1159 80.2002 13.5625C80.2002 14.0547 80.4053 14.4147 80.8154 14.6426C81.0843 14.7884 81.6927 14.9707 82.6406 15.1895L84.0488 15.5107C84.7279 15.6657 85.252 15.8776 85.6211 16.1465C86.2591 16.6159 86.5781 17.2972 86.5781 18.1904C86.5781 19.3024 86.1725 20.0977 85.3613 20.5762C84.5547 21.0547 83.6159 21.2939 82.5449 21.2939C81.2962 21.2939 80.3187 20.9749 79.6123 20.3369C78.9059 19.7035 78.5596 18.8444 78.5732 17.7598H79.8516ZM88.1367 10.9238H89.3672V14.6699C89.6589 14.3008 89.9209 14.041 90.1533 13.8906C90.5498 13.6309 91.0443 13.501 91.6367 13.501C92.6986 13.501 93.4186 13.8724 93.7969 14.6152C94.002 15.0208 94.1045 15.5837 94.1045 16.3037V21H92.8398V16.3857C92.8398 15.848 92.7715 15.4538 92.6348 15.2031C92.4115 14.8021 91.9922 14.6016 91.377 14.6016C90.8665 14.6016 90.404 14.777 89.9893 15.1279C89.5745 15.4788 89.3672 16.1419 89.3672 17.1172V21H88.1367V10.9238ZM95.9297 13.7129H97.1807V21H95.9297V13.7129ZM95.9297 10.958H97.1807V12.3525H95.9297V10.958ZM102.137 20.1729C102.711 20.1729 103.187 19.9336 103.565 19.4551C103.948 18.972 104.14 18.252 104.14 17.2949C104.14 16.7116 104.055 16.2103 103.887 15.791C103.568 14.9844 102.984 14.5811 102.137 14.5811C101.285 14.5811 100.701 15.0072 100.387 15.8594C100.218 16.3151 100.134 16.8939 100.134 17.5957C100.134 18.1608 100.218 18.6416 100.387 19.0381C100.706 19.7946 101.289 20.1729 102.137 20.1729ZM98.9512 13.7129H100.147V14.6836C100.394 14.3509 100.662 14.0934 100.954 13.9111C101.369 13.6377 101.856 13.501 102.417 13.501C103.246 13.501 103.951 13.82 104.529 14.458C105.108 15.0915 105.397 15.9984 105.397 17.1787C105.397 18.7738 104.98 19.9131 104.146 20.5967C103.618 21.0296 103.003 21.2461 102.301 21.2461C101.749 21.2461 101.287 21.1253 100.913 20.8838C100.694 20.7471 100.451 20.5124 100.182 20.1797V23.9189H98.9512V13.7129Z" fill="black"/>
<defs>
<clipPath id="clip0_891_12362">
<rect width="20" height="20" fill="white" transform="translate(9 5)"/>
</clipPath>
</defs>
</svg>
