<svg width="205" height="32" viewBox="0 0 205 32" fill="none" xmlns="http://www.w3.org/2000/svg">
<rect width="205" height="32" rx="16" fill="white"/>
<g clip-path="url(#clip0_882_5381)">
<path d="M38.5068 25.5H21.5068L19.5068 14.5H40.5068L38.5068 25.5Z" stroke="black" stroke-miterlimit="10" stroke-linecap="round" stroke-linejoin="round"/>
<path d="M41.5068 12.5H18.5068V14.5H41.5068V12.5Z" stroke="black" stroke-miterlimit="10" stroke-linecap="round" stroke-linejoin="round"/>
<path d="M21.5068 10.5L27.5068 4.5" stroke="black" stroke-miterlimit="10" stroke-linecap="round" stroke-linejoin="round"/>
<path d="M38.5068 10.5L32.5068 4.5" stroke="black" stroke-miterlimit="10" stroke-linecap="round" stroke-linejoin="round"/>
</g>
<path d="M84.922 16.52H81.576C81.352 16.52 81.128 16.4267 80.904 16.24L80.526 15.918C80.33 15.7593 80.232 15.5727 80.232 15.358V12.46C80.232 12.18 80.344 11.9467 80.568 11.76L80.904 11.48C81.128 11.2933 81.352 11.2 81.576 11.2H85.3C85.524 11.2 85.748 11.2933 85.972 11.48L86.308 11.76C86.532 11.9467 86.644 12.18 86.644 12.46V13.02H85.468V12.754C85.468 12.614 85.4587 12.5253 85.44 12.488C85.4307 12.4413 85.384 12.3853 85.3 12.32C85.216 12.2547 85.1507 12.2173 85.104 12.208C85.0573 12.1893 84.95 12.18 84.782 12.18H82.094C81.926 12.18 81.8187 12.1893 81.772 12.208C81.7253 12.2173 81.66 12.2547 81.576 12.32C81.492 12.3853 81.4407 12.4413 81.422 12.488C81.4127 12.5253 81.408 12.614 81.408 12.754V14.966C81.408 15.106 81.4127 15.1993 81.422 15.246C81.4407 15.2833 81.492 15.3347 81.576 15.4C81.66 15.4653 81.7253 15.5073 81.772 15.526C81.8187 15.5353 81.926 15.54 82.094 15.54H85.44C85.664 15.54 85.888 15.6333 86.112 15.82L86.448 16.1C86.672 16.2867 86.784 16.52 86.784 16.8V19.74C86.784 20.02 86.672 20.2533 86.448 20.44L86.112 20.72C85.888 20.9067 85.664 21 85.44 21H81.436C81.212 21 80.988 20.9067 80.764 20.72L80.428 20.44C80.204 20.2533 80.092 20.02 80.092 19.74V19.18H81.268V19.446C81.268 19.586 81.2727 19.6793 81.282 19.726C81.3007 19.7633 81.352 19.8147 81.436 19.88C81.52 19.9453 81.5853 19.9873 81.632 20.006C81.6787 20.0153 81.786 20.02 81.954 20.02H84.922C85.09 20.02 85.1973 20.0153 85.244 20.006C85.2907 19.9873 85.356 19.9453 85.44 19.88C85.524 19.8147 85.5707 19.7633 85.58 19.726C85.5987 19.6793 85.608 19.586 85.608 19.446V17.094C85.608 16.954 85.5987 16.8653 85.58 16.828C85.5707 16.7813 85.524 16.7253 85.44 16.66C85.356 16.5947 85.2907 16.5573 85.244 16.548C85.1973 16.5293 85.09 16.52 84.922 16.52ZM93.937 19.74L94.777 20.44L94.441 20.72C94.273 20.86 94.1563 20.944 94.091 20.972C94.035 20.9907 93.923 21 93.755 21H90.017C89.793 21 89.569 20.9067 89.345 20.72L89.009 20.44C88.785 20.2533 88.673 20.02 88.673 19.74V15.26C88.673 14.98 88.785 14.7467 89.009 14.56L89.345 14.28C89.569 14.0933 89.793 14 90.017 14H93.279C93.4657 14 93.6897 14.0933 93.951 14.28L94.301 14.56C94.525 14.728 94.637 14.9613 94.637 15.26V18.13H89.849V19.446C89.849 19.586 89.8537 19.6793 89.863 19.726C89.8817 19.7633 89.933 19.8147 90.017 19.88C90.101 19.9453 90.1663 19.9873 90.213 20.006C90.2597 20.0153 90.367 20.02 90.535 20.02H93.251C93.419 20.02 93.531 20.0107 93.587 19.992C93.6523 19.964 93.769 19.88 93.937 19.74ZM93.461 17.22V15.554C93.461 15.414 93.4517 15.3253 93.433 15.288C93.4237 15.2413 93.377 15.1853 93.293 15.12C93.209 15.0547 93.1437 15.0173 93.097 15.008C93.0503 14.9893 92.943 14.98 92.775 14.98H90.535C90.367 14.98 90.2597 14.9893 90.213 15.008C90.1663 15.0173 90.101 15.0547 90.017 15.12C89.933 15.1853 89.8817 15.2413 89.863 15.288C89.8537 15.3253 89.849 15.414 89.849 15.554V17.22H93.461ZM96.3856 10.64H97.5616V19.25C97.5616 19.4647 97.5709 19.6 97.5896 19.656C97.6083 19.7027 97.6736 19.7633 97.7856 19.838C97.9069 19.9313 97.9769 20.006 97.9956 20.062C98.0236 20.1087 98.0376 20.2393 98.0376 20.454V21H97.6176C97.4403 21 97.3236 20.9907 97.2676 20.972C97.2116 20.9533 97.1136 20.8973 96.9736 20.804L96.6656 20.594C96.5256 20.5007 96.4416 20.426 96.4136 20.37C96.3949 20.314 96.3856 20.1787 96.3856 19.964V10.64ZM105.052 19.74L105.892 20.44L105.556 20.72C105.388 20.86 105.272 20.944 105.206 20.972C105.15 20.9907 105.038 21 104.87 21H101.132C100.908 21 100.684 20.9067 100.46 20.72L100.124 20.44C99.9002 20.2533 99.7882 20.02 99.7882 19.74V15.26C99.7882 14.98 99.9002 14.7467 100.124 14.56L100.46 14.28C100.684 14.0933 100.908 14 101.132 14H104.394C104.581 14 104.805 14.0933 105.066 14.28L105.416 14.56C105.64 14.728 105.752 14.9613 105.752 15.26V18.13H100.964V19.446C100.964 19.586 100.969 19.6793 100.978 19.726C100.997 19.7633 101.048 19.8147 101.132 19.88C101.216 19.9453 101.282 19.9873 101.328 20.006C101.375 20.0153 101.482 20.02 101.65 20.02H104.366C104.534 20.02 104.646 20.0107 104.702 19.992C104.768 19.964 104.884 19.88 105.052 19.74ZM104.576 17.22V15.554C104.576 15.414 104.567 15.3253 104.548 15.288C104.539 15.2413 104.492 15.1853 104.408 15.12C104.324 15.0547 104.259 15.0173 104.212 15.008C104.166 14.9893 104.058 14.98 103.89 14.98H101.65C101.482 14.98 101.375 14.9893 101.328 15.008C101.282 15.0173 101.216 15.0547 101.132 15.12C101.048 15.1853 100.997 15.2413 100.978 15.288C100.969 15.3253 100.964 15.414 100.964 15.554V17.22H104.576ZM113.031 15.82H111.855V15.554C111.855 15.414 111.845 15.3253 111.827 15.288C111.817 15.2413 111.771 15.1853 111.687 15.12C111.603 15.0547 111.537 15.0173 111.491 15.008C111.444 14.9893 111.337 14.98 111.169 14.98H109.293C109.125 14.98 109.017 14.9893 108.971 15.008C108.924 15.0173 108.859 15.0547 108.775 15.12C108.691 15.1853 108.639 15.2413 108.621 15.288C108.611 15.3253 108.607 15.414 108.607 15.554V19.446C108.607 19.586 108.611 19.6793 108.621 19.726C108.639 19.7633 108.691 19.8147 108.775 19.88C108.859 19.9453 108.924 19.9873 108.971 20.006C109.017 20.0153 109.125 20.02 109.293 20.02H111.169C111.337 20.02 111.444 20.0153 111.491 20.006C111.537 19.9873 111.603 19.9453 111.687 19.88C111.771 19.8147 111.817 19.7633 111.827 19.726C111.845 19.6793 111.855 19.586 111.855 19.446V19.18H113.031V19.74C113.031 20.02 112.919 20.2533 112.695 20.44L112.359 20.72C112.135 20.9067 111.911 21 111.687 21H108.775C108.551 21 108.327 20.9067 108.103 20.72L107.767 20.44C107.543 20.2533 107.431 20.02 107.431 19.74V15.26C107.431 14.98 107.543 14.7467 107.767 14.56L108.103 14.28C108.327 14.0933 108.551 14 108.775 14H111.687C111.911 14 112.135 14.0933 112.359 14.28L112.695 14.56C112.919 14.7467 113.031 14.98 113.031 15.26V15.82ZM116.246 12.04V14H118.038C118.159 14.0933 118.229 14.168 118.248 14.224C118.276 14.2707 118.29 14.4013 118.29 14.616V14.98H116.246V19.446C116.246 19.586 116.251 19.6793 116.26 19.726C116.279 19.7633 116.33 19.8147 116.414 19.88C116.498 19.9453 116.563 19.9873 116.61 20.006C116.657 20.0153 116.764 20.02 116.932 20.02H118.206C118.327 20.1133 118.397 20.188 118.416 20.244C118.444 20.2907 118.458 20.4213 118.458 20.636V21H116.414C116.19 21 115.966 20.9067 115.742 20.72L115.406 20.44C115.182 20.2533 115.07 20.02 115.07 19.74V14.98H114.398C114.277 14.8867 114.202 14.8167 114.174 14.77C114.155 14.714 114.146 14.5787 114.146 14.364V14H115.07V12.04H116.246ZM128.467 16.52H125.121C124.897 16.52 124.673 16.4267 124.449 16.24L124.071 15.918C123.875 15.7593 123.777 15.5727 123.777 15.358V12.46C123.777 12.18 123.889 11.9467 124.113 11.76L124.449 11.48C124.673 11.2933 124.897 11.2 125.121 11.2H128.845C129.069 11.2 129.293 11.2933 129.517 11.48L129.853 11.76C130.077 11.9467 130.189 12.18 130.189 12.46V13.02H129.013V12.754C129.013 12.614 129.004 12.5253 128.985 12.488C128.976 12.4413 128.929 12.3853 128.845 12.32C128.761 12.2547 128.696 12.2173 128.649 12.208C128.602 12.1893 128.495 12.18 128.327 12.18H125.639C125.471 12.18 125.364 12.1893 125.317 12.208C125.27 12.2173 125.205 12.2547 125.121 12.32C125.037 12.3853 124.986 12.4413 124.967 12.488C124.958 12.5253 124.953 12.614 124.953 12.754V14.966C124.953 15.106 124.958 15.1993 124.967 15.246C124.986 15.2833 125.037 15.3347 125.121 15.4C125.205 15.4653 125.27 15.5073 125.317 15.526C125.364 15.5353 125.471 15.54 125.639 15.54H128.985C129.209 15.54 129.433 15.6333 129.657 15.82L129.993 16.1C130.217 16.2867 130.329 16.52 130.329 16.8V19.74C130.329 20.02 130.217 20.2533 129.993 20.44L129.657 20.72C129.433 20.9067 129.209 21 128.985 21H124.981C124.757 21 124.533 20.9067 124.309 20.72L123.973 20.44C123.749 20.2533 123.637 20.02 123.637 19.74V19.18H124.813V19.446C124.813 19.586 124.818 19.6793 124.827 19.726C124.846 19.7633 124.897 19.8147 124.981 19.88C125.065 19.9453 125.13 19.9873 125.177 20.006C125.224 20.0153 125.331 20.02 125.499 20.02H128.467C128.635 20.02 128.742 20.0153 128.789 20.006C128.836 19.9873 128.901 19.9453 128.985 19.88C129.069 19.8147 129.116 19.7633 129.125 19.726C129.144 19.6793 129.153 19.586 129.153 19.446V17.094C129.153 16.954 129.144 16.8653 129.125 16.828C129.116 16.7813 129.069 16.7253 128.985 16.66C128.901 16.5947 128.836 16.5573 128.789 16.548C128.742 16.5293 128.635 16.52 128.467 16.52ZM134.29 14H136.74C136.964 14 137.188 14.0933 137.412 14.28L137.748 14.56C137.972 14.7467 138.084 14.98 138.084 15.26V21H136.908V15.554C136.908 15.414 136.899 15.3253 136.88 15.288C136.871 15.2413 136.824 15.1853 136.74 15.12C136.656 15.0547 136.591 15.0173 136.544 15.008C136.497 14.9893 136.39 14.98 136.222 14.98H134.43C134.253 14.98 134.131 14.9893 134.066 15.008C134.01 15.0267 133.898 15.0873 133.73 15.19C133.562 15.2927 133.464 15.3673 133.436 15.414C133.408 15.4607 133.394 15.554 133.394 15.694V21H132.218V10.64H133.394V14.658H133.45C133.45 14.574 133.553 14.4433 133.758 14.266C133.963 14.0887 134.141 14 134.29 14ZM140.997 21H139.821V14H140.997V21ZM141.123 11.816V11.928C141.123 12.1053 141.113 12.2173 141.095 12.264C141.085 12.3107 141.043 12.3667 140.969 12.432C140.894 12.5067 140.721 12.544 140.451 12.544H140.381C140.175 12.544 140.049 12.5393 140.003 12.53C139.956 12.5207 139.9 12.488 139.835 12.432C139.769 12.3667 139.727 12.3107 139.709 12.264C139.699 12.2173 139.695 12.1053 139.695 11.928V11.816C139.695 11.6387 139.699 11.5267 139.709 11.48C139.727 11.4333 139.774 11.3773 139.849 11.312C139.905 11.256 139.956 11.2233 140.003 11.214C140.049 11.2047 140.175 11.2 140.381 11.2H140.437C140.717 11.2 140.899 11.2373 140.983 11.312C141.048 11.3773 141.085 11.4333 141.095 11.48C141.113 11.5267 141.123 11.6387 141.123 11.816ZM142.732 14H143.222C143.39 14 143.502 14.014 143.558 14.042C143.623 14.0607 143.712 14.1167 143.824 14.21C143.973 14.3313 144.048 14.448 144.048 14.56H144.104C144.104 14.448 144.206 14.3313 144.412 14.21C144.58 14.1073 144.692 14.0467 144.748 14.028C144.813 14.0093 144.93 14 145.098 14H147.772C147.996 14 148.22 14.0933 148.444 14.28L148.78 14.56C149.004 14.7467 149.116 14.98 149.116 15.26V19.74C149.116 20.02 149.004 20.2533 148.78 20.44L148.444 20.72C148.22 20.9067 147.996 21 147.772 21H145.308C145.065 21 144.841 20.9067 144.636 20.72C144.412 20.496 144.3 20.356 144.3 20.3H144.244V24.64H143.068V15.554C143.068 15.414 143.058 15.3253 143.04 15.288C143.03 15.2413 142.984 15.1853 142.9 15.12C142.816 15.0547 142.764 15.0033 142.746 14.966C142.736 14.9193 142.732 14.826 142.732 14.686V14ZM145.252 20.02H147.254C147.422 20.02 147.529 20.0153 147.576 20.006C147.622 19.9873 147.688 19.9453 147.772 19.88C147.856 19.8147 147.902 19.7633 147.912 19.726C147.93 19.6793 147.94 19.586 147.94 19.446V15.554C147.94 15.414 147.93 15.3253 147.912 15.288C147.902 15.2413 147.856 15.1853 147.772 15.12C147.688 15.0547 147.622 15.0173 147.576 15.008C147.529 14.9893 147.422 14.98 147.254 14.98H145.266C145.098 14.98 144.981 14.9893 144.916 15.008C144.86 15.0267 144.748 15.0873 144.58 15.19C144.412 15.2927 144.314 15.3673 144.286 15.414C144.258 15.4607 144.244 15.554 144.244 15.694V19.18C144.244 19.3667 144.356 19.5533 144.58 19.74C144.804 19.9267 145.028 20.02 145.252 20.02Z" fill="black"/>
<defs>
<clipPath id="clip0_882_5381">
<rect width="24" height="24" fill="white" transform="translate(18 3)"/>
</clipPath>
</defs>
</svg>
