<svg width="205" height="32" viewBox="0 0 205 32" fill="none" xmlns="http://www.w3.org/2000/svg">
<rect width="205" height="32" rx="16" fill="white"/>
<g clip-path="url(#clip0_882_5364)">
<path d="M38.5068 25.5H21.5068L19.5068 14.5H40.5068L38.5068 25.5Z" stroke="black" stroke-miterlimit="10" stroke-linecap="round" stroke-linejoin="round"/>
<path d="M41.5068 12.5H18.5068V14.5H41.5068V12.5Z" stroke="black" stroke-miterlimit="10" stroke-linecap="round" stroke-linejoin="round"/>
<path d="M21.5068 10.5L27.5068 4.5" stroke="black" stroke-miterlimit="10" stroke-linecap="round" stroke-linejoin="round"/>
<path d="M38.5068 10.5L32.5068 4.5" stroke="black" stroke-miterlimit="10" stroke-linecap="round" stroke-linejoin="round"/>
</g>
<path d="M69.7252 13.02H68.5492V12.754C68.5492 12.614 68.5399 12.5253 68.5212 12.488C68.5119 12.4413 68.4652 12.3853 68.3812 12.32C68.2972 12.2547 68.2319 12.2173 68.1852 12.208C68.1386 12.1893 68.0312 12.18 67.8632 12.18H64.4192C64.2512 12.18 64.1439 12.1893 64.0972 12.208C64.0506 12.2173 63.9852 12.2547 63.9012 12.32C63.8172 12.3853 63.7659 12.4413 63.7472 12.488C63.7379 12.5253 63.7332 12.614 63.7332 12.754V19.446C63.7332 19.586 63.7379 19.6793 63.7472 19.726C63.7659 19.7633 63.8172 19.8147 63.9012 19.88C63.9852 19.9453 64.0506 19.9873 64.0972 20.006C64.1439 20.0153 64.2512 20.02 64.4192 20.02H67.8632C68.0312 20.02 68.1386 20.0153 68.1852 20.006C68.2319 19.9873 68.2972 19.9453 68.3812 19.88C68.4652 19.8147 68.5119 19.7633 68.5212 19.726C68.5399 19.6793 68.5492 19.586 68.5492 19.446V16.94H66.4212V15.96H69.7252V19.74C69.7252 20.02 69.6132 20.2533 69.3892 20.44L69.0532 20.72C68.8292 20.9067 68.6052 21 68.3812 21H63.9012C63.6772 21 63.4532 20.9067 63.2292 20.72L62.8932 20.44C62.6692 20.2533 62.5572 20.02 62.5572 19.74V12.46C62.5572 12.18 62.6692 11.9467 62.8932 11.76L63.2292 11.48C63.4532 11.2933 63.6772 11.2 63.9012 11.2H68.3812C68.6052 11.2 68.8292 11.2933 69.0532 11.48L69.3892 11.76C69.6132 11.9467 69.7252 12.18 69.7252 12.46V13.02ZM76.8726 19.74L77.7126 20.44L77.3766 20.72C77.2086 20.86 77.0919 20.944 77.0266 20.972C76.9706 20.9907 76.8586 21 76.6906 21H72.9526C72.7286 21 72.5046 20.9067 72.2806 20.72L71.9446 20.44C71.7206 20.2533 71.6086 20.02 71.6086 19.74V15.26C71.6086 14.98 71.7206 14.7467 71.9446 14.56L72.2806 14.28C72.5046 14.0933 72.7286 14 72.9526 14H76.2146C76.4012 14 76.6252 14.0933 76.8866 14.28L77.2366 14.56C77.4606 14.728 77.5726 14.9613 77.5726 15.26V18.13H72.7846V19.446C72.7846 19.586 72.7892 19.6793 72.7986 19.726C72.8172 19.7633 72.8686 19.8147 72.9526 19.88C73.0366 19.9453 73.1019 19.9873 73.1486 20.006C73.1952 20.0153 73.3026 20.02 73.4706 20.02H76.1866C76.3546 20.02 76.4666 20.0107 76.5226 19.992C76.5879 19.964 76.7046 19.88 76.8726 19.74ZM76.3966 17.22V15.554C76.3966 15.414 76.3872 15.3253 76.3686 15.288C76.3592 15.2413 76.3126 15.1853 76.2286 15.12C76.1446 15.0547 76.0792 15.0173 76.0326 15.008C75.9859 14.9893 75.8786 14.98 75.7106 14.98H73.4706C73.3026 14.98 73.1952 14.9893 73.1486 15.008C73.1019 15.0173 73.0366 15.0547 72.9526 15.12C72.8686 15.1853 72.8172 15.2413 72.7986 15.288C72.7892 15.3253 72.7846 15.414 72.7846 15.554V17.22H76.3966ZM80.8611 12.04V14H82.6531C82.7745 14.0933 82.8445 14.168 82.8631 14.224C82.8911 14.2707 82.9051 14.4013 82.9051 14.616V14.98H80.8611V19.446C80.8611 19.586 80.8658 19.6793 80.8751 19.726C80.8938 19.7633 80.9451 19.8147 81.0291 19.88C81.1131 19.9453 81.1785 19.9873 81.2251 20.006C81.2718 20.0153 81.3791 20.02 81.5471 20.02H82.8211C82.9425 20.1133 83.0125 20.188 83.0311 20.244C83.0591 20.2907 83.0731 20.4213 83.0731 20.636V21H81.0291C80.8051 21 80.5811 20.9067 80.3571 20.72L80.0211 20.44C79.7971 20.2533 79.6851 20.02 79.6851 19.74V14.98H79.0131C78.8918 14.8867 78.8171 14.8167 78.7891 14.77C78.7705 14.714 78.7611 14.5787 78.7611 14.364V14H79.6851V12.04H80.8611ZM89.7221 12.04L89.6801 12.054C89.7455 12.278 89.7781 12.502 89.7781 12.726V21H88.6021V11.2H90.5061L93.5021 19.026C93.5581 19.1847 93.5861 19.3153 93.5861 19.418H93.6421C93.6421 19.3153 93.6701 19.1847 93.7261 19.026L96.7361 11.2H98.6261V21H97.4501V12.726C97.4501 12.502 97.4828 12.278 97.5481 12.054L97.5061 12.04L94.0621 21H93.1661C92.7368 19.9453 92.3261 18.9233 91.9341 17.934C91.5515 16.9447 91.2341 16.1187 90.9821 15.456C90.7301 14.784 90.5108 14.196 90.3241 13.692C90.1375 13.1787 89.9928 12.782 89.8901 12.502C89.7875 12.222 89.7315 12.068 89.7221 12.04ZM102.224 14H105.584C105.808 14 106.032 14.0933 106.256 14.28L106.592 14.56C106.816 14.7467 106.928 14.98 106.928 15.26V19.74C106.928 20.02 106.816 20.2533 106.592 20.44L106.256 20.72C106.032 20.9067 105.808 21 105.584 21H102.224C102 21 101.776 20.9067 101.552 20.72L101.216 20.44C100.992 20.2533 100.88 20.02 100.88 19.74V15.26C100.88 14.98 100.992 14.7467 101.216 14.56L101.552 14.28C101.776 14.0933 102 14 102.224 14ZM105.752 19.446V15.554C105.752 15.414 105.743 15.3253 105.724 15.288C105.715 15.2413 105.668 15.1853 105.584 15.12C105.5 15.0547 105.435 15.0173 105.388 15.008C105.342 14.9893 105.234 14.98 105.066 14.98H102.742C102.574 14.98 102.467 14.9893 102.42 15.008C102.374 15.0173 102.308 15.0547 102.224 15.12C102.14 15.1853 102.089 15.2413 102.07 15.288C102.061 15.3253 102.056 15.414 102.056 15.554V19.446C102.056 19.586 102.061 19.6793 102.07 19.726C102.089 19.7633 102.14 19.8147 102.224 19.88C102.308 19.9453 102.374 19.9873 102.42 20.006C102.467 20.0153 102.574 20.02 102.742 20.02H105.066C105.234 20.02 105.342 20.0153 105.388 20.006C105.435 19.9873 105.5 19.9453 105.584 19.88C105.668 19.8147 105.715 19.7633 105.724 19.726C105.743 19.6793 105.752 19.586 105.752 19.446ZM108.618 14H109.108C109.276 14 109.388 14.014 109.444 14.042C109.51 14.0607 109.598 14.1167 109.71 14.21C109.86 14.3313 109.934 14.448 109.934 14.56H109.99C109.99 14.448 110.093 14.3313 110.298 14.21C110.466 14.1073 110.578 14.0467 110.634 14.028C110.7 14.0093 110.816 14 110.984 14H112.272C112.496 14 112.72 14.0933 112.944 14.28L113.28 14.56L112.44 15.26L112.272 15.12C112.188 15.0547 112.123 15.0173 112.076 15.008C112.03 14.9893 111.922 14.98 111.754 14.98H111.152C110.984 14.98 110.868 14.9893 110.802 15.008C110.746 15.0267 110.634 15.0873 110.466 15.19C110.298 15.2927 110.2 15.3673 110.172 15.414C110.144 15.4607 110.13 15.554 110.13 15.694V21H108.954V15.554C108.954 15.414 108.945 15.3253 108.926 15.288C108.917 15.2413 108.87 15.1853 108.786 15.12C108.702 15.0547 108.651 15.0033 108.632 14.966C108.623 14.9193 108.618 14.826 108.618 14.686V14ZM119.734 19.74L120.574 20.44L120.238 20.72C120.07 20.86 119.953 20.944 119.888 20.972C119.832 20.9907 119.72 21 119.552 21H115.814C115.59 21 115.366 20.9067 115.142 20.72L114.806 20.44C114.582 20.2533 114.47 20.02 114.47 19.74V15.26C114.47 14.98 114.582 14.7467 114.806 14.56L115.142 14.28C115.366 14.0933 115.59 14 115.814 14H119.076C119.263 14 119.487 14.0933 119.748 14.28L120.098 14.56C120.322 14.728 120.434 14.9613 120.434 15.26V18.13H115.646V19.446C115.646 19.586 115.651 19.6793 115.66 19.726C115.679 19.7633 115.73 19.8147 115.814 19.88C115.898 19.9453 115.963 19.9873 116.01 20.006C116.057 20.0153 116.164 20.02 116.332 20.02H119.048C119.216 20.02 119.328 20.0107 119.384 19.992C119.449 19.964 119.566 19.88 119.734 19.74ZM119.258 17.22V15.554C119.258 15.414 119.249 15.3253 119.23 15.288C119.221 15.2413 119.174 15.1853 119.09 15.12C119.006 15.0547 118.941 15.0173 118.894 15.008C118.847 14.9893 118.74 14.98 118.572 14.98H116.332C116.164 14.98 116.057 14.9893 116.01 15.008C115.963 15.0173 115.898 15.0547 115.814 15.12C115.73 15.1853 115.679 15.2413 115.66 15.288C115.651 15.3253 115.646 15.414 115.646 15.554V17.22H119.258ZM125.472 21L128.832 11.2H130.484L133.914 21H132.738L132.01 18.97H127.348L126.648 21H125.472ZM129.686 12.04H129.63C129.63 12.152 129.598 12.2873 129.532 12.446L127.642 18.06H131.716L129.784 12.446C129.719 12.2873 129.686 12.152 129.686 12.04ZM142.064 20.02V21H136.016V11.2H137.192V20.02H142.064ZM144.561 17.08V21H143.385V11.2H148.565C148.789 11.2 149.013 11.2933 149.237 11.48L149.573 11.76C149.797 11.9467 149.909 12.18 149.909 12.46V15.82C149.909 16.1 149.797 16.3333 149.573 16.52L149.237 16.8C149.013 16.9867 148.789 17.08 148.565 17.08H144.561ZM144.561 12.18V16.1H148.047C148.215 16.1 148.323 16.0953 148.369 16.086C148.416 16.0673 148.481 16.0253 148.565 15.96C148.649 15.8947 148.696 15.8433 148.705 15.806C148.724 15.7593 148.733 15.666 148.733 15.526V12.754C148.733 12.614 148.724 12.5253 148.705 12.488C148.696 12.4413 148.649 12.3853 148.565 12.32C148.481 12.2547 148.416 12.2173 148.369 12.208C148.323 12.1893 148.215 12.18 148.047 12.18H144.561ZM158.626 11.2H159.802V21H158.626V16.45H153.53V21H152.354V11.2H153.53V15.54H158.626V11.2ZM161.908 21L165.268 11.2H166.92L170.35 21H169.174L168.446 18.97H163.784L163.084 21H161.908ZM166.122 12.04H166.066C166.066 12.152 166.033 12.2873 165.968 12.446L164.078 18.06H168.152L166.22 12.446C166.155 12.2873 166.122 12.152 166.122 12.04ZM176.932 16.52H173.586C173.362 16.52 173.138 16.4267 172.914 16.24L172.536 15.918C172.34 15.7593 172.242 15.5727 172.242 15.358V12.46C172.242 12.18 172.354 11.9467 172.578 11.76L172.914 11.48C173.138 11.2933 173.362 11.2 173.586 11.2H177.31C177.534 11.2 177.758 11.2933 177.982 11.48L178.318 11.76C178.542 11.9467 178.654 12.18 178.654 12.46V13.02H177.478V12.754C177.478 12.614 177.468 12.5253 177.45 12.488C177.44 12.4413 177.394 12.3853 177.31 12.32C177.226 12.2547 177.16 12.2173 177.114 12.208C177.067 12.1893 176.96 12.18 176.792 12.18H174.104C173.936 12.18 173.828 12.1893 173.782 12.208C173.735 12.2173 173.67 12.2547 173.586 12.32C173.502 12.3853 173.45 12.4413 173.432 12.488C173.422 12.5253 173.418 12.614 173.418 12.754V14.966C173.418 15.106 173.422 15.1993 173.432 15.246C173.45 15.2833 173.502 15.3347 173.586 15.4C173.67 15.4653 173.735 15.5073 173.782 15.526C173.828 15.5353 173.936 15.54 174.104 15.54H177.45C177.674 15.54 177.898 15.6333 178.122 15.82L178.458 16.1C178.682 16.2867 178.794 16.52 178.794 16.8V19.74C178.794 20.02 178.682 20.2533 178.458 20.44L178.122 20.72C177.898 20.9067 177.674 21 177.45 21H173.446C173.222 21 172.998 20.9067 172.774 20.72L172.438 20.44C172.214 20.2533 172.102 20.02 172.102 19.74V19.18H173.278V19.446C173.278 19.586 173.282 19.6793 173.292 19.726C173.31 19.7633 173.362 19.8147 173.446 19.88C173.53 19.9453 173.595 19.9873 173.642 20.006C173.688 20.0153 173.796 20.02 173.964 20.02H176.932C177.1 20.02 177.207 20.0153 177.254 20.006C177.3 19.9873 177.366 19.9453 177.45 19.88C177.534 19.8147 177.58 19.7633 177.59 19.726C177.608 19.6793 177.618 19.586 177.618 19.446V17.094C177.618 16.954 177.608 16.8653 177.59 16.828C177.58 16.7813 177.534 16.7253 177.45 16.66C177.366 16.5947 177.3 16.5573 177.254 16.548C177.207 16.5293 177.1 16.52 176.932 16.52Z" fill="black"/>
<defs>
<clipPath id="clip0_882_5364">
<rect width="24" height="24" fill="white" transform="translate(18 3)"/>
</clipPath>
</defs>
</svg>
