<svg width="120" height="32" viewBox="0 0 120 32" fill="none" xmlns="http://www.w3.org/2000/svg">
<rect width="120" height="32" rx="16" fill="black"/>
<g clip-path="url(#clip0_891_12365)">
<path d="M31.125 16.625V24.125C31.125 24.4565 30.9933 24.7745 30.7589 25.0089C30.5245 25.2433 30.2065 25.375 29.875 25.375H16.125C15.7935 25.375 15.4755 25.2433 15.2411 25.0089C15.0067 24.7745 14.875 24.4565 14.875 24.125V16.625" stroke="white" stroke-width="1.5" stroke-linecap="round" stroke-linejoin="round"/>
<path d="M30.6233 6.625H15.3767C15.2344 6.62498 15.0964 6.67342 14.9854 6.76234C14.8743 6.85125 14.7969 6.97535 14.7658 7.11417L13.625 12.25C13.625 12.7473 13.8225 13.2242 14.1742 13.5758C14.5258 13.9275 15.0027 14.125 15.5 14.125C15.9973 14.125 16.4742 13.9275 16.8258 13.5758C17.1775 13.2242 17.375 12.7473 17.375 12.25C17.375 12.7473 17.5725 13.2242 17.9242 13.5758C18.2758 13.9275 18.7527 14.125 19.25 14.125C19.7473 14.125 20.2242 13.9275 20.5758 13.5758C20.9275 13.2242 21.125 12.7473 21.125 12.25C21.125 12.7473 21.3225 13.2242 21.6742 13.5758C22.0258 13.9275 22.5027 14.125 23 14.125C23.4973 14.125 23.9742 13.9275 24.3258 13.5758C24.6775 13.2242 24.875 12.7473 24.875 12.25C24.875 12.7473 25.0725 13.2242 25.4242 13.5758C25.7758 13.9275 26.2527 14.125 26.75 14.125C27.2473 14.125 27.7242 13.9275 28.0758 13.5758C28.4275 13.2242 28.625 12.7473 28.625 12.25C28.625 12.7473 28.8225 13.2242 29.1742 13.5758C29.5258 13.9275 30.0027 14.125 30.5 14.125C30.9973 14.125 31.4742 13.9275 31.8258 13.5758C32.1775 13.2242 32.375 12.7473 32.375 12.25L31.2333 7.11417C31.2026 6.97534 31.1253 6.85118 31.0144 6.76223C30.9035 6.67328 30.7655 6.62486 30.6233 6.625Z" stroke="white" stroke-width="1.5" stroke-linecap="round" stroke-linejoin="round"/>
<path d="M14.875 20.375H25.5" stroke="white" stroke-width="1.5" stroke-linecap="round" stroke-linejoin="round"/>
<path d="M25.5 25.375V16.625" stroke="white" stroke-width="1.5" stroke-linecap="round" stroke-linejoin="round"/>
</g>
<path d="M50.3037 17.7598C50.3356 18.3294 50.4701 18.792 50.707 19.1475C51.1582 19.8128 51.9535 20.1455 53.0928 20.1455C53.6032 20.1455 54.068 20.0726 54.4873 19.9268C55.2985 19.6442 55.7041 19.1383 55.7041 18.4092C55.7041 17.8623 55.5332 17.4727 55.1914 17.2402C54.8451 17.0124 54.3027 16.8141 53.5645 16.6455L52.2041 16.3379C51.3154 16.1374 50.6865 15.9163 50.3174 15.6748C49.6794 15.2555 49.3604 14.6289 49.3604 13.7949C49.3604 12.8926 49.6725 12.152 50.2969 11.5732C50.9212 10.9945 51.8053 10.7051 52.9492 10.7051C54.002 10.7051 54.8952 10.9603 55.6289 11.4707C56.3672 11.9766 56.7363 12.7878 56.7363 13.9043H55.458C55.3896 13.3665 55.2438 12.9541 55.0205 12.667C54.6058 12.1429 53.9017 11.8809 52.9082 11.8809C52.1061 11.8809 51.5296 12.0495 51.1787 12.3867C50.8278 12.724 50.6523 13.1159 50.6523 13.5625C50.6523 14.0547 50.8574 14.4147 51.2676 14.6426C51.5365 14.7884 52.1449 14.9707 53.0928 15.1895L54.501 15.5107C55.18 15.6657 55.7041 15.8776 56.0732 16.1465C56.7113 16.6159 57.0303 17.2972 57.0303 18.1904C57.0303 19.3024 56.6247 20.0977 55.8135 20.5762C55.0068 21.0547 54.068 21.2939 52.9971 21.2939C51.7484 21.2939 50.7708 20.9749 50.0645 20.3369C49.3581 19.7035 49.0117 18.8444 49.0254 17.7598H50.3037ZM61.6377 13.5146C62.1572 13.5146 62.6608 13.6377 63.1484 13.8838C63.6361 14.1253 64.0075 14.4398 64.2627 14.8271C64.5088 15.1963 64.6729 15.627 64.7549 16.1191C64.8278 16.4564 64.8643 16.9941 64.8643 17.7324H59.498C59.5208 18.4753 59.6963 19.0723 60.0244 19.5234C60.3525 19.9701 60.8607 20.1934 61.5488 20.1934C62.1914 20.1934 62.7041 19.9814 63.0869 19.5576C63.3057 19.3115 63.4606 19.0267 63.5518 18.7031H64.7617C64.7298 18.972 64.6227 19.2728 64.4404 19.6055C64.2627 19.9336 64.0622 20.2025 63.8389 20.4121C63.4652 20.7767 63.0026 21.0228 62.4512 21.1504C62.1549 21.2233 61.82 21.2598 61.4463 21.2598C60.5348 21.2598 59.7624 20.9294 59.1289 20.2686C58.4954 19.6032 58.1787 18.6735 58.1787 17.4795C58.1787 16.3037 58.4977 15.349 59.1357 14.6152C59.7738 13.8815 60.6077 13.5146 61.6377 13.5146ZM63.5996 16.7549C63.5495 16.2217 63.4333 15.7956 63.251 15.4766C62.9137 14.8841 62.3509 14.5879 61.5625 14.5879C60.9974 14.5879 60.5234 14.793 60.1406 15.2031C59.7578 15.6087 59.555 16.126 59.5322 16.7549H63.5996ZM66.416 10.958H67.6465V21H66.416V10.958ZM69.5332 10.958H70.7637V21H69.5332V10.958ZM77.5654 17.7598C77.5973 18.3294 77.7318 18.792 77.9688 19.1475C78.4199 19.8128 79.2152 20.1455 80.3545 20.1455C80.8649 20.1455 81.3298 20.0726 81.749 19.9268C82.5602 19.6442 82.9658 19.1383 82.9658 18.4092C82.9658 17.8623 82.7949 17.4727 82.4531 17.2402C82.1068 17.0124 81.5645 16.8141 80.8262 16.6455L79.4658 16.3379C78.5771 16.1374 77.9482 15.9163 77.5791 15.6748C76.9411 15.2555 76.6221 14.6289 76.6221 13.7949C76.6221 12.8926 76.9342 12.152 77.5586 11.5732C78.1829 10.9945 79.0671 10.7051 80.2109 10.7051C81.2637 10.7051 82.1569 10.9603 82.8906 11.4707C83.6289 11.9766 83.998 12.7878 83.998 13.9043H82.7197C82.6514 13.3665 82.5055 12.9541 82.2822 12.667C81.8675 12.1429 81.1634 11.8809 80.1699 11.8809C79.3678 11.8809 78.7913 12.0495 78.4404 12.3867C78.0895 12.724 77.9141 13.1159 77.9141 13.5625C77.9141 14.0547 78.1191 14.4147 78.5293 14.6426C78.7982 14.7884 79.4066 14.9707 80.3545 15.1895L81.7627 15.5107C82.4417 15.6657 82.9658 15.8776 83.335 16.1465C83.973 16.6159 84.292 17.2972 84.292 18.1904C84.292 19.3024 83.8864 20.0977 83.0752 20.5762C82.2686 21.0547 81.3298 21.2939 80.2588 21.2939C79.0101 21.2939 78.0326 20.9749 77.3262 20.3369C76.6198 19.7035 76.2734 18.8444 76.2871 17.7598H77.5654ZM85.8506 10.9238H87.0811V14.6699C87.3727 14.3008 87.6348 14.041 87.8672 13.8906C88.2637 13.6309 88.7581 13.501 89.3506 13.501C90.4124 13.501 91.1325 13.8724 91.5107 14.6152C91.7158 15.0208 91.8184 15.5837 91.8184 16.3037V21H90.5537V16.3857C90.5537 15.848 90.4854 15.4538 90.3486 15.2031C90.1253 14.8021 89.7061 14.6016 89.0908 14.6016C88.5804 14.6016 88.1178 14.777 87.7031 15.1279C87.2884 15.4788 87.0811 16.1419 87.0811 17.1172V21H85.8506V10.9238ZM93.6436 13.7129H94.8945V21H93.6436V13.7129ZM93.6436 10.958H94.8945V12.3525H93.6436V10.958ZM99.8506 20.1729C100.425 20.1729 100.901 19.9336 101.279 19.4551C101.662 18.972 101.854 18.252 101.854 17.2949C101.854 16.7116 101.769 16.2103 101.601 15.791C101.282 14.9844 100.698 14.5811 99.8506 14.5811C98.9984 14.5811 98.415 15.0072 98.1006 15.8594C97.932 16.3151 97.8477 16.8939 97.8477 17.5957C97.8477 18.1608 97.932 18.6416 98.1006 19.0381C98.4196 19.7946 99.0029 20.1729 99.8506 20.1729ZM96.665 13.7129H97.8613V14.6836C98.1074 14.3509 98.3763 14.0934 98.668 13.9111C99.0827 13.6377 99.5703 13.501 100.131 13.501C100.96 13.501 101.664 13.82 102.243 14.458C102.822 15.0915 103.111 15.9984 103.111 17.1787C103.111 18.7738 102.694 19.9131 101.86 20.5967C101.332 21.0296 100.716 21.2461 100.015 21.2461C99.4632 21.2461 99.0007 21.1253 98.627 20.8838C98.4082 20.7471 98.1644 20.5124 97.8955 20.1797V23.9189H96.665V13.7129Z" fill="white"/>
<defs>
<clipPath id="clip0_891_12365">
<rect width="20" height="20" fill="white" transform="translate(13 6)"/>
</clipPath>
</defs>
</svg>
