<svg width="161" height="32" viewBox="0 0 161 32" fill="none" xmlns="http://www.w3.org/2000/svg">
<path d="M0 16C0 7.16344 7.16344 0 16 0H145C153.837 0 161 7.16344 161 16V16C161 24.8366 153.837 32 145 32H16C7.16344 32 0 24.8366 0 16V16Z" fill="white"/>
<g clip-path="url(#clip0_958_8174)">
<path d="M36.5068 25.5H19.5068L17.5068 14.5H38.5068L36.5068 25.5Z" stroke="black" stroke-miterlimit="10" stroke-linecap="round" stroke-linejoin="round"/>
<path d="M39.5068 12.5H16.5068V14.5H39.5068V12.5Z" stroke="black" stroke-miterlimit="10" stroke-linecap="round" stroke-linejoin="round"/>
<path d="M19.5068 10.5L25.5068 4.5" stroke="black" stroke-miterlimit="10" stroke-linecap="round" stroke-linejoin="round"/>
<path d="M36.5068 10.5L30.5068 4.5" stroke="black" stroke-miterlimit="10" stroke-linecap="round" stroke-linejoin="round"/>
</g>
<path d="M57.2783 15.2031C57.8525 15.2031 58.2992 15.1234 58.6182 14.9639C59.1195 14.7132 59.3701 14.262 59.3701 13.6104C59.3701 12.9541 59.1035 12.512 58.5703 12.2842C58.2695 12.1566 57.8229 12.0928 57.2305 12.0928H54.8037V15.2031H57.2783ZM57.7363 19.8379C58.5703 19.8379 59.165 19.5964 59.5205 19.1133C59.7438 18.8079 59.8555 18.4388 59.8555 18.0059C59.8555 17.2767 59.5296 16.7799 58.8779 16.5156C58.5316 16.3743 58.0736 16.3037 57.5039 16.3037H54.8037V19.8379H57.7363ZM53.4707 10.958H57.7842C58.96 10.958 59.7962 11.3089 60.293 12.0107C60.5846 12.4255 60.7305 12.904 60.7305 13.4463C60.7305 14.0798 60.5505 14.5993 60.1904 15.0049C60.0036 15.2191 59.7347 15.415 59.3838 15.5928C59.8988 15.7887 60.2839 16.0098 60.5391 16.2559C60.9902 16.6934 61.2158 17.2972 61.2158 18.0674C61.2158 18.7145 61.013 19.3001 60.6074 19.8242C60.0013 20.6081 59.0374 21 57.7158 21H53.4707V10.958ZM63.9092 13.6787V18.5391C63.9092 18.9128 63.9684 19.2181 64.0869 19.4551C64.3057 19.8926 64.7135 20.1113 65.3105 20.1113C66.1673 20.1113 66.7507 19.7285 67.0605 18.9629C67.2292 18.5527 67.3135 17.9899 67.3135 17.2744V13.6787H68.5439V21H67.3818L67.3955 19.9199C67.236 20.1979 67.0378 20.4326 66.8008 20.624C66.3314 21.0068 65.7617 21.1982 65.0918 21.1982C64.0482 21.1982 63.3372 20.8496 62.959 20.1523C62.7539 19.7786 62.6514 19.2796 62.6514 18.6553V13.6787H63.9092ZM75.0449 13.6787H76.4053C76.2321 14.1481 75.847 15.2191 75.25 16.8916C74.8034 18.1494 74.4297 19.1748 74.1289 19.9678C73.418 21.8363 72.9167 22.9756 72.625 23.3857C72.3333 23.7959 71.832 24.001 71.1211 24.001C70.9479 24.001 70.8135 23.9941 70.7178 23.9805C70.6266 23.9668 70.5127 23.9417 70.376 23.9053V22.7842C70.5902 22.8434 70.7451 22.8799 70.8408 22.8936C70.9365 22.9072 71.0208 22.9141 71.0938 22.9141C71.3216 22.9141 71.488 22.8753 71.5928 22.7979C71.7021 22.7249 71.7933 22.6338 71.8662 22.5244C71.889 22.488 71.971 22.3011 72.1123 21.9639C72.2536 21.6266 72.3561 21.376 72.4199 21.2119L69.7129 13.6787H71.1074L73.0693 19.6396L75.0449 13.6787ZM85.9209 16.8848L84.3965 12.4482L82.7764 16.8848H85.9209ZM83.6855 10.958H85.2236L88.8672 21H87.377L86.3584 17.9922H82.3867L81.2998 21H79.9053L83.6855 10.958ZM90.7197 17.4248C90.7197 18.2087 90.8861 18.8649 91.2188 19.3936C91.5514 19.9222 92.0846 20.1865 92.8184 20.1865C93.388 20.1865 93.8551 19.9427 94.2197 19.4551C94.5889 18.9629 94.7734 18.2588 94.7734 17.3428C94.7734 16.4176 94.5843 15.734 94.2061 15.292C93.8278 14.8454 93.3607 14.6221 92.8047 14.6221C92.1849 14.6221 91.6813 14.859 91.2939 15.333C90.9111 15.807 90.7197 16.5042 90.7197 17.4248ZM92.5723 13.5488C93.1328 13.5488 93.6022 13.6673 93.9805 13.9043C94.1992 14.041 94.4476 14.2803 94.7256 14.6221V10.9238H95.9082V21H94.8008V19.9814C94.5137 20.4326 94.1742 20.7585 93.7822 20.959C93.3903 21.1595 92.9414 21.2598 92.4355 21.2598C91.6198 21.2598 90.9134 20.918 90.3164 20.2344C89.7194 19.5462 89.4209 18.6325 89.4209 17.4932C89.4209 16.4268 89.6921 15.5039 90.2344 14.7246C90.7812 13.9408 91.5605 13.5488 92.5723 13.5488ZM98.335 13.6787L100.29 19.6396L102.334 13.6787H103.681L100.919 21H99.6064L96.9062 13.6787H98.335ZM107.782 13.5146C108.302 13.5146 108.805 13.6377 109.293 13.8838C109.781 14.1253 110.152 14.4398 110.407 14.8271C110.653 15.1963 110.817 15.627 110.899 16.1191C110.972 16.4564 111.009 16.9941 111.009 17.7324H105.643C105.665 18.4753 105.841 19.0723 106.169 19.5234C106.497 19.9701 107.005 20.1934 107.693 20.1934C108.336 20.1934 108.849 19.9814 109.231 19.5576C109.45 19.3115 109.605 19.0267 109.696 18.7031H110.906C110.874 18.972 110.767 19.2728 110.585 19.6055C110.407 19.9336 110.207 20.2025 109.983 20.4121C109.61 20.7767 109.147 21.0228 108.596 21.1504C108.299 21.2233 107.965 21.2598 107.591 21.2598C106.679 21.2598 105.907 20.9294 105.273 20.2686C104.64 19.6032 104.323 18.6735 104.323 17.4795C104.323 16.3037 104.642 15.349 105.28 14.6152C105.918 13.8815 106.752 13.5146 107.782 13.5146ZM109.744 16.7549C109.694 16.2217 109.578 15.7956 109.396 15.4766C109.058 14.8841 108.495 14.5879 107.707 14.5879C107.142 14.5879 106.668 14.793 106.285 15.2031C105.902 15.6087 105.7 16.126 105.677 16.7549H109.744ZM112.526 13.6787H113.695V14.7178C114.042 14.2894 114.409 13.9818 114.796 13.7949C115.183 13.6081 115.614 13.5146 116.088 13.5146C117.127 13.5146 117.829 13.877 118.193 14.6016C118.394 14.998 118.494 15.5654 118.494 16.3037V21H117.243V16.3857C117.243 15.9391 117.177 15.5791 117.045 15.3057C116.826 14.8499 116.43 14.6221 115.855 14.6221C115.564 14.6221 115.325 14.6517 115.138 14.7109C114.8 14.8112 114.504 15.0117 114.249 15.3125C114.044 15.554 113.91 15.8047 113.846 16.0645C113.786 16.3197 113.757 16.6865 113.757 17.165V21H112.526V13.6787ZM120.565 11.6348H121.81V13.6787H122.979V14.6836H121.81V19.4619C121.81 19.7171 121.896 19.888 122.069 19.9746C122.165 20.0247 122.325 20.0498 122.548 20.0498C122.607 20.0498 122.671 20.0498 122.739 20.0498C122.808 20.0452 122.887 20.0384 122.979 20.0293V21C122.837 21.041 122.689 21.0706 122.534 21.0889C122.384 21.1071 122.22 21.1162 122.042 21.1162C121.468 21.1162 121.078 20.9704 120.873 20.6787C120.668 20.3825 120.565 19.9997 120.565 19.5303V14.6836H119.574V13.6787H120.565V11.6348ZM125.446 13.6787V18.5391C125.446 18.9128 125.506 19.2181 125.624 19.4551C125.843 19.8926 126.251 20.1113 126.848 20.1113C127.704 20.1113 128.288 19.7285 128.598 18.9629C128.766 18.5527 128.851 17.9899 128.851 17.2744V13.6787H130.081V21H128.919L128.933 19.9199C128.773 20.1979 128.575 20.4326 128.338 20.624C127.868 21.0068 127.299 21.1982 126.629 21.1982C125.585 21.1982 124.874 20.8496 124.496 20.1523C124.291 19.7786 124.188 19.2796 124.188 18.6553V13.6787H125.446ZM132.043 13.6787H133.212V14.9434C133.308 14.6973 133.542 14.3988 133.916 14.0479C134.29 13.6924 134.72 13.5146 135.208 13.5146C135.231 13.5146 135.27 13.5169 135.324 13.5215C135.379 13.526 135.472 13.5352 135.604 13.5488V14.8477C135.532 14.834 135.463 14.8249 135.399 14.8203C135.34 14.8158 135.274 14.8135 135.201 14.8135C134.581 14.8135 134.105 15.014 133.772 15.415C133.44 15.8115 133.273 16.2695 133.273 16.7891V21H132.043V13.6787ZM139.72 13.5146C140.239 13.5146 140.743 13.6377 141.23 13.8838C141.718 14.1253 142.09 14.4398 142.345 14.8271C142.591 15.1963 142.755 15.627 142.837 16.1191C142.91 16.4564 142.946 16.9941 142.946 17.7324H137.58C137.603 18.4753 137.778 19.0723 138.106 19.5234C138.435 19.9701 138.943 20.1934 139.631 20.1934C140.273 20.1934 140.786 19.9814 141.169 19.5576C141.388 19.3115 141.543 19.0267 141.634 18.7031H142.844C142.812 18.972 142.705 19.2728 142.522 19.6055C142.345 19.9336 142.144 20.2025 141.921 20.4121C141.547 20.7767 141.085 21.0228 140.533 21.1504C140.237 21.2233 139.902 21.2598 139.528 21.2598C138.617 21.2598 137.844 20.9294 137.211 20.2686C136.577 19.6032 136.261 18.6735 136.261 17.4795C136.261 16.3037 136.58 15.349 137.218 14.6152C137.856 13.8815 138.69 13.5146 139.72 13.5146ZM141.682 16.7549C141.632 16.2217 141.515 15.7956 141.333 15.4766C140.996 14.8841 140.433 14.5879 139.645 14.5879C139.079 14.5879 138.605 14.793 138.223 15.2031C137.84 15.6087 137.637 16.126 137.614 16.7549H141.682Z" fill="black"/>
<defs>
<clipPath id="clip0_958_8174">
<rect width="24" height="24" fill="white" transform="translate(16 3)"/>
</clipPath>
</defs>
</svg>
