<svg width="210" height="32" viewBox="0 0 210 32" fill="none" xmlns="http://www.w3.org/2000/svg">
<rect width="210" height="32" rx="16" fill="black"/>
<g clip-path="url(#clip0_882_9218)">
<path d="M45.75 16.75V25.75C45.75 26.1478 45.592 26.5294 45.3107 26.8107C45.0294 27.092 44.6478 27.25 44.25 27.25H27.75C27.3522 27.25 26.9706 27.092 26.6893 26.8107C26.408 26.5294 26.25 26.1478 26.25 25.75V16.75" stroke="white" stroke-width="1.5" stroke-linecap="round" stroke-linejoin="round"/>
<path d="M45.148 4.75H26.852C26.6813 4.74997 26.5157 4.8081 26.3824 4.9148C26.2492 5.02151 26.1563 5.17042 26.119 5.337L24.75 11.5C24.75 12.0967 24.9871 12.669 25.409 13.091C25.831 13.5129 26.4033 13.75 27 13.75C27.5967 13.75 28.169 13.5129 28.591 13.091C29.0129 12.669 29.25 12.0967 29.25 11.5C29.25 12.0967 29.4871 12.669 29.909 13.091C30.331 13.5129 30.9033 13.75 31.5 13.75C32.0967 13.75 32.669 13.5129 33.091 13.091C33.5129 12.669 33.75 12.0967 33.75 11.5C33.75 12.0967 33.9871 12.669 34.409 13.091C34.831 13.5129 35.4033 13.75 36 13.75C36.5967 13.75 37.169 13.5129 37.591 13.091C38.0129 12.669 38.25 12.0967 38.25 11.5C38.25 12.0967 38.4871 12.669 38.909 13.091C39.331 13.5129 39.9033 13.75 40.5 13.75C41.0967 13.75 41.669 13.5129 42.091 13.091C42.5129 12.669 42.75 12.0967 42.75 11.5C42.75 12.0967 42.9871 12.669 43.409 13.091C43.831 13.5129 44.4033 13.75 45 13.75C45.5967 13.75 46.169 13.5129 46.591 13.091C47.0129 12.669 47.25 12.0967 47.25 11.5L45.88 5.337C45.8431 5.17041 45.7504 5.02142 45.6173 4.91467C45.4842 4.80793 45.3186 4.74983 45.148 4.75Z" stroke="white" stroke-width="1.5" stroke-linecap="round" stroke-linejoin="round"/>
<path d="M26.25 21.25H39" stroke="white" stroke-width="1.5" stroke-linecap="round" stroke-linejoin="round"/>
<path d="M39 27.25V16.75" stroke="white" stroke-width="1.5" stroke-linecap="round" stroke-linejoin="round"/>
</g>
<path d="M66.0938 17.7598C66.1257 18.3294 66.2601 18.792 66.4971 19.1475C66.9482 19.8128 67.7435 20.1455 68.8828 20.1455C69.3932 20.1455 69.8581 20.0726 70.2773 19.9268C71.0885 19.6442 71.4941 19.1383 71.4941 18.4092C71.4941 17.8623 71.3232 17.4727 70.9814 17.2402C70.6351 17.0124 70.0928 16.8141 69.3545 16.6455L67.9941 16.3379C67.1055 16.1374 66.4766 15.9163 66.1074 15.6748C65.4694 15.2555 65.1504 14.6289 65.1504 13.7949C65.1504 12.8926 65.4626 12.152 66.0869 11.5732C66.7113 10.9945 67.5954 10.7051 68.7393 10.7051C69.792 10.7051 70.6852 10.9603 71.4189 11.4707C72.1572 11.9766 72.5264 12.7878 72.5264 13.9043H71.248C71.1797 13.3665 71.0339 12.9541 70.8105 12.667C70.3958 12.1429 69.6917 11.8809 68.6982 11.8809C67.8962 11.8809 67.3197 12.0495 66.9688 12.3867C66.6178 12.724 66.4424 13.1159 66.4424 13.5625C66.4424 14.0547 66.6475 14.4147 67.0576 14.6426C67.3265 14.7884 67.9349 14.9707 68.8828 15.1895L70.291 15.5107C70.9701 15.6657 71.4941 15.8776 71.8633 16.1465C72.5013 16.6159 72.8203 17.2972 72.8203 18.1904C72.8203 19.3024 72.4147 20.0977 71.6035 20.5762C70.7969 21.0547 69.8581 21.2939 68.7871 21.2939C67.5384 21.2939 66.5609 20.9749 65.8545 20.3369C65.1481 19.7035 64.8018 18.8444 64.8154 17.7598H66.0938ZM77.4277 13.5146C77.9473 13.5146 78.4508 13.6377 78.9385 13.8838C79.4261 14.1253 79.7975 14.4398 80.0527 14.8271C80.2988 15.1963 80.4629 15.627 80.5449 16.1191C80.6178 16.4564 80.6543 16.9941 80.6543 17.7324H75.2881C75.3109 18.4753 75.4863 19.0723 75.8145 19.5234C76.1426 19.9701 76.6507 20.1934 77.3389 20.1934C77.9814 20.1934 78.4941 19.9814 78.877 19.5576C79.0957 19.3115 79.2507 19.0267 79.3418 18.7031H80.5518C80.5199 18.972 80.4128 19.2728 80.2305 19.6055C80.0527 19.9336 79.8522 20.2025 79.6289 20.4121C79.2552 20.7767 78.7926 21.0228 78.2412 21.1504C77.945 21.2233 77.61 21.2598 77.2363 21.2598C76.3249 21.2598 75.5524 20.9294 74.9189 20.2686C74.2855 19.6032 73.9688 18.6735 73.9688 17.4795C73.9688 16.3037 74.2878 15.349 74.9258 14.6152C75.5638 13.8815 76.3978 13.5146 77.4277 13.5146ZM79.3896 16.7549C79.3395 16.2217 79.2233 15.7956 79.041 15.4766C78.7038 14.8841 78.141 14.5879 77.3525 14.5879C76.7874 14.5879 76.3135 14.793 75.9307 15.2031C75.5479 15.6087 75.3451 16.126 75.3223 16.7549H79.3896ZM82.2061 10.958H83.4365V21H82.2061V10.958ZM85.3232 10.958H86.5537V21H85.3232V10.958ZM96.876 13.6787H98.2363C98.0632 14.1481 97.6781 15.2191 97.0811 16.8916C96.6344 18.1494 96.2607 19.1748 95.96 19.9678C95.249 21.8363 94.7477 22.9756 94.4561 23.3857C94.1644 23.7959 93.6631 24.001 92.9521 24.001C92.779 24.001 92.6445 23.9941 92.5488 23.9805C92.4577 23.9668 92.3438 23.9417 92.207 23.9053V22.7842C92.4212 22.8434 92.5762 22.8799 92.6719 22.8936C92.7676 22.9072 92.8519 22.9141 92.9248 22.9141C93.1527 22.9141 93.319 22.8753 93.4238 22.7979C93.5332 22.7249 93.6243 22.6338 93.6973 22.5244C93.7201 22.488 93.8021 22.3011 93.9434 21.9639C94.0846 21.6266 94.1872 21.376 94.251 21.2119L91.5439 13.6787H92.9385L94.9004 19.6396L96.876 13.6787ZM102.208 20.207C103.024 20.207 103.582 19.8994 103.883 19.2842C104.188 18.6644 104.341 17.9762 104.341 17.2197C104.341 16.5361 104.231 15.9801 104.013 15.5518C103.666 14.8773 103.069 14.54 102.222 14.54C101.47 14.54 100.923 14.8271 100.581 15.4014C100.239 15.9756 100.068 16.6683 100.068 17.4795C100.068 18.2588 100.239 18.9082 100.581 19.4277C100.923 19.9473 101.465 20.207 102.208 20.207ZM102.256 13.4668C103.199 13.4668 103.997 13.7812 104.648 14.4102C105.3 15.0391 105.626 15.9642 105.626 17.1855C105.626 18.3659 105.339 19.3411 104.765 20.1113C104.19 20.8815 103.299 21.2666 102.092 21.2666C101.085 21.2666 100.285 20.9271 99.6924 20.248C99.0999 19.5645 98.8037 18.6484 98.8037 17.5C98.8037 16.2695 99.1159 15.2897 99.7402 14.5605C100.365 13.8314 101.203 13.4668 102.256 13.4668ZM108.326 13.6787V18.5391C108.326 18.9128 108.385 19.2181 108.504 19.4551C108.723 19.8926 109.131 20.1113 109.728 20.1113C110.584 20.1113 111.168 19.7285 111.478 18.9629C111.646 18.5527 111.73 17.9899 111.73 17.2744V13.6787H112.961V21H111.799L111.812 19.9199C111.653 20.1979 111.455 20.4326 111.218 20.624C110.748 21.0068 110.179 21.1982 109.509 21.1982C108.465 21.1982 107.754 20.8496 107.376 20.1523C107.171 19.7786 107.068 19.2796 107.068 18.6553V13.6787H108.326ZM114.923 13.6787H116.092V14.9434C116.188 14.6973 116.422 14.3988 116.796 14.0479C117.17 13.6924 117.6 13.5146 118.088 13.5146C118.111 13.5146 118.149 13.5169 118.204 13.5215C118.259 13.526 118.352 13.5352 118.484 13.5488V14.8477C118.411 14.834 118.343 14.8249 118.279 14.8203C118.22 14.8158 118.154 14.8135 118.081 14.8135C117.461 14.8135 116.985 15.014 116.652 15.415C116.32 15.8115 116.153 16.2695 116.153 16.7891V21H114.923V13.6787ZM124.391 19.0518C124.391 19.4072 124.521 19.6875 124.78 19.8926C125.04 20.0977 125.348 20.2002 125.703 20.2002C126.136 20.2002 126.555 20.0999 126.961 19.8994C127.645 19.5667 127.986 19.0221 127.986 18.2656V17.2744C127.836 17.3701 127.642 17.4499 127.405 17.5137C127.168 17.5775 126.936 17.623 126.708 17.6504L125.963 17.7461C125.516 17.8053 125.181 17.8988 124.958 18.0264C124.58 18.2406 124.391 18.5824 124.391 19.0518ZM127.371 16.5635C127.654 16.527 127.843 16.4085 127.938 16.208C127.993 16.0986 128.021 15.9414 128.021 15.7363C128.021 15.3171 127.87 15.014 127.569 14.8271C127.273 14.6357 126.847 14.54 126.291 14.54C125.648 14.54 125.193 14.7132 124.924 15.0596C124.773 15.251 124.675 15.5358 124.63 15.9141H123.481C123.504 15.0117 123.796 14.3851 124.356 14.0342C124.922 13.6787 125.576 13.501 126.318 13.501C127.18 13.501 127.879 13.665 128.417 13.9932C128.95 14.3213 129.217 14.8317 129.217 15.5244V19.7422C129.217 19.8698 129.242 19.9723 129.292 20.0498C129.347 20.1273 129.458 20.166 129.627 20.166C129.682 20.166 129.743 20.1637 129.812 20.1592C129.88 20.1501 129.953 20.1387 130.03 20.125V21.0342C129.839 21.0889 129.693 21.123 129.593 21.1367C129.493 21.1504 129.356 21.1572 129.183 21.1572C128.759 21.1572 128.451 21.0068 128.26 20.7061C128.16 20.5465 128.089 20.321 128.048 20.0293C127.797 20.3574 127.437 20.6423 126.968 20.8838C126.498 21.1253 125.981 21.2461 125.416 21.2461C124.737 21.2461 124.181 21.041 123.748 20.6309C123.32 20.2161 123.105 19.6989 123.105 19.0791C123.105 18.4001 123.317 17.8737 123.741 17.5C124.165 17.1263 124.721 16.8962 125.409 16.8096L127.371 16.5635ZM132.02 17.4248C132.02 18.2087 132.186 18.8649 132.519 19.3936C132.851 19.9222 133.384 20.1865 134.118 20.1865C134.688 20.1865 135.155 19.9427 135.52 19.4551C135.889 18.9629 136.073 18.2588 136.073 17.3428C136.073 16.4176 135.884 15.734 135.506 15.292C135.128 14.8454 134.66 14.6221 134.104 14.6221C133.485 14.6221 132.981 14.859 132.594 15.333C132.211 15.807 132.02 16.5042 132.02 17.4248ZM133.872 13.5488C134.433 13.5488 134.902 13.6673 135.28 13.9043C135.499 14.041 135.747 14.2803 136.025 14.6221V10.9238H137.208V21H136.101V19.9814C135.813 20.4326 135.474 20.7585 135.082 20.959C134.69 21.1595 134.241 21.2598 133.735 21.2598C132.92 21.2598 132.213 20.918 131.616 20.2344C131.019 19.5462 130.721 18.6325 130.721 17.4932C130.721 16.4268 130.992 15.5039 131.534 14.7246C132.081 13.9408 132.86 13.5488 133.872 13.5488ZM139.635 13.6787L141.59 19.6396L143.634 13.6787H144.98L142.219 21H140.906L138.206 13.6787H139.635ZM149.082 13.5146C149.602 13.5146 150.105 13.6377 150.593 13.8838C151.08 14.1253 151.452 14.4398 151.707 14.8271C151.953 15.1963 152.117 15.627 152.199 16.1191C152.272 16.4564 152.309 16.9941 152.309 17.7324H146.942C146.965 18.4753 147.141 19.0723 147.469 19.5234C147.797 19.9701 148.305 20.1934 148.993 20.1934C149.636 20.1934 150.148 19.9814 150.531 19.5576C150.75 19.3115 150.905 19.0267 150.996 18.7031H152.206C152.174 18.972 152.067 19.2728 151.885 19.6055C151.707 19.9336 151.507 20.2025 151.283 20.4121C150.91 20.7767 150.447 21.0228 149.896 21.1504C149.599 21.2233 149.264 21.2598 148.891 21.2598C147.979 21.2598 147.207 20.9294 146.573 20.2686C145.94 19.6032 145.623 18.6735 145.623 17.4795C145.623 16.3037 145.942 15.349 146.58 14.6152C147.218 13.8815 148.052 13.5146 149.082 13.5146ZM151.044 16.7549C150.994 16.2217 150.878 15.7956 150.695 15.4766C150.358 14.8841 149.795 14.5879 149.007 14.5879C148.442 14.5879 147.968 14.793 147.585 15.2031C147.202 15.6087 146.999 16.126 146.977 16.7549H151.044ZM153.826 13.6787H154.995V14.7178C155.341 14.2894 155.708 13.9818 156.096 13.7949C156.483 13.6081 156.914 13.5146 157.388 13.5146C158.427 13.5146 159.129 13.877 159.493 14.6016C159.694 14.998 159.794 15.5654 159.794 16.3037V21H158.543V16.3857C158.543 15.9391 158.477 15.5791 158.345 15.3057C158.126 14.8499 157.729 14.6221 157.155 14.6221C156.864 14.6221 156.624 14.6517 156.438 14.7109C156.1 14.8112 155.804 15.0117 155.549 15.3125C155.344 15.554 155.209 15.8047 155.146 16.0645C155.086 16.3197 155.057 16.6865 155.057 17.165V21H153.826V13.6787ZM161.865 11.6348H163.109V13.6787H164.278V14.6836H163.109V19.4619C163.109 19.7171 163.196 19.888 163.369 19.9746C163.465 20.0247 163.624 20.0498 163.848 20.0498C163.907 20.0498 163.971 20.0498 164.039 20.0498C164.107 20.0452 164.187 20.0384 164.278 20.0293V21C164.137 21.041 163.989 21.0706 163.834 21.0889C163.684 21.1071 163.52 21.1162 163.342 21.1162C162.768 21.1162 162.378 20.9704 162.173 20.6787C161.968 20.3825 161.865 19.9997 161.865 19.5303V14.6836H160.874V13.6787H161.865V11.6348ZM166.746 13.6787V18.5391C166.746 18.9128 166.805 19.2181 166.924 19.4551C167.143 19.8926 167.55 20.1113 168.147 20.1113C169.004 20.1113 169.588 19.7285 169.897 18.9629C170.066 18.5527 170.15 17.9899 170.15 17.2744V13.6787H171.381V21H170.219L170.232 19.9199C170.073 20.1979 169.875 20.4326 169.638 20.624C169.168 21.0068 168.599 21.1982 167.929 21.1982C166.885 21.1982 166.174 20.8496 165.796 20.1523C165.591 19.7786 165.488 19.2796 165.488 18.6553V13.6787H166.746ZM173.343 13.6787H174.512V14.9434C174.607 14.6973 174.842 14.3988 175.216 14.0479C175.59 13.6924 176.02 13.5146 176.508 13.5146C176.531 13.5146 176.569 13.5169 176.624 13.5215C176.679 13.526 176.772 13.5352 176.904 13.5488V14.8477C176.831 14.834 176.763 14.8249 176.699 14.8203C176.64 14.8158 176.574 14.8135 176.501 14.8135C175.881 14.8135 175.405 15.014 175.072 15.415C174.74 15.8115 174.573 16.2695 174.573 16.7891V21H173.343V13.6787ZM181.02 13.5146C181.539 13.5146 182.043 13.6377 182.53 13.8838C183.018 14.1253 183.389 14.4398 183.645 14.8271C183.891 15.1963 184.055 15.627 184.137 16.1191C184.21 16.4564 184.246 16.9941 184.246 17.7324H178.88C178.903 18.4753 179.078 19.0723 179.406 19.5234C179.734 19.9701 180.243 20.1934 180.931 20.1934C181.573 20.1934 182.086 19.9814 182.469 19.5576C182.688 19.3115 182.842 19.0267 182.934 18.7031H184.144C184.112 18.972 184.005 19.2728 183.822 19.6055C183.645 19.9336 183.444 20.2025 183.221 20.4121C182.847 20.7767 182.384 21.0228 181.833 21.1504C181.537 21.2233 181.202 21.2598 180.828 21.2598C179.917 21.2598 179.144 20.9294 178.511 20.2686C177.877 19.6032 177.561 18.6735 177.561 17.4795C177.561 16.3037 177.88 15.349 178.518 14.6152C179.156 13.8815 179.99 13.5146 181.02 13.5146ZM182.981 16.7549C182.931 16.2217 182.815 15.7956 182.633 15.4766C182.296 14.8841 181.733 14.5879 180.944 14.5879C180.379 14.5879 179.905 14.793 179.522 15.2031C179.14 15.6087 178.937 16.126 178.914 16.7549H182.981Z" fill="white"/>
<defs>
<clipPath id="clip0_882_9218">
<rect width="24" height="24" fill="white" transform="translate(24 4)"/>
</clipPath>
</defs>
</svg>
