<svg width="1400" height="60" viewBox="0 0 1400 60" fill="none" xmlns="http://www.w3.org/2000/svg">
<rect width="1400" height="60" rx="30" fill="black"/>
<path d="M607.456 20.4138L607.457 20.4138L615.88 20.4402L624.303 20.4667C624.304 20.4667 624.304 20.4667 624.304 20.4667C625.018 20.4676 625.378 21.3258 624.885 21.8365L624.863 21.8592L624.841 21.8818L624.819 21.9044L624.797 21.9271L624.776 21.9497L624.754 21.9723L624.732 21.995L624.71 22.0176L624.688 22.0403L624.666 22.0629L624.644 22.0855L624.623 22.1082L624.601 22.1308L624.579 22.1534L624.557 22.1761L624.535 22.1987L624.513 22.2214L624.491 22.244L624.47 22.2666L624.448 22.2893L624.426 22.3119L624.404 22.3345L624.382 22.3572L624.36 22.3798L624.338 22.4025L624.317 22.4251L624.295 22.4477L624.273 22.4704L624.251 22.493L624.229 22.5156L624.207 22.5383L624.185 22.5609L624.164 22.5836L624.142 22.6062L624.12 22.6288L624.098 22.6515L624.076 22.6741L624.054 22.6967L624.032 22.7194L624.01 22.742L623.989 22.7647L623.967 22.7873L623.945 22.8099L623.923 22.8326L623.901 22.8552L623.879 22.8779L623.857 22.9005L623.836 22.9231L623.814 22.9458L623.792 22.9684L623.77 22.9911L623.748 23.0137L623.726 23.0363L623.704 23.059L623.683 23.0816L623.661 23.1042L623.639 23.1269L623.617 23.1495L623.595 23.1722L623.573 23.1948L623.551 23.2174L623.529 23.2401L623.508 23.2627L623.486 23.2854L623.464 23.308L623.442 23.3306L623.42 23.3533L623.398 23.3759L623.376 23.3986L623.355 23.4212L623.333 23.4438L623.311 23.4665L623.289 23.4891L623.267 23.5118L623.245 23.5344L623.223 23.557L623.202 23.5797L623.18 23.6023L623.158 23.625L623.136 23.6476L623.114 23.6702L623.092 23.6929L623.07 23.7155L623.049 23.7382L623.027 23.7608L623.005 23.7834L622.983 23.8061L622.961 23.8287L622.939 23.8514L622.917 23.874L622.895 23.8967L622.874 23.9193L622.852 23.9419L622.83 23.9646L622.808 23.9872L622.786 24.0099L622.764 24.0325L622.742 24.0551L622.721 24.0778L622.699 24.1004L622.677 24.1231L622.655 24.1457L622.633 24.1683L622.611 24.191L622.589 24.2136L622.567 24.2363L622.546 24.2589L622.524 24.2815L622.502 24.3042L622.48 24.3268L622.458 24.3495L622.436 24.3721L622.414 24.3948L622.393 24.4174L622.371 24.44L622.349 24.4627L622.327 24.4853L622.305 24.508L622.283 24.5306L622.261 24.5532L622.24 24.5759L622.218 24.5985L622.196 24.6212L622.174 24.6438L622.152 24.6665L622.13 24.6891L622.108 24.7117L622.086 24.7344L622.065 24.757L622.043 24.7797L622.021 24.8023L621.999 24.825L621.977 24.8476L621.955 24.8702L621.933 24.8929L621.912 24.9155L621.89 24.9382L621.868 24.9608L621.846 24.9834L621.824 25.0061L621.802 25.0287L621.78 25.0514L621.758 25.074L621.737 25.0967L621.715 25.1193L621.693 25.1419L621.671 25.1646L621.649 25.1872L621.627 25.2099L621.605 25.2325L621.584 25.2552L621.562 25.2778L621.54 25.3004L621.518 25.3231L621.496 25.3457L621.474 25.3684L621.452 25.391L621.431 25.4137L621.409 25.4363L621.387 25.4589L621.365 25.4816L621.343 25.5042L621.321 25.5269L621.299 25.5495L621.277 25.5722L621.256 25.5948L621.234 25.6174L621.212 25.6401L621.19 25.6627L621.168 25.6854L621.146 25.708L621.124 25.7307L621.103 25.7533L621.081 25.7759L621.059 25.7986L621.037 25.8212L621.015 25.8439L620.993 25.8665L620.971 25.8892L620.949 25.9118L620.928 25.9344L620.906 25.9571L620.884 25.9797L620.862 26.0024L620.84 26.025L620.818 26.0477L620.796 26.0703L620.775 26.0929L620.753 26.1156L620.731 26.1382L620.709 26.1609L620.687 26.1835L620.665 26.2062L620.643 26.2288L620.621 26.2515L620.6 26.2741L620.578 26.2967L620.556 26.3194L620.534 26.342L620.512 26.3647L620.49 26.3873L620.468 26.41L620.447 26.4326L620.425 26.4552L620.403 26.4779L620.381 26.5005L620.359 26.5232L620.337 26.5458L620.315 26.5685L620.293 26.5911L620.272 26.6137L620.25 26.6364L620.228 26.659L620.206 26.6817L620.184 26.7043L620.162 26.727L620.14 26.7496L620.119 26.7723L620.097 26.7949L620.075 26.8175L620.053 26.8402L620.031 26.8628L620.009 26.8855L619.987 26.9081L619.965 26.9308L619.944 26.9534L619.922 26.976L619.9 26.9987L619.878 27.0213L619.856 27.044L619.834 27.0666L619.812 27.0893L619.791 27.1119L619.769 27.1346L619.747 27.1572L619.725 27.1798L619.703 27.2025L619.681 27.2251L619.659 27.2478L619.637 27.2704L619.616 27.2931L619.594 27.3157L619.572 27.3384L619.55 27.361L619.528 27.3836L619.506 27.4063L619.484 27.4289L619.463 27.4516L619.441 27.4742L619.419 27.4969L619.397 27.5195L619.375 27.5421L619.353 27.5648L619.331 27.5874L619.309 27.6101L619.288 27.6327L619.266 27.6554L619.244 27.678L619.222 27.7007L619.2 27.7233L619.178 27.7459L619.156 27.7686L619.135 27.7912L619.113 27.8139L619.091 27.8365L619.069 27.8592L619.047 27.8818L619.025 27.9044L619.003 27.9271L618.981 27.9497L618.96 27.9724L618.938 27.995L618.916 28.0177L618.894 28.0403L618.872 28.063L618.85 28.0856L618.828 28.1082L618.807 28.1309L618.785 28.1535L618.763 28.1762L618.741 28.1988L618.719 28.2215L618.697 28.2441L618.675 28.2667L618.653 28.2894L618.632 28.312L618.61 28.3347L618.588 28.3573L618.566 28.38L618.544 28.4026L618.522 28.4253L618.5 28.4479L618.479 28.4705L618.457 28.4932L618.435 28.5158L618.413 28.5385L618.391 28.5611L618.369 28.5838L618.347 28.6064L618.325 28.629L618.304 28.6517L618.282 28.6743L618.26 28.697L618.238 28.7196L618.216 28.7423L618.194 28.7649L618.172 28.7876L618.151 28.8102L618.129 28.8328L618.107 28.8555L618.085 28.8781L618.063 28.9008L618.041 28.9234L618.019 28.9461L617.997 28.9687L617.976 28.9913L617.954 29.014L617.932 29.0366L617.91 29.0593L617.888 29.0819L617.866 29.1046L617.844 29.1272L617.823 29.1499L617.801 29.1725L617.779 29.1951L617.757 29.2178L617.735 29.2404L617.713 29.2631L617.691 29.2857L617.669 29.3084L617.648 29.331L617.626 29.3536L617.604 29.3763L617.582 29.3989L617.56 29.4216L617.538 29.4442L617.516 29.4669L617.495 29.4895L617.473 29.5121L617.451 29.5348L617.429 29.5574L617.407 29.5801L617.385 29.6027L617.363 29.6254L617.341 29.648L617.32 29.6706L617.298 29.6933L617.276 29.7159L617.254 29.7386L617.232 29.7612L617.21 29.7839L617.188 29.8065L617.167 29.8291L617.145 29.8518L617.123 29.8744L617.101 29.8971L617.079 29.9197L617.057 29.9424L617.035 29.965L617.013 29.9876L616.992 30.0103L616.97 30.0329L616.948 30.0556L616.926 30.0782L616.904 30.1009L616.882 30.1235L616.86 30.1461L616.839 30.1688L616.817 30.1914L616.795 30.2141L616.773 30.2367L616.751 30.2594L616.729 30.282L616.707 30.3046L616.685 30.3273L616.664 30.3499L616.642 30.3726L616.62 30.3952L616.598 30.4178L616.576 30.4405L616.554 30.4631L616.532 30.4858L616.511 30.5084L616.489 30.5311L616.467 30.5537L616.445 30.5763L616.423 30.599L616.401 30.6216L616.379 30.6443L616.357 30.6669L616.336 30.6896L616.314 30.7122L616.292 30.7348L616.27 30.7575L616.248 30.7801L616.226 30.8028L616.204 30.8254L616.183 30.848L616.161 30.8707L616.139 30.8933L616.117 30.916L616.095 30.9386L616.073 30.9613L616.051 30.9839L616.03 31.0065L616.008 31.0292L615.986 31.0518L615.964 31.0745L615.942 31.0971L615.92 31.1197L615.898 31.1424L615.876 31.165L615.855 31.1877L615.833 31.2103L615.811 31.2329L615.789 31.2556L615.767 31.2782L615.745 31.3009L615.723 31.3235L615.702 31.3462L615.68 31.3688L615.658 31.3914L615.636 31.4141L615.614 31.4367L615.592 31.4594L615.57 31.482L615.549 31.5046L615.527 31.5273L615.505 31.5499L615.483 31.5726L615.461 31.5952L615.439 31.6178L615.417 31.6405L615.395 31.6631L615.374 31.6858L615.352 31.7084L615.33 31.731L615.308 31.7537L615.286 31.7763L615.264 31.799L615.242 31.8216L615.221 31.8442L615.199 31.8669L615.177 31.8895L615.155 31.9122L615.133 31.9348L615.111 31.9574L615.089 31.9801L615.068 32.0027L615.046 32.0254L615.024 32.048L615.002 32.0706L614.98 32.0933L614.958 32.1159L614.936 32.1386L614.914 32.1612L614.893 32.1838L614.871 32.2065L614.849 32.2291L614.827 32.2518L614.805 32.2744L614.783 32.297L614.761 32.3197L614.74 32.3423L614.718 32.3649L614.696 32.3876L614.674 32.4102L614.652 32.4329L614.63 32.4555L614.608 32.4781L614.587 32.5008L614.565 32.5234L614.543 32.5461L614.521 32.5687L614.499 32.5913L614.477 32.614L614.455 32.6366L614.434 32.6592L614.412 32.6819L614.39 32.7045L614.368 32.7272L614.346 32.7498L614.324 32.7724L614.302 32.7951L614.28 32.8177L614.259 32.8404L614.237 32.863L614.215 32.8856L614.193 32.9083L614.171 32.9309L614.149 32.9535L614.127 32.9762L614.106 32.9988L614.084 33.0215L614.062 33.0441L614.04 33.0667L614.018 33.0894L613.996 33.112L613.974 33.1346L613.953 33.1573L613.931 33.1799L613.909 33.2026L613.887 33.2252L613.865 33.2478L613.843 33.2705L613.821 33.2931L613.8 33.3157L613.778 33.3384L613.756 33.361L613.734 33.3836L613.712 33.4063L613.69 33.4289C613.465 33.6619 613.134 33.7358 612.831 33.6266L612.83 33.6261C609.457 32.3936 606.081 31.1637 602.706 29.9338L602.703 29.9329C602.703 29.9327 602.702 29.9325 602.702 29.9323C602.355 29.8085 602.141 29.4731 602.169 29.111C602.169 29.1108 602.169 29.1105 602.169 29.1103L602.419 25.7039L602.668 22.2973C602.668 22.2971 602.668 22.2969 602.668 22.2967C602.682 22.1011 602.759 21.9302 602.893 21.7917L602.901 21.784L602.908 21.7763L602.915 21.7686L602.923 21.7609L602.93 21.7532L602.938 21.7455L602.945 21.7378L602.953 21.7301L602.96 21.7224L602.967 21.7147L602.975 21.707L602.982 21.6993L602.99 21.6916L602.997 21.6838L603.005 21.6761L603.012 21.6684L603.02 21.6607L603.027 21.653L603.034 21.6453L603.042 21.6376L603.049 21.6299L603.057 21.6222L603.064 21.6145L603.072 21.6068L603.079 21.5991L603.086 21.5914L603.094 21.5837L603.101 21.576L603.109 21.5683L603.116 21.5606L603.124 21.5529L603.131 21.5452L603.139 21.5375L603.146 21.5298L603.153 21.5221L603.161 21.5144L603.168 21.5067L603.176 21.499L603.183 21.4913L603.191 21.4836L603.198 21.4759L603.205 21.4682L603.213 21.4605L603.22 21.4528L603.228 21.4451L603.235 21.4374L603.243 21.4297L603.25 21.422L603.258 21.4143L603.265 21.4066L603.272 21.3989L603.28 21.3912L603.287 21.3835L603.295 21.3758L603.302 21.3681L603.31 21.3604L603.317 21.3527L603.324 21.345L603.332 21.3372L603.339 21.3295L603.347 21.3218L603.354 21.3141L603.362 21.3064L603.369 21.2987L603.377 21.291L603.384 21.2833L603.391 21.2756L603.399 21.2679L603.406 21.2602L603.414 21.2525L603.421 21.2448L603.429 21.2371L603.436 21.2294L603.444 21.2217L603.451 21.214L603.458 21.2063L603.466 21.1986L603.473 21.1909L603.481 21.1832L603.488 21.1755L603.496 21.1678L603.503 21.1601L603.51 21.1524L603.518 21.1447L603.525 21.1369L603.533 21.1292L603.54 21.1215L603.548 21.1138L603.555 21.1061L603.563 21.0984L603.57 21.0907L603.577 21.083L603.585 21.0753L603.592 21.0676L603.6 21.0599L603.607 21.0522L603.615 21.0445L603.622 21.0368L603.63 21.0291L603.637 21.0214L603.644 21.0137L603.652 21.006L603.659 20.9983L603.667 20.9906L603.674 20.9829L603.682 20.9751L603.689 20.9674L603.696 20.9597L603.704 20.952L603.711 20.9443L603.719 20.9366L603.726 20.9289L603.734 20.9212L603.741 20.9135L603.749 20.9058L603.756 20.8981L603.763 20.8904L603.771 20.8827L603.778 20.875L603.786 20.8673L603.793 20.8596L603.801 20.8519L603.808 20.8442L603.816 20.8364L603.823 20.8287L603.83 20.821L603.838 20.8133L603.845 20.8056L603.853 20.7979L603.86 20.7902L603.868 20.7825L603.875 20.7748L603.883 20.7671L603.89 20.7594L603.897 20.7517L603.905 20.744L603.912 20.7363L603.92 20.7286L603.927 20.7209L603.935 20.7132L603.942 20.7054L603.949 20.6977L603.957 20.69L603.964 20.6823L603.972 20.6746L603.979 20.6669L603.987 20.6592L603.994 20.6515L604.002 20.6438L604.009 20.6361L604.016 20.6284L604.024 20.6207L604.031 20.613L604.039 20.6053L604.046 20.5976L604.054 20.5898L604.061 20.5821L604.069 20.5744L604.076 20.5667L604.083 20.559L604.091 20.5513L604.098 20.5436L604.106 20.5359L604.113 20.5282L604.121 20.5205L604.128 20.5128L604.136 20.5051L604.143 20.4974L604.15 20.4897L604.158 20.482L604.165 20.4742L604.173 20.4665L604.18 20.4588L604.188 20.4511L604.195 20.4434L604.203 20.4357L604.21 20.428L604.217 20.4203L604.225 20.4126L604.232 20.4049L604.24 20.3972L604.247 20.3895L604.255 20.3818L604.262 20.3741L604.27 20.3663L604.277 20.3586L604.284 20.3509L604.292 20.3432L604.299 20.3355L604.307 20.3278L604.314 20.3201L604.322 20.3124L604.329 20.3047L604.336 20.297L604.344 20.2893L604.351 20.2816L604.359 20.2739L604.366 20.2662L604.374 20.2584L604.381 20.2507L604.389 20.243L604.396 20.2353L604.403 20.2276L604.411 20.2199L604.418 20.2122L604.426 20.2045L604.433 20.1968L604.441 20.1891L604.448 20.1814L604.456 20.1737L604.463 20.166L604.47 20.1582L604.478 20.1505L604.485 20.1428L604.493 20.1351L604.5 20.1274L604.508 20.1197L604.515 20.112L604.523 20.1043L604.53 20.0966L604.537 20.0889L604.545 20.0812L604.552 20.0735L604.56 20.0658L604.567 20.0581L604.575 20.0503L604.582 20.0426L604.59 20.0349L604.597 20.0272L604.604 20.0195L604.612 20.0118L604.619 20.0041L604.627 19.9964L604.634 19.9887L604.642 19.981L604.649 19.9733L604.657 19.9656L604.664 19.9579L604.671 19.9501L604.679 19.9424L604.686 19.9347L604.694 19.927L604.701 19.9193L604.709 19.9116L604.716 19.9039L604.724 19.8962L604.731 19.8885L604.738 19.8808L604.746 19.8731L604.753 19.8654L604.761 19.8577L604.768 19.8499L604.776 19.8422L604.783 19.8345L604.791 19.8268L604.798 19.8191L604.805 19.8114L604.813 19.8037L604.82 19.796L604.828 19.7883L604.835 19.7806L604.843 19.7729L604.85 19.7652L604.858 19.7574L604.865 19.7497L604.872 19.742L604.88 19.7343L604.887 19.7266L604.895 19.7189L604.902 19.7112L604.91 19.7035L604.917 19.6958L604.925 19.6881L604.932 19.6804L604.939 19.6727L604.947 19.665L604.954 19.6572L604.962 19.6495L604.969 19.6418L604.977 19.6341L604.984 19.6264L604.991 19.6187L604.999 19.611L605.006 19.6033L605.014 19.5956L605.021 19.5879L605.029 19.5802L605.036 19.5725L605.044 19.5648L605.051 19.557L605.058 19.5493L605.066 19.5416L605.073 19.5339L605.081 19.5262L605.088 19.5185L605.096 19.5108L605.103 19.5031L605.111 19.4954L605.118 19.4877L605.125 19.48L605.133 19.4723L605.14 19.4646L605.148 19.4569L605.155 19.4491L605.163 19.4414L605.17 19.4337L605.178 19.426L605.185 19.4183L605.192 19.4106L605.2 19.4029L605.207 19.3952L605.215 19.3875L605.222 19.3798L605.23 19.3721L605.237 19.3644L605.245 19.3567L605.252 19.3489L605.259 19.3412L605.267 19.3335L605.274 19.3258L605.282 19.3181L605.289 19.3104L605.297 19.3027L605.304 19.295L605.312 19.2873L605.319 19.2796L605.326 19.2719L605.334 19.2642L605.341 19.2565L605.349 19.2488L605.356 19.241L605.364 19.2333L605.371 19.2256L605.379 19.2179L605.386 19.2102L605.393 19.2025L605.401 19.1948L605.408 19.1871L605.416 19.1794L605.423 19.1717L605.431 19.164L605.438 19.1563L605.446 19.1486L605.453 19.1409L605.46 19.1331L605.468 19.1254L605.475 19.1177L605.483 19.11L605.49 19.1023L605.498 19.0946L605.505 19.0869L605.512 19.0792L605.52 19.0715L605.527 19.0638L605.535 19.0561L605.542 19.0484L605.55 19.0407L605.557 19.033L605.565 19.0253L605.572 19.0175L605.579 19.0098L605.587 19.0021L605.594 18.9944L605.602 18.9867L605.609 18.979L605.617 18.9713L605.624 18.9636L605.632 18.9559L605.639 18.9482L605.646 18.9405L605.654 18.9328L605.661 18.9251L605.669 18.9174L605.676 18.9097L605.684 18.902L605.691 18.8942L605.699 18.8865L605.706 18.8788L605.713 18.8711L605.721 18.8634L605.728 18.8557L605.736 18.848L605.743 18.8403L605.751 18.8326L605.758 18.8249L605.766 18.8172L605.773 18.8095L605.78 18.8018L605.788 18.7941L605.795 18.7864L605.803 18.7787L605.81 18.771L605.818 18.7632L605.825 18.7555L605.832 18.7478L605.84 18.7401L605.847 18.7324L605.855 18.7247L605.862 18.717L605.87 18.7093L605.877 18.7016L605.885 18.6939L605.892 18.6862L605.899 18.6785L605.907 18.6708L605.914 18.6631L605.922 18.6554L605.929 18.6477L605.937 18.64L605.944 18.6323L605.952 18.6246L605.959 18.6168L605.966 18.6091L605.974 18.6014L605.981 18.5937L605.989 18.586L605.996 18.5783L606.004 18.5706L606.011 18.5629L606.019 18.5552L606.026 18.5475L606.033 18.5398L606.041 18.5321L606.048 18.5244L606.056 18.5167L606.063 18.509L606.071 18.5013L606.078 18.4936L606.085 18.4859L606.093 18.4782L606.1 18.4705L606.108 18.4628L606.115 18.455L606.123 18.4473L606.13 18.4396L606.138 18.4319L606.145 18.4242L606.152 18.4165L606.16 18.4088L606.167 18.4011L606.175 18.3934L606.182 18.3857L606.19 18.378L606.197 18.3703L606.205 18.3626L606.212 18.3549L606.219 18.3472L606.227 18.3395L606.234 18.3318L606.242 18.3241L606.249 18.3164L606.257 18.3087L606.264 18.301L606.271 18.2933L606.279 18.2856L606.286 18.2779L606.294 18.2702L606.301 18.2625L606.309 18.2548L606.316 18.2471L606.324 18.2393L606.331 18.2316L606.338 18.2239L606.346 18.2162L606.353 18.2085L606.361 18.2008L606.368 18.1931L606.376 18.1854L606.383 18.1777L606.39 18.17L606.398 18.1623L606.405 18.1546L606.413 18.1469L606.42 18.1392L606.428 18.1315L606.435 18.1238L606.443 18.1161L606.45 18.1084L606.457 18.1007L606.465 18.093L606.472 18.0853L606.48 18.0776L606.487 18.0699L606.495 18.0622L606.502 18.0545L606.509 18.0468L606.517 18.0391L606.524 18.0314L606.532 18.0237L606.539 18.016L606.547 18.0083L606.554 18.0006L606.562 17.9929L606.569 17.9852L606.576 17.9775L606.584 17.9698L606.591 17.9621L606.599 17.9544L606.606 17.9467L606.614 17.939L606.621 17.9313L606.628 17.9236L606.636 17.9159L606.643 17.9082L606.651 17.9005L606.658 17.8928L606.666 17.8851L606.673 17.8774L606.681 17.8697L606.688 17.862L606.695 17.8543L606.703 17.8466L607.271 17.2584L607.285 18.0759L607.285 18.0802L607.285 18.0846L607.285 18.0932L607.286 18.1019L607.286 18.1062L607.286 18.1105L607.286 18.1452L607.287 18.1625L607.287 18.1668L607.287 18.1711L607.287 18.1798L607.287 18.1971L607.287 18.2014L607.287 18.2057L607.287 18.2144L607.288 18.2187L607.288 18.223L607.288 18.2274L607.288 18.2317L607.288 18.249L607.289 18.2836L607.289 18.2922L607.289 18.3009L607.289 18.3182L607.29 18.3527L607.292 18.491L607.293 18.5255L607.294 18.5601L607.295 18.6291L607.3 18.9052L607.3 18.9095L607.3 18.9138L607.3 18.9224L607.3 18.9311L607.3 18.9354L607.3 18.9397L607.301 18.9742L607.301 18.9914L607.301 19L607.301 19.0086L607.302 19.0259L607.302 19.0431L607.302 19.0474L607.302 19.0517L607.302 19.056L607.302 19.0603L607.303 19.0776L607.303 19.0862L607.303 19.0948L607.303 19.1034L607.303 19.112L607.303 19.1293L607.304 19.1465L607.304 19.1508L607.304 19.1551L607.304 19.1637L607.304 19.168L607.304 19.1723L607.304 19.181L607.305 19.1982L607.305 19.2068L607.305 19.2154L607.306 19.2499L607.306 19.2843L607.307 19.3187L607.307 19.3231L607.307 19.3274L607.307 19.3317L607.307 19.336L607.307 19.3532L607.308 19.3876L607.308 19.4048L607.308 19.4091L607.308 19.4134L607.309 19.4221L607.309 19.4565L607.31 19.4909L607.31 19.4995L607.31 19.5038L607.31 19.5081L607.31 19.5167L607.31 19.521L607.31 19.5253L607.311 19.5425L607.311 19.5512L607.311 19.5598L607.311 19.5671C607.311 19.5671 607.311 19.5525 607.311 19.5684L607.311 19.577L607.311 19.5856L607.311 19.5899L607.312 19.5942L607.312 19.6114L607.312 19.6286L607.313 19.663L607.313 19.6802L607.313 19.6888L607.313 19.6974L607.314 19.7146L607.314 19.7318L607.316 19.8695L607.317 19.9039L607.317 19.9125L607.317 19.9168L607.317 19.9211L607.317 19.9254L607.317 19.9297L607.317 19.934L607.318 19.9383L607.318 19.9555L607.318 19.9641L607.318 19.9711C607.318 19.9677 607.318 19.9578 607.318 19.9727L607.318 19.9813L607.318 19.9899L607.319 19.9985L607.319 20.0028L607.319 20.0071L607.319 20.0157L607.319 20.0243L607.319 20.0286L607.319 20.0329L607.319 20.0372L607.319 20.0415L607.32 20.0501L607.32 20.0587L607.32 20.0759L607.32 20.0931L607.321 20.1103L607.321 20.1447L607.322 20.1791L607.322 20.1962L607.322 20.2134L607.323 20.2306L607.323 20.2392L607.323 20.2435L607.323 20.2478L607.324 20.2822C607.325 20.355 607.385 20.4137 607.456 20.4138Z" fill="white" stroke="white" stroke-width="0.677325"/>
<path d="M628.824 41.2829L628.824 41.2826L628.798 32.8588L628.771 24.4359C628.771 24.4357 628.771 24.4356 628.771 24.4354C628.77 23.7213 627.912 23.3611 627.401 23.8544L627.379 23.8762L627.356 23.8981L627.333 23.9199L627.311 23.9418L627.288 23.9637L627.265 23.9855L627.243 24.0074L627.22 24.0292L627.198 24.0511L627.175 24.073L627.152 24.0948L627.13 24.1167L627.107 24.1385L627.084 24.1604L627.062 24.1823L627.039 24.2041L627.016 24.226L626.994 24.2478L626.971 24.2697L626.949 24.2916L626.926 24.3134L626.903 24.3353L626.881 24.3571L626.858 24.379L626.835 24.4009L626.813 24.4227L626.79 24.4446L626.767 24.4665L626.745 24.4883L626.722 24.5102L626.7 24.532L626.677 24.5539L626.654 24.5758L626.632 24.5976L626.609 24.6195L626.586 24.6413L626.564 24.6632L626.541 24.6851L626.518 24.7069L626.496 24.7288L626.473 24.7507L626.45 24.7725L626.428 24.7944L626.405 24.8162L626.383 24.8381L626.36 24.86L626.337 24.8818L626.315 24.9037L626.292 24.9255L626.269 24.9474L626.247 24.9693L626.224 24.9911L626.201 25.013L626.179 25.0349L626.156 25.0567L626.134 25.0786L626.111 25.1004L626.088 25.1223L626.066 25.1442L626.043 25.166L626.02 25.1879L625.998 25.2098L625.975 25.2316L625.952 25.2535L625.93 25.2753L625.907 25.2972L625.885 25.3191L625.862 25.3409L625.839 25.3628L625.817 25.3847L625.794 25.4065L625.771 25.4284L625.749 25.4503L625.726 25.4721L625.703 25.494L625.681 25.5158L625.658 25.5377L625.635 25.5596L625.613 25.5814L625.59 25.6033L625.568 25.6252L625.545 25.647L625.522 25.6689L625.5 25.6908L625.477 25.7126L625.454 25.7345L625.432 25.7563L625.409 25.7782L625.386 25.8001L625.364 25.8219L625.341 25.8438L625.319 25.8657L625.296 25.8875L625.273 25.9094L625.251 25.9313L625.228 25.9531L625.205 25.975L625.183 25.9968L625.16 26.0187L625.137 26.0406L625.115 26.0624L625.092 26.0843L625.069 26.1062L625.047 26.128L625.024 26.1499L625.002 26.1718L624.979 26.1936L624.956 26.2155L624.934 26.2374L624.911 26.2592L624.888 26.2811L624.866 26.3029L624.843 26.3248L624.82 26.3467L624.798 26.3685L624.775 26.3904L624.752 26.4123L624.73 26.4341L624.707 26.456L624.685 26.4779L624.662 26.4997L624.639 26.5216L624.617 26.5435L624.594 26.5653L624.571 26.5872L624.549 26.6091L624.526 26.6309L624.503 26.6528L624.481 26.6747L624.458 26.6965L624.435 26.7184L624.413 26.7402L624.39 26.7621L624.368 26.784L624.345 26.8058L624.322 26.8277L624.3 26.8496L624.277 26.8714L624.254 26.8933L624.232 26.9152L624.209 26.937L624.186 26.9589L624.164 26.9808L624.141 27.0026L624.118 27.0245L624.096 27.0464L624.073 27.0682L624.051 27.0901L624.028 27.112L624.005 27.1338L623.983 27.1557L623.96 27.1776L623.937 27.1994L623.915 27.2213L623.892 27.2432L623.869 27.265L623.847 27.2869L623.824 27.3088L623.801 27.3306L623.779 27.3525L623.756 27.3744L623.734 27.3962L623.711 27.4181L623.688 27.4399L623.666 27.4618L623.643 27.4837L623.62 27.5055L623.598 27.5274L623.575 27.5493L623.552 27.5711L623.53 27.593L623.507 27.6149L623.484 27.6367L623.462 27.6586L623.439 27.6805L623.417 27.7023L623.394 27.7242L623.371 27.7461L623.349 27.7679L623.326 27.7898L623.303 27.8117L623.281 27.8335L623.258 27.8554L623.235 27.8773L623.213 27.8991L623.19 27.921L623.167 27.9429L623.145 27.9647L623.122 27.9866L623.1 28.0085L623.077 28.0303L623.054 28.0522L623.032 28.0741L623.009 28.0959L622.986 28.1178L622.964 28.1397L622.941 28.1615L622.918 28.1834L622.896 28.2053L622.873 28.2271L622.85 28.249L622.828 28.2709L622.805 28.2927L622.783 28.3146L622.76 28.3365L622.737 28.3583L622.715 28.3802L622.692 28.4021L622.669 28.4239L622.647 28.4458L622.624 28.4677L622.601 28.4895L622.579 28.5114L622.556 28.5333L622.533 28.5551L622.511 28.577L622.488 28.5989L622.466 28.6207L622.443 28.6426L622.42 28.6645L622.398 28.6863L622.375 28.7082L622.352 28.7301L622.33 28.7519L622.307 28.7738L622.284 28.7957L622.262 28.8175L622.239 28.8394L622.216 28.8613L622.194 28.8831L622.171 28.905L622.149 28.9269L622.126 28.9487L622.103 28.9706L622.081 28.9925L622.058 29.0143L622.035 29.0362L622.013 29.0581L621.99 29.0799L621.967 29.1018L621.945 29.1237L621.922 29.1455L621.899 29.1674L621.877 29.1893L621.854 29.2111L621.832 29.233L621.809 29.2549L621.786 29.2767L621.764 29.2986L621.741 29.3205L621.718 29.3423L621.696 29.3642L621.673 29.3861L621.65 29.4079L621.628 29.4298L621.605 29.4517L621.582 29.4735L621.56 29.4954L621.537 29.5173L621.514 29.5391L621.492 29.561L621.469 29.5829L621.447 29.6047L621.424 29.6266L621.401 29.6485L621.379 29.6703L621.356 29.6922L621.333 29.7141L621.311 29.7359L621.288 29.7578L621.265 29.7797L621.243 29.8015L621.22 29.8234L621.197 29.8453L621.175 29.8672L621.152 29.889L621.13 29.9109L621.107 29.9328L621.084 29.9546L621.062 29.9765L621.039 29.9984L621.016 30.0202L620.994 30.0421L620.971 30.064L620.948 30.0858L620.926 30.1077L620.903 30.1296L620.88 30.1514L620.858 30.1733L620.835 30.1952L620.813 30.217L620.79 30.2389L620.767 30.2608L620.745 30.2826L620.722 30.3045L620.699 30.3264L620.677 30.3482L620.654 30.3701L620.631 30.392L620.609 30.4138L620.586 30.4357L620.563 30.4576L620.541 30.4794L620.518 30.5013L620.496 30.5232L620.473 30.545L620.45 30.5669L620.428 30.5888L620.405 30.6106L620.382 30.6325L620.36 30.6544L620.337 30.6762L620.314 30.6981L620.292 30.72L620.269 30.7418L620.246 30.7637L620.224 30.7856L620.201 30.8074L620.179 30.8293L620.156 30.8512L620.133 30.873L620.111 30.8949L620.088 30.9168L620.065 30.9386L620.043 30.9605L620.02 30.9824L619.997 31.0042L619.975 31.0261L619.952 31.048L619.929 31.0698L619.907 31.0917L619.884 31.1136L619.862 31.1354L619.839 31.1573L619.816 31.1791L619.794 31.201L619.771 31.2229L619.748 31.2447L619.726 31.2666L619.703 31.2885L619.68 31.3103L619.658 31.3322L619.635 31.3541L619.612 31.3759L619.59 31.3978L619.567 31.4197L619.545 31.4415L619.522 31.4634L619.499 31.4853L619.477 31.5071L619.454 31.529L619.431 31.5509L619.409 31.5727L619.386 31.5946L619.363 31.6165L619.341 31.6383L619.318 31.6602L619.295 31.6821L619.273 31.7039L619.25 31.7258L619.228 31.7477L619.205 31.7695L619.182 31.7914L619.16 31.8133L619.137 31.8351L619.114 31.857L619.092 31.8789L619.069 31.9007L619.046 31.9226L619.024 31.9445L619.001 31.9663L618.978 31.9882L618.956 32.0101L618.933 32.0319L618.911 32.0538L618.888 32.0756L618.865 32.0975L618.843 32.1194L618.82 32.1412L618.797 32.1631L618.775 32.185L618.752 32.2068L618.729 32.2287L618.707 32.2506L618.684 32.2724L618.661 32.2943L618.639 32.3162L618.616 32.338L618.594 32.3599L618.571 32.3818L618.548 32.4036L618.526 32.4255L618.503 32.4474L618.48 32.4692L618.458 32.4911L618.435 32.513L618.412 32.5348L618.39 32.5567L618.367 32.5785L618.344 32.6004L618.322 32.6223L618.299 32.6441L618.277 32.666L618.254 32.6879L618.231 32.7097L618.209 32.7316L618.186 32.7535L618.163 32.7753L618.141 32.7972L618.118 32.8191L618.095 32.8409L618.073 32.8628L618.05 32.8846L618.027 32.9065L618.005 32.9284L617.982 32.9502L617.96 32.9721L617.937 32.994L617.914 33.0158L617.892 33.0377L617.869 33.0596L617.846 33.0814L617.824 33.1033L617.801 33.1252L617.778 33.147L617.756 33.1689L617.733 33.1907L617.711 33.2126L617.688 33.2345L617.665 33.2563L617.643 33.2782L617.62 33.3001L617.597 33.3219L617.575 33.3438L617.552 33.3657L617.529 33.3875L617.507 33.4094L617.484 33.4312L617.461 33.4531L617.439 33.475L617.416 33.4968L617.394 33.5187L617.371 33.5406L617.348 33.5624L617.326 33.5843L617.303 33.6061L617.28 33.628L617.258 33.6499L617.235 33.6717L617.212 33.6936L617.19 33.7155L617.167 33.7373L617.145 33.7592L617.122 33.781L617.099 33.8029L617.077 33.8248L617.054 33.8466L617.031 33.8685L617.009 33.8904L616.986 33.9122L616.963 33.9341L616.941 33.9559L616.918 33.9778L616.895 33.9997L616.873 34.0215L616.85 34.0434L616.828 34.0653L616.805 34.0871L616.782 34.109L616.76 34.1308L616.737 34.1527L616.714 34.1746L616.692 34.1964L616.669 34.2183L616.646 34.2402L616.624 34.262L616.601 34.2839L616.579 34.3057L616.556 34.3276L616.533 34.3495L616.511 34.3713L616.488 34.3932L616.465 34.415L616.443 34.4369L616.42 34.4588L616.397 34.4806L616.375 34.5025L616.352 34.5244L616.33 34.5462L616.307 34.5681L616.284 34.5899L616.262 34.6118L616.239 34.6337L616.216 34.6555L616.194 34.6774L616.171 34.6992L616.148 34.7211L616.126 34.743L616.103 34.7648L616.081 34.7867L616.058 34.8085L616.035 34.8304L616.013 34.8523L615.99 34.8741L615.967 34.896L615.945 34.9178L615.922 34.9397L615.899 34.9616L615.877 34.9834L615.854 35.0053L615.832 35.0271L615.809 35.049C615.576 35.2739 615.502 35.6051 615.611 35.9082L615.612 35.9096C616.844 39.2822 618.074 42.6573 619.304 46.0326L619.305 46.0359C619.305 46.0364 619.305 46.0369 619.305 46.0374C619.429 46.3839 619.765 46.5981 620.127 46.5702C620.127 46.5702 620.127 46.5702 620.127 46.5702L623.534 46.3206L626.94 46.071C626.941 46.071 626.941 46.071 626.941 46.0709C627.137 46.0572 627.308 45.9799 627.446 45.8462L627.454 45.8387L627.462 45.8313L627.469 45.8238L627.477 45.8164L627.485 45.809L627.492 45.8015L627.5 45.7941L627.508 45.7867L627.515 45.7792L627.523 45.7718L627.531 45.7644L627.539 45.7569L627.546 45.7495L627.554 45.742L627.562 45.7346L627.569 45.7272L627.577 45.7197L627.585 45.7123L627.592 45.7049L627.6 45.6974L627.608 45.69L627.616 45.6825L627.623 45.6751L627.631 45.6677L627.639 45.6602L627.646 45.6528L627.654 45.6454L627.662 45.6379L627.669 45.6305L627.677 45.623L627.685 45.6156L627.693 45.6082L627.7 45.6007L627.708 45.5933L627.716 45.5859L627.723 45.5784L627.731 45.571L627.739 45.5635L627.746 45.5561L627.754 45.5487L627.762 45.5412L627.77 45.5338L627.777 45.5264L627.785 45.5189L627.793 45.5115L627.8 45.504L627.808 45.4966L627.816 45.4892L627.824 45.4817L627.831 45.4743L627.839 45.4668L627.847 45.4594L627.854 45.452L627.862 45.4445L627.87 45.4371L627.877 45.4297L627.885 45.4222L627.893 45.4148L627.901 45.4073L627.908 45.3999L627.916 45.3925L627.924 45.385L627.931 45.3776L627.939 45.3701L627.947 45.3627L627.954 45.3553L627.962 45.3478L627.97 45.3404L627.978 45.3329L627.985 45.3255L627.993 45.3181L628.001 45.3106L628.008 45.3032L628.016 45.2957L628.024 45.2883L628.032 45.2809L628.039 45.2734L628.047 45.266L628.055 45.2585L628.062 45.2511L628.07 45.2437L628.078 45.2362L628.085 45.2288L628.093 45.2213L628.101 45.2139L628.109 45.2065L628.116 45.199L628.124 45.1916L628.132 45.1841L628.139 45.1767L628.147 45.1693L628.155 45.1618L628.162 45.1544L628.17 45.1469L628.178 45.1395L628.186 45.1321L628.193 45.1246L628.201 45.1172L628.209 45.1097L628.216 45.1023L628.224 45.0949L628.232 45.0874L628.24 45.08L628.247 45.0725L628.255 45.0651L628.263 45.0577L628.27 45.0502L628.278 45.0428L628.286 45.0353L628.293 45.0279L628.301 45.0205L628.309 45.013L628.317 45.0056L628.324 44.9981L628.332 44.9907L628.34 44.9832L628.347 44.9758L628.355 44.9684L628.363 44.9609L628.371 44.9535L628.378 44.946L628.386 44.9386L628.394 44.9312L628.401 44.9237L628.409 44.9163L628.417 44.9088L628.424 44.9014L628.432 44.894L628.44 44.8865L628.448 44.8791L628.455 44.8716L628.463 44.8642L628.471 44.8567L628.478 44.8493L628.486 44.8419L628.494 44.8344L628.502 44.827L628.509 44.8195L628.517 44.8121L628.525 44.8047L628.532 44.7972L628.54 44.7898L628.548 44.7823L628.555 44.7749L628.563 44.7674L628.571 44.76L628.579 44.7526L628.586 44.7451L628.594 44.7377L628.602 44.7302L628.609 44.7228L628.617 44.7153L628.625 44.7079L628.633 44.7005L628.64 44.693L628.648 44.6856L628.656 44.6781L628.663 44.6707L628.671 44.6633L628.679 44.6558L628.686 44.6484L628.694 44.6409L628.702 44.6335L628.71 44.626L628.717 44.6186L628.725 44.6112L628.733 44.6037L628.74 44.5963L628.748 44.5888L628.756 44.5814L628.764 44.5739L628.771 44.5665L628.779 44.5591L628.787 44.5516L628.794 44.5442L628.802 44.5367L628.81 44.5293L628.817 44.5218L628.825 44.5144L628.833 44.507L628.841 44.4995L628.848 44.4921L628.856 44.4846L628.864 44.4772L628.871 44.4697L628.879 44.4623L628.887 44.4549L628.895 44.4474L628.902 44.44L628.91 44.4325L628.918 44.4251L628.925 44.4176L628.933 44.4102L628.941 44.4028L628.949 44.3953L628.956 44.3879L628.964 44.3804L628.972 44.373L628.979 44.3655L628.987 44.3581L628.995 44.3507L629.002 44.3432L629.01 44.3358L629.018 44.3283L629.026 44.3209L629.033 44.3134L629.041 44.306L629.049 44.2986L629.056 44.2911L629.064 44.2837L629.072 44.2762L629.08 44.2688L629.087 44.2613L629.095 44.2539L629.103 44.2465L629.11 44.239L629.118 44.2316L629.126 44.2241L629.133 44.2167L629.141 44.2092L629.149 44.2018L629.157 44.1944L629.164 44.1869L629.172 44.1795L629.18 44.172L629.187 44.1646L629.195 44.1571L629.203 44.1497L629.211 44.1423L629.218 44.1348L629.226 44.1274L629.234 44.1199L629.241 44.1125L629.249 44.105L629.257 44.0976L629.265 44.0902L629.272 44.0827L629.28 44.0753L629.288 44.0678L629.295 44.0604L629.303 44.0529L629.311 44.0455L629.318 44.038L629.326 44.0306L629.334 44.0232L629.342 44.0157L629.349 44.0083L629.357 44.0008L629.365 43.9934L629.372 43.9859L629.38 43.9785L629.388 43.9711L629.396 43.9636L629.403 43.9562L629.411 43.9487L629.419 43.9413L629.426 43.9338L629.434 43.9264L629.442 43.919L629.45 43.9115L629.457 43.9041L629.465 43.8966L629.473 43.8892L629.48 43.8817L629.488 43.8743L629.496 43.8669L629.503 43.8594L629.511 43.852L629.519 43.8445L629.527 43.8371L629.534 43.8296L629.542 43.8222L629.55 43.8148L629.557 43.8073L629.565 43.7999L629.573 43.7924L629.581 43.785L629.588 43.7775L629.596 43.7701L629.604 43.7626L629.611 43.7552L629.619 43.7478L629.627 43.7403L629.634 43.7329L629.642 43.7254L629.65 43.718L629.658 43.7105L629.665 43.7031L629.673 43.6957L629.681 43.6882L629.688 43.6808L629.696 43.6733L629.704 43.6659L629.712 43.6584L629.719 43.651L629.727 43.6436L629.735 43.6361L629.742 43.6287L629.75 43.6212L629.758 43.6138L629.766 43.6063L629.773 43.5989L629.781 43.5915L629.789 43.584L629.796 43.5766L629.804 43.5691L629.812 43.5617L629.819 43.5542L629.827 43.5468L629.835 43.5394L629.843 43.5319L629.85 43.5245L629.858 43.517L629.866 43.5096L629.873 43.5021L629.881 43.4947L629.889 43.4873L629.897 43.4798L629.904 43.4724L629.912 43.4649L629.92 43.4575L629.927 43.45L629.935 43.4426L629.943 43.4352L629.951 43.4277L629.958 43.4203L629.966 43.4128L629.974 43.4054L629.981 43.3979L629.989 43.3905L629.997 43.3831L630.004 43.3756L630.012 43.3682L630.02 43.3607L630.028 43.3533L630.035 43.3458L630.043 43.3384L630.051 43.331L630.058 43.3235L630.066 43.3161L630.074 43.3086L630.082 43.3012L630.089 43.2937L630.097 43.2863L630.105 43.2789L630.112 43.2714L630.12 43.264L630.128 43.2565L630.135 43.2491L630.143 43.2416L630.151 43.2342L630.159 43.2268L630.166 43.2193L630.174 43.2119L630.182 43.2044L630.189 43.197L630.197 43.1896L630.205 43.1821L630.213 43.1747L630.22 43.1672L630.228 43.1598L630.236 43.1523L630.243 43.1449L630.251 43.1375L630.259 43.13L630.266 43.1226L630.274 43.1151L630.282 43.1077L630.29 43.1002L630.297 43.0928L630.305 43.0854L630.313 43.0779L630.32 43.0705L630.328 43.063L630.336 43.0556L630.344 43.0482L630.351 43.0407L630.359 43.0333L630.367 43.0258L630.374 43.0184L630.382 43.0109L630.39 43.0035L630.397 42.9961L630.405 42.9886L630.413 42.9812L630.421 42.9737L630.428 42.9663L630.436 42.9589L630.444 42.9514L630.451 42.944L630.459 42.9365L630.467 42.9291L630.475 42.9216L630.482 42.9142L630.49 42.9068L630.498 42.8993L630.505 42.8919L630.513 42.8844L630.521 42.877L630.528 42.8696L630.536 42.8621L630.544 42.8547L630.552 42.8472L630.559 42.8398L630.567 42.8324L630.575 42.8249L630.582 42.8175L630.59 42.81L630.598 42.8026L630.606 42.7952L630.613 42.7877L630.621 42.7803L630.629 42.7728L630.636 42.7654L630.644 42.7579L630.652 42.7505L630.659 42.7431L630.667 42.7356L630.675 42.7282L630.683 42.7207L630.69 42.7133L630.698 42.7059L630.706 42.6984L630.713 42.691L630.721 42.6835L630.729 42.6761L630.737 42.6687L630.744 42.6612L630.752 42.6538L630.76 42.6463L630.767 42.6389L630.775 42.6315L630.783 42.624L630.79 42.6166L630.798 42.6091L630.806 42.6017L630.814 42.5943L630.821 42.5868L630.829 42.5794L630.837 42.5719L630.844 42.5645L630.852 42.5571L630.86 42.5496L630.867 42.5422L630.875 42.5348L630.883 42.5273L630.891 42.5199L630.898 42.5124L630.906 42.505L630.914 42.4976L630.921 42.4901L630.929 42.4827L630.937 42.4752L630.945 42.4678L630.952 42.4604L630.96 42.4529L630.968 42.4455L630.975 42.438L630.983 42.4306L630.991 42.4232L630.998 42.4157L631.006 42.4083L631.014 42.4008L631.022 42.3934L631.029 42.386L631.037 42.3785L631.045 42.3711L631.052 42.3637L631.06 42.3562L631.068 42.3488L631.075 42.3413L631.083 42.3339L631.091 42.3265L631.099 42.319L631.106 42.3116L631.114 42.3042L631.122 42.2967L631.129 42.2893L631.137 42.2818L631.145 42.2744L631.152 42.267L631.16 42.2595L631.168 42.2521L631.176 42.2446L631.183 42.2372L631.191 42.2298L631.199 42.2223L631.206 42.2149L631.214 42.2075L631.222 42.2L631.23 42.1926L631.237 42.1852L631.245 42.1777L631.253 42.1703L631.26 42.1628L631.268 42.1554L631.276 42.148L631.283 42.1405L631.291 42.1331L631.299 42.1257L631.307 42.1182L631.314 42.1108L631.322 42.1033L631.33 42.0959L631.337 42.0885L631.345 42.081L631.353 42.0736L631.36 42.0662L631.368 42.0587L631.376 42.0513L631.384 42.0439L631.391 42.0364L631.979 41.4685L631.162 41.4542L631.153 41.454L631.149 41.454L631.145 41.4539L631.127 41.4536L631.123 41.4535L631.119 41.4534L631.11 41.4533L631.101 41.4531L631.093 41.453L631.023 41.4518L630.954 41.4506L630.885 41.4494L630.816 41.4482L630.781 41.4476L630.747 41.4469L630.678 41.4457L630.609 41.4445L630.591 41.4442L630.583 41.4441L630.574 41.4439L630.565 41.4438L630.557 41.4436L630.553 41.4436L630.548 41.4435L630.54 41.4433L630.471 41.4421L630.402 41.4409L630.367 41.4403L630.35 41.44L630.341 41.4399L630.333 41.4397L630.057 41.4349L629.919 41.4325L629.781 41.4301L629.506 41.4253L629.489 41.425L629.48 41.4248L629.472 41.4247L629.454 41.4244L629.446 41.4242L629.437 41.4241L629.429 41.4239L629.42 41.4238L629.411 41.4236L629.403 41.4235L629.386 41.4232L629.377 41.423L629.373 41.423L629.368 41.4229L629.351 41.4226L629.347 41.4225L629.343 41.4224L629.334 41.4223L629.3 41.4217L629.295 41.4216L629.291 41.4215L629.282 41.4214L629.278 41.4213L629.274 41.4212L629.269 41.4212L629.265 41.4211L629.231 41.4205L629.196 41.4199L629.162 41.4193L629.128 41.4187L629.119 41.4185L629.115 41.4185L629.11 41.4184L629.093 41.4181L629.059 41.4175L629.024 41.4169L628.99 41.4163L628.956 41.4157C628.883 41.4144 628.824 41.354 628.824 41.2829Z" fill="white" stroke="white" stroke-width="0.677325"/>
<path d="M617.07 37.7837L611.575 32.4771L610.196 33.9054L615.691 39.212L617.07 37.7837Z" fill="white" stroke="white" stroke-width="0.687335"/>
<path d="M614.616 29.0072C616.308 27.2558 618.994 27.0789 620.6 28.6298C622.206 30.1808 622.123 32.8719 620.432 34.6233L616.73 38.4564L610.915 32.8402L614.616 29.0072Z" fill="white" stroke="white" stroke-width="0.687335"/>
<path d="M610.363 33.5143L612.125 35.2157L616.076 39.0314L616.037 39.7566L614.393 40.3673L610.645 36.7483L609.086 35.243L609.639 33.5786L610.363 33.5143Z" fill="white" stroke="white" stroke-width="0.687335"/>
<path d="M632.123 20.9889L632.123 20.9889L632.126 20.986L631.874 20.7404C632.309 20.2956 632.367 17.453 631.995 17.0811L632.244 16.8326C632.131 16.7199 631.972 16.6604 631.847 16.6242C631.709 16.5839 631.545 16.5545 631.372 16.5332C631.024 16.4905 630.602 16.4764 630.183 16.4883C629.765 16.5001 629.338 16.5381 628.981 16.6037C628.804 16.6364 628.635 16.6774 628.491 16.7288C628.356 16.7771 628.203 16.8473 628.092 16.9583L628.077 16.9738L628.061 16.9893L628.046 17.0048L628.03 17.0203L628.015 17.0358L627.999 17.0513L627.984 17.0668L627.968 17.0823L627.953 17.0978L627.937 17.1133L627.922 17.1289L627.906 17.1444L627.891 17.1599L627.875 17.1754L627.86 17.1909L627.844 17.2064L627.829 17.2219L627.813 17.2374L627.798 17.2529L627.782 17.2684L627.767 17.2839L627.751 17.2994L627.736 17.3149L627.72 17.3305L627.705 17.346L627.689 17.3615L627.674 17.377L627.658 17.3925L627.643 17.408L627.627 17.4235L627.612 17.439L627.596 17.4545L627.581 17.47L627.565 17.4855L627.55 17.501L627.534 17.5166L627.519 17.5321L627.503 17.5476L627.488 17.5631L627.472 17.5786L627.457 17.5941L627.441 17.6096L627.426 17.6251L627.41 17.6406L627.394 17.6561L627.379 17.6716L627.363 17.6872L627.348 17.7027L627.332 17.7182L627.317 17.7337L627.301 17.7492L627.286 17.7647L627.27 17.7802L627.255 17.7957L627.239 17.8112L627.224 17.8267L627.208 17.8423L627.193 17.8578L627.177 17.8733L627.162 17.8888L627.146 17.9043L627.131 17.9198L627.115 17.9353L627.1 17.9508L627.084 17.9663L627.069 17.9818L627.053 17.9974L627.038 18.0129L627.022 18.0284L627.007 18.0439L626.991 18.0594L626.976 18.0749L626.96 18.0904L626.945 18.1059L626.929 18.1214L626.914 18.1369L626.898 18.1525L626.883 18.168L626.867 18.1835L626.852 18.199L626.836 18.2145L626.821 18.23L626.805 18.2455L626.79 18.261L626.774 18.2765L626.759 18.2921L626.743 18.3076L626.728 18.3231L626.712 18.3386L626.697 18.3541L626.681 18.3696L626.666 18.3851L626.65 18.4006L626.634 18.4161L626.619 18.4317L626.603 18.4472L626.588 18.4627L626.572 18.4782L626.557 18.4937L626.541 18.5092L626.526 18.5247L626.51 18.5402L626.495 18.5557L626.479 18.5713L626.464 18.5868L626.448 18.6023L626.433 18.6178L626.417 18.6333L626.402 18.6488L626.386 18.6643L626.371 18.6798L626.355 18.6953L626.34 18.7109L626.324 18.7264L626.309 18.7419L626.293 18.7574L626.278 18.7729L626.262 18.7884L626.247 18.8039L626.231 18.8194L626.216 18.835L626.2 18.8505L626.185 18.866L626.169 18.8815L626.154 18.897L626.138 18.9125L626.123 18.928L626.107 18.9435L626.092 18.9591L626.076 18.9746L626.061 18.9901L626.045 19.0056L626.03 19.0211L626.014 19.0366L625.999 19.0521L625.983 19.0676L625.967 19.0832L625.952 19.0987L625.936 19.1142L625.921 19.1297L625.905 19.1452L625.89 19.1607L625.874 19.1762L625.859 19.1917L625.843 19.2073L625.828 19.2228L625.812 19.2383L625.797 19.2538L625.781 19.2693L625.766 19.2848L625.75 19.3003L625.735 19.3158L625.719 19.3314L625.704 19.3469L625.688 19.3624L625.673 19.3779L625.657 19.3934L625.642 19.4089L625.626 19.4244L625.611 19.4399L625.595 19.4555L625.58 19.471L625.564 19.4865L625.549 19.502L625.533 19.5175L625.518 19.533L625.502 19.5485L625.487 19.5641L625.471 19.5796L625.456 19.5951L625.44 19.6106L625.425 19.6261L625.409 19.6416L625.393 19.6571L625.378 19.6726L625.362 19.6882L625.347 19.7037L625.331 19.7192L625.316 19.7347L625.3 19.7502L625.285 19.7657L625.269 19.7812L625.254 19.7968L625.238 19.8123L625.223 19.8278L625.207 19.8433L625.192 19.8588L625.176 19.8743L625.161 19.8898L625.145 19.9054L625.13 19.9209L625.114 19.9364L625.099 19.9519L625.083 19.9674L625.068 19.9829L625.052 19.9984L625.037 20.0139L625.021 20.0295L625.006 20.045L624.99 20.0605L624.975 20.076L624.959 20.0915L624.944 20.107L624.928 20.1225L624.913 20.1381L624.897 20.1536L624.882 20.1691L624.866 20.1846L624.851 20.2001L624.835 20.2156L624.819 20.2311L624.804 20.2467L624.788 20.2622L624.773 20.2777L624.757 20.2932L624.742 20.3087L624.726 20.3242L624.711 20.3397L624.695 20.3553L624.68 20.3708L624.664 20.3863L624.649 20.4018L624.633 20.4173L624.618 20.4328L624.602 20.4483L624.587 20.4639L624.571 20.4794L624.556 20.4949L624.54 20.5104L624.525 20.5259L624.509 20.5414L624.494 20.5569L624.478 20.5724L624.463 20.588L624.447 20.6035L624.432 20.619L624.416 20.6345L624.401 20.65L624.385 20.6655L624.37 20.681L624.354 20.6966L624.339 20.7121L624.323 20.7276L624.308 20.7431L624.292 20.7586L624.276 20.7741L624.261 20.7896L624.245 20.8052L624.23 20.8207L624.214 20.8362L624.199 20.8517L624.183 20.8672L624.168 20.8827L624.152 20.8982L624.137 20.9138L624.121 20.9293L624.106 20.9448L624.09 20.9603L624.075 20.9758L624.059 20.9913L624.044 21.0068L624.028 21.0224L624.013 21.0379L623.997 21.0534L623.982 21.0689L623.966 21.0844L623.951 21.0999L623.935 21.1154L623.92 21.131L623.904 21.1465L623.889 21.162L623.873 21.1775L623.858 21.193L623.842 21.2085L623.827 21.224L623.811 21.2396L623.796 21.2551L623.78 21.2706L623.765 21.2861L623.749 21.3016L623.734 21.3171L623.718 21.3326L623.702 21.3482L623.687 21.3637L623.671 21.3792L623.656 21.3947L623.64 21.4102L623.625 21.4257L623.609 21.4412L623.594 21.4568L623.578 21.4723L623.563 21.4878L623.547 21.5033L623.532 21.5188L623.516 21.5343L623.501 21.5498L623.485 21.5654L623.47 21.5809L623.454 21.5964L623.439 21.6119L623.423 21.6274L623.408 21.6429L623.392 21.6584L623.377 21.6739L623.361 21.6895L623.346 21.705L623.33 21.7205L623.315 21.736L623.299 21.7515L623.284 21.767L623.268 21.7825L623.253 21.7981L623.237 21.8136L623.222 21.8291L623.206 21.8446L623.191 21.8601L623.175 21.8756L623.159 21.8911L623.144 21.9067L623.128 21.9222L623.113 21.9377L623.097 21.9532L623.082 21.9687L623.066 21.9842L623.051 21.9997L623.035 22.0153L623.02 22.0308L623.004 22.0463L622.989 22.0618L622.973 22.0773L622.958 22.0928L622.942 22.1083L622.927 22.1238L622.911 22.1394L622.896 22.1549L622.88 22.1704L622.865 22.1859L622.849 22.2014L622.834 22.2169L622.818 22.2324L622.803 22.248L622.787 22.2635L622.772 22.279L622.756 22.2945L622.741 22.31L622.725 22.3255L622.71 22.341L622.694 22.3565L622.679 22.3721L622.663 22.3876L622.648 22.4031L622.632 22.4186L622.617 22.4341L622.601 22.4496L622.585 22.4651L622.57 22.4807L622.554 22.4962L622.539 22.5117L622.523 22.5272L622.508 22.5427L622.492 22.5582L622.477 22.5737L622.461 22.5892L622.446 22.6048L622.43 22.6203L622.415 22.6358L622.399 22.6513L622.384 22.6668L622.368 22.6823L622.353 22.6978L622.337 22.7133L622.322 22.7289L622.306 22.7444L622.291 22.7599L622.275 22.7754L622.26 22.7909L622.244 22.8064L622.229 22.8219L622.213 22.8374L622.198 22.853L622.182 22.8685L622.167 22.884L622.151 22.8995L622.136 22.915L622.12 22.9305L622.105 22.946L622.089 22.9615L622.074 22.9771L622.058 22.9926L622.043 23.0081L622.027 23.0236L622.012 23.0391L621.996 23.0546L621.98 23.0701L621.965 23.0856L621.949 23.1012L621.934 23.1167L621.918 23.1322L621.903 23.1477L621.887 23.1632L621.872 23.1787L621.856 23.1942L621.841 23.2097L621.825 23.2252L621.81 23.2408L621.794 23.2563L621.779 23.2718L621.763 23.2873L621.748 23.3028L621.732 23.3183L621.717 23.3338L621.701 23.3493L621.686 23.3649L621.67 23.3804L621.655 23.3959L621.639 23.4114L621.624 23.4269L621.608 23.4424L621.593 23.4579L621.577 23.4734L621.562 23.4889L621.546 23.5045L621.531 23.52L621.515 23.5355L621.5 23.551L621.484 23.5665L621.469 23.582L621.453 23.5975L621.438 23.613L621.422 23.6285L621.407 23.6441L621.391 23.6596L621.376 23.6751L621.36 23.6906L621.345 23.7061L621.329 23.7216L621.314 23.7371L621.298 23.7526L621.282 23.7681L621.267 23.7836L621.251 23.7992L621.236 23.8147L621.22 23.8302L621.205 23.8457L621.189 23.8612L621.174 23.8767L621.158 23.8922L621.143 23.9077L621.127 23.9232L621.112 23.9387L621.096 23.9543L621.081 23.9698L621.065 23.9853L621.05 24.0008L621.034 24.0163L621.019 24.0318L621.003 24.0473L620.988 24.0628L620.972 24.0783L620.957 24.0938L620.941 24.1094L620.926 24.1249L620.91 24.1404L620.895 24.1559L620.879 24.1714L620.864 24.1869L620.848 24.2024L620.833 24.2179L620.817 24.2334L620.802 24.2489L620.786 24.2644L620.771 24.28L620.755 24.2955L620.74 24.311L620.724 24.3265L620.709 24.342L620.693 24.3575L620.678 24.373L620.662 24.3885L620.647 24.404L620.631 24.4195L620.616 24.435L620.6 24.4506L620.585 24.4661L620.569 24.4816L620.554 24.4971L620.538 24.5126L620.523 24.5281L620.507 24.5436L620.492 24.5591L620.476 24.5746L620.461 24.5901L620.445 24.6056L620.429 24.6211L620.414 24.6366L620.398 24.6522L620.383 24.6677L620.367 24.6832L620.352 24.6987L620.336 24.7142L620.321 24.7297L620.305 24.7452L620.29 24.7607L620.274 24.7762L620.259 24.7917L620.243 24.8072L620.228 24.8227L620.212 24.8382L620.197 24.8538L620.181 24.8693L620.166 24.8848L620.15 24.9003C619.782 25.2683 619.206 25.4706 618.597 25.6369C618.502 25.6628 618.405 25.6883 618.308 25.7136C618.111 25.7651 617.917 25.816 617.75 25.8686C617.51 25.9441 617.239 26.0471 617.062 26.2248L617.058 26.2282L617.055 26.2317L617.051 26.2351L617.048 26.2386L617.044 26.242L617.041 26.2455L617.037 26.2489L617.034 26.2523L617.031 26.2558L617.027 26.2592L617.024 26.2627L617.02 26.2661L617.017 26.2696L617.013 26.273L617.01 26.2765L617.006 26.2799L617.003 26.2834L616.999 26.2868L616.996 26.2902L616.993 26.2937L616.989 26.2971L616.986 26.3006L616.982 26.304L616.979 26.3075L616.975 26.3109L616.972 26.3144L616.968 26.3178L616.965 26.3213L616.962 26.3247L616.958 26.3282L616.955 26.3316L616.951 26.335L616.948 26.3385L616.944 26.3419L616.941 26.3454L616.937 26.3488L616.934 26.3523L616.931 26.3557L616.927 26.3592L616.924 26.3626L616.92 26.3661L616.917 26.3695L616.913 26.373L616.91 26.3764L616.906 26.3798L616.903 26.3833L616.9 26.3867L616.896 26.3902L616.893 26.3936L616.889 26.3971L616.886 26.4005L616.882 26.404L616.879 26.4074L616.875 26.4109L616.872 26.4143L616.869 26.4177L616.865 26.4212L616.862 26.4246L616.858 26.4281L616.855 26.4315L616.851 26.435L616.848 26.4384L616.844 26.4419L616.841 26.4453L616.838 26.4488L616.834 26.4522L616.831 26.4557L616.827 26.4591L616.824 26.4625L616.82 26.466L616.817 26.4694L616.813 26.4729L616.81 26.4763L616.807 26.4798L616.803 26.4832L616.8 26.4867L616.796 26.4901L616.793 26.4936L616.789 26.497L616.786 26.5005L616.782 26.5039L616.779 26.5073L616.776 26.5108L616.772 26.5142L616.769 26.5177L616.765 26.5211L616.762 26.5246L616.758 26.528L616.755 26.5315L616.751 26.5349L616.748 26.5384L616.744 26.5418L616.741 26.5452L616.738 26.5487L616.734 26.5521L616.731 26.5556L616.727 26.559L616.724 26.5625L616.72 26.5659L616.717 26.5694L616.713 26.5728L616.71 26.5763L616.707 26.5797L616.703 26.5832L616.7 26.5866L616.696 26.59L616.693 26.5935L616.689 26.5969L616.686 26.6004L616.682 26.6038L616.679 26.6073L616.676 26.6107L616.672 26.6142L616.669 26.6176L616.665 26.6211L616.662 26.6245L616.658 26.628L616.655 26.6314L616.651 26.6348L616.648 26.6383L616.645 26.6417L616.641 26.6452L616.638 26.6486L616.634 26.6521L616.631 26.6555L616.627 26.659L616.624 26.6624L616.62 26.6659L616.617 26.6693L616.614 26.6727L616.61 26.6762L616.607 26.6796L616.603 26.6831L616.6 26.6865L616.596 26.69L616.593 26.6934L616.589 26.6969L616.586 26.7003L616.583 26.7038L616.579 26.7072L616.576 26.7107L616.572 26.7141L616.569 26.7175L616.565 26.721L616.562 26.7244L616.558 26.7279L616.555 26.7313L616.552 26.7348L616.548 26.7382L616.545 26.7417L616.541 26.7451L616.538 26.7486L616.534 26.752L616.531 26.7555L616.527 26.7589L616.524 26.7623L616.521 26.7658L616.517 26.7692L616.514 26.7727L616.51 26.7761L616.507 26.7796L616.503 26.783L616.5 26.7865L616.496 26.7899L616.493 26.7934L616.489 26.7968L616.486 26.8002L616.483 26.8037L616.479 26.8071L616.476 26.8106L616.472 26.814L616.469 26.8175L616.465 26.8209L616.462 26.8244L616.458 26.8278L616.455 26.8313L616.452 26.8347L616.448 26.8382L616.445 26.8416L616.441 26.845L616.438 26.8485L616.434 26.8519L616.431 26.8554L616.427 26.8588L616.424 26.8623L616.421 26.8657L616.417 26.8692L616.414 26.8726L616.41 26.8761L616.407 26.8795L616.403 26.883L616.4 26.8864L616.396 26.8898L616.393 26.8933L616.39 26.8967L616.386 26.9002L616.383 26.9036L616.379 26.9071L616.376 26.9105L616.372 26.914L616.369 26.9174L616.365 26.9209L616.362 26.9243L616.359 26.9277L616.355 26.9312L616.352 26.9346L616.348 26.9381L616.345 26.9415L616.341 26.945L616.338 26.9484L616.334 26.9519L616.331 26.9553L616.328 26.9588L616.324 26.9622L616.321 26.9657L616.317 26.9691L616.314 26.9725L616.31 26.976L616.307 26.9794L616.303 26.9829L616.3 26.9863L616.297 26.9898L616.293 26.9932L616.29 26.9967L616.286 27.0001L616.283 27.0036L616.279 27.007L616.276 27.0105L616.272 27.0139L616.269 27.0173L616.266 27.0208L616.262 27.0242L616.259 27.0277L616.255 27.0311L616.252 27.0346L616.248 27.038L616.245 27.0415L616.241 27.0449L616.238 27.0484L616.234 27.0518L616.231 27.0552L616.228 27.0587L616.224 27.0621L616.221 27.0656L616.217 27.069L616.214 27.0725L616.21 27.0759L616.207 27.0794L616.203 27.0828L616.2 27.0863L616.197 27.0897L616.193 27.0932L616.19 27.0966L616.186 27.1L616.183 27.1035L616.179 27.1069L616.176 27.1104L616.172 27.1138L616.169 27.1173L616.166 27.1207L616.162 27.1242L616.159 27.1276L616.155 27.1311L616.152 27.1345L616.148 27.138L616.145 27.1414L616.141 27.1448L616.138 27.1483L616.135 27.1517L616.131 27.1552L616.128 27.1586L616.124 27.1621L616.121 27.1655L616.117 27.169L616.114 27.1724L616.11 27.1759L616.107 27.1793L616.104 27.1828L616.1 27.1862L616.097 27.1896L616.093 27.1931L616.09 27.1965L616.086 27.2L616.083 27.2034L616.079 27.2069L616.076 27.2103L616.073 27.2138L616.069 27.2172L616.066 27.2207L616.062 27.2241L616.059 27.2275L616.055 27.231L616.052 27.2344L616.048 27.2379L616.045 27.2413L616.042 27.2448L616.038 27.2482L616.035 27.2517L616.031 27.2551L616.028 27.2586L616.024 27.262L616.021 27.2655L616.017 27.2689L616.014 27.2723L616.011 27.2758L616.007 27.2792L616.004 27.2827L616 27.2861L615.997 27.2896L615.993 27.293L615.99 27.2965L615.986 27.2999L615.983 27.3034L615.979 27.3068L615.976 27.3103L615.973 27.3137L615.969 27.3171L615.966 27.3206L615.962 27.324L615.959 27.3275L615.955 27.3309L615.952 27.3344L615.948 27.3378L615.945 27.3413L615.942 27.3447L615.938 27.3482L615.935 27.3516L615.931 27.355L615.928 27.3585L615.924 27.3619L615.921 27.3654L615.917 27.3688L615.914 27.3723L615.911 27.3757L615.907 27.3792L615.904 27.3826L615.9 27.3861L615.897 27.3895L615.893 27.393L615.89 27.3964L615.886 27.3998L615.883 27.4033L615.88 27.4067L615.876 27.4102L615.873 27.4136L615.869 27.4171L615.866 27.4205L615.862 27.424L615.859 27.4274L615.855 27.4309L615.852 27.4343L615.849 27.4378L615.845 27.4412L615.842 27.4446L615.838 27.4481L615.835 27.4515L615.831 27.455L615.828 27.4584L615.824 27.4619L615.821 27.4653L615.818 27.4688L615.814 27.4722L615.811 27.4757L615.807 27.4791L615.804 27.4825L615.8 27.486L615.797 27.4894L615.793 27.4929L615.79 27.4963L615.787 27.4998L615.783 27.5032L615.78 27.5067L615.776 27.5101L615.773 27.5136L615.769 27.517L615.766 27.5205L615.762 27.5239L615.759 27.5273L615.756 27.5308L615.752 27.5342L615.749 27.5377L615.745 27.5411L615.742 27.5446L615.738 27.548L615.735 27.5515L615.731 27.5549L615.728 27.5584L615.724 27.5618L615.721 27.5653L615.718 27.5687L615.714 27.5721L615.711 27.5756L615.707 27.579L615.704 27.5825L615.7 27.5859L615.697 27.5894L615.693 27.5928L615.69 27.5963L615.687 27.5997L615.683 27.6032L615.68 27.6066L615.676 27.61L615.673 27.6135L615.669 27.6169L615.666 27.6204L615.662 27.6238L615.659 27.6273L615.656 27.6307L615.652 27.6342L615.649 27.6376L615.645 27.6411L615.642 27.6445L615.638 27.648L615.635 27.6514L615.631 27.6548L615.628 27.6583L615.625 27.6617L615.621 27.6652L615.618 27.6686L615.614 27.6721L615.611 27.6755L615.607 27.679L615.604 27.6824L615.6 27.6859L615.597 27.6893L615.594 27.6928L615.59 27.6962L615.587 27.6996L615.583 27.7031L615.58 27.7065L615.576 27.71L615.573 27.7134L615.569 27.7169L615.566 27.7203L615.563 27.7238L615.559 27.7272L615.556 27.7307L615.552 27.7341L615.549 27.7375L615.545 27.741L615.542 27.7444L615.538 27.7479L615.535 27.7513L615.532 27.7548L615.528 27.7582L615.525 27.7617L615.521 27.7651L615.518 27.7686L615.514 27.772L615.511 27.7755L615.507 27.7789L615.504 27.7823L615.501 27.7858L615.497 27.7892L615.494 27.7927L615.49 27.7961L615.487 27.7996L615.483 27.803L615.48 27.8065L615.476 27.8099L615.473 27.8134L615.469 27.8168L615.466 27.8203L615.463 27.8237L615.459 27.8271L615.456 27.8306L615.452 27.834L615.449 27.8375L615.445 27.8409L615.442 27.8444L615.438 27.8478L615.435 27.8513L615.432 27.8547L615.428 27.8582L615.425 27.8616L615.421 27.865L615.418 27.8685L615.414 27.8719L615.411 27.8754L615.407 27.8788L615.404 27.8823L615.401 27.8857L615.397 27.8892L615.394 27.8926L615.39 27.8961L615.387 27.8995L615.383 27.903L615.38 27.9064L615.376 27.9098L615.373 27.9133L615.37 27.9167L615.366 27.9202L615.363 27.9236L615.359 27.9271L615.356 27.9305L615.352 27.934L615.349 27.9374L615.345 27.9409L615.342 27.9443L615.339 27.9478L615.335 27.9512L615.332 27.9546L615.328 27.9581L615.325 27.9615L615.321 27.965L615.318 27.9684L615.314 27.9719L615.311 27.9753L615.308 27.9788L615.304 27.9822L615.301 27.9857L615.297 27.9891C615.21 28.0766 615.159 28.1844 615.126 28.2772C615.092 28.3736 615.069 28.4809 615.052 28.5906C615.018 28.8096 615.004 29.0786 614.998 29.3716C614.992 29.6418 614.993 29.9449 614.993 30.2638C614.993 30.293 614.993 30.3224 614.994 30.3519C614.994 30.7049 614.994 31.0782 614.986 31.4591C614.978 31.7831 614.887 32.1939 614.792 32.6223C614.771 32.7144 614.75 32.8073 614.73 32.9004C614.677 33.1491 614.627 33.4022 614.613 33.6167C614.605 33.7241 614.605 33.8378 614.624 33.945C614.643 34.0493 614.685 34.1823 614.792 34.2892C614.899 34.396 615.032 34.4386 615.136 34.4571C615.243 34.476 615.357 34.476 615.465 34.4686C615.679 34.4539 615.932 34.4045 616.181 34.3509C616.274 34.3308 616.367 34.3102 616.459 34.2897C616.887 34.1943 617.298 34.1029 617.622 34.0954C618.003 34.0868 618.376 34.0869 618.729 34.0877C618.759 34.0877 618.788 34.0878 618.817 34.0879C619.136 34.0886 619.439 34.0894 619.71 34.0835C620.003 34.0772 620.272 34.0629 620.491 34.0293C620.6 34.0124 620.708 33.9893 620.804 33.9554C620.897 33.9227 621.005 33.8715 621.092 33.784L621.096 33.7806L621.099 33.7771L621.102 33.7737L621.106 33.7702L621.109 33.7668L621.113 33.7633L621.116 33.7599L621.12 33.7565L621.123 33.753L621.127 33.7496L621.13 33.7461L621.133 33.7427L621.137 33.7392L621.14 33.7358L621.144 33.7323L621.147 33.7289L621.151 33.7254L621.154 33.722L621.158 33.7185L621.161 33.7151L621.164 33.7117L621.168 33.7082L621.171 33.7048L621.175 33.7013L621.178 33.6979L621.182 33.6944L621.185 33.691L621.189 33.6875L621.192 33.6841L621.195 33.6806L621.199 33.6772L621.202 33.6737L621.206 33.6703L621.209 33.6669L621.213 33.6634L621.216 33.66L621.22 33.6565L621.223 33.6531L621.227 33.6496L621.23 33.6462L621.233 33.6427L621.237 33.6393L621.24 33.6358L621.244 33.6324L621.247 33.629L621.251 33.6255L621.254 33.6221L621.258 33.6186L621.261 33.6152L621.264 33.6117L621.268 33.6083L621.271 33.6048L621.275 33.6014L621.278 33.5979L621.282 33.5945L621.285 33.591L621.289 33.5876L621.292 33.5842L621.295 33.5807L621.299 33.5773L621.302 33.5738L621.306 33.5704L621.309 33.5669L621.313 33.5635L621.316 33.56L621.32 33.5566L621.323 33.5531L621.326 33.5497L621.33 33.5463L621.333 33.5428L621.337 33.5394L621.34 33.5359L621.344 33.5325L621.347 33.529L621.351 33.5256L621.354 33.5221L621.357 33.5187L621.361 33.5152L621.364 33.5118L621.368 33.5083L621.371 33.5049L621.375 33.5015L621.378 33.498L621.382 33.4946L621.385 33.4911L621.388 33.4877L621.392 33.4842L621.395 33.4808L621.399 33.4773L621.402 33.4739L621.406 33.4704L621.409 33.467L621.413 33.4635L621.416 33.4601L621.419 33.4567L621.423 33.4532L621.426 33.4498L621.43 33.4463L621.433 33.4429L621.437 33.4394L621.44 33.436L621.444 33.4325L621.447 33.4291L621.45 33.4256L621.454 33.4222L621.457 33.4188L621.461 33.4153L621.464 33.4119L621.468 33.4084L621.471 33.405L621.475 33.4015L621.478 33.3981L621.482 33.3946L621.485 33.3912L621.488 33.3877L621.492 33.3843L621.495 33.3808L621.499 33.3774L621.502 33.374L621.506 33.3705L621.509 33.3671L621.513 33.3636L621.516 33.3602L621.519 33.3567L621.523 33.3533L621.526 33.3498L621.53 33.3464L621.533 33.3429L621.537 33.3395L621.54 33.336L621.544 33.3326L621.547 33.3292L621.55 33.3257L621.554 33.3223L621.557 33.3188L621.561 33.3154L621.564 33.3119L621.568 33.3085L621.571 33.305L621.575 33.3016L621.578 33.2981L621.581 33.2947L621.585 33.2912L621.588 33.2878L621.592 33.2844L621.595 33.2809L621.599 33.2775L621.602 33.274L621.606 33.2706L621.609 33.2671L621.612 33.2637L621.616 33.2602L621.619 33.2568L621.623 33.2533L621.626 33.2499L621.63 33.2465L621.633 33.243L621.637 33.2396L621.64 33.2361L621.643 33.2327L621.647 33.2292L621.65 33.2258L621.654 33.2223L621.657 33.2189L621.661 33.2154L621.664 33.212L621.668 33.2085L621.671 33.2051L621.674 33.2017L621.678 33.1982L621.681 33.1948L621.685 33.1913L621.688 33.1879L621.692 33.1844L621.695 33.181L621.699 33.1775L621.702 33.1741L621.705 33.1706L621.709 33.1672L621.712 33.1637L621.716 33.1603L621.719 33.1569L621.723 33.1534L621.726 33.15L621.73 33.1465L621.733 33.1431L621.737 33.1396L621.74 33.1362L621.743 33.1327L621.747 33.1293L621.75 33.1258L621.754 33.1224L621.757 33.119L621.761 33.1155L621.764 33.1121L621.768 33.1086L621.771 33.1052L621.774 33.1017L621.778 33.0983L621.781 33.0948L621.785 33.0914L621.788 33.0879L621.792 33.0845L621.795 33.081L621.799 33.0776L621.802 33.0742L621.805 33.0707L621.809 33.0673L621.812 33.0638L621.816 33.0604L621.819 33.0569L621.823 33.0535L621.826 33.05L621.83 33.0466L621.833 33.0431L621.836 33.0397L621.84 33.0362L621.843 33.0328L621.847 33.0294L621.85 33.0259L621.854 33.0225L621.857 33.019L621.861 33.0156L621.864 33.0121L621.867 33.0087L621.871 33.0052L621.874 33.0018L621.878 32.9983L621.881 32.9949L621.885 32.9915L621.888 32.988L621.892 32.9846L621.895 32.9811L621.898 32.9777L621.902 32.9742L621.905 32.9708L621.909 32.9673L621.912 32.9639L621.916 32.9604L621.919 32.957L621.923 32.9535L621.926 32.9501L621.929 32.9467L621.933 32.9432L621.936 32.9398L621.94 32.9363L621.943 32.9329L621.947 32.9294L621.95 32.926L621.954 32.9225L621.957 32.9191L621.96 32.9156L621.964 32.9122L621.967 32.9087L621.971 32.9053L621.974 32.9019L621.978 32.8984L621.981 32.895L621.985 32.8915L621.988 32.8881L621.992 32.8846L621.995 32.8812L621.998 32.8777L622.002 32.8743L622.005 32.8708L622.009 32.8674L622.012 32.864L622.016 32.8605L622.019 32.8571L622.023 32.8536L622.026 32.8502L622.029 32.8467L622.033 32.8433L622.036 32.8398L622.04 32.8364L622.043 32.8329L622.047 32.8295L622.05 32.826L622.054 32.8226L622.057 32.8192L622.06 32.8157L622.064 32.8123L622.067 32.8088L622.071 32.8054L622.074 32.8019L622.078 32.7985L622.081 32.795L622.085 32.7916L622.088 32.7881L622.091 32.7847L622.095 32.7812L622.098 32.7778L622.102 32.7744L622.105 32.7709L622.109 32.7675L622.112 32.764L622.116 32.7606L622.119 32.7571L622.122 32.7537L622.126 32.7502L622.129 32.7468L622.133 32.7433L622.136 32.7399L622.14 32.7364L622.143 32.733L622.147 32.7296L622.15 32.7261L622.153 32.7227L622.157 32.7192L622.16 32.7158L622.164 32.7123L622.167 32.7089L622.171 32.7054L622.174 32.702L622.178 32.6985L622.181 32.6951L622.184 32.6917L622.188 32.6882L622.191 32.6848L622.195 32.6813L622.198 32.6779L622.202 32.6744L622.205 32.671L622.209 32.6675L622.212 32.6641L622.215 32.6606L622.219 32.6572L622.222 32.6537L622.226 32.6503L622.229 32.6469L622.233 32.6434L622.236 32.64L622.24 32.6365L622.243 32.6331L622.247 32.6296L622.25 32.6262L622.253 32.6227L622.257 32.6193L622.26 32.6158L622.264 32.6124L622.267 32.609L622.271 32.6055L622.274 32.6021L622.278 32.5986L622.281 32.5952L622.284 32.5917L622.288 32.5883L622.291 32.5848L622.295 32.5814L622.298 32.5779L622.302 32.5745L622.305 32.571L622.309 32.5676L622.312 32.5642L622.315 32.5607L622.319 32.5573L622.322 32.5538L622.326 32.5504L622.329 32.5469L622.333 32.5435L622.336 32.54L622.34 32.5366L622.343 32.5331L622.346 32.5297L622.35 32.5262L622.353 32.5228L622.357 32.5194L622.36 32.5159L622.364 32.5125L622.367 32.509L622.371 32.5056L622.374 32.5021L622.377 32.4987L622.381 32.4952L622.384 32.4918L622.388 32.4883L622.391 32.4849L622.395 32.4814L622.398 32.478L622.402 32.4746L622.405 32.4711L622.408 32.4677L622.412 32.4642L622.415 32.4608L622.419 32.4573L622.422 32.4539L622.426 32.4504L622.429 32.447L622.433 32.4435L622.436 32.4401L622.439 32.4367L622.443 32.4332L622.446 32.4298L622.45 32.4263L622.453 32.4229L622.457 32.4194L622.46 32.416L622.464 32.4125L622.467 32.4091L622.47 32.4056L622.474 32.4022L622.477 32.3987L622.481 32.3953L622.484 32.3919L622.488 32.3884L622.491 32.385L622.495 32.3815L622.498 32.3781L622.502 32.3746L622.505 32.3712L622.508 32.3677L622.512 32.3643L622.515 32.3608L622.519 32.3574L622.522 32.3539L622.526 32.3505L622.529 32.3471L622.533 32.3436L622.536 32.3402L622.539 32.3367L622.543 32.3333L622.546 32.3298L622.55 32.3264L622.553 32.3229L622.557 32.3195L622.56 32.316L622.564 32.3126L622.567 32.3092L622.57 32.3057L622.574 32.3023L622.577 32.2988L622.581 32.2954L622.584 32.2919L622.588 32.2885L622.591 32.285L622.595 32.2816L622.598 32.2781L622.601 32.2747L622.605 32.2712L622.608 32.2678L622.612 32.2644L622.615 32.2609L622.619 32.2575L622.622 32.254L622.626 32.2506L622.629 32.2471L622.632 32.2437L622.636 32.2402L622.639 32.2368L622.643 32.2333L622.646 32.2299L622.65 32.2264L622.653 32.223L622.657 32.2196L622.66 32.2161L622.663 32.2127L622.667 32.2092L622.67 32.2058L622.674 32.2023L622.677 32.1989L622.681 32.1954L622.684 32.192L622.688 32.1885L622.691 32.1851L622.694 32.1817L622.698 32.1782L622.701 32.1748L622.705 32.1713L622.708 32.1679L622.712 32.1644L622.715 32.161L622.719 32.1575L622.722 32.1541L622.725 32.1506L622.729 32.1472L622.732 32.1437L622.736 32.1403L622.739 32.1369L622.743 32.1334L622.746 32.13L622.75 32.1265L622.753 32.1231L622.757 32.1196L622.76 32.1162L622.763 32.1127L622.767 32.1093L622.77 32.1058L622.774 32.1024L622.777 32.0989L622.781 32.0955L622.784 32.0921L622.788 32.0886L622.791 32.0852L622.794 32.0817L622.798 32.0783L622.801 32.0748L622.805 32.0714L622.808 32.0679L622.812 32.0645L622.815 32.061L622.819 32.0576L622.822 32.0542L622.825 32.0507L622.829 32.0473L622.832 32.0438L622.836 32.0404L622.839 32.0369L622.843 32.0335L622.846 32.03L622.85 32.0266L622.853 32.0231L622.856 32.0197C623.034 31.8421 623.137 31.5717 623.213 31.3316C623.265 31.1647 623.316 30.9699 623.368 30.7733C623.393 30.6763 623.418 30.5789 623.444 30.4843C623.611 29.8747 623.813 29.2989 624.181 28.9309L624.196 28.9154L624.212 28.8998L624.227 28.8843L624.243 28.8688L624.258 28.8533L624.274 28.8378L624.289 28.8223L624.305 28.8068L624.321 28.7913L624.336 28.7758L624.352 28.7603L624.367 28.7448L624.383 28.7293L624.398 28.7138L624.414 28.6983L624.429 28.6827L624.445 28.6672L624.46 28.6517L624.476 28.6362L624.491 28.6207L624.507 28.6052L624.522 28.5897L624.538 28.5742L624.553 28.5587L624.569 28.5432L624.584 28.5277L624.6 28.5122L624.615 28.4966L624.631 28.4811L624.646 28.4656L624.662 28.4501L624.677 28.4346L624.693 28.4191L624.708 28.4036L624.724 28.3881L624.739 28.3726L624.755 28.3571L624.77 28.3416L624.786 28.3261L624.801 28.3105L624.817 28.295L624.832 28.2795L624.848 28.264L624.863 28.2485L624.879 28.233L624.894 28.2175L624.91 28.202L624.925 28.1865L624.941 28.171L624.956 28.1555L624.972 28.1399L624.987 28.1244L625.003 28.1089L625.018 28.0934L625.034 28.0779L625.049 28.0624L625.065 28.0469L625.08 28.0314L625.096 28.0159L625.111 28.0004L625.127 27.9848L625.142 27.9693L625.158 27.9538L625.173 27.9383L625.189 27.9228L625.205 27.9073L625.22 27.8918L625.236 27.8763L625.251 27.8608L625.267 27.8453L625.282 27.8297L625.298 27.8142L625.313 27.7987L625.329 27.7832L625.344 27.7677L625.36 27.7522L625.375 27.7367L625.391 27.7212L625.406 27.7057L625.422 27.6902L625.437 27.6746L625.453 27.6591L625.468 27.6436L625.484 27.6281L625.499 27.6126L625.515 27.5971L625.53 27.5816L625.546 27.5661L625.561 27.5506L625.577 27.535L625.592 27.5195L625.608 27.504L625.623 27.4885L625.639 27.473L625.654 27.4575L625.67 27.442L625.685 27.4265L625.701 27.411L625.716 27.3954L625.732 27.3799L625.747 27.3644L625.763 27.3489L625.778 27.3334L625.794 27.3179L625.809 27.3024L625.825 27.2869L625.84 27.2713L625.856 27.2558L625.871 27.2403L625.887 27.2248L625.903 27.2093L625.918 27.1938L625.934 27.1783L625.949 27.1628L625.965 27.1473L625.98 27.1317L625.996 27.1162L626.011 27.1007L626.027 27.0852L626.042 27.0697L626.058 27.0542L626.073 27.0387L626.089 27.0232L626.104 27.0076L626.12 26.9921L626.135 26.9766L626.151 26.9611L626.166 26.9456L626.182 26.9301L626.197 26.9146L626.213 26.8991L626.228 26.8835L626.244 26.868L626.259 26.8525L626.275 26.837L626.29 26.8215L626.306 26.806L626.321 26.7905L626.337 26.775L626.352 26.7594L626.368 26.7439L626.383 26.7284L626.399 26.7129L626.414 26.6974L626.43 26.6819L626.445 26.6664L626.461 26.6509L626.476 26.6353L626.492 26.6198L626.507 26.6043L626.523 26.5888L626.539 26.5733L626.554 26.5578L626.57 26.5423L626.585 26.5268L626.601 26.5112L626.616 26.4957L626.632 26.4802L626.647 26.4647L626.663 26.4492L626.678 26.4337L626.694 26.4182L626.709 26.4026L626.725 26.3871L626.74 26.3716L626.756 26.3561L626.771 26.3406L626.787 26.3251L626.802 26.3096L626.818 26.2941L626.833 26.2785L626.849 26.263L626.864 26.2475L626.88 26.232L626.895 26.2165L626.911 26.201L626.926 26.1855L626.942 26.1699L626.957 26.1544L626.973 26.1389L626.988 26.1234L627.004 26.1079L627.019 26.0924L627.035 26.0769L627.05 26.0614L627.066 26.0458L627.081 26.0303L627.097 26.0148L627.113 25.9993L627.128 25.9838L627.144 25.9683L627.159 25.9528L627.175 25.9372L627.19 25.9217L627.206 25.9062L627.221 25.8907L627.237 25.8752L627.252 25.8597L627.268 25.8442L627.283 25.8286L627.299 25.8131L627.314 25.7976L627.33 25.7821L627.345 25.7666L627.361 25.7511L627.376 25.7356L627.392 25.7201L627.407 25.7045L627.423 25.689L627.438 25.6735L627.454 25.658L627.469 25.6425L627.485 25.627L627.5 25.6115L627.516 25.5959L627.531 25.5804L627.547 25.5649L627.562 25.5494L627.578 25.5339L627.593 25.5184L627.609 25.5029L627.624 25.4873L627.64 25.4718L627.655 25.4563L627.671 25.4408L627.687 25.4253L627.702 25.4098L627.718 25.3943L627.733 25.3787L627.749 25.3632L627.764 25.3477L627.78 25.3322L627.795 25.3167L627.811 25.3012L627.826 25.2857L627.842 25.2701L627.857 25.2546L627.873 25.2391L627.888 25.2236L627.904 25.2081L627.919 25.1926L627.935 25.1771L627.95 25.1615L627.966 25.146L627.981 25.1305L627.997 25.115L628.012 25.0995L628.028 25.084L628.043 25.0685L628.059 25.0529L628.074 25.0374L628.09 25.0219L628.105 25.0064L628.121 24.9909L628.136 24.9754L628.152 24.9599L628.167 24.9443L628.183 24.9288L628.198 24.9133L628.214 24.8978L628.23 24.8823L628.245 24.8668L628.261 24.8513L628.276 24.8357L628.292 24.8202L628.307 24.8047L628.323 24.7892L628.338 24.7737L628.354 24.7582L628.369 24.7427L628.385 24.7272L628.4 24.7116L628.416 24.6961L628.431 24.6806L628.447 24.6651L628.462 24.6496L628.478 24.6341L628.493 24.6186L628.509 24.603L628.524 24.5875L628.54 24.572L628.555 24.5565L628.571 24.541L628.586 24.5255L628.602 24.51L628.617 24.4944L628.633 24.4789L628.648 24.4634L628.664 24.4479L628.679 24.4324L628.695 24.4169L628.71 24.4014L628.726 24.3858L628.741 24.3703L628.757 24.3548L628.773 24.3393L628.788 24.3238L628.804 24.3083L628.819 24.2928L628.835 24.2772L628.85 24.2617L628.866 24.2462L628.881 24.2307L628.897 24.2152L628.912 24.1997L628.928 24.1842L628.943 24.1686L628.959 24.1531L628.974 24.1376L628.99 24.1221L629.005 24.1066L629.021 24.0911L629.036 24.0756L629.052 24.06L629.067 24.0445L629.083 24.029L629.098 24.0135L629.114 23.998L629.129 23.9825L629.145 23.967L629.16 23.9515L629.176 23.9359L629.191 23.9204L629.207 23.9049L629.222 23.8894L629.238 23.8739L629.253 23.8584L629.269 23.8429L629.284 23.8273L629.3 23.8118L629.315 23.7963L629.331 23.7808L629.347 23.7653L629.362 23.7498L629.378 23.7343L629.393 23.7187L629.409 23.7032L629.424 23.6877L629.44 23.6722L629.455 23.6567L629.471 23.6412L629.486 23.6257L629.502 23.6102L629.517 23.5946L629.533 23.5791L629.548 23.5636L629.564 23.5481L629.579 23.5326L629.595 23.5171L629.61 23.5016L629.626 23.486L629.641 23.4705L629.657 23.455L629.672 23.4395L629.688 23.424L629.703 23.4085L629.719 23.393L629.734 23.3775L629.75 23.3619L629.765 23.3464L629.781 23.3309L629.796 23.3154L629.812 23.2999L629.827 23.2844L629.843 23.2689L629.858 23.2534L629.874 23.2378L629.889 23.2223L629.905 23.2068L629.921 23.1913L629.936 23.1758L629.952 23.1603L629.967 23.1448L629.983 23.1293L629.998 23.1137L630.014 23.0982L630.029 23.0827L630.045 23.0672L630.06 23.0517L630.076 23.0362L630.091 23.0207L630.107 23.0052L630.122 22.9896L630.138 22.9741L630.153 22.9586L630.169 22.9431L630.184 22.9276L630.2 22.9121L630.215 22.8966L630.231 22.8811L630.246 22.8655L630.262 22.85L630.277 22.8345L630.293 22.819L630.308 22.8035L630.324 22.788L630.339 22.7725L630.355 22.757L630.37 22.7414L630.386 22.7259L630.401 22.7104L630.417 22.6949L630.432 22.6794L630.448 22.6639L630.463 22.6484L630.479 22.6329L630.494 22.6174L630.51 22.6018L630.525 22.5863L630.541 22.5708L630.556 22.5553L630.572 22.5398L630.588 22.5243L630.603 22.5088L630.619 22.4933L630.634 22.4777L630.65 22.4622L630.665 22.4467L630.681 22.4312L630.696 22.4157L630.712 22.4002L630.727 22.3847L630.743 22.3692L630.758 22.3537L630.774 22.3381L630.789 22.3226L630.805 22.3071L630.82 22.2916L630.836 22.2761L630.851 22.2606L630.867 22.2451L630.882 22.2296L630.898 22.2141L630.913 22.1986L630.929 22.183L630.944 22.1675L630.96 22.152L630.975 22.1365L630.991 22.121L631.006 22.1055L631.022 22.09L631.037 22.0745L631.053 22.059L631.068 22.0434L631.084 22.0279L631.099 22.0124L631.115 21.9969L631.13 21.9814L631.146 21.9659L631.161 21.9504L631.177 21.9349L631.192 21.9194L631.208 21.9039L631.223 21.8883L631.239 21.8728L631.254 21.8573L631.27 21.8418L631.285 21.8263L631.301 21.8108L631.317 21.7953L631.332 21.7798L631.348 21.7643L631.363 21.7488L631.379 21.7333L631.394 21.7177L631.41 21.7022L631.425 21.6867L631.441 21.6712L631.456 21.6557L631.472 21.6402L631.487 21.6247L631.503 21.6092L631.518 21.5937L631.534 21.5782L631.549 21.5627L631.565 21.5471L631.58 21.5316L631.596 21.5161L631.611 21.5006L631.627 21.4851L631.642 21.4696L631.658 21.4541L631.673 21.4386L631.689 21.4231L631.704 21.4076L631.72 21.3921L631.735 21.3766L631.751 21.361L631.766 21.3455L631.782 21.33L631.797 21.3145L631.813 21.299L631.828 21.2835L631.844 21.268L631.859 21.2525L631.875 21.237L631.89 21.2215L631.906 21.206L631.921 21.1905L631.937 21.175L631.952 21.1594L631.968 21.1439L631.983 21.1284L631.999 21.1129L632.014 21.0974L632.03 21.0819L632.045 21.0664L632.061 21.0509L632.076 21.0354L632.092 21.0199L632.107 21.0044L632.123 20.9889Z" fill="white" stroke="white" stroke-width="0.702726"/>
<path d="M662.593 40L658.71 23.9923L658.578 23.3275H658.471L658.338 23.9923L654.536 40H651.398L646.399 21.3864H648.765L652.754 37.7664L652.887 38.4311H653.02L653.126 37.7664L657.062 21.3864H660.013L664.055 37.7664L664.215 38.4311H664.321L664.427 37.7664L668.283 21.3864H670.65L665.651 40H662.593ZM672.103 40L678.485 21.3864H681.622L688.137 40H685.903L684.521 36.1443H675.666L674.336 40H672.103ZM680.107 22.9818H680C680 23.1945 679.938 23.4516 679.814 23.753L676.224 34.4159H683.962L680.293 23.753C680.169 23.4516 680.107 23.1945 680.107 22.9818ZM692.129 21.3864H701.968C702.393 21.3864 702.819 21.5636 703.244 21.9182L703.882 22.45C704.308 22.8045 704.52 23.2477 704.52 23.7795V30.0018C704.52 30.5514 704.299 31.0123 703.856 31.3845L703.191 31.943C702.801 32.262 702.393 32.4216 701.968 32.4216H700.479L703.217 36.6761C703.412 36.9775 703.545 37.1725 703.616 37.2611C703.705 37.332 703.891 37.4473 704.175 37.6068L704.467 37.7664C704.786 37.9436 704.972 38.0855 705.026 38.1918C705.079 38.2982 705.105 38.5552 705.105 38.963V40H704.441C704.121 40 703.9 39.9823 703.776 39.9468C703.669 39.9114 703.474 39.7961 703.191 39.6011L702.686 39.2555C702.296 38.9895 701.976 38.6439 701.728 38.2184L698.192 32.5545H694.363V40H692.129V21.3864ZM694.363 23.2477V30.6932H700.984C701.303 30.6932 701.507 30.6843 701.595 30.6666C701.684 30.6311 701.808 30.5514 701.968 30.4273C702.127 30.3032 702.216 30.2057 702.234 30.1348C702.269 30.0461 702.287 29.8689 702.287 29.603V24.338C702.287 24.072 702.269 23.9036 702.234 23.8327C702.216 23.7441 702.127 23.6377 701.968 23.5136C701.808 23.3895 701.684 23.3186 701.595 23.3009C701.507 23.2655 701.303 23.2477 700.984 23.2477H694.363ZM715.339 40L721.721 21.3864H724.858L731.373 40H729.14L727.757 36.1443H718.902L717.573 40H715.339ZM723.343 22.9818H723.236C723.236 23.1945 723.174 23.4516 723.05 23.753L719.46 34.4159H727.198L723.529 23.753C723.405 23.4516 723.343 23.1945 723.343 22.9818ZM746.852 38.1386V40H735.365V21.3864H737.599V38.1386H746.852ZM751.595 32.5545V40H749.362V21.3864H759.2C759.626 21.3864 760.051 21.5636 760.477 21.9182L761.115 22.45C761.54 22.8045 761.753 23.2477 761.753 23.7795V30.1614C761.753 30.6932 761.54 31.1364 761.115 31.4909L760.477 32.0227C760.051 32.3773 759.626 32.5545 759.2 32.5545H751.595ZM751.595 23.2477V30.6932H758.217C758.536 30.6932 758.739 30.6843 758.828 30.6666C758.917 30.6311 759.041 30.5514 759.2 30.4273C759.36 30.3032 759.449 30.2057 759.466 30.1348C759.502 30.0461 759.519 29.8689 759.519 29.603V24.338C759.519 24.072 759.502 23.9036 759.466 23.8327C759.449 23.7441 759.36 23.6377 759.2 23.5136C759.041 23.3895 758.917 23.3186 758.828 23.3009C758.739 23.2655 758.536 23.2477 758.217 23.2477H751.595ZM778.309 21.3864H780.543V40H778.309V31.358H768.63V40H766.397V21.3864H768.63V29.6295H778.309V21.3864ZM784.543 40L790.925 21.3864H794.062L800.577 40H798.343L796.961 36.1443H788.106L786.776 40H784.543ZM792.547 22.9818H792.44C792.44 23.1945 792.378 23.4516 792.254 23.753L788.664 34.4159H796.402L792.733 23.753C792.609 23.4516 792.547 23.1945 792.547 22.9818Z" fill="white"/>
<path d="M662.593 40L661.301 40.3134L661.547 41.3295H662.593V40ZM658.71 23.9923L657.407 24.253L657.412 24.2794L657.418 24.3056L658.71 23.9923ZM658.578 23.3275L659.881 23.0668L659.667 21.998H658.578V23.3275ZM658.471 23.3275V21.998H657.381L657.167 23.0668L658.471 23.3275ZM658.338 23.9923L659.632 24.2995L659.637 24.2764L659.642 24.253L658.338 23.9923ZM654.536 40V41.3295H655.586L655.829 40.3073L654.536 40ZM651.398 40L650.114 40.3449L650.378 41.3295H651.398V40ZM646.399 21.3864V20.0568H644.665L645.115 21.7312L646.399 21.3864ZM648.765 21.3864L650.057 21.0718L649.81 20.0568H648.765V21.3864ZM652.754 37.7664L654.058 37.5056L654.052 37.4786L654.046 37.4518L652.754 37.7664ZM652.887 38.4311L651.583 38.6919L651.797 39.7607H652.887V38.4311ZM653.02 38.4311V39.7607H654.154L654.333 38.6412L653.02 38.4311ZM653.126 37.7664L651.834 37.4558L651.822 37.5056L651.814 37.5563L653.126 37.7664ZM657.062 21.3864V20.0568H656.014L655.769 21.0758L657.062 21.3864ZM660.013 21.3864L661.304 21.0678L661.055 20.0568H660.013V21.3864ZM664.055 37.7664L665.348 37.4561L665.346 37.4478L664.055 37.7664ZM664.215 38.4311L662.922 38.7414L663.167 39.7607H664.215V38.4311ZM664.321 38.4311V39.7607H665.455L665.634 38.6412L664.321 38.4311ZM664.427 37.7664L663.133 37.4617L663.122 37.5087L663.115 37.5563L664.427 37.7664ZM668.283 21.3864V20.0568H667.23L666.989 21.0817L668.283 21.3864ZM670.65 21.3864L671.934 21.7312L672.384 20.0568H670.65V21.3864ZM665.651 40V41.3295H666.67L666.935 40.3449L665.651 40ZM663.885 39.6866L660.003 23.6789L657.418 24.3056L661.301 40.3134L663.885 39.6866ZM660.014 23.7315L659.881 23.0668L657.274 23.5882L657.407 24.253L660.014 23.7315ZM658.578 21.998H658.471V24.657H658.578V21.998ZM657.167 23.0668L657.034 23.7315L659.642 24.253L659.775 23.5882L657.167 23.0668ZM657.045 23.685L653.242 39.6927L655.829 40.3073L659.632 24.2995L657.045 23.685ZM654.536 38.6705H651.398V41.3295H654.536V38.6705ZM652.682 39.6551L647.683 21.0415L645.115 21.7312L650.114 40.3449L652.682 39.6551ZM646.399 22.7159H648.765V20.0568H646.399V22.7159ZM647.474 21.7009L651.462 38.0809L654.046 37.4518L650.057 21.0718L647.474 21.7009ZM651.45 38.0271L651.583 38.6919L654.191 38.1704L654.058 37.5056L651.45 38.0271ZM652.887 39.7607H653.02V37.1016H652.887V39.7607ZM654.333 38.6412L654.439 37.9764L651.814 37.5563L651.707 38.2211L654.333 38.6412ZM654.419 38.077L658.355 21.697L655.769 21.0758L651.834 37.4558L654.419 38.077ZM657.062 22.7159H660.013V20.0568H657.062V22.7159ZM658.723 21.7049L662.764 38.0849L665.346 37.4478L661.304 21.0678L658.723 21.7049ZM662.762 38.0766L662.922 38.7414L665.508 38.1209L665.348 37.4561L662.762 38.0766ZM664.215 39.7607H664.321V37.1016H664.215V39.7607ZM665.634 38.6412L665.74 37.9764L663.115 37.5563L663.008 38.2211L665.634 38.6412ZM665.722 38.071L669.577 21.691L666.989 21.0817L663.133 37.4617L665.722 38.071ZM668.283 22.7159H670.65V20.0568H668.283V22.7159ZM669.366 21.0415L664.367 39.6551L666.935 40.3449L671.934 21.7312L669.366 21.0415ZM665.651 38.6705H662.593V41.3295H665.651V38.6705ZM672.103 40L670.845 39.5688L670.241 41.3295H672.103V40ZM678.485 21.3864V20.0568H677.535L677.227 20.9552L678.485 21.3864ZM681.622 21.3864L682.877 20.9471L682.566 20.0568H681.622V21.3864ZM688.137 40V41.3295H690.011L689.392 39.5608L688.137 40ZM685.903 40L684.652 40.4488L684.968 41.3295H685.903V40ZM684.521 36.1443L685.772 35.6955L685.456 34.8148H684.521V36.1443ZM675.666 36.1443V34.8148H674.718L674.409 35.7109L675.666 36.1443ZM674.336 40V41.3295H675.284L675.593 40.4334L674.336 40ZM680.107 22.9818H681.436V21.6523H680.107V22.9818ZM680 22.9818V21.6523H678.671V22.9818H680ZM679.814 23.753L678.585 23.2467L678.568 23.2872L678.554 23.3287L679.814 23.753ZM676.224 34.4159L674.964 33.9917L674.374 35.7455H676.224V34.4159ZM683.962 34.4159V35.7455H685.826L685.219 33.9833L683.962 34.4159ZM680.293 23.753L681.55 23.3203L681.537 23.2831L681.522 23.2467L680.293 23.753ZM673.36 40.4312L679.742 21.8176L677.227 20.9552L670.845 39.5688L673.36 40.4312ZM678.485 22.7159H681.622V20.0568H678.485V22.7159ZM680.367 21.8256L686.882 40.4392L689.392 39.5608L682.877 20.9471L680.367 21.8256ZM688.137 38.6705H685.903V41.3295H688.137V38.6705ZM687.155 39.5512L685.772 35.6955L683.269 36.5931L684.652 40.4488L687.155 39.5512ZM684.521 34.8148H675.666V37.4739H684.521V34.8148ZM674.409 35.7109L673.079 39.5666L675.593 40.4334L676.923 36.5777L674.409 35.7109ZM674.336 38.6705H672.103V41.3295H674.336V38.6705ZM680.107 21.6523H680V24.3114H680.107V21.6523ZM678.671 22.9818C678.671 22.9613 678.673 22.9722 678.661 23.0222C678.649 23.0713 678.626 23.1452 678.585 23.2467L681.043 24.2592C681.202 23.8739 681.33 23.4354 681.33 22.9818H678.671ZM678.554 23.3287L674.964 33.9917L677.484 34.8401L681.074 24.1772L678.554 23.3287ZM676.224 35.7455H683.962V33.0864H676.224V35.7455ZM685.219 33.9833L681.55 23.3203L679.036 24.1856L682.705 34.8486L685.219 33.9833ZM681.522 23.2467C681.48 23.1452 681.457 23.0713 681.446 23.0222C681.433 22.9722 681.436 22.9613 681.436 22.9818H678.777C678.777 23.4354 678.905 23.8739 679.063 24.2592L681.522 23.2467ZM692.129 21.3864V20.0568H690.799V21.3864H692.129ZM703.244 21.9182L702.393 22.9396L702.393 22.9396L703.244 21.9182ZM703.882 22.45L704.733 21.4286L704.733 21.4286L703.882 22.45ZM703.856 31.3845L703 30.3665L703 30.3665L703.856 31.3845ZM703.191 31.943L704.033 32.972L704.039 32.9665L704.046 32.961L703.191 31.943ZM700.479 32.4216V31.092H698.041L699.361 33.1413L700.479 32.4216ZM703.217 36.6761L702.099 37.3958L702.101 37.3984L703.217 36.6761ZM703.616 37.2611L702.578 38.0917L702.67 38.2071L702.786 38.2993L703.616 37.2611ZM704.175 37.6068L703.523 38.7656L703.53 38.7699L703.538 38.774L704.175 37.6068ZM704.467 37.7664L705.113 36.6041L705.104 36.5992L704.467 37.7664ZM705.026 38.1918L706.215 37.5972L706.215 37.5972L705.026 38.1918ZM705.105 40V41.3295H706.435V40H705.105ZM703.776 39.9468L703.355 41.2081L703.383 41.2173L703.411 41.2252L703.776 39.9468ZM703.191 39.6011L703.944 38.5055L703.942 38.5039L703.191 39.6011ZM702.686 39.2555L703.436 38.1582L703.435 38.1569L702.686 39.2555ZM701.728 38.2184L702.877 37.5485L702.867 37.5312L702.856 37.5142L701.728 38.2184ZM698.192 32.5545L699.319 31.8504L698.929 31.225H698.192V32.5545ZM694.363 32.5545V31.225H693.033V32.5545H694.363ZM694.363 40V41.3295H695.692V40H694.363ZM692.129 40H690.799V41.3295H692.129V40ZM694.363 23.2477V21.9182H693.033V23.2477H694.363ZM694.363 30.6932H693.033V32.0227H694.363V30.6932ZM701.595 30.6666L701.856 31.9703L701.976 31.9464L702.089 31.901L701.595 30.6666ZM702.234 30.1348L700.999 29.641L700.966 29.7248L700.944 29.8123L702.234 30.1348ZM702.234 23.8327L700.93 24.0935L700.965 24.2681L701.044 24.4273L702.234 23.8327ZM701.968 23.5136L701.151 24.5631L701.151 24.5631L701.968 23.5136ZM701.595 23.3009L701.102 24.5354L701.215 24.5807L701.335 24.6046L701.595 23.3009ZM692.129 22.7159H701.968V20.0568H692.129V22.7159ZM701.968 22.7159C701.999 22.7159 702.133 22.7232 702.393 22.9396L704.095 20.8968C703.504 20.4041 702.788 20.0568 701.968 20.0568V22.7159ZM702.393 22.9396L703.031 23.4714L704.733 21.4286L704.095 20.8968L702.393 22.9396ZM703.031 23.4714C703.168 23.5853 703.191 23.6607 703.191 23.7795H705.85C705.85 22.8348 705.447 22.0238 704.733 21.4286L703.031 23.4714ZM703.191 23.7795V30.0018H705.85V23.7795H703.191ZM703.191 30.0018C703.191 30.1353 703.161 30.2315 703 30.3665L704.711 32.4026C705.436 31.7931 705.85 30.9674 705.85 30.0018H703.191ZM703 30.3665L702.336 30.9249L704.046 32.961L704.711 32.4026L703 30.3665ZM702.349 30.9139C702.151 31.0761 702.032 31.092 701.968 31.092V33.7511C702.754 33.7511 703.451 33.448 704.033 32.972L702.349 30.9139ZM701.968 31.092H700.479V33.7511H701.968V31.092ZM699.361 33.1413L702.099 37.3958L704.335 35.9565L701.596 31.7019L699.361 33.1413ZM702.101 37.3984C702.289 37.6882 702.458 37.9415 702.578 38.0917L704.654 36.4306C704.656 36.433 704.649 36.4244 704.631 36.3987C704.614 36.3747 704.591 36.342 704.562 36.2994C704.504 36.214 704.428 36.0997 704.334 35.9539L702.101 37.3984ZM702.786 38.2993C702.972 38.4483 703.252 38.6133 703.523 38.7656L704.826 36.448C704.694 36.3734 704.594 36.3147 704.522 36.2703C704.441 36.2201 704.427 36.2072 704.447 36.2229L702.786 38.2993ZM703.538 38.774L703.831 38.9336L705.104 36.5992L704.811 36.4396L703.538 38.774ZM703.821 38.9286C703.884 38.9634 703.934 38.9927 703.972 39.0168C704.01 39.0413 704.032 39.0568 704.04 39.0632C704.051 39.0711 704.034 39.0596 704.004 39.0283C703.988 39.0117 703.964 38.985 703.936 38.948C703.908 38.9114 703.872 38.8575 703.836 38.7864L706.215 37.5972C706.046 37.2596 705.779 37.0453 705.652 36.9481C705.488 36.8234 705.301 36.7087 705.113 36.6041L703.821 38.9286ZM703.836 38.7864C703.806 38.7262 703.789 38.677 703.779 38.6475C703.769 38.6169 703.764 38.5949 703.762 38.5849C703.758 38.5667 703.76 38.5692 703.763 38.6012C703.77 38.6661 703.776 38.782 703.776 38.963H706.435C706.435 38.7362 706.428 38.5197 706.408 38.3276C706.393 38.1824 706.357 37.8821 706.215 37.5972L703.836 38.7864ZM703.776 38.963V40H706.435V38.963H703.776ZM705.105 38.6705H704.441V41.3295H705.105V38.6705ZM704.441 38.6705C704.303 38.6705 704.205 38.6665 704.141 38.6614C704.11 38.6589 704.093 38.6566 704.089 38.656C704.083 38.6551 704.104 38.6577 704.141 38.6684L703.411 41.2252C703.734 41.3176 704.127 41.3295 704.441 41.3295V38.6705ZM704.196 38.6855C704.251 38.7037 704.28 38.7193 704.274 38.7161C704.272 38.7149 704.257 38.7072 704.226 38.6892C704.165 38.6527 704.072 38.5937 703.944 38.5055L702.438 40.6967C702.691 40.8712 703.04 41.103 703.355 41.2081L704.196 38.6855ZM703.942 38.5039L703.436 38.1582L701.935 40.3527L702.44 40.6984L703.942 38.5039ZM703.435 38.1569C703.215 38.0073 703.03 37.8108 702.877 37.5485L700.58 38.8883C700.923 39.4769 701.376 39.9718 701.937 40.354L703.435 38.1569ZM702.856 37.5142L699.319 31.8504L697.064 33.2587L700.601 38.9226L702.856 37.5142ZM698.192 31.225H694.363V33.8841H698.192V31.225ZM693.033 32.5545V40H695.692V32.5545H693.033ZM694.363 38.6705H692.129V41.3295H694.363V38.6705ZM693.459 40V21.3864H690.799V40H693.459ZM693.033 23.2477V30.6932H695.692V23.2477H693.033ZM694.363 32.0227H700.984V29.3636H694.363V32.0227ZM700.984 32.0227C701.265 32.0227 701.612 32.0191 701.856 31.9703L701.335 29.3629C701.378 29.3541 701.401 29.3528 701.387 29.3541C701.377 29.355 701.356 29.3566 701.318 29.3582C701.243 29.3615 701.133 29.3636 700.984 29.3636V32.0227ZM702.089 31.901C702.362 31.7918 702.61 31.6118 702.784 31.4768L701.151 29.3778C701.092 29.4237 701.055 29.4496 701.036 29.4618C701.027 29.4675 701.027 29.467 701.035 29.4626C701.043 29.4587 701.065 29.4466 701.102 29.4321L702.089 31.901ZM702.784 31.4768C702.896 31.3898 703.023 31.282 703.138 31.1554C703.229 31.0553 703.434 30.8149 703.523 30.4572L700.944 29.8123C700.983 29.6533 701.046 29.5412 701.083 29.483C701.122 29.4216 701.156 29.3825 701.17 29.3667C701.196 29.3377 701.199 29.3406 701.151 29.3778L702.784 31.4768ZM703.468 30.6286C703.556 30.4083 703.584 30.1928 703.596 30.0676C703.611 29.9194 703.616 29.7609 703.616 29.603H700.957C700.957 29.6551 700.956 29.698 700.955 29.7326C700.954 29.7677 700.952 29.7905 700.95 29.803C700.95 29.809 700.95 29.8111 700.95 29.8096C700.95 29.8083 700.951 29.8018 700.953 29.7909C700.955 29.7803 700.959 29.7624 700.966 29.7389C700.972 29.7158 700.983 29.682 700.999 29.641L703.468 30.6286ZM703.616 29.603V24.338H700.957V29.603H703.616ZM703.616 24.338C703.616 24.1815 703.611 24.0217 703.596 23.873C703.585 23.769 703.555 23.5027 703.423 23.2381L701.044 24.4273C701.013 24.3641 700.993 24.3108 700.982 24.2755C700.97 24.2392 700.963 24.2104 700.959 24.1926C700.951 24.1587 700.95 24.1421 700.951 24.1514C700.952 24.1587 700.954 24.1776 700.955 24.211C700.956 24.2438 700.957 24.2857 700.957 24.338H703.616ZM703.537 23.572C703.468 23.2249 703.292 22.976 703.175 22.8353C703.049 22.6838 702.908 22.5606 702.784 22.4642L701.151 24.5631C701.187 24.5907 701.17 24.5828 701.132 24.5376C701.112 24.5132 701.077 24.4672 701.04 24.3996C701.003 24.3321 700.957 24.2288 700.93 24.0935L703.537 23.572ZM702.784 22.4642C702.615 22.3329 702.277 22.0814 701.856 21.9972L701.335 24.6046C701.251 24.588 701.19 24.5654 701.157 24.5514C701.122 24.537 701.101 24.5252 701.095 24.5218C701.085 24.5162 701.103 24.5252 701.151 24.5631L702.784 22.4642ZM702.089 22.0665C701.851 21.971 701.61 21.9468 701.491 21.9365C701.336 21.923 701.163 21.9182 700.984 21.9182V24.5773C701.052 24.5773 701.109 24.5782 701.156 24.5798C701.204 24.5815 701.239 24.5836 701.261 24.5856C701.285 24.5877 701.285 24.5886 701.269 24.5857C701.261 24.5842 701.243 24.5806 701.217 24.5739C701.193 24.5675 701.152 24.5556 701.102 24.5354L702.089 22.0665ZM700.984 21.9182H694.363V24.5773H700.984V21.9182ZM715.339 40L714.081 39.5688L713.478 41.3295H715.339V40ZM721.721 21.3864V20.0568H720.771L720.463 20.9552L721.721 21.3864ZM724.858 21.3864L726.113 20.9471L725.802 20.0568H724.858V21.3864ZM731.373 40V41.3295H733.247L732.628 39.5608L731.373 40ZM729.14 40L727.888 40.4488L728.204 41.3295H729.14V40ZM727.757 36.1443L729.008 35.6955L728.693 34.8148H727.757V36.1443ZM718.902 36.1443V34.8148H717.954L717.645 35.7109L718.902 36.1443ZM717.573 40V41.3295H718.52L718.829 40.4334L717.573 40ZM723.343 22.9818H724.672V21.6523H723.343V22.9818ZM723.236 22.9818V21.6523H721.907V22.9818H723.236ZM723.05 23.753L721.821 23.2467L721.804 23.2872L721.79 23.3287L723.05 23.753ZM719.46 34.4159L718.2 33.9917L717.61 35.7455H719.46V34.4159ZM727.198 34.4159V35.7455H729.062L728.456 33.9833L727.198 34.4159ZM723.529 23.753L724.786 23.3203L724.773 23.2831L724.758 23.2467L723.529 23.753ZM716.597 40.4312L722.978 21.8176L720.463 20.9552L714.081 39.5688L716.597 40.4312ZM721.721 22.7159H724.858V20.0568H721.721V22.7159ZM723.604 21.8256L730.118 40.4392L732.628 39.5608L726.113 20.9471L723.604 21.8256ZM731.373 38.6705H729.14V41.3295H731.373V38.6705ZM730.391 39.5512L729.008 35.6955L726.505 36.5931L727.888 40.4488L730.391 39.5512ZM727.757 34.8148H718.902V37.4739H727.757V34.8148ZM717.645 35.7109L716.316 39.5666L718.829 40.4334L720.159 36.5777L717.645 35.7109ZM717.573 38.6705H715.339V41.3295H717.573V38.6705ZM723.343 21.6523H723.236V24.3114H723.343V21.6523ZM721.907 22.9818C721.907 22.9613 721.91 22.9722 721.897 23.0222C721.886 23.0713 721.863 23.1452 721.821 23.2467L724.28 24.2592C724.438 23.8739 724.566 23.4354 724.566 22.9818H721.907ZM721.79 23.3287L718.2 33.9917L720.721 34.8401L724.31 24.1772L721.79 23.3287ZM719.46 35.7455H727.198V33.0864H719.46V35.7455ZM728.456 33.9833L724.786 23.3203L722.272 24.1856L725.941 34.8486L728.456 33.9833ZM724.758 23.2467C724.717 23.1452 724.694 23.0713 724.682 23.0222C724.67 22.9722 724.672 22.9613 724.672 22.9818H722.013C722.013 23.4354 722.141 23.8739 722.3 24.2592L724.758 23.2467ZM746.852 38.1386H748.182V36.8091H746.852V38.1386ZM746.852 40V41.3295H748.182V40H746.852ZM735.365 40H734.036V41.3295H735.365V40ZM735.365 21.3864V20.0568H734.036V21.3864H735.365ZM737.599 21.3864H738.928V20.0568H737.599V21.3864ZM737.599 38.1386H736.269V39.4682H737.599V38.1386ZM745.523 38.1386V40H748.182V38.1386H745.523ZM746.852 38.6705H735.365V41.3295H746.852V38.6705ZM736.695 40V21.3864H734.036V40H736.695ZM735.365 22.7159H737.599V20.0568H735.365V22.7159ZM736.269 21.3864V38.1386H738.928V21.3864H736.269ZM737.599 39.4682H746.852V36.8091H737.599V39.4682ZM751.595 32.5545V31.225H750.266V32.5545H751.595ZM751.595 40V41.3295H752.925V40H751.595ZM749.362 40H748.032V41.3295H749.362V40ZM749.362 21.3864V20.0568H748.032V21.3864H749.362ZM760.477 21.9182L759.626 22.9396L759.626 22.9396L760.477 21.9182ZM761.115 22.45L761.966 21.4286L761.966 21.4286L761.115 22.45ZM761.115 31.4909L761.966 32.5123L761.966 32.5123L761.115 31.4909ZM760.477 32.0227L759.626 31.0013L759.626 31.0013L760.477 32.0227ZM751.595 23.2477V21.9182H750.266V23.2477H751.595ZM751.595 30.6932H750.266V32.0227H751.595V30.6932ZM758.828 30.6666L759.089 31.9703L759.209 31.9464L759.322 31.901L758.828 30.6666ZM759.466 30.1348L758.232 29.641L758.198 29.7248L758.176 29.8123L759.466 30.1348ZM759.466 23.8327L758.163 24.0935L758.198 24.2681L758.277 24.4273L759.466 23.8327ZM759.2 23.5136L758.384 24.5631L758.384 24.5631L759.2 23.5136ZM758.828 23.3009L758.334 24.5354L758.448 24.5807L758.567 24.6046L758.828 23.3009ZM750.266 32.5545V40H752.925V32.5545H750.266ZM751.595 38.6705H749.362V41.3295H751.595V38.6705ZM750.691 40V21.3864H748.032V40H750.691ZM749.362 22.7159H759.2V20.0568H749.362V22.7159ZM759.2 22.7159C759.231 22.7159 759.366 22.7232 759.626 22.9396L761.328 20.8968C760.737 20.4041 760.02 20.0568 759.2 20.0568V22.7159ZM759.626 22.9396L760.264 23.4714L761.966 21.4286L761.328 20.8968L759.626 22.9396ZM760.264 23.4714C760.401 23.5853 760.424 23.6607 760.424 23.7795H763.083C763.083 22.8348 762.68 22.0238 761.966 21.4286L760.264 23.4714ZM760.424 23.7795V30.1614H763.083V23.7795H760.424ZM760.424 30.1614C760.424 30.2802 760.401 30.3556 760.264 30.4695L761.966 32.5123C762.68 31.9172 763.083 31.1062 763.083 30.1614H760.424ZM760.264 30.4695L759.626 31.0013L761.328 33.0441L761.966 32.5123L760.264 30.4695ZM759.626 31.0013C759.366 31.2177 759.231 31.225 759.2 31.225V33.8841C760.02 33.8841 760.737 33.5368 761.328 33.0441L759.626 31.0013ZM759.2 31.225H751.595V33.8841H759.2V31.225ZM750.266 23.2477V30.6932H752.925V23.2477H750.266ZM751.595 32.0227H758.217V29.3636H751.595V32.0227ZM758.217 32.0227C758.497 32.0227 758.845 32.0191 759.089 31.9703L758.567 29.3629C758.611 29.3541 758.634 29.3528 758.62 29.3541C758.61 29.355 758.588 29.3566 758.551 29.3582C758.476 29.3615 758.366 29.3636 758.217 29.3636V32.0227ZM759.322 31.901C759.595 31.7918 759.843 31.6118 760.017 31.4768L758.384 29.3778C758.325 29.4237 758.288 29.4496 758.269 29.4618C758.26 29.4675 758.26 29.467 758.268 29.4626C758.275 29.4587 758.298 29.4466 758.334 29.4321L759.322 31.901ZM760.017 31.4768C760.128 31.3898 760.255 31.282 760.37 31.1554C760.461 31.0553 760.667 30.8149 760.756 30.4572L758.176 29.8123C758.216 29.6533 758.279 29.5412 758.316 29.483C758.354 29.4216 758.388 29.3825 758.403 29.3667C758.429 29.3377 758.432 29.3406 758.384 29.3778L760.017 31.4768ZM760.701 30.6286C760.789 30.4083 760.817 30.1928 760.829 30.0676C760.844 29.9194 760.849 29.7609 760.849 29.603H758.19C758.19 29.6551 758.189 29.698 758.188 29.7326C758.186 29.7677 758.185 29.7905 758.183 29.803C758.183 29.809 758.182 29.8111 758.183 29.8096C758.183 29.8083 758.184 29.8018 758.186 29.7909C758.188 29.7803 758.192 29.7624 758.198 29.7389C758.205 29.7158 758.215 29.682 758.232 29.641L760.701 30.6286ZM760.849 29.603V24.338H758.19V29.603H760.849ZM760.849 24.338C760.849 24.1815 760.844 24.0217 760.828 23.873C760.817 23.769 760.788 23.5027 760.655 23.2381L758.277 24.4273C758.246 24.3641 758.226 24.3108 758.215 24.2755C758.203 24.2392 758.196 24.2104 758.192 24.1926C758.184 24.1587 758.183 24.1421 758.184 24.1514C758.185 24.1587 758.186 24.1776 758.188 24.211C758.189 24.2438 758.19 24.2857 758.19 24.338H760.849ZM760.77 23.572C760.701 23.2249 760.525 22.976 760.408 22.8353C760.282 22.6838 760.141 22.5606 760.017 22.4642L758.384 24.5631C758.42 24.5907 758.403 24.5828 758.365 24.5376C758.345 24.5132 758.309 24.4672 758.273 24.3996C758.236 24.3321 758.19 24.2288 758.163 24.0935L760.77 23.572ZM760.017 22.4642C759.848 22.3329 759.51 22.0814 759.089 21.9972L758.567 24.6046C758.484 24.588 758.423 24.5654 758.39 24.5514C758.355 24.537 758.334 24.5252 758.328 24.5218C758.318 24.5162 758.335 24.5252 758.384 24.5631L760.017 22.4642ZM759.322 22.0665C759.083 21.971 758.842 21.9468 758.724 21.9365C758.569 21.923 758.396 21.9182 758.217 21.9182V24.5773C758.284 24.5773 758.342 24.5782 758.389 24.5798C758.437 24.5815 758.471 24.5836 758.494 24.5856C758.518 24.5877 758.518 24.5886 758.502 24.5857C758.494 24.5842 758.475 24.5806 758.45 24.5739C758.426 24.5675 758.385 24.5556 758.334 24.5354L759.322 22.0665ZM758.217 21.9182H751.595V24.5773H758.217V21.9182ZM778.309 21.3864V20.0568H776.98V21.3864H778.309ZM780.543 21.3864H781.872V20.0568H780.543V21.3864ZM780.543 40V41.3295H781.872V40H780.543ZM778.309 40H776.98V41.3295H778.309V40ZM778.309 31.358H779.639V30.0284H778.309V31.358ZM768.63 31.358V30.0284H767.301V31.358H768.63ZM768.63 40V41.3295H769.96V40H768.63ZM766.397 40H765.067V41.3295H766.397V40ZM766.397 21.3864V20.0568H765.067V21.3864H766.397ZM768.63 21.3864H769.96V20.0568H768.63V21.3864ZM768.63 29.6295H767.301V30.9591H768.63V29.6295ZM778.309 29.6295V30.9591H779.639V29.6295H778.309ZM778.309 22.7159H780.543V20.0568H778.309V22.7159ZM779.213 21.3864V40H781.872V21.3864H779.213ZM780.543 38.6705H778.309V41.3295H780.543V38.6705ZM779.639 40V31.358H776.98V40H779.639ZM778.309 30.0284H768.63V32.6875H778.309V30.0284ZM767.301 31.358V40H769.96V31.358H767.301ZM768.63 38.6705H766.397V41.3295H768.63V38.6705ZM767.726 40V21.3864H765.067V40H767.726ZM766.397 22.7159H768.63V20.0568H766.397V22.7159ZM767.301 21.3864V29.6295H769.96V21.3864H767.301ZM768.63 30.9591H778.309V28.3H768.63V30.9591ZM779.639 29.6295V21.3864H776.98V29.6295H779.639ZM784.543 40L783.285 39.5688L782.681 41.3295H784.543V40ZM790.925 21.3864V20.0568H789.975L789.667 20.9552L790.925 21.3864ZM794.062 21.3864L795.317 20.9471L795.006 20.0568H794.062V21.3864ZM800.577 40V41.3295H802.451L801.832 39.5608L800.577 40ZM798.343 40L797.092 40.4488L797.408 41.3295H798.343V40ZM796.961 36.1443L798.212 35.6955L797.896 34.8148H796.961V36.1443ZM788.106 36.1443V34.8148H787.158L786.849 35.7109L788.106 36.1443ZM786.776 40V41.3295H787.724L788.033 40.4334L786.776 40ZM792.547 22.9818H793.876V21.6523H792.547V22.9818ZM792.44 22.9818V21.6523H791.111V22.9818H792.44ZM792.254 23.753L791.025 23.2467L791.008 23.2872L790.994 23.3287L792.254 23.753ZM788.664 34.4159L787.404 33.9917L786.814 35.7455H788.664V34.4159ZM796.402 34.4159V35.7455H798.266L797.66 33.9833L796.402 34.4159ZM792.733 23.753L793.99 23.3203L793.977 23.2831L793.962 23.2467L792.733 23.753ZM785.8 40.4312L792.182 21.8176L789.667 20.9552L783.285 39.5688L785.8 40.4312ZM790.925 22.7159H794.062V20.0568H790.925V22.7159ZM792.807 21.8256L799.322 40.4392L801.832 39.5608L795.317 20.9471L792.807 21.8256ZM800.577 38.6705H798.343V41.3295H800.577V38.6705ZM799.595 39.5512L798.212 35.6955L795.709 36.5931L797.092 40.4488L799.595 39.5512ZM796.961 34.8148H788.106V37.4739H796.961V34.8148ZM786.849 35.7109L785.52 39.5666L788.033 40.4334L789.363 36.5777L786.849 35.7109ZM786.776 38.6705H784.543V41.3295H786.776V38.6705ZM792.547 21.6523H792.44V24.3114H792.547V21.6523ZM791.111 22.9818C791.111 22.9613 791.113 22.9722 791.101 23.0222C791.089 23.0713 791.067 23.1452 791.025 23.2467L793.484 24.2592C793.642 23.8739 793.77 23.4354 793.77 22.9818H791.111ZM790.994 23.3287L787.404 33.9917L789.924 34.8401L793.514 24.1772L790.994 23.3287ZM788.664 35.7455H796.402V33.0864H788.664V35.7455ZM797.66 33.9833L793.99 23.3203L791.476 24.1856L795.145 34.8486L797.66 33.9833ZM793.962 23.2467C793.92 23.1452 793.897 23.0713 793.886 23.0222C793.874 22.9722 793.876 22.9613 793.876 22.9818H791.217C791.217 23.4354 791.345 23.8739 791.503 24.2592L793.962 23.2467Z" fill="white"/>
</svg>
