<svg width="100" height="100" viewBox="0 0 100 100" fill="none" xmlns="http://www.w3.org/2000/svg">
<g clip-path="url(#clip0_882_5749)">
<path d="M10 1H48.858C51.2449 1 53.5341 1.94822 55.222 3.63605L96.364 44.7782C98.0518 46.466 99 48.7552 99 51.1421V90C99 94.9706 94.9706 99 90 99H51.2359C48.8523 99 46.566 98.0544 44.8787 96.3707L3.6428 55.2224C1.95084 53.534 1 51.2419 1 48.8516V10C1 5.02944 5.02944 1 10 1Z" fill="black" stroke="white" stroke-width="2"/>
<g clip-path="url(#clip1_882_5749)">
<path d="M52.9696 68.4668L50.8168 70.6348C49.9053 71.5527 48.4314 71.5527 47.5296 70.6348L28.6786 51.6602C27.767 50.7422 27.767 49.2578 28.6786 48.3496L47.5295 29.3652C48.4411 28.4473 49.915 28.4473 50.8168 29.3652L52.9696 31.5332C53.8908 32.4609 53.8714 33.9746 52.9308 34.8828L41.2459 46.0938L69.1151 46.0938C70.4048 46.0938 71.4424 47.1387 71.4424 48.4375L71.4424 51.5625C71.4424 52.8613 70.4048 53.9063 69.1151 53.9063L41.2459 53.9063L52.9308 65.1172C53.8811 66.0254 53.9005 67.5391 52.9696 68.4668Z" fill="white"/>
</g>
</g>
<defs>
<clipPath id="clip0_882_5749">
<rect width="100" height="100" fill="white"/>
</clipPath>
<clipPath id="clip1_882_5749">
<rect width="43.4426" height="50" fill="white" transform="translate(71.4424 75) rotate(180)"/>
</clipPath>
</defs>
</svg>
