<svg width="242" height="287" viewBox="0 0 242 287" fill="none" xmlns="http://www.w3.org/2000/svg">
<path fill-rule="evenodd" clip-rule="evenodd" d="M160.352 162.331V173.478C164.293 173.478 167.327 173.878 168.992 175.29C170.593 176.638 171.499 179.483 171.499 184.646H182.646C182.646 175.859 180.329 170.338 176.135 166.798C172.026 163.342 166.716 162.331 160.352 162.331Z" fill="black"/>
<path d="M159.211 162.331V161.189H160.352C166.81 161.189 172.453 162.209 176.87 165.924L176.872 165.926C181.409 169.756 183.788 175.656 183.788 184.646V185.787H182.646H171.499H170.358V184.646C170.358 179.5 169.429 177.15 168.257 176.163L168.254 176.16C167.635 175.635 166.679 175.235 165.313 174.976C163.956 174.719 162.294 174.619 160.352 174.619H159.211V173.478V162.331Z" stroke="white" stroke-opacity="0.2" stroke-width="2.28302"/>
<path d="M161.266 172.716C165.207 172.716 168.241 173.117 169.906 174.528C171.507 175.877 172.413 178.722 172.413 183.884" stroke="white" stroke-opacity="0.2" stroke-width="2.28302"/>
<path d="M159.744 163.397C166.108 163.397 171.418 164.408 175.527 167.864C179.72 171.404 182.038 176.925 182.038 185.712" stroke="white" stroke-opacity="0.2" stroke-width="2.28302"/>
<path fill-rule="evenodd" clip-rule="evenodd" d="M133.445 156.768H157.572C160.649 156.768 163.156 159.276 163.156 162.352V184.667C163.156 187.744 160.649 190.251 157.572 190.251H147.121C146.025 190.251 145.077 189.977 144.149 189.387L130.474 180.748C128.809 179.694 127.882 178.008 127.882 176.028V162.373C127.861 159.276 130.368 156.768 133.445 156.768Z" fill="black"/>
<path d="M129.864 181.713L129.863 181.712C127.867 180.449 126.741 178.398 126.741 176.028V162.377C126.717 158.646 129.738 155.627 133.445 155.627H157.572C161.279 155.627 164.298 158.645 164.298 162.352V184.667C164.298 188.374 161.279 191.393 157.572 191.393H147.121C145.81 191.393 144.649 191.058 143.539 190.352C143.538 190.351 143.537 190.351 143.537 190.35L129.864 181.713Z" stroke="white" stroke-opacity="0.2" stroke-width="2.28302"/>
<path d="M130.471 180.748L144.147 189.387C144.217 189.432 144.287 189.474 144.357 189.515C146.027 186.722 146.175 168.457 145.266 164.652C144.538 161.608 137.353 158.311 133.851 157.042L133.442 156.768C130.366 156.768 127.858 159.276 127.879 162.373V176.028C127.879 178.008 128.807 179.694 130.471 180.748Z" fill="black"/>
<path d="M157.57 156.768H133.443C139.413 158.128 152.42 157.956 156.681 158.564C162.008 159.325 160.639 167.696 160.639 176.028C160.639 182.72 158.542 188.287 157.57 190.251C160.647 190.251 163.154 187.744 163.154 184.667V162.352C163.154 159.276 160.647 156.768 157.57 156.768Z" fill="black"/>
<path fill-rule="evenodd" clip-rule="evenodd" d="M204.738 68.874H199.061C198.014 68.874 197.155 69.7195 197.169 70.7663L197.732 125.696H204.751C205.798 125.696 206.644 124.85 206.644 123.804V70.7663C206.63 69.7195 205.771 68.874 204.738 68.874Z" fill="black"/>
<path d="M206.455 77.4312L197.501 77.4312L197.501 73.9211L206.455 73.9211L206.455 77.4312Z" fill="black"/>
<path d="M206.486 77.4312L197.468 77.4312L197.468 73.9211L206.486 73.9211L206.486 77.4312Z" stroke="white" stroke-opacity="0.2" stroke-width="0.653921"/>
<path d="M198.61 77.2891L198.131 77.2891L198.131 74.4609L198.61 74.4609L198.61 77.2891Z" fill="black"/>
<path d="M199.643 77.2891L199.164 77.2891L199.164 74.4609L199.643 74.4609L199.643 77.2891Z" fill="black"/>
<path d="M204.792 77.2891L204.312 77.2891L204.312 74.4609L204.792 74.4609L204.792 77.2891Z" fill="black"/>
<path d="M205.822 77.2891L205.343 77.2891L205.343 74.4609L205.822 74.4609L205.822 77.2891Z" fill="black"/>
<path d="M206.527 74.2114L204.86 74.2114L197.428 74.2114L196.784 73.4686L197.81 68.0346L204.86 68.0346L206.145 68.0346L207.17 73.4686L206.527 74.2114Z" fill="black"/>
<path d="M206.526 74.2114L204.909 74.2114L205.553 73.4686L204.526 68.0346L206.144 68.0346L207.169 73.4686L206.526 74.2114Z" fill="black"/>
<path d="M199.584 74.2114L197.428 74.2114L196.784 73.4686L197.81 68.0346L199.966 68.0346L198.939 73.4686L199.584 74.2114Z" fill="black"/>
<path d="M206.527 74.2114L204.86 74.2114L197.428 74.2114L196.784 73.4686L197.81 68.0346L204.86 68.0346L206.145 68.0346L207.17 73.4686L206.527 74.2114Z" stroke="white" stroke-opacity="0.2" stroke-width="1.23537"/>
<path d="M206.949 72.4048L197.006 72.4048L197.006 71.3127L206.949 71.3127L206.949 72.4048Z" fill="black"/>
<path d="M207.193 79.4351L196.761 79.4351L196.761 78.6938L207.193 78.6938L207.193 79.4351Z" fill="black"/>
<path d="M207.302 131.444L196.65 131.444L196.65 76.6492L207.302 76.6492L207.302 131.444Z" fill="black"/>
<path d="M207.303 131.444L203.789 131.444L203.789 76.6492L207.303 76.6492L207.303 131.444Z" fill="black"/>
<path d="M196.65 131.444L196.65 76.6483L200.604 76.6483L200.604 131.444L196.65 131.444Z" fill="black"/>
<path d="M207.302 131.444L196.65 131.444L196.65 76.6492L207.302 76.6492L207.302 131.444Z" stroke="white" stroke-opacity="0.2" stroke-width="1.23537"/>
<path d="M207.193 78.9404L196.761 78.9404L196.761 78.1992L207.193 78.1992L207.193 78.9404Z" fill="black"/>
<path fill-rule="evenodd" clip-rule="evenodd" d="M193.714 88.6396H191.261C190.809 88.6396 190.438 89.0049 190.444 89.4572L190.687 113.19H193.72C194.172 113.19 194.537 112.824 194.537 112.372V89.4572C194.531 89.0049 194.16 88.6396 193.714 88.6396Z" fill="black"/>
<path d="M194.456 92.3374L190.588 92.3374L190.588 90.8209L194.456 90.8209L194.456 92.3374Z" fill="black"/>
<path d="M194.469 92.3374L190.572 92.3374L190.572 90.8209L194.469 90.8209L194.469 92.3374Z" stroke="white" stroke-opacity="0.2" stroke-width="0.549287"/>
<path d="M191.065 92.2754L190.858 92.2754L190.858 91.0535L191.065 91.0535L191.065 92.2754Z" fill="black"/>
<path d="M191.511 92.2754L191.304 92.2754L191.304 91.0535L191.511 91.0535L191.511 92.2754Z" fill="black"/>
<path d="M193.736 92.2754L193.529 92.2754L193.529 91.0535L193.736 91.0535L193.736 92.2754Z" fill="black"/>
<path d="M194.182 92.2754L193.975 92.2754L193.975 91.0535L194.182 91.0535L194.182 92.2754Z" fill="black"/>
<path d="M194.486 90.9463L193.766 90.9463L190.555 90.9463L190.276 90.6253L190.72 88.2776L193.766 88.2776L194.321 88.2776L194.764 90.6253L194.486 90.9463Z" fill="black"/>
<path d="M194.487 90.9463L193.789 90.9463L194.066 90.6253L193.623 88.2776L194.322 88.2776L194.765 90.6253L194.487 90.9463Z" fill="black"/>
<path d="M191.486 90.9463L190.555 90.9463L190.276 90.6253L190.72 88.2776L191.651 88.2776L191.208 90.6253L191.486 90.9463Z" fill="black"/>
<path d="M194.486 90.9463L193.766 90.9463L190.555 90.9463L190.276 90.6253L190.72 88.2776L193.766 88.2776L194.321 88.2776L194.764 90.6253L194.486 90.9463Z" stroke="white" stroke-opacity="0.2" stroke-width="1.0377"/>
<path d="M194.669 90.1655L190.373 90.1655L190.373 89.6937L194.669 89.6937L194.669 90.1655Z" fill="black"/>
<path d="M194.775 93.2036L190.268 93.2036L190.268 92.8834L194.775 92.8834L194.775 93.2036Z" fill="black"/>
<path d="M194.823 115.673L190.221 115.673L190.221 91.999L194.823 91.999L194.823 115.673Z" fill="black"/>
<path d="M194.821 115.673L193.303 115.673L193.303 91.999L194.821 91.999L194.821 115.673Z" fill="black"/>
<path d="M190.221 115.673L190.221 91.9986L191.929 91.9986L191.929 115.673L190.221 115.673Z" fill="black"/>
<path d="M194.823 115.673L190.221 115.673L190.221 91.999L194.823 91.999L194.823 115.673Z" stroke="white" stroke-opacity="0.2" stroke-width="1.0377"/>
<path d="M194.775 92.9893L190.268 92.9893L190.268 92.669L194.775 92.669L194.775 92.9893Z" fill="black"/>
<path d="M190.71 114.924L207.441 98.1934V262.701C207.441 270.392 190.71 270.392 190.71 262.701V241.819V217.648L121.004 188.73V158.29L190.71 187.969V171.334V114.924Z" fill="black"/>
<path d="M189.569 114.924V114.452L189.903 114.117L206.634 97.3862L208.583 95.4375V98.1934V262.701C208.583 265.112 207.245 266.884 205.424 268.001C203.632 269.099 201.32 269.611 199.076 269.611C196.832 269.611 194.52 269.099 192.728 268.001C190.907 266.884 189.569 265.112 189.569 262.701V241.819V218.411L120.567 189.784L119.863 189.492V188.73V158.29V156.563L121.451 157.24L189.569 186.242V171.334V114.924Z" stroke="white" stroke-opacity="0.2" stroke-width="2.28302"/>
<rect width="2.13082" height="6.08805" rx="0.761006" transform="matrix(-1 0 0 1 200.149 257.678)" fill="black"/>
<rect x="0.228302" y="-0.228302" width="2.58742" height="6.54465" rx="0.989308" transform="matrix(-1 0 0 1 200.606 257.678)" stroke="white" stroke-opacity="0.2" stroke-width="0.456604"/>
<rect width="2.13082" height="6.08805" rx="0.761006" transform="matrix(-1 0 0 1 200.148 257.678)" fill="black"/>
<path fill-rule="evenodd" clip-rule="evenodd" d="M199.577 258.753H198.996C198.758 258.753 198.56 258.851 198.56 258.967V262.997C198.56 263.114 198.758 263.211 198.996 263.211H199.577C199.815 263.211 200.013 263.114 200.013 262.997V258.972C200.013 258.851 199.815 258.753 199.577 258.753Z" fill="black"/>
<path d="M199.046 258.908C198.912 258.908 198.804 258.805 198.804 258.677C198.804 258.55 198.912 258.447 199.046 258.447C199.18 258.447 199.288 258.55 199.288 258.677C199.288 258.805 199.18 258.908 199.046 258.908Z" fill="black"/>
<path d="M199.771 262.637V260.649C199.771 260.476 199.464 260.199 198.979 259.925C198.927 259.891 198.868 259.859 198.802 259.83C198.863 259.861 198.922 259.893 198.979 259.925C199.35 260.166 199.399 260.497 199.37 260.649L199.37 262.637C199.399 262.789 199.205 262.982 198.551 263.089C199.083 263.089 199.771 262.81 199.771 262.637Z" fill="black"/>
<path d="M190.711 171.334V114.924L193.006 112.629V266.82C191.616 265.863 190.711 264.49 190.711 262.701V241.819V217.648L121.005 188.73V175.032L187.929 186.785L190.711 187.969V171.334Z" fill="black"/>
<path d="M186.852 196.468L186.236 188.121L179.843 185.026L184.727 189.82L186.852 196.468Z" fill="black"/>
<path d="M196.343 111.107L191.768 115.455L191.754 122.411L193.112 116.159L196.343 111.107Z" fill="black"/>
<path d="M207.441 98.1934V262.701C207.441 264.475 206.551 265.84 205.181 266.796V100.453L207.441 98.1934Z" fill="black"/>
<path d="M208.824 202.184C208.824 202.184 203.875 198.423 203.875 195.206V180.011C203.875 176.249 208.775 173.824 208.775 173.824L208.824 202.184Z" fill="black"/>
<path d="M209.846 173.51C209.846 173.51 213.542 175.951 213.542 179.382V195.882C213.542 198.654 209.319 201.887 209.319 201.887L206.282 193.968V179.982L209.846 173.51Z" fill="black"/>
<path d="M208.262 176.386V190.009L211.299 197.928C212.104 197.288 212.854 196.582 213.542 195.818V195.883C213.542 198.654 209.319 201.887 209.319 201.887L206.282 193.968V179.983L208.262 176.386Z" fill="black"/>
<path d="M209.846 173.51C209.846 173.51 213.542 175.951 213.542 179.382V195.882C213.542 198.654 209.319 201.887 209.319 201.887C209.319 201.887 206.282 195.799 206.282 193.968V179.982C206.282 177.634 209.846 173.51 209.846 173.51Z" stroke="white" stroke-opacity="0.2" stroke-width="1.52201"/>
<path d="M211.627 188.622C211.627 188.622 213.309 177.47 210.142 176.215C210.142 176.221 211.561 185.817 211.627 188.622Z" fill="black"/>
<path d="M190.627 184.012L190.712 220.593L187.668 186.74L190.627 184.012Z" fill="black"/>
<path d="M200.149 104.258V153.724L189.495 164.378" stroke="white" stroke-opacity="0.2" stroke-width="1.52201"/>
<mask id="path-65-outside-1_882_5393" maskUnits="userSpaceOnUse" x="134.478" y="153.812" width="107" height="102" fill="black">
<rect fill="white" x="134.478" y="153.812" width="107" height="102"/>
<path d="M177.032 252.924H238.478L137.754 159.812V185.831V224.92C137.754 226.795 138.597 228.418 140.135 229.492L170.626 250.901C172.586 252.271 174.63 252.924 177.032 252.924Z"/>
</mask>
<path d="M177.032 252.924H238.478L137.754 159.812V185.831V224.92C137.754 226.795 138.597 228.418 140.135 229.492L170.626 250.901C172.586 252.271 174.63 252.924 177.032 252.924Z" fill="black"/>
<path d="M238.478 252.924L240.027 251.248C240.717 251.886 240.946 252.881 240.604 253.756C240.261 254.631 239.417 255.207 238.478 255.207V252.924ZM170.626 250.901L169.318 252.773L169.314 252.77L170.626 250.901ZM140.135 229.492L141.443 227.621L141.447 227.624L140.135 229.492ZM137.754 159.812H135.471V154.592L139.304 158.135L137.754 159.812ZM238.478 255.207H177.032V250.641H238.478V255.207ZM177.032 255.207C174.157 255.207 171.657 254.407 169.318 252.773L171.934 249.03C173.515 250.135 175.103 250.641 177.032 250.641V255.207ZM169.314 252.77L138.823 231.361L141.447 227.624L171.938 249.033L169.314 252.77ZM138.828 231.364C136.676 229.861 135.471 227.539 135.471 224.92H140.037C140.037 226.052 140.518 226.974 141.443 227.621L138.828 231.364ZM135.471 224.92V185.831H140.037V224.92H135.471ZM236.928 254.601L136.204 161.488L139.304 158.135L240.027 251.248L236.928 254.601ZM140.037 159.812V185.831H135.471V159.812H140.037Z" fill="white" fill-opacity="0.2" mask="url(#path-65-outside-1_882_5393)"/>
<path d="M204.099 246.915H193.914C192.804 246.915 190.695 250.969 189.981 252.871H186.602C187.482 248.1 190.681 242.761 193.914 242.761H204.099C207.331 242.761 210.907 248.1 211.41 252.871H208.032C207.317 250.969 205.212 246.915 204.099 246.915Z" fill="black"/>
<path d="M194.452 246.139H203.566C206.528 246.139 208.047 251.708 208.047 251.708H189.971C189.971 251.708 191.504 246.139 194.452 246.139Z" fill="black" stroke="white" stroke-opacity="0.2" stroke-width="2.48928"/>
<path d="M197.989 248.763C197.989 248.965 198.049 249.161 198.161 249.328C198.273 249.496 198.431 249.626 198.617 249.703C198.803 249.78 199.007 249.8 199.205 249.761C199.402 249.722 199.583 249.625 199.726 249.483C199.868 249.34 199.965 249.159 200.004 248.962C200.043 248.765 200.023 248.56 199.946 248.374C199.869 248.189 199.739 248.03 199.571 247.918C199.404 247.806 199.208 247.747 199.006 247.747C198.737 247.747 198.478 247.853 198.287 248.044C198.096 248.235 197.989 248.494 197.989 248.763Z" fill="black"/>
<path d="M192.995 248.763C192.995 248.965 193.055 249.161 193.167 249.328C193.278 249.496 193.437 249.626 193.623 249.703C193.809 249.78 194.013 249.8 194.211 249.761C194.408 249.722 194.589 249.625 194.731 249.483C194.874 249.34 194.971 249.159 195.01 248.962C195.049 248.765 195.029 248.56 194.952 248.374C194.875 248.189 194.745 248.03 194.577 247.918C194.41 247.806 194.213 247.747 194.012 247.747C193.742 247.747 193.484 247.853 193.293 248.044C193.102 248.235 192.995 248.494 192.995 248.763Z" fill="black"/>
<path d="M202.983 248.763C202.983 248.965 203.043 249.161 203.155 249.328C203.267 249.496 203.426 249.626 203.611 249.703C203.797 249.78 204.002 249.8 204.199 249.761C204.396 249.722 204.577 249.625 204.72 249.483C204.862 249.34 204.959 249.159 204.998 248.962C205.037 248.765 205.017 248.56 204.94 248.374C204.863 248.189 204.733 248.03 204.566 247.918C204.398 247.806 204.202 247.747 204.001 247.747C203.731 247.747 203.472 247.853 203.281 248.044C203.091 248.235 202.983 248.494 202.983 248.763Z" fill="black"/>
<path d="M170.626 250.901C172.586 252.271 174.63 252.924 177.032 252.924L152.203 229.492V173.168L137.754 159.812V185.831V224.92C137.754 226.795 138.597 228.418 140.135 229.492L170.626 250.901Z" fill="black"/>
<path d="M147.473 225.798L147.518 232.426L152.202 235.564L148.892 231.258L147.473 225.798Z" fill="black"/>
<path d="M137.754 159.812L238.478 252.924H229.826L137.754 160.645V159.812Z" fill="black"/>
<path d="M216.127 231.346H178.077L136.221 200.145" stroke="white" stroke-opacity="0.2" stroke-width="1.52201"/>
<path d="M179.335 194.866C179.335 194.866 178.328 198.321 178.202 201.857C178.708 203.172 181.274 206.848 184.059 208.761L188.081 206.864L196.306 211.867C196.306 211.867 184.349 195.82 179.335 194.866Z" fill="black"/>
<path d="M182.235 192.705C181.465 192.877 180.764 193.274 180.221 193.845C180.004 194.793 179.779 201.285 179.779 201.285C179.779 201.285 181.256 204.447 184.259 206.589L188.313 204.662C188.313 204.662 196.568 211.512 197.492 211.776C198.536 210.998 198.689 209.37 198.689 209.37C198.689 209.37 189.679 196.364 182.235 192.705Z" fill="black"/>
<path d="M198.29 209.111C197.368 208.846 188.356 201.873 188.356 201.873L184.562 203.483C182.256 201.835 180.721 199.296 179.91 198.01C179.829 199.718 179.774 201.285 179.774 201.285C179.774 201.285 181.251 204.447 184.255 206.588L188.309 204.661C188.309 204.661 196.563 211.511 197.488 211.776C198.532 210.998 198.684 209.369 198.684 209.369C198.684 209.369 198.607 209.225 198.453 208.971C198.402 209.021 198.348 209.068 198.29 209.111Z" fill="black"/>
<path d="M182.235 192.705C181.465 192.877 180.764 193.274 180.221 193.845C180.004 194.793 179.779 201.285 179.779 201.285C179.779 201.285 181.256 204.447 184.259 206.589L188.313 204.662C188.313 204.662 196.568 211.512 197.492 211.776C198.536 210.998 198.689 209.37 198.689 209.37C198.689 209.37 189.679 196.364 182.235 192.705Z" stroke="white" stroke-opacity="0.2" stroke-width="1.52201"/>
<path d="M181.634 194.748L182.627 194.385C182.627 194.385 189.789 198.778 196.403 208.144C196.403 208.144 186.181 197.305 181.634 194.748Z" fill="black"/>
<path d="M180.541 196.025L182.7 198.361L180.113 197.837L180.541 196.025Z" fill="black"/>
<path fill-rule="evenodd" clip-rule="evenodd" d="M81.6524 162.33V173.477C77.712 173.477 74.6776 173.877 73.0129 175.289C71.4115 176.637 70.5054 179.482 70.5054 184.645H59.3584C59.3584 175.858 61.6763 170.337 65.8696 166.797C69.9786 163.341 75.2887 162.33 81.6524 162.33Z" fill="black"/>
<path d="M82.7939 162.33V161.188H81.6524C75.1946 161.188 69.5523 162.208 65.1349 165.923L65.1332 165.925C60.5962 169.755 58.2169 175.655 58.2169 184.645V185.786H59.3584H70.5054H71.6469V184.645C71.6469 179.499 72.5758 177.149 73.7482 176.162L73.7513 176.159C74.3702 175.634 75.3254 175.234 76.6918 174.975C78.0486 174.718 79.7105 174.618 81.6524 174.618H82.7939V173.477V162.33Z" stroke="white" stroke-opacity="0.2" stroke-width="2.28302"/>
<path d="M80.7378 172.715C76.7974 172.715 73.763 173.116 72.0984 174.528C70.4969 175.876 69.5908 178.721 69.5908 183.883" stroke="white" stroke-opacity="0.2" stroke-width="2.28302"/>
<path d="M82.2608 163.396C75.8971 163.396 70.587 164.407 66.478 167.863C62.2847 171.403 59.9668 176.924 59.9668 185.711" stroke="white" stroke-opacity="0.2" stroke-width="2.28302"/>
<path fill-rule="evenodd" clip-rule="evenodd" d="M108.562 156.767H84.4346C81.3581 156.767 78.8506 159.275 78.8506 162.351V184.666C78.8506 187.743 81.3581 190.25 84.4346 190.25H94.8862C95.982 190.25 96.9302 189.976 97.8574 189.386L111.533 180.747C113.198 179.693 114.125 178.007 114.125 176.027V162.372C114.146 159.275 111.638 156.767 108.562 156.767Z" fill="black"/>
<path d="M112.143 181.712L112.143 181.711C114.14 180.448 115.266 178.397 115.266 176.027V162.376C115.289 158.645 112.269 155.626 108.562 155.626H84.4346C80.7277 155.626 77.7091 158.644 77.7091 162.351V184.666C77.7091 188.373 80.7277 191.392 84.4346 191.392H94.8862C96.197 191.392 97.3574 191.057 98.4681 190.351C98.4688 190.35 98.4695 190.35 98.4702 190.349L112.143 181.712Z" stroke="white" stroke-opacity="0.2" stroke-width="2.28302"/>
<path d="M111.532 180.747L97.856 189.386C97.7862 189.431 97.7164 189.473 97.6463 189.514C95.9763 186.721 95.8284 168.456 96.7373 164.651C97.4645 161.607 104.65 158.31 108.152 157.041L108.56 156.767C111.637 156.767 114.145 159.275 114.123 162.372V176.027C114.123 178.007 113.196 179.693 111.532 180.747Z" fill="black"/>
<path d="M84.4346 156.767H108.562C102.591 158.127 89.5852 157.955 85.3236 158.563C79.9966 159.324 81.3664 167.695 81.3664 176.027C81.3664 182.72 83.4626 188.286 84.4346 190.25C81.3581 190.25 78.8506 187.743 78.8506 184.666V162.351C78.8506 159.275 81.3581 156.767 84.4346 156.767Z" fill="black"/>
<path fill-rule="evenodd" clip-rule="evenodd" d="M37.267 68.873H42.9438C43.9906 68.873 44.8495 69.7185 44.8361 70.7653L44.2724 125.695H37.2536C36.2068 125.695 35.3613 124.849 35.3613 123.803V70.7653C35.3747 69.7185 36.2337 68.873 37.267 68.873Z" fill="black"/>
<path d="M35.55 77.4297L44.5039 77.4297L44.5039 73.9196L35.55 73.9196L35.55 77.4297Z" fill="black"/>
<path d="M35.5189 77.4297L44.5371 77.4297L44.5371 73.9196L35.5189 73.9196L35.5189 77.4297Z" stroke="white" stroke-opacity="0.2" stroke-width="0.653921"/>
<path d="M43.3948 77.2881L43.874 77.2881L43.874 74.4599L43.3948 74.4599L43.3948 77.2881Z" fill="black"/>
<path d="M42.3615 77.2881L42.8408 77.2881L42.8408 74.4599L42.3615 74.4599L42.3615 77.2881Z" fill="black"/>
<path d="M37.213 77.2881L37.6924 77.2881L37.6924 74.4599L37.213 74.4599L37.213 77.2881Z" fill="black"/>
<path d="M36.1828 77.2881L36.6621 77.2881L36.6621 74.4599L36.1828 74.4599L36.1828 77.2881Z" fill="black"/>
<path d="M35.4778 74.2104L37.1447 74.2104L44.5766 74.2104L45.2207 73.4676L44.1945 68.0336L37.1447 68.0336L35.8599 68.0336L34.8345 73.4676L35.4778 74.2104Z" fill="black"/>
<path d="M35.4788 74.2104L37.0955 74.2104L36.4523 73.4676L37.4785 68.0336L35.861 68.0336L34.8356 73.4676L35.4788 74.2104Z" fill="black"/>
<path d="M42.4213 74.2104L44.5766 74.2104L45.2207 73.4676L44.1945 68.0336L42.0392 68.0336L43.0654 73.4676L42.4213 74.2104Z" fill="black"/>
<path d="M35.4778 74.2104L37.1447 74.2104L44.5766 74.2104L45.2207 73.4676L44.1945 68.0336L37.1447 68.0336L35.8599 68.0336L34.8345 73.4676L35.4778 74.2104Z" stroke="white" stroke-opacity="0.2" stroke-width="1.23537"/>
<path d="M35.056 72.4038L44.999 72.4038L44.999 71.3118L35.056 71.3118L35.056 72.4038Z" fill="black"/>
<path d="M34.8119 79.4341L45.2441 79.4341L45.2441 78.6929L34.8119 78.6929L34.8119 79.4341Z" fill="black"/>
<path d="M34.7031 131.443L45.3545 131.443L45.3545 76.6482L34.7032 76.6482L34.7031 131.443Z" fill="black"/>
<path d="M34.7006 131.443L38.2148 131.443L38.2148 76.6482L34.7006 76.6482L34.7006 131.443Z" fill="black"/>
<path d="M45.3545 131.443L45.3545 76.6474L41.4013 76.6474L41.4013 131.443L45.3545 131.443Z" fill="black"/>
<path d="M34.7031 131.443L45.3545 131.443L45.3545 76.6482L34.7032 76.6482L34.7031 131.443Z" stroke="white" stroke-opacity="0.2" stroke-width="1.23537"/>
<path d="M34.8119 78.9395L45.2441 78.9395L45.2441 78.1982L34.8119 78.1982L34.8119 78.9395Z" fill="black"/>
<path fill-rule="evenodd" clip-rule="evenodd" d="M48.2902 88.6392H50.7428C51.1951 88.6392 51.5662 89.0045 51.5604 89.4567L51.3169 113.189H48.2844C47.8321 113.189 47.4668 112.824 47.4668 112.372V89.4567C47.4726 89.0045 47.8437 88.6392 48.2902 88.6392Z" fill="black"/>
<path d="M47.5475 92.3369L51.416 92.3369L51.416 90.8204L47.5475 90.8204L47.5475 92.3369Z" fill="black"/>
<path d="M47.5353 92.3369L51.4316 92.3369L51.4316 90.8204L47.5353 90.8204L47.5353 92.3369Z" stroke="white" stroke-opacity="0.2" stroke-width="0.549287"/>
<path d="M50.9384 92.2749L51.1455 92.2749L51.1455 91.053L50.9384 91.053L50.9384 92.2749Z" fill="black"/>
<path d="M50.4931 92.2749L50.7002 92.2749L50.7002 91.053L50.4931 91.053L50.4931 92.2749Z" fill="black"/>
<path d="M48.2675 92.2749L48.4746 92.2749L48.4746 91.053L48.2675 91.053L48.2675 92.2749Z" fill="black"/>
<path d="M47.8222 92.2749L48.0293 92.2749L48.0293 91.053L47.8222 91.053L47.8222 92.2749Z" fill="black"/>
<path d="M47.5181 90.9458L48.2383 90.9458L51.4493 90.9458L51.7275 90.6248L51.2842 88.2771L48.2383 88.2771L47.6832 88.2771L47.2402 90.6248L47.5181 90.9458Z" fill="black"/>
<path d="M47.5169 90.9458L48.2154 90.9458L47.9375 90.6248L48.3809 88.2771L47.682 88.2771L47.239 90.6248L47.5169 90.9458Z" fill="black"/>
<path d="M50.5181 90.9458L51.4493 90.9458L51.7275 90.6248L51.2842 88.2771L50.353 88.2771L50.7963 90.6248L50.5181 90.9458Z" fill="black"/>
<path d="M47.5181 90.9458L48.2383 90.9458L51.4493 90.9458L51.7275 90.6248L51.2842 88.2771L48.2383 88.2771L47.6832 88.2771L47.2402 90.6248L47.5181 90.9458Z" stroke="white" stroke-opacity="0.2" stroke-width="1.0377"/>
<path d="M47.335 90.165L51.6309 90.165L51.6309 89.6932L47.335 89.6932L47.335 90.165Z" fill="black"/>
<path d="M47.229 93.2031L51.7363 93.2031L51.7363 92.8829L47.229 92.8829L47.229 93.2031Z" fill="black"/>
<path d="M47.1813 115.673L51.7832 115.673L51.7832 91.9985L47.1813 91.9985L47.1813 115.673Z" fill="black"/>
<path d="M47.1828 115.673L48.7012 115.673L48.7012 91.9985L47.1828 91.9985L47.1828 115.673Z" fill="black"/>
<path d="M51.7832 115.673L51.7832 91.9981L50.0752 91.9981L50.0752 115.673L51.7832 115.673Z" fill="black"/>
<path d="M47.1813 115.673L51.7832 115.673L51.7832 91.9985L47.1813 91.9985L47.1813 115.673Z" stroke="white" stroke-opacity="0.2" stroke-width="1.0377"/>
<path d="M47.229 92.9888L51.7363 92.9888L51.7363 92.6685L47.229 92.6685L47.229 92.9888Z" fill="black"/>
<path d="M51.2945 114.923L34.5635 98.1924V262.7C34.5635 270.391 51.2945 270.391 51.2945 262.7V241.818V217.647L121.001 188.729V158.289L51.2945 187.968V171.333V114.923Z" fill="black"/>
<path d="M52.436 114.923V114.451L52.1017 114.116L35.3706 97.3852L33.422 95.4365V98.1924V262.7C33.422 265.111 34.7597 266.883 36.5812 268C38.3729 269.098 40.685 269.61 42.929 269.61C45.173 269.61 47.4851 269.098 49.2768 268C51.0983 266.883 52.436 265.111 52.436 262.7V241.818V218.41L121.438 189.783L122.142 189.491V188.729V158.289V156.562L120.554 157.239L52.436 186.241V171.333V114.923Z" stroke="white" stroke-opacity="0.2" stroke-width="2.28302"/>
<rect x="41.8555" y="257.677" width="2.13082" height="6.08805" rx="0.761006" fill="black"/>
<rect x="41.6272" y="257.449" width="2.58742" height="6.54465" rx="0.989308" stroke="white" stroke-opacity="0.2" stroke-width="0.456604"/>
<rect x="41.8555" y="257.677" width="2.13082" height="6.08805" rx="0.761006" fill="black"/>
<path fill-rule="evenodd" clip-rule="evenodd" d="M42.426 258.752H43.0071C43.2448 258.752 43.4428 258.85 43.4428 258.966V262.996C43.4428 263.113 43.2448 263.21 43.0071 263.21H42.426C42.1883 263.21 41.9902 263.113 41.9902 262.996V258.971C41.9902 258.85 42.1883 258.752 42.426 258.752Z" fill="black"/>
<path d="M42.9579 258.906C43.0916 258.906 43.2 258.803 43.2 258.676C43.2 258.549 43.0916 258.445 42.9579 258.445C42.8242 258.445 42.7158 258.549 42.7158 258.676C42.7158 258.803 42.8242 258.906 42.9579 258.906Z" fill="black"/>
<path d="M42.2324 262.636V260.648C42.2324 260.475 42.5393 260.198 43.0238 259.924C43.0762 259.89 43.1349 259.858 43.2008 259.829C43.1395 259.86 43.0804 259.892 43.0238 259.924C42.6531 260.165 42.6043 260.496 42.6327 260.648L42.6327 262.636C42.6043 262.788 42.7984 262.981 43.4523 263.088C42.9196 263.088 42.2324 262.809 42.2324 262.636Z" fill="black"/>
<path d="M51.294 171.333V114.924L48.999 112.629V266.82C50.3886 265.863 51.294 264.49 51.294 262.701V241.818V217.648L121 188.73V175.031L54.0755 186.784L51.294 187.969V171.333Z" fill="black"/>
<path d="M55.1527 196.467L55.7686 188.12L62.1622 185.025L57.2782 189.819L55.1527 196.467Z" fill="black"/>
<path d="M45.6621 111.106L50.2373 115.454L50.2507 122.41L48.8927 116.158L45.6621 111.106Z" fill="black"/>
<path d="M34.5635 98.1924V262.7C34.5635 264.474 35.4537 265.839 36.8235 266.795V100.452L34.5635 98.1924Z" fill="black"/>
<path d="M33.1797 202.183C33.1797 202.183 38.1292 198.421 38.1292 195.204V180.009C38.1292 176.248 33.2292 173.822 33.2292 173.822L33.1797 202.183Z" fill="black"/>
<path d="M32.1582 173.509C32.1582 173.509 28.4619 175.95 28.4619 179.381V195.881C28.4619 198.653 32.6848 201.886 32.6848 201.886L35.7218 193.967V179.981L32.1582 173.509Z" fill="black"/>
<path d="M33.742 176.385V190.008L30.705 197.927C29.8999 197.287 29.1496 196.581 28.4619 195.817V195.882C28.4619 198.653 32.6848 201.887 32.6848 201.887L35.7218 193.967V179.982L33.742 176.385Z" fill="black"/>
<path d="M32.1582 173.509C32.1582 173.509 28.4619 175.95 28.4619 179.381V195.881C28.4619 198.653 32.6848 201.886 32.6848 201.886C32.6848 201.886 35.7218 195.798 35.7218 193.967V179.981C35.7218 177.633 32.1582 173.509 32.1582 173.509Z" stroke="white" stroke-opacity="0.2" stroke-width="1.52201"/>
<path d="M30.3773 188.621C30.3773 188.621 28.6944 177.469 31.8621 176.214C31.8621 176.22 30.4426 185.816 30.3773 188.621Z" fill="black"/>
<path d="M51.3766 184.011L51.2919 220.592L54.3359 186.739L51.3766 184.011Z" fill="black"/>
<path d="M41.8555 104.258V153.723L52.5096 164.377" stroke="white" stroke-opacity="0.2" stroke-width="1.52201"/>
<mask id="path-145-outside-2_882_5393" maskUnits="userSpaceOnUse" x="0.523438" y="153.812" width="107" height="102" fill="black">
<rect fill="white" x="0.523438" y="153.812" width="107" height="102"/>
<path d="M64.9689 252.924H3.52344L104.247 159.812V185.831V224.92C104.247 226.795 103.404 228.418 101.866 229.492L71.3747 250.901C69.4151 252.271 67.3711 252.924 64.9689 252.924Z"/>
</mask>
<path d="M64.9689 252.924H3.52344L104.247 159.812V185.831V224.92C104.247 226.795 103.404 228.418 101.866 229.492L71.3747 250.901C69.4151 252.271 67.3711 252.924 64.9689 252.924Z" fill="black"/>
<path d="M3.52344 252.924L1.97368 251.248C1.28363 251.886 1.05495 252.881 1.39747 253.756C1.73998 254.631 2.58371 255.207 3.52344 255.207L3.52344 252.924ZM71.3747 250.901L72.6826 252.773L72.6867 252.77L71.3747 250.901ZM101.866 229.492L100.558 227.621L100.554 227.624L101.866 229.492ZM104.247 159.812H106.53V154.592L102.697 158.135L104.247 159.812ZM3.52344 255.207H64.9689V250.641H3.52344V255.207ZM64.9689 255.207C67.8444 255.207 70.344 254.407 72.6826 252.773L70.0669 249.03C68.4861 250.135 66.8978 250.641 64.9689 250.641V255.207ZM72.6867 252.77L103.178 231.361L100.554 227.624L70.0628 249.033L72.6867 252.77ZM103.173 231.364C105.325 229.861 106.53 227.539 106.53 224.92H101.964C101.964 226.052 101.483 226.974 100.558 227.621L103.173 231.364ZM106.53 224.92V185.831H101.964V224.92H106.53ZM5.0732 254.601L105.797 161.488L102.697 158.135L1.97368 251.248L5.0732 254.601ZM101.964 159.812V185.831H106.53V159.812H101.964Z" fill="white" fill-opacity="0.2" mask="url(#path-145-outside-2_882_5393)"/>
<path d="M37.9024 246.914H48.0872C49.1967 246.914 51.3055 250.968 52.0203 252.871H55.3986C54.5188 248.099 51.3197 242.76 48.0872 242.76H37.9024C34.6699 242.76 31.0936 248.099 30.5908 252.871H33.9691C34.6839 250.968 36.7894 246.914 37.9024 246.914Z" fill="black"/>
<path d="M47.5491 246.138H38.4348C35.4726 246.138 33.9541 251.707 33.9541 251.707H52.0299C52.0299 251.707 50.4971 246.138 47.5491 246.138Z" fill="black" stroke="white" stroke-opacity="0.2" stroke-width="2.48928"/>
<path d="M44.0116 248.763C44.0116 248.964 43.952 249.161 43.8402 249.328C43.7285 249.495 43.5697 249.626 43.3839 249.703C43.1981 249.78 42.9936 249.8 42.7963 249.761C42.599 249.721 42.4176 249.624 42.2754 249.482C42.1332 249.34 42.0363 249.159 41.9971 248.962C41.9578 248.764 41.9781 248.56 42.055 248.374C42.132 248.188 42.2623 248.029 42.4296 247.917C42.5968 247.806 42.7935 247.746 42.9946 247.746C43.2643 247.746 43.5231 247.853 43.7138 248.044C43.9045 248.234 44.0116 248.493 44.0116 248.763Z" fill="black"/>
<path d="M49.0048 248.763C49.0048 248.964 48.9451 249.161 48.8334 249.328C48.7216 249.495 48.5629 249.626 48.3771 249.703C48.1912 249.78 47.9866 249.8 47.7893 249.761C47.592 249.721 47.4108 249.624 47.2686 249.482C47.1263 249.34 47.0295 249.159 46.9902 248.962C46.951 248.764 46.9712 248.56 47.0482 248.374C47.1252 248.188 47.2555 248.029 47.4227 247.917C47.59 247.806 47.7866 247.746 47.9878 247.746C48.2575 247.746 48.5162 247.853 48.707 248.044C48.8977 248.234 49.0048 248.493 49.0048 248.763Z" fill="black"/>
<path d="M39.0175 248.763C39.0175 248.964 38.9577 249.161 38.846 249.328C38.7342 249.495 38.5755 249.626 38.3896 249.703C38.2038 249.78 37.9993 249.8 37.802 249.761C37.6048 249.721 37.4235 249.624 37.2813 249.482C37.1391 249.34 37.0422 249.159 37.003 248.962C36.9637 248.764 36.9838 248.56 37.0608 248.374C37.1378 248.188 37.2681 248.029 37.4353 247.917C37.6026 247.806 37.7992 247.746 38.0003 247.746C38.2701 247.746 38.5288 247.853 38.7195 248.044C38.9103 248.234 39.0175 248.493 39.0175 248.763Z" fill="black"/>
<path d="M71.3746 250.901C69.4149 252.271 67.3709 252.924 64.9688 252.924L89.7979 229.492V173.168L104.247 159.812V185.831V224.92C104.247 226.795 103.404 228.418 101.866 229.492L71.3746 250.901Z" fill="black"/>
<path d="M94.5263 225.798L94.4806 232.426L89.7974 235.564L93.1066 231.258L94.5263 225.798Z" fill="black"/>
<path d="M104.247 159.812L3.52344 252.924H12.1754L104.247 160.645V159.812Z" fill="black"/>
<path d="M25.874 231.346H63.9243L105.78 200.145" stroke="white" stroke-opacity="0.2" stroke-width="1.52201"/>
<path d="M62.6654 194.866C62.6654 194.866 63.6722 198.321 63.7979 201.857C63.2924 203.172 60.726 206.848 57.941 208.761L53.9186 206.864L45.6939 211.867C45.6939 211.867 57.6505 195.82 62.6654 194.866Z" fill="black"/>
<path d="M59.7652 192.705C60.5346 192.877 61.2355 193.274 61.7794 193.845C61.9958 194.793 62.2214 201.285 62.2214 201.285C62.2214 201.285 60.7442 204.447 57.7411 206.589L53.6865 204.662C53.6865 204.662 45.4325 211.512 44.5081 211.776C43.4641 210.998 43.3115 209.37 43.3115 209.37C43.3115 209.37 52.321 196.364 59.7652 192.705Z" fill="black"/>
<path d="M43.7097 209.111C44.6323 208.846 53.6441 201.873 53.6441 201.873L57.4379 203.483C59.7444 201.835 61.2789 199.296 62.0901 198.01C62.1711 199.718 62.2257 201.285 62.2257 201.285C62.2257 201.285 60.7485 204.447 57.7454 206.588L53.6909 204.661C53.6909 204.661 45.4369 211.511 44.5125 211.776C43.4685 210.998 43.3159 209.369 43.3159 209.369C43.3159 209.369 43.3928 209.225 43.5466 208.971C43.598 209.021 43.6525 209.068 43.7097 209.111Z" fill="black"/>
<path d="M59.7652 192.705C60.5346 192.877 61.2355 193.274 61.7794 193.845C61.9958 194.793 62.2214 201.285 62.2214 201.285C62.2214 201.285 60.7442 204.447 57.7411 206.589L53.6865 204.662C53.6865 204.662 45.4325 211.512 44.5081 211.776C43.4641 210.998 43.3115 209.37 43.3115 209.37C43.3115 209.37 52.321 196.364 59.7652 192.705Z" stroke="white" stroke-opacity="0.2" stroke-width="1.52201"/>
<path d="M60.3656 194.748L59.3729 194.385C59.3729 194.385 52.2106 198.778 45.5971 208.144C45.5971 208.144 55.8194 197.305 60.3656 194.748Z" fill="black"/>
<path d="M61.4592 196.025L59.3002 198.361L61.887 197.837L61.4592 196.025Z" fill="black"/>
<path fill-rule="evenodd" clip-rule="evenodd" d="M113.289 168.447V162.336C113.289 160.798 112.046 159.554 110.507 159.554H103.511C101.973 159.554 100.73 160.798 100.73 162.336V191.499L97.9485 193.101C96.1784 194.133 95.167 195.882 95.167 197.926V212.992L98.6017 219.081V231.114C98.6017 233.116 98.8967 234.823 99.571 236.719L115.312 280.928C115.712 282.066 116.745 282.782 117.946 282.782H124.141C125.342 282.782 126.374 282.066 126.775 280.928L142.515 236.719C143.19 234.823 143.485 233.116 143.485 231.114V219.081L146.919 212.992V197.926C146.919 195.882 145.908 194.133 144.138 193.101L141.356 191.499V162.315C141.356 160.776 140.113 159.533 138.575 159.533H131.537C129.999 159.533 128.755 160.776 128.755 162.315V168.426H113.289V168.447Z" fill="black"/>
<path d="M97.3789 192.111L97.3733 192.115C95.2555 193.35 94.0255 195.473 94.0255 197.926V212.992V213.292L94.1728 213.553L97.4602 219.38V231.114C97.4602 233.247 97.7777 235.083 98.4955 237.102L98.4956 237.102L114.235 281.307C114.235 281.308 114.235 281.308 114.236 281.309C114.8 282.911 116.27 283.924 117.946 283.924H124.141C125.817 283.924 127.287 282.911 127.851 281.308C127.851 281.308 127.851 281.307 127.852 281.307L143.591 237.102L143.591 237.102C144.309 235.083 144.626 233.247 144.626 231.114V219.38L147.914 213.553L148.061 213.292V212.992V197.926C148.061 195.473 146.831 193.35 144.713 192.115L144.707 192.111L142.498 190.839V162.315C142.498 160.146 140.744 158.392 138.575 158.392H131.537C129.368 158.392 127.614 160.146 127.614 162.315V167.284H114.43V162.336C114.43 160.167 112.676 158.413 110.507 158.413H103.511C101.343 158.413 99.5884 160.167 99.5884 162.336V190.839L97.3789 192.111Z" stroke="white" stroke-opacity="0.2" stroke-width="2.28302"/>
<path d="M100.728 162.336C100.728 160.797 101.971 159.554 103.509 159.554V194.056L99.569 197.926V214.604L103.509 222.214V236.719L117.944 282.782C116.743 282.782 115.71 282.066 115.31 280.928L99.569 236.719C98.8948 234.823 98.5998 233.116 98.5998 231.114V219.08L95.165 212.992V197.926C95.165 195.882 96.1765 194.133 97.9465 193.101L100.728 191.499V162.336Z" fill="black"/>
<path d="M103.923 245.914L101.214 238.014L105.75 239.325L102.706 239.325L103.923 245.914Z" fill="black"/>
<path d="M126.774 280.928C126.374 282.066 125.341 282.782 124.14 282.782H121.021V168.426H128.755V162.315C128.755 160.776 129.998 159.533 131.536 159.533H138.574C140.113 159.533 141.356 160.776 141.356 162.315V191.499L144.137 193.101C145.907 194.133 146.919 195.882 146.919 197.926V212.992L143.484 219.081V231.114C143.484 233.116 143.189 234.823 142.515 236.719L126.774 280.928Z" fill="black"/>
<path fill-rule="evenodd" clip-rule="evenodd" d="M129.028 208.991C129.028 208.338 129.028 207.663 129.028 207.01C129.028 206.188 128.059 205.261 126.942 205.514C123.381 206.336 119.799 206.336 116.237 205.514C115.121 205.261 114.151 206.188 114.151 207.01C114.151 207.663 114.151 208.338 114.151 208.991C114.151 209.813 115.1 210.276 116.237 210.487C119.799 211.14 123.381 211.14 126.942 210.487C128.08 210.276 129.028 209.813 129.028 208.991Z" fill="black"/>
<path fill-rule="evenodd" clip-rule="evenodd" d="M128.333 209.475C128.333 208.822 128.333 208.148 128.333 207.495C128.333 206.947 127.701 206.399 126.942 206.504C123.381 206.968 119.799 206.968 116.237 206.504C115.479 206.399 114.847 206.947 114.847 207.495C114.847 208.148 114.847 208.822 114.847 209.475C114.847 210.023 115.479 210.339 116.237 210.466C119.799 211.119 123.381 211.119 126.942 210.466C127.701 210.339 128.333 210.023 128.333 209.475Z" fill="black"/>
<path fill-rule="evenodd" clip-rule="evenodd" d="M126.942 209.286C126.942 208.759 126.942 208.232 126.942 207.705C126.942 207.263 126.436 206.799 125.846 206.905C123.023 207.474 120.178 207.474 117.355 206.905C116.765 206.778 116.259 207.263 116.259 207.705C116.259 208.232 116.259 208.759 116.259 209.286C116.259 209.728 116.765 210.002 117.355 210.087C120.094 210.466 122.917 210.487 125.846 210.087C126.436 209.981 126.942 209.707 126.942 209.286Z" fill="black"/>
<path d="M117.198 210.096C116.694 210.036 116.262 209.843 116.262 209.53V208.781C116.928 209.53 119.646 209.711 120.947 209.711C122.248 209.711 124.957 209.173 125.394 208.977V209.53C125.394 209.828 124.962 210.021 124.457 210.096C121.954 210.379 119.54 210.364 117.198 210.096Z" fill="black"/>
<path d="M124.783 207.511C124.783 207.372 125.122 207.259 125.539 207.259C125.957 207.259 126.295 207.372 126.295 207.511C126.295 207.65 125.957 207.763 125.539 207.763C125.122 207.763 124.783 207.65 124.783 207.511Z" fill="black"/>
<path d="M141.412 162.336C141.412 160.797 140.168 159.554 138.63 159.554V194.056L142.571 197.926V214.604L138.63 222.214V236.719L124.196 282.782C125.397 282.782 126.43 282.066 126.83 280.928L142.571 236.719C143.245 234.823 143.54 233.116 143.54 231.114V219.08L146.975 212.992V197.926C146.975 195.882 145.963 194.133 144.193 193.101L141.412 191.499V162.336Z" fill="black"/>
<path d="M145.797 205.101C145.797 205.101 146.004 197.97 145.599 196.639C145.194 195.309 142.157 193.581 142.157 193.581L144.935 197.057L145.797 205.101Z" fill="black"/>
<path d="M96.599 205.101C96.599 205.101 96.3921 197.97 96.7974 196.639C97.2026 195.309 100.24 193.581 100.24 193.581L97.4616 197.057L96.599 205.101Z" fill="black"/>
<path d="M138.214 245.914L140.922 238.014L136.387 239.325L139.431 239.325L138.214 245.914Z" fill="black"/>
<rect x="119.479" y="249.609" width="3.04392" height="8.69691" rx="0.761006" fill="black"/>
<rect x="119.25" y="249.381" width="3.50052" height="9.15351" rx="0.989308" stroke="white" stroke-opacity="0.2" stroke-width="0.456604"/>
<rect x="119.479" y="250.065" width="3.04392" height="8.69691" rx="0.761006" fill="black"/>
<path fill-rule="evenodd" clip-rule="evenodd" d="M120.294 251.602H121.124C121.464 251.602 121.747 251.741 121.747 251.908V257.665C121.747 257.831 121.464 257.97 121.124 257.97H120.294C119.955 257.97 119.672 257.831 119.672 257.665V251.914C119.672 251.741 119.955 251.602 120.294 251.602Z" fill="black"/>
<path d="M121.055 251.822C121.246 251.822 121.401 251.675 121.401 251.493C121.401 251.311 121.246 251.164 121.055 251.164C120.864 251.164 120.709 251.311 120.709 251.493C120.709 251.675 120.864 251.822 121.055 251.822Z" fill="black"/>
<path d="M120.02 257.149V254.31C120.02 254.062 120.458 253.667 121.15 253.276C121.225 253.227 121.309 253.181 121.403 253.139C121.315 253.184 121.231 253.23 121.15 253.276C120.621 253.619 120.551 254.092 120.591 254.31L120.591 257.149C120.551 257.366 120.828 257.641 121.762 257.795C121.001 257.795 120.02 257.396 120.02 257.149Z" fill="black"/>
<rect x="107.316" y="249.331" width="3.04392" height="8.69691" rx="0.761006" transform="rotate(-17 107.316 249.331)" fill="black"/>
<rect x="107.031" y="249.179" width="3.50052" height="9.15351" rx="0.989308" transform="rotate(-17 107.031 249.179)" stroke="white" stroke-opacity="0.2" stroke-width="0.456604"/>
<rect x="107.012" y="249.787" width="3.04392" height="8.69691" rx="0.761006" transform="rotate(-17 107.012 249.787)" fill="black"/>
<path fill-rule="evenodd" clip-rule="evenodd" d="M108.242 251.018L109.036 250.776C109.36 250.676 109.672 250.727 109.72 250.886L111.403 256.391C111.452 256.55 111.222 256.766 110.897 256.865L110.104 257.108C109.779 257.207 109.468 257.157 109.419 256.998L107.738 251.499C107.687 251.334 107.917 251.117 108.242 251.018Z" fill="black"/>
<path d="M109.031 251.006C109.214 250.951 109.319 250.764 109.266 250.59C109.212 250.416 109.021 250.321 108.839 250.376C108.656 250.432 108.551 250.619 108.604 250.793C108.657 250.966 108.848 251.062 109.031 251.006Z" fill="black"/>
<path d="M109.599 256.403L108.769 253.688C108.697 253.452 109 252.945 109.548 252.369C109.605 252.3 109.672 252.232 109.75 252.164C109.679 252.233 109.612 252.301 109.548 252.369C109.142 252.852 109.214 253.325 109.316 253.521L110.146 256.236C110.171 256.456 110.516 256.638 111.455 256.512C110.727 256.734 109.672 256.64 109.599 256.403Z" fill="black"/>
<rect width="3.04392" height="8.69691" rx="0.761006" transform="matrix(-0.956305 -0.292372 -0.292372 0.956305 134.723 249.179)" fill="black"/>
<rect x="0.285075" y="-0.151577" width="3.50052" height="9.15351" rx="0.989308" transform="matrix(-0.956305 -0.292372 -0.292372 0.956305 135.236 249.255)" stroke="white" stroke-opacity="0.2" stroke-width="0.456604"/>
<rect width="3.04392" height="8.69691" rx="0.761006" transform="matrix(-0.956305 -0.292372 -0.292372 0.956305 135.025 249.787)" fill="black"/>
<path fill-rule="evenodd" clip-rule="evenodd" d="M133.795 251.018L133.002 250.776C132.677 250.676 132.365 250.727 132.317 250.886L130.634 256.391C130.585 256.55 130.815 256.766 131.14 256.865L131.933 257.108C132.258 257.207 132.57 257.157 132.618 256.998L134.299 251.499C134.35 251.334 134.12 251.117 133.795 251.018Z" fill="black"/>
<path d="M133.005 251.006C132.822 250.951 132.717 250.764 132.771 250.59C132.824 250.416 133.015 250.321 133.198 250.376C133.38 250.432 133.485 250.619 133.432 250.793C133.379 250.966 133.188 251.062 133.005 251.006Z" fill="black"/>
<path d="M132.438 256.403L133.268 253.688C133.34 253.452 133.037 252.945 132.489 252.369C132.432 252.3 132.365 252.232 132.287 252.164C132.358 252.233 132.425 252.301 132.489 252.369C132.895 252.852 132.824 253.325 132.721 253.521L131.891 256.236C131.866 256.456 131.521 256.638 130.582 256.512C131.31 256.734 132.366 256.64 132.438 256.403Z" fill="black"/>
<path d="M94.6499 213.181C94.1703 212.736 93.9121 212.28 93.9092 211.819L94.6499 213.181C97.724 216.033 109.894 218.405 122.219 218.326C133.66 218.253 144.405 215.954 147.413 213.284L148.245 211.819C148.245 212.312 147.954 212.804 147.413 213.284L144.592 218.255C144.592 221.284 133.713 224.261 121.992 224.342C109.62 224.427 97.4284 221.448 97.4095 218.255L94.6499 213.181Z" fill="black"/>
<path d="M93.9092 211.971C93.9309 215.385 107.971 218.57 122.219 218.478C135.716 218.392 148.245 215.209 148.245 211.971" stroke="white" stroke-opacity="0.2" stroke-width="1.52201"/>
<path d="M97.4092 218.408C97.428 221.601 109.62 224.579 121.992 224.494C133.712 224.413 144.592 221.436 144.592 218.408" stroke="white" stroke-opacity="0.2" stroke-width="1.52201"/>
<path d="M121.004 219.019V223.889" stroke="white" stroke-opacity="0.2" stroke-width="1.52201"/>
<path d="M127.092 218.867V223.737" stroke="white" stroke-opacity="0.2" stroke-width="1.52201"/>
<path d="M133.18 218.106V222.976" stroke="white" stroke-opacity="0.2" stroke-width="1.52201"/>
<path d="M139.268 216.888V221.758" stroke="white" stroke-opacity="0.2" stroke-width="1.52201"/>
<path d="M145.355 214.301V219.171" stroke="white" stroke-opacity="0.2" stroke-width="1.52201"/>
<path d="M114.915 218.714V223.585" stroke="white" stroke-opacity="0.2" stroke-width="1.52201"/>
<path d="M108.827 218.257V223.127" stroke="white" stroke-opacity="0.2" stroke-width="1.52201"/>
<path d="M102.739 216.888V221.759" stroke="white" stroke-opacity="0.2" stroke-width="1.52201"/>
<path d="M96.6514 214.301V219.172" stroke="white" stroke-opacity="0.2" stroke-width="1.52201"/>
<path d="M97.4092 233.02C97.428 236.213 109.62 239.192 121.992 239.106C133.712 239.025 144.592 236.048 144.592 233.02" stroke="white" stroke-opacity="0.2" stroke-width="1.52201"/>
<path d="M99.8438 190.251C99.886 198.421 142.156 198.429 142.156 190.251" stroke="white" stroke-opacity="0.2" stroke-width="1.52201"/>
<path d="M97.3769 192.111L97.3713 192.115C95.2535 193.35 94.0235 195.473 94.0235 197.926V212.992V213.292L94.1708 213.553L97.4582 219.38V231.114C97.4582 233.247 97.7758 235.083 98.4935 237.102L98.4937 237.102L114.233 281.307C114.233 281.308 114.233 281.308 114.234 281.309C114.798 282.911 116.268 283.924 117.944 283.924H124.139C125.815 283.924 127.285 282.911 127.849 281.308C127.849 281.308 127.849 281.307 127.85 281.307L143.589 237.102L143.589 237.102C144.307 235.083 144.624 233.247 144.624 231.114V219.38L147.912 213.553L148.059 213.292V212.992V197.926C148.059 195.473 146.829 193.35 144.711 192.115L144.706 192.111L142.496 190.839V162.315C142.496 160.146 140.742 158.392 138.573 158.392H131.535C129.366 158.392 127.612 160.146 127.612 162.315V167.284H114.428V162.336C114.428 160.167 112.674 158.413 110.505 158.413H103.509C101.341 158.413 99.5865 160.167 99.5865 162.336V190.839L97.3769 192.111Z" stroke="white" stroke-opacity="0.2" stroke-width="2.28302"/>
<path fill-rule="evenodd" clip-rule="evenodd" d="M120.66 3.04395C119.817 3.04395 116.614 11.0723 116.614 15.4342V23.8629C114.36 25.4012 112.126 27.5294 112.126 28.9623C112.126 34.8624 112.126 40.7625 112.126 46.6626C117.815 46.6626 123.526 46.6626 129.215 46.6626C129.215 40.7625 129.215 34.8624 129.215 28.9623C129.215 27.5294 126.961 25.4012 124.727 23.8629V15.4342C124.706 11.0512 121.503 3.04395 120.66 3.04395Z" fill="black"/>
<path d="M110.984 46.6626V47.8041H112.126H112.159H112.193H112.226H112.259H112.293H112.326H112.359H112.393H112.426H112.459H112.493H112.526H112.559H112.593H112.626H112.659H112.693H112.726H112.759H112.793H112.826H112.859H112.893H112.926H112.96H112.993H113.026H113.06H113.093H113.126H113.16H113.193H113.226H113.26H113.293H113.326H113.36H113.393H113.426H113.46H113.493H113.527H113.56H113.593H113.627H113.66H113.693H113.727H113.76H113.793H113.827H113.86H113.893H113.927H113.96H113.994H114.027H114.06H114.094H114.127H114.16H114.194H114.227H114.26H114.294H114.327H114.36H114.394H114.427H114.461H114.494H114.527H114.561H114.594H114.627H114.661H114.694H114.728H114.761H114.794H114.828H114.861H114.894H114.928H114.961H114.994H115.028H115.061H115.095H115.128H115.161H115.195H115.228H115.261H115.295H115.328H115.362H115.395H115.428H115.462H115.495H115.528H115.562H115.595H115.629H115.662H115.695H115.729H115.762H115.795H115.829H115.862H115.896H115.929H115.962H115.996H116.029H116.062H116.096H116.129H116.163H116.196H116.229H116.263H116.296H116.33H116.363H116.396H116.43H116.463H116.496H116.53H116.563H116.597H116.63H116.663H116.697H116.73H116.764H116.797H116.83H116.864H116.897H116.93H116.964H116.997H117.031H117.064H117.097H117.131H117.164H117.198H117.231H117.264H117.298H117.331H117.365H117.398H117.431H117.465H117.498H117.531H117.565H117.598H117.632H117.665H117.698H117.732H117.765H117.799H117.832H117.865H117.899H117.932H117.966H117.999H118.032H118.066H118.099H118.132H118.166H118.199H118.233H118.266H118.299H118.333H118.366H118.4H118.433H118.466H118.5H118.533H118.567H118.6H118.633H118.667H118.7H118.734H118.767H118.8H118.834H118.867H118.901H118.934H118.967H119.001H119.034H119.068H119.101H119.134H119.168H119.201H119.235H119.268H119.301H119.335H119.368H119.401H119.435H119.468H119.502H119.535H119.568H119.602H119.635H119.669H119.702H119.735H119.769H119.802H119.836H119.869H119.902H119.936H119.969H120.003H120.036H120.069H120.103H120.136H120.17H120.203H120.236H120.27H120.303H120.337H120.37H120.403H120.437H120.47H120.504H120.537H120.57H120.604H120.637H120.671H120.704H120.737H120.771H120.804H120.838H120.871H120.904H120.938H120.971H121.005H121.038H121.071H121.105H121.138H121.172H121.205H121.238H121.272H121.305H121.339H121.372H121.405H121.439H121.472H121.506H121.539H121.572H121.606H121.639H121.673H121.706H121.739H121.773H121.806H121.84H121.873H121.906H121.94H121.973H122.006H122.04H122.073H122.107H122.14H122.173H122.207H122.24H122.274H122.307H122.34H122.374H122.407H122.441H122.474H122.507H122.541H122.574H122.608H122.641H122.674H122.708H122.741H122.775H122.808H122.841H122.875H122.908H122.942H122.975H123.008H123.042H123.075H123.109H123.142H123.175H123.209H123.242H123.275H123.309H123.342H123.376H123.409H123.442H123.476H123.509H123.543H123.576H123.609H123.643H123.676H123.71H123.743H123.776H123.81H123.843H123.877H123.91H123.943H123.977H124.01H124.043H124.077H124.11H124.144H124.177H124.21H124.244H124.277H124.311H124.344H124.377H124.411H124.444H124.478H124.511H124.544H124.578H124.611H124.644H124.678H124.711H124.745H124.778H124.811H124.845H124.878H124.912H124.945H124.978H125.012H125.045H125.078H125.112H125.145H125.179H125.212H125.245H125.279H125.312H125.345H125.379H125.412H125.446H125.479H125.512H125.546H125.579H125.612H125.646H125.679H125.713H125.746H125.779H125.813H125.846H125.879H125.913H125.946H125.98H126.013H126.046H126.08H126.113H126.146H126.18H126.213H126.247H126.28H126.313H126.347H126.38H126.413H126.447H126.48H126.514H126.547H126.58H126.614H126.647H126.68H126.714H126.747H126.781H126.814H126.847H126.881H126.914H126.947H126.981H127.014H127.047H127.081H127.114H127.148H127.181H127.214H127.248H127.281H127.314H127.348H127.381H127.414H127.448H127.481H127.514H127.548H127.581H127.615H127.648H127.681H127.715H127.748H127.781H127.815H127.848H127.881H127.915H127.948H127.981H128.015H128.048H128.082H128.115H128.148H128.182H128.215H128.248H128.282H128.315H128.348H128.382H128.415H128.448H128.482H128.515H128.548H128.582H128.615H128.648H128.682H128.715H128.748H128.782H128.815H128.848H128.882H128.915H128.949H128.982H129.015H129.049H129.082H129.115H129.149H129.182H129.215H130.357V46.6626V46.6281V46.5935V46.5589V46.5243V46.4898V46.4552V46.4206V46.3861V46.3515V46.3169V46.2824V46.2478V46.2132V46.1786V46.1441V46.1095V46.0749V46.0404V46.0058V45.9712V45.9366V45.9021V45.8675V45.8329V45.7984V45.7638V45.7292V45.6946V45.6601V45.6255V45.5909V45.5564V45.5218V45.4872V45.4526V45.4181V45.3835V45.3489V45.3144V45.2798V45.2452V45.2107V45.1761V45.1415V45.1069V45.0724V45.0378V45.0032V44.9687V44.9341V44.8995V44.8649V44.8304V44.7958V44.7612V44.7267V44.6921V44.6575V44.6229V44.5884V44.5538V44.5192V44.4847V44.4501V44.4155V44.3809V44.3464V44.3118V44.2772V44.2427V44.2081V44.1735V44.139V44.1044V44.0698V44.0352V44.0007V43.9661V43.9315V43.897V43.8624V43.8278V43.7932V43.7587V43.7241V43.6895V43.655V43.6204V43.5858V43.5512V43.5167V43.4821V43.4475V43.413V43.3784V43.3438V43.3092V43.2747V43.2401V43.2055V43.171V43.1364V43.1018V43.0672V43.0327V42.9981V42.9635V42.929V42.8944V42.8598V42.8253V42.7907V42.7561V42.7215V42.687V42.6524V42.6178V42.5833V42.5487V42.5141V42.4795V42.445V42.4104V42.3758V42.3413V42.3067V42.2721V42.2375V42.203V42.1684V42.1338V42.0993V42.0647V42.0301V41.9956V41.961V41.9264V41.8918V41.8573V41.8227V41.7881V41.7536V41.719V41.6844V41.6498V41.6153V41.5807V41.5461V41.5116V41.477V41.4424V41.4078V41.3733V41.3387V41.3041V41.2696V41.235V41.2004V41.1658V41.1313V41.0967V41.0621V41.0276V40.993V40.9584V40.9239V40.8893V40.8547V40.8201V40.7856V40.751V40.7164V40.6819V40.6473V40.6127V40.5781V40.5436V40.509V40.4744V40.4399V40.4053V40.3707V40.3361V40.3016V40.267V40.2324V40.1979V40.1633V40.1287V40.0941V40.0596V40.025V39.9904V39.9559V39.9213V39.8867V39.8521V39.8176V39.783V39.7484V39.7139V39.6793V39.6447V39.6102V39.5756V39.541V39.5064V39.4719V39.4373V39.4027V39.3682V39.3336V39.299V39.2644V39.2299V39.1953V39.1607V39.1262V39.0916V39.057V39.0224V38.9879V38.9533V38.9187V38.8842V38.8496V38.815V38.7805V38.7459V38.7113V38.6767V38.6422V38.6076V38.573V38.5385V38.5039V38.4693V38.4347V38.4002V38.3656V38.331V38.2965V38.2619V38.2273V38.1927V38.1582V38.1236V38.089V38.0545V38.0199V37.9853V37.9507V37.9162V37.8816V37.847V37.8125V37.7779V37.7433V37.7088V37.6742V37.6396V37.605V37.5705V37.5359V37.5013V37.4668V37.4322V37.3976V37.363V37.3285V37.2939V37.2593V37.2248V37.1902V37.1556V37.121V37.0865V37.0519V37.0173V36.9828V36.9482V36.9136V36.879V36.8445V36.8099V36.7753V36.7408V36.7062V36.6716V36.6371V36.6025V36.5679V36.5333V36.4988V36.4642V36.4296V36.3951V36.3605V36.3259V36.2913V36.2568V36.2222V36.1876V36.1531V36.1185V36.0839V36.0493V36.0148V35.9802V35.9456V35.9111V35.8765V35.8419V35.8073V35.7728V35.7382V35.7036V35.6691V35.6345V35.5999V35.5653V35.5308V35.4962V35.4616V35.4271V35.3925V35.3579V35.3234V35.2888V35.2542V35.2196V35.1851V35.1505V35.1159V35.0814V35.0468V35.0122V34.9776V34.9431V34.9085V34.8739V34.8394V34.8048V34.7702V34.7356V34.7011V34.6665V34.6319V34.5974V34.5628V34.5282V34.4937V34.4591V34.4245V34.3899V34.3554V34.3208V34.2862V34.2517V34.2171V34.1825V34.1479V34.1134V34.0788V34.0442V34.0097V33.9751V33.9405V33.9059V33.8714V33.8368V33.8022V33.7677V33.7331V33.6985V33.6639V33.6294V33.5948V33.5602V33.5257V33.4911V33.4565V33.422V33.3874V33.3528V33.3182V33.2837V33.2491V33.2145V33.18V33.1454V33.1108V33.0762V33.0417V33.0071V32.9725V32.938V32.9034V32.8688V32.8342V32.7997V32.7651V32.7305V32.696V32.6614V32.6268V32.5922V32.5577V32.5231V32.4885V32.454V32.4194V32.3848V32.3503V32.3157V32.2811V32.2465V32.212V32.1774V32.1428V32.1083V32.0737V32.0391V32.0045V31.97V31.9354V31.9008V31.8663V31.8317V31.7971V31.7625V31.728V31.6934V31.6588V31.6243V31.5897V31.5551V31.5205V31.486V31.4514V31.4168V31.3823V31.3477V31.3131V31.2786V31.244V31.2094V31.1748V31.1403V31.1057V31.0711V31.0366V31.002V30.9674V30.9328V30.8983V30.8637V30.8291V30.7946V30.76V30.7254V30.6908V30.6563V30.6217V30.5871V30.5526V30.518V30.4834V30.4488V30.4143V30.3797V30.3451V30.3106V30.276V30.2414V30.2069V30.1723V30.1377V30.1031V30.0686V30.034V29.9994V29.9649V29.9303V29.8957V29.8611V29.8266V29.792V29.7574V29.7229V29.6883V29.6537V29.6191V29.5846V29.55V29.5154V29.4809V29.4463V29.4117V29.3771V29.3426V29.308V29.2734V29.2389V29.2043V29.1697V29.1352V29.1006V29.066V29.0314V28.9969V28.9623C130.357 28.3207 130.111 27.7152 129.816 27.2051C129.512 26.6814 129.101 26.1634 128.643 25.6734C127.858 24.8312 126.868 23.9977 125.868 23.2721L125.868 15.4342L125.868 15.4287C125.857 13.0385 124.997 9.79253 124.077 7.21223C123.612 5.90663 123.113 4.71997 122.664 3.84362C122.443 3.41082 122.216 3.01799 121.994 2.71773C121.885 2.57049 121.749 2.40638 121.587 2.26775C121.461 2.15991 121.133 1.90244 120.66 1.90244C120.186 1.90244 119.858 2.16107 119.732 2.26892C119.57 2.40783 119.434 2.57223 119.326 2.71974C119.104 3.02055 118.877 3.41411 118.656 3.84773C118.208 4.72575 117.709 5.91442 117.245 7.22147C116.329 9.80366 115.473 13.0518 115.473 15.4342V23.2693C114.464 23.9964 113.473 24.8311 112.689 25.6747C112.232 26.1655 111.822 26.6838 111.521 27.2079C111.227 27.7188 110.984 28.3231 110.984 28.9623V28.9969V29.0314V29.066V29.1006V29.1352V29.1697V29.2043V29.2389V29.2734V29.308V29.3426V29.3771V29.4117V29.4463V29.4809V29.5154V29.55V29.5846V29.6191V29.6537V29.6883V29.7229V29.7574V29.792V29.8266V29.8611V29.8957V29.9303V29.9649V29.9994V30.034V30.0686V30.1031V30.1377V30.1723V30.2069V30.2414V30.276V30.3106V30.3451V30.3797V30.4143V30.4488V30.4834V30.518V30.5526V30.5871V30.6217V30.6563V30.6908V30.7254V30.76V30.7946V30.8291V30.8637V30.8983V30.9328V30.9674V31.002V31.0366V31.0711V31.1057V31.1403V31.1748V31.2094V31.244V31.2786V31.3131V31.3477V31.3823V31.4168V31.4514V31.486V31.5205V31.5551V31.5897V31.6243V31.6588V31.6934V31.728V31.7625V31.7971V31.8317V31.8663V31.9008V31.9354V31.97V32.0045V32.0391V32.0737V32.1083V32.1428V32.1774V32.212V32.2465V32.2811V32.3157V32.3503V32.3848V32.4194V32.454V32.4885V32.5231V32.5577V32.5922V32.6268V32.6614V32.696V32.7305V32.7651V32.7997V32.8342V32.8688V32.9034V32.938V32.9725V33.0071V33.0417V33.0762V33.1108V33.1454V33.18V33.2145V33.2491V33.2837V33.3182V33.3528V33.3874V33.422V33.4565V33.4911V33.5257V33.5602V33.5948V33.6294V33.6639V33.6985V33.7331V33.7677V33.8022V33.8368V33.8714V33.9059V33.9405V33.9751V34.0097V34.0442V34.0788V34.1134V34.1479V34.1825V34.2171V34.2517V34.2862V34.3208V34.3554V34.3899V34.4245V34.4591V34.4937V34.5282V34.5628V34.5974V34.6319V34.6665V34.7011V34.7356V34.7702V34.8048V34.8394V34.8739V34.9085V34.9431V34.9776V35.0122V35.0468V35.0814V35.1159V35.1505V35.1851V35.2196V35.2542V35.2888V35.3234V35.3579V35.3925V35.4271V35.4616V35.4962V35.5308V35.5653V35.5999V35.6345V35.6691V35.7036V35.7382V35.7728V35.8073V35.8419V35.8765V35.9111V35.9456V35.9802V36.0148V36.0493V36.0839V36.1185V36.1531V36.1876V36.2222V36.2568V36.2913V36.3259V36.3605V36.3951V36.4296V36.4642V36.4988V36.5333V36.5679V36.6025V36.6371V36.6716V36.7062V36.7408V36.7753V36.8099V36.8445V36.879V36.9136V36.9482V36.9828V37.0173V37.0519V37.0865V37.121V37.1556V37.1902V37.2248V37.2593V37.2939V37.3285V37.363V37.3976V37.4322V37.4668V37.5013V37.5359V37.5705V37.605V37.6396V37.6742V37.7088V37.7433V37.7779V37.8125V37.847V37.8816V37.9162V37.9507V37.9853V38.0199V38.0545V38.089V38.1236V38.1582V38.1927V38.2273V38.2619V38.2965V38.331V38.3656V38.4002V38.4347V38.4693V38.5039V38.5385V38.573V38.6076V38.6422V38.6767V38.7113V38.7459V38.7805V38.815V38.8496V38.8842V38.9187V38.9533V38.9879V39.0224V39.057V39.0916V39.1262V39.1607V39.1953V39.2299V39.2644V39.299V39.3336V39.3682V39.4027V39.4373V39.4719V39.5064V39.541V39.5756V39.6102V39.6447V39.6793V39.7139V39.7484V39.783V39.8176V39.8521V39.8867V39.9213V39.9559V39.9904V40.025V40.0596V40.0941V40.1287V40.1633V40.1979V40.2324V40.267V40.3016V40.3361V40.3707V40.4053V40.4399V40.4744V40.509V40.5436V40.5781V40.6127V40.6473V40.6819V40.7164V40.751V40.7856V40.8201V40.8547V40.8893V40.9239V40.9584V40.993V41.0276V41.0621V41.0967V41.1313V41.1658V41.2004V41.235V41.2696V41.3041V41.3387V41.3733V41.4078V41.4424V41.477V41.5116V41.5461V41.5807V41.6153V41.6498V41.6844V41.719V41.7536V41.7881V41.8227V41.8573V41.8918V41.9264V41.961V41.9956V42.0301V42.0647V42.0993V42.1338V42.1684V42.203V42.2375V42.2721V42.3067V42.3413V42.3758V42.4104V42.445V42.4795V42.5141V42.5487V42.5833V42.6178V42.6524V42.687V42.7215V42.7561V42.7907V42.8253V42.8598V42.8944V42.929V42.9635V42.9981V43.0327V43.0672V43.1018V43.1364V43.171V43.2055V43.2401V43.2747V43.3092V43.3438V43.3784V43.413V43.4475V43.4821V43.5167V43.5512V43.5858V43.6204V43.655V43.6895V43.7241V43.7587V43.7932V43.8278V43.8624V43.897V43.9315V43.9661V44.0007V44.0352V44.0698V44.1044V44.139V44.1735V44.2081V44.2427V44.2772V44.3118V44.3464V44.3809V44.4155V44.4501V44.4847V44.5192V44.5538V44.5884V44.6229V44.6575V44.6921V44.7267V44.7612V44.7958V44.8304V44.8649V44.8995V44.9341V44.9687V45.0032V45.0378V45.0724V45.1069V45.1415V45.1761V45.2107V45.2452V45.2798V45.3144V45.3489V45.3835V45.4181V45.4526V45.4872V45.5218V45.5564V45.5909V45.6255V45.6601V45.6946V45.7292V45.7638V45.7984V45.8329V45.8675V45.9021V45.9366V45.9712V46.0058V46.0404V46.0749V46.1095V46.1441V46.1786V46.2132V46.2478V46.2824V46.3169V46.3515V46.3861V46.4206V46.4552V46.4898V46.5243V46.5589V46.5935V46.6281V46.6626Z" stroke="white" stroke-opacity="0.2" stroke-width="2.28302"/>
<path d="M116.739 10.6523H124.729V11.1999H116.739V10.6523Z" fill="black"/>
<path d="M116.741 13.4321H124.73V13.9797H116.741V13.4321Z" fill="black"/>
<path d="M116.741 16.2334H124.73V16.7809H116.741V16.2334Z" fill="black"/>
<path d="M116.741 19.0137H124.73V19.5612H116.741V19.0137Z" fill="black"/>
<path d="M116.741 21.8145H124.73V22.362H116.741V21.8145Z" fill="black"/>
<path d="M110.984 46.6626V47.8041H112.126H112.159H112.193H112.226H112.259H112.293H112.326H112.359H112.393H112.426H112.459H112.493H112.526H112.559H112.593H112.626H112.659H112.693H112.726H112.759H112.793H112.826H112.859H112.893H112.926H112.96H112.993H113.026H113.06H113.093H113.126H113.16H113.193H113.226H113.26H113.293H113.326H113.36H113.393H113.426H113.46H113.493H113.527H113.56H113.593H113.627H113.66H113.693H113.727H113.76H113.793H113.827H113.86H113.893H113.927H113.96H113.994H114.027H114.06H114.094H114.127H114.16H114.194H114.227H114.26H114.294H114.327H114.36H114.394H114.427H114.461H114.494H114.527H114.561H114.594H114.627H114.661H114.694H114.728H114.761H114.794H114.828H114.861H114.894H114.928H114.961H114.994H115.028H115.061H115.095H115.128H115.161H115.195H115.228H115.261H115.295H115.328H115.362H115.395H115.428H115.462H115.495H115.528H115.562H115.595H115.629H115.662H115.695H115.729H115.762H115.795H115.829H115.862H115.896H115.929H115.962H115.996H116.029H116.062H116.096H116.129H116.163H116.196H116.229H116.263H116.296H116.33H116.363H116.396H116.43H116.463H116.496H116.53H116.563H116.597H116.63H116.663H116.697H116.73H116.764H116.797H116.83H116.864H116.897H116.93H116.964H116.997H117.031H117.064H117.097H117.131H117.164H117.198H117.231H117.264H117.298H117.331H117.365H117.398H117.431H117.465H117.498H117.531H117.565H117.598H117.632H117.665H117.698H117.732H117.765H117.799H117.832H117.865H117.899H117.932H117.966H117.999H118.032H118.066H118.099H118.132H118.166H118.199H118.233H118.266H118.299H118.333H118.366H118.4H118.433H118.466H118.5H118.533H118.567H118.6H118.633H118.667H118.7H118.734H118.767H118.8H118.834H118.867H118.901H118.934H118.967H119.001H119.034H119.068H119.101H119.134H119.168H119.201H119.235H119.268H119.301H119.335H119.368H119.401H119.435H119.468H119.502H119.535H119.568H119.602H119.635H119.669H119.702H119.735H119.769H119.802H119.836H119.869H119.902H119.936H119.969H120.003H120.036H120.069H120.103H120.136H120.17H120.203H120.236H120.27H120.303H120.337H120.37H120.403H120.437H120.47H120.504H120.537H120.57H120.604H120.637H120.671H120.704H120.737H120.771H120.804H120.838H120.871H120.904H120.938H120.971H121.005H121.038H121.071H121.105H121.138H121.172H121.205H121.238H121.272H121.305H121.339H121.372H121.405H121.439H121.472H121.506H121.539H121.572H121.606H121.639H121.673H121.706H121.739H121.773H121.806H121.84H121.873H121.906H121.94H121.973H122.006H122.04H122.073H122.107H122.14H122.173H122.207H122.24H122.274H122.307H122.34H122.374H122.407H122.441H122.474H122.507H122.541H122.574H122.608H122.641H122.674H122.708H122.741H122.775H122.808H122.841H122.875H122.908H122.942H122.975H123.008H123.042H123.075H123.109H123.142H123.175H123.209H123.242H123.275H123.309H123.342H123.376H123.409H123.442H123.476H123.509H123.543H123.576H123.609H123.643H123.676H123.71H123.743H123.776H123.81H123.843H123.877H123.91H123.943H123.977H124.01H124.043H124.077H124.11H124.144H124.177H124.21H124.244H124.277H124.311H124.344H124.377H124.411H124.444H124.478H124.511H124.544H124.578H124.611H124.644H124.678H124.711H124.745H124.778H124.811H124.845H124.878H124.912H124.945H124.978H125.012H125.045H125.078H125.112H125.145H125.179H125.212H125.245H125.279H125.312H125.345H125.379H125.412H125.446H125.479H125.512H125.546H125.579H125.612H125.646H125.679H125.713H125.746H125.779H125.813H125.846H125.879H125.913H125.946H125.98H126.013H126.046H126.08H126.113H126.146H126.18H126.213H126.247H126.28H126.313H126.347H126.38H126.413H126.447H126.48H126.514H126.547H126.58H126.614H126.647H126.68H126.714H126.747H126.781H126.814H126.847H126.881H126.914H126.947H126.981H127.014H127.047H127.081H127.114H127.148H127.181H127.214H127.248H127.281H127.314H127.348H127.381H127.414H127.448H127.481H127.514H127.548H127.581H127.615H127.648H127.681H127.715H127.748H127.781H127.815H127.848H127.881H127.915H127.948H127.981H128.015H128.048H128.082H128.115H128.148H128.182H128.215H128.248H128.282H128.315H128.348H128.382H128.415H128.448H128.482H128.515H128.548H128.582H128.615H128.648H128.682H128.715H128.748H128.782H128.815H128.848H128.882H128.915H128.949H128.982H129.015H129.049H129.082H129.115H129.149H129.182H129.215H130.357V46.6626V46.6281V46.5935V46.5589V46.5243V46.4898V46.4552V46.4206V46.3861V46.3515V46.3169V46.2824V46.2478V46.2132V46.1786V46.1441V46.1095V46.0749V46.0404V46.0058V45.9712V45.9366V45.9021V45.8675V45.8329V45.7984V45.7638V45.7292V45.6946V45.6601V45.6255V45.5909V45.5564V45.5218V45.4872V45.4526V45.4181V45.3835V45.3489V45.3144V45.2798V45.2452V45.2107V45.1761V45.1415V45.1069V45.0724V45.0378V45.0032V44.9687V44.9341V44.8995V44.8649V44.8304V44.7958V44.7612V44.7267V44.6921V44.6575V44.6229V44.5884V44.5538V44.5192V44.4847V44.4501V44.4155V44.3809V44.3464V44.3118V44.2772V44.2427V44.2081V44.1735V44.139V44.1044V44.0698V44.0352V44.0007V43.9661V43.9315V43.897V43.8624V43.8278V43.7932V43.7587V43.7241V43.6895V43.655V43.6204V43.5858V43.5512V43.5167V43.4821V43.4475V43.413V43.3784V43.3438V43.3092V43.2747V43.2401V43.2055V43.171V43.1364V43.1018V43.0672V43.0327V42.9981V42.9635V42.929V42.8944V42.8598V42.8253V42.7907V42.7561V42.7215V42.687V42.6524V42.6178V42.5833V42.5487V42.5141V42.4795V42.445V42.4104V42.3758V42.3413V42.3067V42.2721V42.2375V42.203V42.1684V42.1338V42.0993V42.0647V42.0301V41.9956V41.961V41.9264V41.8918V41.8573V41.8227V41.7881V41.7536V41.719V41.6844V41.6498V41.6153V41.5807V41.5461V41.5116V41.477V41.4424V41.4078V41.3733V41.3387V41.3041V41.2696V41.235V41.2004V41.1658V41.1313V41.0967V41.0621V41.0276V40.993V40.9584V40.9239V40.8893V40.8547V40.8201V40.7856V40.751V40.7164V40.6819V40.6473V40.6127V40.5781V40.5436V40.509V40.4744V40.4399V40.4053V40.3707V40.3361V40.3016V40.267V40.2324V40.1979V40.1633V40.1287V40.0941V40.0596V40.025V39.9904V39.9559V39.9213V39.8867V39.8521V39.8176V39.783V39.7484V39.7139V39.6793V39.6447V39.6102V39.5756V39.541V39.5064V39.4719V39.4373V39.4027V39.3682V39.3336V39.299V39.2644V39.2299V39.1953V39.1607V39.1262V39.0916V39.057V39.0224V38.9879V38.9533V38.9187V38.8842V38.8496V38.815V38.7805V38.7459V38.7113V38.6767V38.6422V38.6076V38.573V38.5385V38.5039V38.4693V38.4347V38.4002V38.3656V38.331V38.2965V38.2619V38.2273V38.1927V38.1582V38.1236V38.089V38.0545V38.0199V37.9853V37.9507V37.9162V37.8816V37.847V37.8125V37.7779V37.7433V37.7088V37.6742V37.6396V37.605V37.5705V37.5359V37.5013V37.4668V37.4322V37.3976V37.363V37.3285V37.2939V37.2593V37.2248V37.1902V37.1556V37.121V37.0865V37.0519V37.0173V36.9828V36.9482V36.9136V36.879V36.8445V36.8099V36.7753V36.7408V36.7062V36.6716V36.6371V36.6025V36.5679V36.5333V36.4988V36.4642V36.4296V36.3951V36.3605V36.3259V36.2913V36.2568V36.2222V36.1876V36.1531V36.1185V36.0839V36.0493V36.0148V35.9802V35.9456V35.9111V35.8765V35.8419V35.8073V35.7728V35.7382V35.7036V35.6691V35.6345V35.5999V35.5653V35.5308V35.4962V35.4616V35.4271V35.3925V35.3579V35.3234V35.2888V35.2542V35.2196V35.1851V35.1505V35.1159V35.0814V35.0468V35.0122V34.9776V34.9431V34.9085V34.8739V34.8394V34.8048V34.7702V34.7356V34.7011V34.6665V34.6319V34.5974V34.5628V34.5282V34.4937V34.4591V34.4245V34.3899V34.3554V34.3208V34.2862V34.2517V34.2171V34.1825V34.1479V34.1134V34.0788V34.0442V34.0097V33.9751V33.9405V33.9059V33.8714V33.8368V33.8022V33.7677V33.7331V33.6985V33.6639V33.6294V33.5948V33.5602V33.5257V33.4911V33.4565V33.422V33.3874V33.3528V33.3182V33.2837V33.2491V33.2145V33.18V33.1454V33.1108V33.0762V33.0417V33.0071V32.9725V32.938V32.9034V32.8688V32.8342V32.7997V32.7651V32.7305V32.696V32.6614V32.6268V32.5922V32.5577V32.5231V32.4885V32.454V32.4194V32.3848V32.3503V32.3157V32.2811V32.2465V32.212V32.1774V32.1428V32.1083V32.0737V32.0391V32.0045V31.97V31.9354V31.9008V31.8663V31.8317V31.7971V31.7625V31.728V31.6934V31.6588V31.6243V31.5897V31.5551V31.5205V31.486V31.4514V31.4168V31.3823V31.3477V31.3131V31.2786V31.244V31.2094V31.1748V31.1403V31.1057V31.0711V31.0366V31.002V30.9674V30.9328V30.8983V30.8637V30.8291V30.7946V30.76V30.7254V30.6908V30.6563V30.6217V30.5871V30.5526V30.518V30.4834V30.4488V30.4143V30.3797V30.3451V30.3106V30.276V30.2414V30.2069V30.1723V30.1377V30.1031V30.0686V30.034V29.9994V29.9649V29.9303V29.8957V29.8611V29.8266V29.792V29.7574V29.7229V29.6883V29.6537V29.6191V29.5846V29.55V29.5154V29.4809V29.4463V29.4117V29.3771V29.3426V29.308V29.2734V29.2389V29.2043V29.1697V29.1352V29.1006V29.066V29.0314V28.9969V28.9623C130.357 28.3207 130.111 27.7152 129.816 27.2051C129.512 26.6814 129.101 26.1634 128.643 25.6734C127.858 24.8312 126.868 23.9977 125.868 23.2721L125.868 15.4342L125.868 15.4287C125.857 13.0385 124.997 9.79253 124.077 7.21223C123.612 5.90663 123.113 4.71997 122.664 3.84362C122.443 3.41082 122.216 3.01799 121.994 2.71773C121.885 2.57049 121.749 2.40638 121.587 2.26775C121.461 2.15991 121.133 1.90244 120.66 1.90244C120.186 1.90244 119.858 2.16107 119.732 2.26892C119.57 2.40783 119.434 2.57223 119.326 2.71974C119.104 3.02055 118.877 3.41411 118.656 3.84773C118.208 4.72575 117.709 5.91442 117.245 7.22147C116.329 9.80366 115.473 13.0518 115.473 15.4342V23.2693C114.464 23.9964 113.473 24.8311 112.689 25.6747C112.232 26.1655 111.822 26.6838 111.521 27.2079C111.227 27.7188 110.984 28.3231 110.984 28.9623V28.9969V29.0314V29.066V29.1006V29.1352V29.1697V29.2043V29.2389V29.2734V29.308V29.3426V29.3771V29.4117V29.4463V29.4809V29.5154V29.55V29.5846V29.6191V29.6537V29.6883V29.7229V29.7574V29.792V29.8266V29.8611V29.8957V29.9303V29.9649V29.9994V30.034V30.0686V30.1031V30.1377V30.1723V30.2069V30.2414V30.276V30.3106V30.3451V30.3797V30.4143V30.4488V30.4834V30.518V30.5526V30.5871V30.6217V30.6563V30.6908V30.7254V30.76V30.7946V30.8291V30.8637V30.8983V30.9328V30.9674V31.002V31.0366V31.0711V31.1057V31.1403V31.1748V31.2094V31.244V31.2786V31.3131V31.3477V31.3823V31.4168V31.4514V31.486V31.5205V31.5551V31.5897V31.6243V31.6588V31.6934V31.728V31.7625V31.7971V31.8317V31.8663V31.9008V31.9354V31.97V32.0045V32.0391V32.0737V32.1083V32.1428V32.1774V32.212V32.2465V32.2811V32.3157V32.3503V32.3848V32.4194V32.454V32.4885V32.5231V32.5577V32.5922V32.6268V32.6614V32.696V32.7305V32.7651V32.7997V32.8342V32.8688V32.9034V32.938V32.9725V33.0071V33.0417V33.0762V33.1108V33.1454V33.18V33.2145V33.2491V33.2837V33.3182V33.3528V33.3874V33.422V33.4565V33.4911V33.5257V33.5602V33.5948V33.6294V33.6639V33.6985V33.7331V33.7677V33.8022V33.8368V33.8714V33.9059V33.9405V33.9751V34.0097V34.0442V34.0788V34.1134V34.1479V34.1825V34.2171V34.2517V34.2862V34.3208V34.3554V34.3899V34.4245V34.4591V34.4937V34.5282V34.5628V34.5974V34.6319V34.6665V34.7011V34.7356V34.7702V34.8048V34.8394V34.8739V34.9085V34.9431V34.9776V35.0122V35.0468V35.0814V35.1159V35.1505V35.1851V35.2196V35.2542V35.2888V35.3234V35.3579V35.3925V35.4271V35.4616V35.4962V35.5308V35.5653V35.5999V35.6345V35.6691V35.7036V35.7382V35.7728V35.8073V35.8419V35.8765V35.9111V35.9456V35.9802V36.0148V36.0493V36.0839V36.1185V36.1531V36.1876V36.2222V36.2568V36.2913V36.3259V36.3605V36.3951V36.4296V36.4642V36.4988V36.5333V36.5679V36.6025V36.6371V36.6716V36.7062V36.7408V36.7753V36.8099V36.8445V36.879V36.9136V36.9482V36.9828V37.0173V37.0519V37.0865V37.121V37.1556V37.1902V37.2248V37.2593V37.2939V37.3285V37.363V37.3976V37.4322V37.4668V37.5013V37.5359V37.5705V37.605V37.6396V37.6742V37.7088V37.7433V37.7779V37.8125V37.847V37.8816V37.9162V37.9507V37.9853V38.0199V38.0545V38.089V38.1236V38.1582V38.1927V38.2273V38.2619V38.2965V38.331V38.3656V38.4002V38.4347V38.4693V38.5039V38.5385V38.573V38.6076V38.6422V38.6767V38.7113V38.7459V38.7805V38.815V38.8496V38.8842V38.9187V38.9533V38.9879V39.0224V39.057V39.0916V39.1262V39.1607V39.1953V39.2299V39.2644V39.299V39.3336V39.3682V39.4027V39.4373V39.4719V39.5064V39.541V39.5756V39.6102V39.6447V39.6793V39.7139V39.7484V39.783V39.8176V39.8521V39.8867V39.9213V39.9559V39.9904V40.025V40.0596V40.0941V40.1287V40.1633V40.1979V40.2324V40.267V40.3016V40.3361V40.3707V40.4053V40.4399V40.4744V40.509V40.5436V40.5781V40.6127V40.6473V40.6819V40.7164V40.751V40.7856V40.8201V40.8547V40.8893V40.9239V40.9584V40.993V41.0276V41.0621V41.0967V41.1313V41.1658V41.2004V41.235V41.2696V41.3041V41.3387V41.3733V41.4078V41.4424V41.477V41.5116V41.5461V41.5807V41.6153V41.6498V41.6844V41.719V41.7536V41.7881V41.8227V41.8573V41.8918V41.9264V41.961V41.9956V42.0301V42.0647V42.0993V42.1338V42.1684V42.203V42.2375V42.2721V42.3067V42.3413V42.3758V42.4104V42.445V42.4795V42.5141V42.5487V42.5833V42.6178V42.6524V42.687V42.7215V42.7561V42.7907V42.8253V42.8598V42.8944V42.929V42.9635V42.9981V43.0327V43.0672V43.1018V43.1364V43.171V43.2055V43.2401V43.2747V43.3092V43.3438V43.3784V43.413V43.4475V43.4821V43.5167V43.5512V43.5858V43.6204V43.655V43.6895V43.7241V43.7587V43.7932V43.8278V43.8624V43.897V43.9315V43.9661V44.0007V44.0352V44.0698V44.1044V44.139V44.1735V44.2081V44.2427V44.2772V44.3118V44.3464V44.3809V44.4155V44.4501V44.4847V44.5192V44.5538V44.5884V44.6229V44.6575V44.6921V44.7267V44.7612V44.7958V44.8304V44.8649V44.8995V44.9341V44.9687V45.0032V45.0378V45.0724V45.1069V45.1415V45.1761V45.2107V45.2452V45.2798V45.3144V45.3489V45.3835V45.4181V45.4526V45.4872V45.5218V45.5564V45.5909V45.6255V45.6601V45.6946V45.7292V45.7638V45.7984V45.8329V45.8675V45.9021V45.9366V45.9712V46.0058V46.0404V46.0749V46.1095V46.1441V46.1786V46.2132V46.2478V46.2824V46.3169V46.3515V46.3861V46.4206V46.4552V46.4898V46.5243V46.5589V46.5935V46.6281V46.6626Z" stroke="white" stroke-opacity="0.2" stroke-width="2.28302"/>
<path d="M116.614 15.4342C116.614 11.0723 119.817 3.04395 120.66 3.04395V46.6626H112.126V28.9623C112.126 27.5294 114.36 25.4012 116.614 23.8629V15.4342Z" fill="black"/>
<path d="M115.15 43.5422C115.887 40.5946 112.325 38.505 110.112 40.5863L70.0127 78.2914V91.0934L106.996 76.1577L115.15 43.5422Z" fill="black"/>
<path d="M69.2307 77.4598L68.8712 77.7979V78.2914V91.0934V92.7855L70.4401 92.1519L107.424 77.2162L107.963 76.9985L108.104 76.4346L116.258 43.8191C117.271 39.7661 112.373 36.8928 109.33 39.7547L69.2307 77.4598Z" stroke="white" stroke-opacity="0.2" stroke-width="2.28302"/>
<path d="M70.0127 78.2914L117.665 33.4844L73.0567 79.9058L70.0127 91.0934V78.2914Z" fill="black"/>
<path d="M117.664 33.4844L106.996 76.1577L93.6035 81.5662L101.214 48.9529L117.664 33.4844Z" fill="black"/>
<path d="M101.252 72.1428L100.818 77.4392L96.743 79.3711L99.8683 76.3528L101.252 72.1428Z" fill="black"/>
<path d="M127.69 65.541L80.0381 110.348V123.15L117.022 108.214L127.69 65.541Z" fill="black"/>
<path d="M128.797 65.8179L129.74 62.0462L126.908 64.7094L79.2561 109.516L78.8966 109.855V110.348V123.15V124.842L80.4655 124.208L117.449 109.273L117.988 109.055L118.129 108.491L128.797 65.8179Z" stroke="white" stroke-opacity="0.2" stroke-width="2.28302"/>
<path d="M80.0381 110.348L127.69 65.541L82.9502 111.107L80.0381 123.15V110.348Z" fill="black"/>
<path d="M127.689 65.541L117.021 108.214L92.2334 118.28L97.4082 94.0139L127.689 65.541Z" fill="black"/>
<path d="M99.4246 109.117L98.9909 114.414L94.9159 116.346L98.0412 113.327L99.4246 109.117Z" fill="black"/>
<path d="M126.386 43.5422C125.649 40.5946 129.211 38.505 131.424 40.5863L171.523 78.2914V91.0934L134.54 76.1577L126.386 43.5422Z" fill="black"/>
<path d="M172.305 77.4598L172.665 77.7979V78.2914V91.0934V92.7855L171.096 92.1519L134.112 77.2162L133.573 76.9985L133.432 76.4346L125.279 43.8191C124.265 39.7661 129.163 36.8928 132.206 39.7547L172.305 77.4598Z" stroke="white" stroke-opacity="0.2" stroke-width="2.28302"/>
<path d="M171.523 78.2914L123.872 33.4844L168.479 79.9058L171.523 91.0934V78.2914Z" fill="black"/>
<path d="M123.872 33.4844L134.54 76.1577L147.933 81.5662L140.323 48.9529L123.872 33.4844Z" fill="black"/>
<path d="M113.846 65.541L161.498 110.348V123.15L124.514 108.214L113.846 65.541Z" fill="black"/>
<path d="M112.739 65.8179L111.796 62.0462L114.628 64.7094L162.28 109.516L162.64 109.855V110.348V123.15V124.842L161.071 124.208L124.087 109.273L123.548 109.055L123.407 108.491L112.739 65.8179Z" stroke="white" stroke-opacity="0.2" stroke-width="2.28302"/>
<path d="M161.498 110.348L113.846 65.541L158.586 111.107L161.498 123.15V110.348Z" fill="black"/>
<path d="M113.847 65.541L124.516 108.214L149.303 118.28L144.128 94.0139L113.847 65.541Z" fill="black"/>
<path d="M140.134 72.1428L140.568 77.4392L144.643 79.3711L141.517 76.3528L140.134 72.1428Z" fill="black"/>
<path d="M142.114 109.117L142.548 114.414L146.623 116.346L143.498 113.327L142.114 109.117Z" fill="black"/>
<path d="M116.951 42.0478C116.93 43.86 116.509 46.6626 120.66 46.6626C124.811 46.6626 124.389 43.86 124.411 42.0478V31.3223C127.002 31.3223 132.123 31.7648 132.586 35.1152C137.896 73.0445 139.372 97.4457 139.393 136.028C139.393 136.787 139.645 137.419 140.172 137.967C142.701 140.58 145.229 143.172 147.758 145.784V164.307C145.251 167.531 142.743 170.776 140.235 174C140.235 180.655 101.151 180.625 101.108 173.977C98.6068 170.76 96.1051 167.523 93.6035 164.307V145.784C96.1321 143.172 98.6608 140.58 101.189 137.967C101.716 137.419 101.969 136.787 101.969 136.028C101.99 97.4246 103.465 73.0445 108.775 35.1152C109.239 31.7648 114.359 31.3223 116.951 31.3223V42.0478Z" fill="black"/>
<path d="M118.093 42.0611H118.093C118.09 42.2378 118.086 42.4019 118.081 42.56C118.073 42.8747 118.065 43.1655 118.078 43.4841C118.098 43.9377 118.162 44.2956 118.284 44.5722C118.395 44.8216 118.562 45.0279 118.865 45.1899C119.191 45.3646 119.741 45.521 120.66 45.521C121.579 45.521 122.129 45.3646 122.456 45.1896C122.76 45.0271 122.929 44.8194 123.043 44.5673C123.168 44.288 123.235 43.9278 123.26 43.471C123.276 43.1639 123.274 42.8964 123.27 42.6066C123.269 42.431 123.267 42.2472 123.269 42.0414V31.3223V30.1808H124.411C125.746 30.1808 127.813 30.2917 129.643 30.8747C131.433 31.4449 133.392 32.6106 133.717 34.9578M118.093 42.0611L132.586 35.1152M118.093 42.0611V42.0478V31.3223V30.1808H116.951C115.616 30.1808 113.549 30.2917 111.719 30.8747C109.929 31.4448 107.97 32.6103 107.645 34.9569M118.093 42.0611L101.969 136.028C101.969 136.787 101.716 137.419 101.189 137.967M133.717 34.9578C133.717 34.9581 133.717 34.9584 133.717 34.9587L132.586 35.1152M133.717 34.9578C133.717 34.9575 133.717 34.9572 133.717 34.9569L132.586 35.1152M133.717 34.9578C139.035 72.9445 140.513 97.3986 140.534 136.028V136.028C140.534 136.493 140.673 136.841 140.994 137.174M132.586 35.1152C137.896 73.0445 139.372 97.4457 139.393 136.028C139.393 136.787 139.645 137.419 140.172 137.967M140.994 137.174C140.993 137.174 140.993 137.173 140.993 137.173L140.172 137.967M140.994 137.174C140.994 137.175 140.995 137.175 140.995 137.176L140.172 137.967M140.994 137.174C142.257 138.479 143.52 139.779 144.784 141.08L144.784 141.081C146.048 142.381 147.313 143.683 148.578 144.991L148.9 145.323V145.784V164.307V164.698L148.659 165.007C147.413 166.61 146.166 168.218 144.919 169.827L144.899 169.852L144.89 169.864C143.709 171.388 142.527 172.913 141.344 174.433M140.172 137.967C141.437 139.273 142.701 140.574 143.965 141.876C145.229 143.177 146.494 144.478 147.758 145.784V164.307C146.505 165.918 145.251 167.535 143.998 169.151C142.744 170.769 141.49 172.387 140.235 174M141.344 174.433C141.366 174.293 141.377 174.149 141.377 174H140.235M141.344 174.433C141.275 174.522 141.206 174.611 141.137 174.7L140.235 174M141.344 174.433C141.157 175.665 140.184 176.555 139.131 177.168C137.915 177.877 136.258 178.427 134.38 178.852C130.603 179.706 125.625 180.122 120.687 180.118C115.749 180.115 110.768 179.693 106.987 178.834C105.106 178.407 103.446 177.855 102.228 177.146C101.172 176.532 100.195 175.644 100.002 174.413M140.235 174C140.235 180.655 101.151 180.625 101.108 173.977M101.108 173.977L100.207 174.678C100.139 174.589 100.07 174.501 100.002 174.413M101.108 173.977C99.8603 172.372 98.6123 170.762 97.3642 169.152C96.1106 167.535 94.8571 165.918 93.6035 164.307V145.784C94.8678 144.478 96.1322 143.177 97.3965 141.876C98.6608 140.574 99.9251 139.273 101.189 137.967M101.108 173.977L99.9669 173.984C99.9678 174.131 99.9797 174.274 100.002 174.413M100.002 174.413C98.8187 172.892 97.6359 171.366 96.4538 169.841C95.2029 168.227 93.9526 166.615 92.7025 165.007L92.462 164.698V164.307V145.784V145.323L92.7832 144.991C94.0481 143.684 95.3129 142.382 96.5767 141.081L96.5778 141.08C97.8417 139.779 99.1048 138.479 100.368 137.174M100.368 137.174C100.367 137.175 100.367 137.175 100.367 137.176L101.189 137.967M100.368 137.174C100.368 137.174 100.369 137.173 100.369 137.173L101.189 137.967M100.368 137.174C100.688 136.841 100.828 136.493 100.828 136.028V136.028C100.849 97.3772 102.327 72.9441 107.645 34.9569M107.645 34.9569C107.645 34.9575 107.645 34.9581 107.644 34.9587L108.775 35.1152L107.645 34.9569ZM125.552 31.351V31.3223H124.411C124.753 31.3223 125.139 31.33 125.552 31.351ZM115.81 31.351C116.223 31.33 116.609 31.3223 116.951 31.3223H115.81V31.351Z" stroke="white" stroke-opacity="0.2" stroke-width="2.28302"/>
<path d="M101.969 136.029C101.99 97.4249 103.465 73.0448 108.775 35.1155C108.92 34.0724 109.515 33.3111 110.346 32.7573C109.563 47.9329 106.761 69.8739 105.744 89.7989C104.455 115.071 104.714 140.025 104.714 140.025L96.6475 147.635V167.422L101.975 175.032C99.467 171.808 96.1111 167.531 93.6035 164.307V145.785C96.1321 143.172 98.6608 140.58 101.189 137.967C101.716 137.419 101.969 136.787 101.969 136.029Z" fill="black"/>
<path d="M147.758 164.307C145.25 167.531 142.742 170.776 140.235 174C140.235 177.33 130.445 178.987 120.659 178.977V46.6626C124.81 46.6626 124.389 43.86 124.41 42.0478V31.3223C127.002 31.3223 132.122 31.7648 132.586 35.1152C137.896 73.0445 139.371 97.4457 139.392 136.028C139.392 136.787 139.645 137.419 140.172 137.967C142.7 140.58 145.229 143.172 147.758 145.784V164.307Z" fill="black"/>
<path d="M139.423 136.029C139.402 97.4249 137.926 73.0448 132.616 35.1155C132.472 34.0724 131.876 33.3111 131.046 32.7573C131.829 47.9329 134.631 69.8739 135.647 89.7989C136.937 115.071 136.677 140.025 136.677 140.025L145.809 146.874V165.9L140.265 174C142.773 170.776 145.281 167.531 147.788 164.307V145.785C145.259 143.172 142.731 140.58 140.202 137.967C139.675 137.419 139.423 136.787 139.423 136.029Z" fill="black"/>
<path d="M92.8428 164.377C92.8645 167.791 107.513 170.976 121.761 170.885C135.259 170.798 148.396 167.615 148.396 164.377" stroke="white" stroke-opacity="0.2" stroke-width="1.52201"/>
<path d="M92.8428 144.591C92.8645 148.005 107.513 151.19 121.761 151.098C135.259 151.012 148.396 147.829 148.396 144.591" stroke="white" stroke-opacity="0.2" stroke-width="1.52201"/>
<path d="M101.214 136.981C101.256 143.629 140.025 143.636 140.025 136.981" stroke="white" stroke-opacity="0.2" stroke-width="1.52201"/>
<path fill-rule="evenodd" clip-rule="evenodd" d="M120.727 154.483H112.93C111.392 154.483 110.148 155.727 110.148 157.265V163.586C110.148 165.125 111.392 166.368 112.93 166.368H120.727H128.523C130.061 166.368 131.305 165.125 131.305 163.586V157.265C131.305 155.727 130.061 154.483 128.523 154.483H120.727Z" fill="black"/>
<path d="M112.93 155.244H120.727H128.523C129.641 155.244 130.544 156.147 130.544 157.265V163.586C130.544 164.704 129.641 165.607 128.523 165.607H120.727H112.93C111.812 165.607 110.909 164.704 110.909 163.586V157.265C110.909 156.147 111.812 155.244 112.93 155.244Z" stroke="white" stroke-opacity="0.2" stroke-width="1.52201"/>
<path d="M108.598 43.1089C108.598 43.1089 109.341 36.0132 109.92 34.7488C110.499 33.4843 114.281 32.7092 114.281 32.7092L110.955 35.4629L108.598 43.1089Z" fill="black"/>
<path d="M132.619 43.1089C132.619 43.1089 131.875 36.0132 131.297 34.7488C130.718 33.4843 126.935 32.7092 126.935 32.7092L130.262 35.4629L132.619 43.1089Z" fill="black"/>
<path d="M103.472 128.548L103.368 136.918L109.472 138.876L105.018 135.355L103.472 128.548Z" fill="black"/>
<path d="M138.415 128.548L138.519 136.918L132.415 138.876L136.869 135.355L138.415 128.548Z" fill="black"/>
<rect x="101.214" y="155.703" width="2.13082" height="6.08805" rx="0.761006" fill="black"/>
<rect x="100.986" y="155.474" width="2.58742" height="6.54465" rx="0.989308" stroke="white" stroke-opacity="0.2" stroke-width="0.456604"/>
<rect x="100.909" y="155.702" width="2.13082" height="6.08805" rx="0.761006" fill="black"/>
<path fill-rule="evenodd" clip-rule="evenodd" d="M101.48 156.778H102.061C102.298 156.778 102.497 156.875 102.497 156.992V161.022C102.497 161.138 102.298 161.236 102.061 161.236H101.48C101.242 161.236 101.044 161.138 101.044 161.022V156.996C101.044 156.875 101.242 156.778 101.48 156.778Z" fill="black"/>
<path d="M102.012 156.932C102.145 156.932 102.254 156.829 102.254 156.701C102.254 156.574 102.145 156.471 102.012 156.471C101.878 156.471 101.77 156.574 101.77 156.701C101.77 156.829 101.878 156.932 102.012 156.932Z" fill="black"/>
<path d="M101.287 160.661V158.674C101.287 158.5 101.594 158.224 102.078 157.95C102.131 157.916 102.19 157.884 102.256 157.854C102.194 157.886 102.135 157.918 102.078 157.95C101.708 158.19 101.659 158.522 101.687 158.674L101.687 160.661C101.659 160.813 101.853 161.006 102.507 161.114C101.974 161.114 101.287 160.834 101.287 160.661Z" fill="black"/>
<rect x="137.742" y="155.703" width="2.13082" height="6.08805" rx="0.761006" fill="black"/>
<rect x="137.514" y="155.474" width="2.58742" height="6.54465" rx="0.989308" stroke="white" stroke-opacity="0.2" stroke-width="0.456604"/>
<rect x="138.047" y="155.702" width="2.13082" height="6.08805" rx="0.761006" fill="black"/>
<path fill-rule="evenodd" clip-rule="evenodd" d="M138.617 156.778H139.198C139.436 156.778 139.634 156.875 139.634 156.992V161.022C139.634 161.138 139.436 161.236 139.198 161.236H138.617C138.38 161.236 138.182 161.138 138.182 161.022V156.996C138.182 156.875 138.38 156.778 138.617 156.778Z" fill="black"/>
<path d="M139.149 156.932C139.283 156.932 139.391 156.829 139.391 156.701C139.391 156.574 139.283 156.471 139.149 156.471C139.016 156.471 138.907 156.574 138.907 156.701C138.907 156.829 139.016 156.932 139.149 156.932Z" fill="black"/>
<path d="M138.425 160.661V158.674C138.425 158.5 138.732 158.224 139.216 157.95C139.269 157.916 139.327 157.884 139.393 157.854C139.332 157.886 139.273 157.918 139.216 157.95C138.846 158.19 138.797 158.522 138.825 158.674L138.825 160.661C138.797 160.813 138.991 161.006 139.645 161.114C139.112 161.114 138.425 160.834 138.425 160.661Z" fill="black"/>
<path fill-rule="evenodd" clip-rule="evenodd" d="M114.25 69.969C115.662 61.7299 117.79 56.3145 120.719 56.3145C123.648 56.3145 125.776 61.7088 127.188 69.969C128.789 79.346 129.569 92.5369 129.569 105.538C129.569 107.224 128.22 109.605 126.366 111.459C124.701 113.124 122.594 114.409 120.719 114.409C118.822 114.409 116.736 113.145 115.071 111.459C113.217 109.605 111.869 107.224 111.869 105.538C111.848 92.5159 112.627 79.346 114.25 69.969Z" fill="black"/>
<path d="M111.108 105.539C111.108 106.562 111.509 107.71 112.107 108.801C112.713 109.907 113.558 111.022 114.532 111.996C116.25 113.735 118.52 115.17 120.719 115.17C122.898 115.17 125.191 113.711 126.904 111.998C127.878 111.024 128.724 109.907 129.33 108.801C129.929 107.709 130.33 106.562 130.33 105.538C130.33 92.5166 129.55 79.2778 127.938 69.8409L127.938 69.8408C127.228 65.6889 126.33 62.2003 125.216 59.7311C124.659 58.4975 124.029 57.4739 123.305 56.7488C122.574 56.0156 121.708 55.5534 120.719 55.5534C119.728 55.5534 118.863 56.0178 118.131 56.7525C117.408 57.4792 116.778 58.5046 116.222 59.7393C115.107 62.2107 114.209 65.6988 113.5 69.8398C111.867 79.2777 111.086 92.4959 111.108 105.539ZM111.108 105.539C111.108 105.539 111.108 105.538 111.108 105.538H111.869M111.108 105.539C111.108 105.539 111.108 105.539 111.108 105.539L111.869 105.538M111.869 105.538C111.869 107.224 113.217 109.605 115.071 111.459M111.869 105.538C111.848 92.5159 112.627 79.346 114.25 69.969L115.071 111.459M115.071 111.459C116.736 113.145 118.822 114.409 120.719 114.409C122.594 114.409 124.701 113.124 126.366 111.459C128.22 109.605 129.569 107.224 129.569 105.538C129.569 92.5369 128.789 79.346 127.188 69.969L115.071 111.459Z" stroke="white" stroke-opacity="0.2" stroke-width="1.52201"/>
<path fill-rule="evenodd" clip-rule="evenodd" d="M120.725 67.7603C118.724 67.7603 118.218 68.6874 117.27 72.1432C115.479 78.6544 114.425 90.3071 116.174 97.5558C116.996 101.012 117.986 101.939 120.746 101.939C123.486 101.939 124.476 101.033 125.319 97.5558C127.047 90.3071 125.993 78.6544 124.223 72.1432C123.233 68.6874 122.727 67.7603 120.725 67.7603Z" fill="black"/>
<path d="M120.238 58.1411C117.72 58.1411 115.89 63.1641 114.676 70.8062C113.281 79.5037 112.61 91.7192 112.628 103.798C112.628 104.677 112.995 105.76 113.599 106.846C112.607 101.904 113.821 82.0605 115.245 74.3759C116.554 67.3173 119.228 59.7612 120.238 58.1411Z" fill="black"/>
<path fill-rule="evenodd" clip-rule="evenodd" d="M120.653 109.523C123.358 109.523 127.002 109.569 129.354 108.209C129.965 107.863 130.741 108.301 130.647 108.993C130.177 112.128 129.307 115.218 128.648 118.33C127.919 121.742 123.734 122.802 120.653 122.802C117.573 122.802 113.435 121.742 112.659 118.353C111.977 115.31 111.13 112.059 110.66 108.993C110.566 108.347 111.271 107.84 111.883 108.163C114.281 109.523 117.949 109.523 120.653 109.523Z" fill="black"/>
<path d="M128.797 107.224L128.797 107.224L128.787 107.229C127.816 107.791 126.505 108.098 125.02 108.25C123.634 108.393 122.204 108.392 120.9 108.391C120.817 108.391 120.735 108.391 120.653 108.391C119.293 108.391 117.76 108.39 116.276 108.228C114.781 108.065 113.443 107.747 112.441 107.178L112.426 107.17L112.411 107.162C111.006 106.42 109.308 107.566 109.54 109.156L109.54 109.156L109.541 109.164C109.897 111.486 110.468 113.925 111.013 116.254C111.2 117.052 111.383 117.837 111.554 118.6L111.554 118.6L111.555 118.606C112.048 120.755 113.606 122.099 115.324 122.879C117.03 123.654 119.005 123.934 120.653 123.934C122.301 123.934 124.289 123.654 126.001 122.876C127.725 122.093 129.291 120.739 129.755 118.566L129.756 118.564C129.972 117.543 130.218 116.496 130.468 115.434C130.954 113.372 131.452 111.254 131.766 109.161L131.768 109.153L131.769 109.145C131.884 108.299 131.447 107.595 130.84 107.237C130.25 106.889 129.472 106.842 128.797 107.224Z" stroke="white" stroke-opacity="0.2" stroke-width="2.26356"/>
<path d="M129.354 108.209C127.002 109.569 123.357 109.523 120.653 109.523V122.803C123.734 122.803 127.919 121.742 128.648 118.33C129.307 115.218 130.177 112.128 130.647 108.993C130.741 108.301 129.965 107.863 129.354 108.209Z" fill="black"/>
<path d="M110.66 108.993C111.13 112.059 111.977 115.31 112.659 118.353L111.883 109.642L114.336 109.116L111.883 108.163C111.271 107.84 110.566 108.347 110.66 108.993Z" fill="black"/>
<path d="M130.645 108.993C130.175 112.059 129.328 115.31 128.646 118.353L129.422 109.642L126.968 109.116L129.422 108.163C130.033 107.84 130.739 108.347 130.645 108.993Z" fill="black"/>
<path d="M126.97 110.168C124.74 110.407 122.453 110.877 120.501 110.877C118.644 110.877 116.477 110.389 114.336 110.168C114.336 110.168 117.976 112.237 120.502 112.274C123.14 112.312 126.97 110.168 126.97 110.168Z" fill="black"/>
<path d="M108.984 104.082C108.984 104.082 108.982 103.957 108.98 103.716C108.977 104.04 108.975 104.588 108.978 105.332L107.859 106.541C107.844 105.63 107.835 104.703 107.832 103.761C107.831 103.844 107.831 103.927 107.831 104.01L107.831 104.897C107.83 104.6 107.83 104.304 107.831 104.01L107.831 103.525C107.83 103.206 107.83 102.884 107.831 102.56L107.831 103.525C107.831 103.604 107.831 103.682 107.832 103.761C107.918 75.4627 113.404 61.0405 113.404 61.0405C108.955 78.8797 108.956 100.644 108.98 103.716C108.982 103.492 108.983 103.375 108.983 103.375L108.984 104.082Z" fill="black"/>
<path d="M132.445 104.082C132.445 104.082 132.447 103.957 132.449 103.716C132.451 104.04 132.454 104.588 132.451 105.332L133.57 106.541C133.585 105.63 133.594 104.703 133.597 103.761C133.597 103.844 133.598 103.927 133.598 104.01L133.598 104.897C133.598 104.6 133.598 104.304 133.598 104.01L133.598 103.525C133.598 103.206 133.598 102.884 133.598 102.56L133.598 103.525C133.598 103.604 133.597 103.682 133.597 103.761C133.511 75.4627 128.025 61.0405 128.025 61.0405C132.473 78.8797 132.473 100.644 132.449 103.716C132.447 103.492 132.445 103.375 132.445 103.375L132.445 104.082Z" fill="black"/>
<path d="M127.353 102.089C127.086 103.721 126.322 104.951 125.643 104.841C124.963 104.731 124.629 103.319 124.899 101.687C125.17 100.055 125.934 98.8242 126.61 98.938C127.286 99.0518 127.623 100.46 127.353 102.089Z" fill="black"/>
<path d="M115.901 100.315C116.622 100.315 117.206 99.6783 117.206 98.8927C117.206 98.1071 116.622 97.4702 115.901 97.4702C115.18 97.4702 114.596 98.1071 114.596 98.8927C114.596 99.6783 115.18 100.315 115.901 100.315Z" fill="black"/>
<path d="M118.109 103.697C118.527 103.697 118.866 103.358 118.866 102.94C118.866 102.522 118.527 102.183 118.109 102.183C117.691 102.183 117.352 102.522 117.352 102.94C117.352 103.358 117.691 103.697 118.109 103.697Z" fill="black"/>
<path d="M125.901 74.668C126.454 78.5069 126.347 81.6987 125.663 81.7961C124.979 81.8935 123.983 78.8621 123.433 75.0238C122.883 71.1856 122.984 67.9925 123.671 67.8958C124.358 67.799 125.347 70.8291 125.901 74.668Z" fill="black"/>
<path d="M127.099 86.7313C127.038 88.3837 126.435 89.7042 125.749 89.6782C125.063 89.6521 124.558 88.2962 124.612 86.6424C124.666 84.9887 125.275 83.6731 125.961 83.6992C126.647 83.7252 127.159 85.0823 127.099 86.7313Z" fill="black"/>
<path d="M121.712 59.2337C121.712 59.2337 123.388 62.5576 122.17 67.8181C122.17 67.8181 119.903 64.4425 121.712 59.2337Z" fill="black"/>
<path d="M90.2951 137.42H126.751C130.783 137.42 132.715 138.428 132.715 141.284C132.715 144.14 130.783 145.232 126.751 145.232H117.091C107.515 145.232 103.903 149.264 103.903 156.32V158.084H118.267V157.748C118.267 156.908 118.771 156.404 119.947 156.404H128.431C142.879 156.404 149.431 149.936 149.431 140.276C149.431 129.692 142.459 122.804 125.407 122.804H101.551L90.2951 137.42ZM102.307 171.86C102.307 176.984 106.507 179.924 111.799 179.924C117.007 179.924 121.207 176.984 121.207 171.86C121.207 166.652 117.007 163.628 111.799 163.628C106.507 163.628 102.307 166.652 102.307 171.86Z" fill="white"/>
<rect x="0.5" y="0.5" width="241" height="285.138" stroke="black"/>
</svg>
