<svg width="100" height="100" viewBox="0 0 100 100" fill="none" xmlns="http://www.w3.org/2000/svg">
<g clip-path="url(#clip0_882_5753)">
<path d="M90 1H51.142C48.7551 1 46.4659 1.94822 44.778 3.63605L3.63602 44.7782C1.9482 46.466 0.999992 48.7552 0.999992 51.1421V90C0.999992 94.9706 5.02943 99 9.99999 99H48.7641C51.1477 99 53.434 98.0544 55.1213 96.3707L96.3572 55.2224C98.0492 53.534 99 51.2419 99 48.8516V10C99 5.02944 94.9706 1 90 1Z" fill="black" stroke="white" stroke-width="2"/>
<g clip-path="url(#clip1_882_5753)">
<path d="M47.0304 68.4668L49.1832 70.6348C50.0947 71.5527 51.5686 71.5527 52.4704 70.6348L71.3214 51.6602C72.233 50.7422 72.233 49.2578 71.3214 48.3496L52.4705 29.3652C51.5589 28.4473 50.085 28.4473 49.1832 29.3652L47.0304 31.5332C46.1092 32.4609 46.1286 33.9746 47.0692 34.8828L58.7541 46.0938L30.8849 46.0938C29.5952 46.0938 28.5576 47.1387 28.5576 48.4375L28.5576 51.5625C28.5576 52.8613 29.5952 53.9063 30.8849 53.9063L58.7541 53.9063L47.0692 65.1172C46.1189 66.0254 46.0995 67.5391 47.0304 68.4668Z" fill="white"/>
</g>
</g>
<defs>
<clipPath id="clip0_882_5753">
<rect width="100" height="100" fill="white" transform="matrix(-1 0 0 1 100 0)"/>
</clipPath>
<clipPath id="clip1_882_5753">
<rect width="43.4426" height="50" fill="white" transform="matrix(1 8.74228e-08 8.74228e-08 -1 28.5576 75)"/>
</clipPath>
</defs>
</svg>
