<svg width="263" height="110" viewBox="0 0 263 110" fill="none" xmlns="http://www.w3.org/2000/svg">
<rect x="29" y="78" width="205" height="32" rx="16" fill="white"/>
<g clip-path="url(#clip0_900_961)">
<path d="M67.5068 103.5H50.5068L48.5068 92.5H69.5068L67.5068 103.5Z" stroke="black" stroke-miterlimit="10" stroke-linecap="round" stroke-linejoin="round"/>
<path d="M70.5068 90.5H47.5068V92.5H70.5068V90.5Z" stroke="black" stroke-miterlimit="10" stroke-linecap="round" stroke-linejoin="round"/>
<path d="M50.5068 88.5L56.5068 82.5" stroke="black" stroke-miterlimit="10" stroke-linecap="round" stroke-linejoin="round"/>
<path d="M67.5068 88.5L61.5068 82.5" stroke="black" stroke-miterlimit="10" stroke-linecap="round" stroke-linejoin="round"/>
</g>
<path d="M94.9971 95.7598C95.029 96.3294 95.1634 96.792 95.4004 97.1475C95.8516 97.8128 96.6468 98.1455 97.7861 98.1455C98.2965 98.1455 98.7614 98.0726 99.1807 97.9268C99.9919 97.6442 100.397 97.1383 100.397 96.4092C100.397 95.8623 100.227 95.4727 99.8848 95.2402C99.5384 95.0124 98.9961 94.8141 98.2578 94.6455L96.8975 94.3379C96.0088 94.1374 95.3799 93.9163 95.0107 93.6748C94.3727 93.2555 94.0537 92.6289 94.0537 91.7949C94.0537 90.8926 94.3659 90.152 94.9902 89.5732C95.6146 88.9945 96.4987 88.7051 97.6426 88.7051C98.6953 88.7051 99.5885 88.9603 100.322 89.4707C101.061 89.9766 101.43 90.7878 101.43 91.9043H100.151C100.083 91.3665 99.9372 90.9541 99.7139 90.667C99.2992 90.1429 98.5951 89.8809 97.6016 89.8809C96.7995 89.8809 96.223 90.0495 95.8721 90.3867C95.5212 90.724 95.3457 91.1159 95.3457 91.5625C95.3457 92.0547 95.5508 92.4147 95.9609 92.6426C96.2298 92.7884 96.8382 92.9707 97.7861 93.1895L99.1943 93.5107C99.8734 93.6657 100.397 93.8776 100.767 94.1465C101.405 94.6159 101.724 95.2972 101.724 96.1904C101.724 97.3024 101.318 98.0977 100.507 98.5762C99.7002 99.0547 98.7614 99.2939 97.6904 99.2939C96.4417 99.2939 95.4642 98.9749 94.7578 98.3369C94.0514 97.7035 93.7051 96.8444 93.7188 95.7598H94.9971ZM103.85 91.6787L105.258 97.4482L106.687 91.6787H108.067L109.503 97.4141L111 91.6787H112.23L110.104 99H108.826L107.336 93.333L105.894 99H104.615L102.503 91.6787H103.85ZM114.343 97.0518C114.343 97.4072 114.473 97.6875 114.732 97.8926C114.992 98.0977 115.3 98.2002 115.655 98.2002C116.088 98.2002 116.507 98.0999 116.913 97.8994C117.597 97.5667 117.938 97.0221 117.938 96.2656V95.2744C117.788 95.3701 117.594 95.4499 117.357 95.5137C117.12 95.5775 116.888 95.623 116.66 95.6504L115.915 95.7461C115.468 95.8053 115.133 95.8988 114.91 96.0264C114.532 96.2406 114.343 96.5824 114.343 97.0518ZM117.323 94.5635C117.606 94.527 117.795 94.4085 117.891 94.208C117.945 94.0986 117.973 93.9414 117.973 93.7363C117.973 93.3171 117.822 93.014 117.521 92.8271C117.225 92.6357 116.799 92.54 116.243 92.54C115.601 92.54 115.145 92.7132 114.876 93.0596C114.726 93.251 114.628 93.5358 114.582 93.9141H113.434C113.456 93.0117 113.748 92.3851 114.309 92.0342C114.874 91.6787 115.528 91.501 116.271 91.501C117.132 91.501 117.831 91.665 118.369 91.9932C118.902 92.3213 119.169 92.8317 119.169 93.5244V97.7422C119.169 97.8698 119.194 97.9723 119.244 98.0498C119.299 98.1273 119.41 98.166 119.579 98.166C119.634 98.166 119.695 98.1637 119.764 98.1592C119.832 98.1501 119.905 98.1387 119.982 98.125V99.0342C119.791 99.0889 119.645 99.123 119.545 99.1367C119.445 99.1504 119.308 99.1572 119.135 99.1572C118.711 99.1572 118.403 99.0068 118.212 98.7061C118.112 98.5465 118.041 98.321 118 98.0293C117.749 98.3574 117.389 98.6423 116.92 98.8838C116.451 99.1253 115.933 99.2461 115.368 99.2461C114.689 99.2461 114.133 99.041 113.7 98.6309C113.272 98.2161 113.058 97.6989 113.058 97.0791C113.058 96.4001 113.27 95.8737 113.693 95.5C114.117 95.1263 114.673 94.8962 115.361 94.8096L117.323 94.5635ZM124.282 98.1729C124.856 98.1729 125.333 97.9336 125.711 97.4551C126.094 96.972 126.285 96.252 126.285 95.2949C126.285 94.7116 126.201 94.2103 126.032 93.791C125.713 92.9844 125.13 92.5811 124.282 92.5811C123.43 92.5811 122.847 93.0072 122.532 93.8594C122.364 94.3151 122.279 94.8939 122.279 95.5957C122.279 96.1608 122.364 96.6416 122.532 97.0381C122.851 97.7946 123.435 98.1729 124.282 98.1729ZM121.097 91.7129H122.293V92.6836C122.539 92.3509 122.808 92.0934 123.1 91.9111C123.514 91.6377 124.002 91.501 124.562 91.501C125.392 91.501 126.096 91.82 126.675 92.458C127.254 93.0915 127.543 93.9984 127.543 95.1787C127.543 96.7738 127.126 97.9131 126.292 98.5967C125.763 99.0296 125.148 99.2461 124.446 99.2461C123.895 99.2461 123.432 99.1253 123.059 98.8838C122.84 98.7471 122.596 98.5124 122.327 98.1797V101.919H121.097V91.7129ZM133.319 92.0684V91.125C134.208 91.0384 134.828 90.8949 135.179 90.6943C135.53 90.4893 135.792 90.0085 135.965 89.252H136.936V99H135.623V92.0684H133.319ZM143.56 89.2109C144.826 89.2109 145.743 89.7327 146.308 90.7764C146.745 91.583 146.964 92.6882 146.964 94.0918C146.964 95.4225 146.766 96.5231 146.369 97.3936C145.795 98.6423 144.856 99.2666 143.553 99.2666C142.377 99.2666 141.502 98.7562 140.928 97.7354C140.449 96.8831 140.21 95.7393 140.21 94.3037C140.21 93.1917 140.354 92.237 140.641 91.4395C141.178 89.9538 142.151 89.2109 143.56 89.2109ZM143.546 98.1455C144.184 98.1455 144.692 97.863 145.07 97.2979C145.449 96.7327 145.638 95.68 145.638 94.1396C145.638 93.0277 145.501 92.1139 145.228 91.3984C144.954 90.6784 144.423 90.3184 143.635 90.3184C142.91 90.3184 142.379 90.6602 142.042 91.3438C141.709 92.0228 141.543 93.0254 141.543 94.3516C141.543 95.3496 141.65 96.1517 141.864 96.7578C142.192 97.6829 142.753 98.1455 143.546 98.1455ZM156.917 94.8848L155.393 90.4482L153.772 94.8848H156.917ZM154.682 88.958H156.22L159.863 99H158.373L157.354 95.9922H153.383L152.296 99H150.901L154.682 88.958ZM161.101 88.958H162.461V97.8037H167.547V99H161.101V88.958ZM169.023 88.958H173.542C174.435 88.958 175.155 89.2109 175.702 89.7168C176.249 90.2181 176.522 90.9245 176.522 91.8359C176.522 92.6198 176.279 93.3034 175.791 93.8867C175.303 94.4655 174.554 94.7549 173.542 94.7549H170.384V99H169.023V88.958ZM175.148 91.8428C175.148 91.1045 174.875 90.6032 174.328 90.3389C174.027 90.1976 173.615 90.127 173.091 90.127H170.384V93.6064H173.091C173.701 93.6064 174.196 93.4766 174.574 93.2168C174.957 92.957 175.148 92.499 175.148 91.8428ZM178.266 88.958H179.64V93.1074H184.862V88.958H186.236V99H184.862V94.3037H179.64V99H178.266V88.958ZM193.503 94.8848L191.979 90.4482L190.358 94.8848H193.503ZM191.268 88.958H192.806L196.449 99H194.959L193.94 95.9922H189.969L188.882 99H187.487L191.268 88.958ZM198.575 95.7598C198.607 96.3294 198.742 96.792 198.979 97.1475C199.43 97.8128 200.225 98.1455 201.364 98.1455C201.875 98.1455 202.34 98.0726 202.759 97.9268C203.57 97.6442 203.976 97.1383 203.976 96.4092C203.976 95.8623 203.805 95.4727 203.463 95.2402C203.117 95.0124 202.574 94.8141 201.836 94.6455L200.476 94.3379C199.587 94.1374 198.958 93.9163 198.589 93.6748C197.951 93.2555 197.632 92.6289 197.632 91.7949C197.632 90.8926 197.944 90.152 198.568 89.5732C199.193 88.9945 200.077 88.7051 201.221 88.7051C202.273 88.7051 203.167 88.9603 203.9 89.4707C204.639 89.9766 205.008 90.7878 205.008 91.9043H203.729C203.661 91.3665 203.515 90.9541 203.292 90.667C202.877 90.1429 202.173 89.8809 201.18 89.8809C200.378 89.8809 199.801 90.0495 199.45 90.3867C199.099 90.724 198.924 91.1159 198.924 91.5625C198.924 92.0547 199.129 92.4147 199.539 92.6426C199.808 92.7884 200.416 92.9707 201.364 93.1895L202.772 93.5107C203.451 93.6657 203.976 93.8776 204.345 94.1465C204.983 94.6159 205.302 95.2972 205.302 96.1904C205.302 97.3024 204.896 98.0977 204.085 98.5762C203.278 99.0547 202.34 99.2939 201.269 99.2939C200.02 99.2939 199.042 98.9749 198.336 98.3369C197.63 97.7035 197.283 96.8444 197.297 95.7598H198.575Z" fill="black"/>
<path d="M0.408 15.17H5.95V32H12.988V9.254H4.658L0.408 15.17ZM31.1198 8.88C21.4638 8.88 16.6018 12.484 16.6018 20.61C16.6018 28.736 21.4638 32.374 31.1198 32.374C40.7758 32.374 45.6378 28.736 45.6378 20.61C45.6378 12.484 40.7758 8.88 31.1198 8.88ZM31.1198 26.458C25.5438 26.458 23.5378 25.506 23.5378 20.61C23.5378 15.714 25.5438 14.796 31.1198 14.796C36.6958 14.796 38.7018 15.714 38.7018 20.61C38.7018 25.506 36.6958 26.458 31.1198 26.458ZM98.3137 32L84.1017 11.43C83.1157 10.002 81.7217 8.88 79.6137 8.88C77.4037 8.88 76.0097 10.104 75.0577 11.43L60.4717 32H68.8017L79.4777 16.904L83.5577 22.922C84.3057 24.01 85.2577 25.404 85.8697 26.22C84.7817 26.152 83.1837 26.152 81.8237 26.152H76.1117L71.8617 32H98.3137ZM107.86 26.152V9.254H100.822V32H120.916L125.472 26.152H107.86ZM157.838 17.788C157.838 12.722 153.724 9.254 146.686 9.254H132.406L127.748 15.17H147.332C149.508 15.17 150.766 16.156 150.766 17.754C150.766 19.318 149.508 20.372 147.332 20.372H127.748V32H134.752V26.186H146.652C153.724 26.186 157.838 22.82 157.838 17.788ZM189.025 9.254H182.021V17.312H168.489V9.254H161.417V32H168.489V23.228H182.021V32H189.025V9.254ZM229.433 32L215.221 11.43C214.235 10.002 212.841 8.88 210.733 8.88C208.523 8.88 207.129 10.104 206.177 11.43L191.591 32H199.921L210.597 16.904L214.677 22.922C215.425 24.01 216.377 25.404 216.989 26.22C215.901 26.152 214.303 26.152 212.943 26.152H207.231L202.981 32H229.433ZM240.645 18.332C239.013 18.332 238.231 17.89 238.231 16.734C238.231 15.578 239.013 15.17 240.645 15.17H256.421L260.943 9.254H241.189C234.287 9.254 231.431 12.042 231.431 16.326C231.431 20.236 234.117 22.854 239.965 22.854H252.341C254.007 22.854 254.755 23.33 254.755 24.486C254.755 25.676 254.007 26.152 252.341 26.152H235.137L230.615 32H251.797C258.733 32 261.555 29.212 261.555 24.554C261.555 20.406 258.563 18.332 253.021 18.332H240.645Z" fill="white"/>
<path d="M115.922 47.2109C117.189 47.2109 118.105 47.7327 118.67 48.7764C119.107 49.583 119.326 50.6882 119.326 52.0918C119.326 53.4225 119.128 54.5231 118.731 55.3936C118.157 56.6423 117.218 57.2666 115.915 57.2666C114.739 57.2666 113.864 56.7562 113.29 55.7354C112.812 54.8831 112.572 53.7393 112.572 52.3037C112.572 51.1917 112.716 50.237 113.003 49.4395C113.541 47.9538 114.514 47.2109 115.922 47.2109ZM115.908 56.1455C116.546 56.1455 117.054 55.863 117.433 55.2979C117.811 54.7327 118 53.68 118 52.1396C118 51.0277 117.863 50.1139 117.59 49.3984C117.316 48.6784 116.785 48.3184 115.997 48.3184C115.272 48.3184 114.742 48.6602 114.404 49.3438C114.072 50.0228 113.905 51.0254 113.905 52.3516C113.905 53.3496 114.012 54.1517 114.227 54.7578C114.555 55.6829 115.115 56.1455 115.908 56.1455ZM121.124 55.5098H122.553V57H121.124V55.5098ZM125.554 54.5049C125.636 55.2067 125.962 55.6921 126.531 55.9609C126.823 56.0977 127.16 56.166 127.543 56.166C128.272 56.166 128.812 55.9336 129.163 55.4688C129.514 55.0039 129.689 54.4889 129.689 53.9238C129.689 53.2402 129.48 52.7116 129.061 52.3379C128.646 51.9642 128.147 51.7773 127.563 51.7773C127.14 51.7773 126.775 51.8594 126.47 52.0234C126.169 52.1875 125.911 52.4154 125.697 52.707L124.631 52.6455L125.376 47.375H130.462V48.5645H126.299L125.882 51.2852C126.11 51.112 126.326 50.9821 126.531 50.8955C126.896 50.7451 127.317 50.6699 127.796 50.6699C128.694 50.6699 129.455 50.9593 130.079 51.5381C130.703 52.1169 131.016 52.8506 131.016 53.7393C131.016 54.6644 130.729 55.4801 130.154 56.1865C129.585 56.8929 128.673 57.2461 127.42 57.2461C126.622 57.2461 125.916 57.0228 125.301 56.5762C124.69 56.125 124.348 55.4346 124.275 54.5049H125.554ZM135.404 47.2109C136.671 47.2109 137.587 47.7327 138.152 48.7764C138.59 49.583 138.809 50.6882 138.809 52.0918C138.809 53.4225 138.61 54.5231 138.214 55.3936C137.64 56.6423 136.701 57.2666 135.397 57.2666C134.222 57.2666 133.347 56.7562 132.772 55.7354C132.294 54.8831 132.055 53.7393 132.055 52.3037C132.055 51.1917 132.198 50.237 132.485 49.4395C133.023 47.9538 133.996 47.2109 135.404 47.2109ZM135.391 56.1455C136.029 56.1455 136.537 55.863 136.915 55.2979C137.293 54.7327 137.482 53.68 137.482 52.1396C137.482 51.0277 137.346 50.1139 137.072 49.3984C136.799 48.6784 136.268 48.3184 135.479 48.3184C134.755 48.3184 134.224 48.6602 133.887 49.3438C133.554 50.0228 133.388 51.0254 133.388 52.3516C133.388 53.3496 133.495 54.1517 133.709 54.7578C134.037 55.6829 134.598 56.1455 135.391 56.1455ZM143.977 55.8242H151.188V57H143.977V55.8242ZM144.079 47.1152H151.093V48.291H144.079V47.1152ZM144.605 51.2305H150.56V52.4062H144.605V51.2305Z" fill="white"/>
<defs>
<clipPath id="clip0_900_961">
<rect width="24" height="24" fill="white" transform="translate(47 81)"/>
</clipPath>
</defs>
</svg>
