<svg width="295" height="110" viewBox="0 0 295 110" fill="none" xmlns="http://www.w3.org/2000/svg">
<rect x="46" y="78" width="205" height="32" rx="16" fill="white"/>
<g clip-path="url(#clip0_900_962)">
<path d="M84.5068 103.5H67.5068L65.5068 92.5H86.5068L84.5068 103.5Z" stroke="black" stroke-miterlimit="10" stroke-linecap="round" stroke-linejoin="round"/>
<path d="M87.5068 90.5H64.5068V92.5H87.5068V90.5Z" stroke="black" stroke-miterlimit="10" stroke-linecap="round" stroke-linejoin="round"/>
<path d="M67.5068 88.5L73.5068 82.5" stroke="black" stroke-miterlimit="10" stroke-linecap="round" stroke-linejoin="round"/>
<path d="M84.5068 88.5L78.5068 82.5" stroke="black" stroke-miterlimit="10" stroke-linecap="round" stroke-linejoin="round"/>
</g>
<path d="M108.101 95.7598C108.132 96.3294 108.267 96.792 108.504 97.1475C108.955 97.8128 109.75 98.1455 110.89 98.1455C111.4 98.1455 111.865 98.0726 112.284 97.9268C113.095 97.6442 113.501 97.1383 113.501 96.4092C113.501 95.8623 113.33 95.4727 112.988 95.2402C112.642 95.0124 112.1 94.8141 111.361 94.6455L110.001 94.3379C109.112 94.1374 108.483 93.9163 108.114 93.6748C107.476 93.2555 107.157 92.6289 107.157 91.7949C107.157 90.8926 107.469 90.152 108.094 89.5732C108.718 88.9945 109.602 88.7051 110.746 88.7051C111.799 88.7051 112.692 88.9603 113.426 89.4707C114.164 89.9766 114.533 90.7878 114.533 91.9043H113.255C113.187 91.3665 113.041 90.9541 112.817 90.667C112.403 90.1429 111.699 89.8809 110.705 89.8809C109.903 89.8809 109.326 90.0495 108.976 90.3867C108.625 90.724 108.449 91.1159 108.449 91.5625C108.449 92.0547 108.654 92.4147 109.064 92.6426C109.333 92.7884 109.942 92.9707 110.89 93.1895L112.298 93.5107C112.977 93.6657 113.501 93.8776 113.87 94.1465C114.508 94.6159 114.827 95.2972 114.827 96.1904C114.827 97.3024 114.422 98.0977 113.61 98.5762C112.804 99.0547 111.865 99.2939 110.794 99.2939C109.545 99.2939 108.568 98.9749 107.861 98.3369C107.155 97.7035 106.809 96.8444 106.822 95.7598H108.101ZM116.953 91.6787L118.361 97.4482L119.79 91.6787H121.171L122.606 97.4141L124.104 91.6787H125.334L123.208 99H121.93L120.439 93.333L118.997 99H117.719L115.606 91.6787H116.953ZM127.446 97.0518C127.446 97.4072 127.576 97.6875 127.836 97.8926C128.096 98.0977 128.403 98.2002 128.759 98.2002C129.192 98.2002 129.611 98.0999 130.017 97.8994C130.7 97.5667 131.042 97.0221 131.042 96.2656V95.2744C130.892 95.3701 130.698 95.4499 130.461 95.5137C130.224 95.5775 129.992 95.623 129.764 95.6504L129.019 95.7461C128.572 95.8053 128.237 95.8988 128.014 96.0264C127.635 96.2406 127.446 96.5824 127.446 97.0518ZM130.427 94.5635C130.709 94.527 130.898 94.4085 130.994 94.208C131.049 94.0986 131.076 93.9414 131.076 93.7363C131.076 93.3171 130.926 93.014 130.625 92.8271C130.329 92.6357 129.903 92.54 129.347 92.54C128.704 92.54 128.248 92.7132 127.979 93.0596C127.829 93.251 127.731 93.5358 127.686 93.9141H126.537C126.56 93.0117 126.852 92.3851 127.412 92.0342C127.977 91.6787 128.631 91.501 129.374 91.501C130.235 91.501 130.935 91.665 131.473 91.9932C132.006 92.3213 132.272 92.8317 132.272 93.5244V97.7422C132.272 97.8698 132.298 97.9723 132.348 98.0498C132.402 98.1273 132.514 98.166 132.683 98.166C132.737 98.166 132.799 98.1637 132.867 98.1592C132.936 98.1501 133.008 98.1387 133.086 98.125V99.0342C132.895 99.0889 132.749 99.123 132.648 99.1367C132.548 99.1504 132.411 99.1572 132.238 99.1572C131.814 99.1572 131.507 99.0068 131.315 98.7061C131.215 98.5465 131.145 98.321 131.104 98.0293C130.853 98.3574 130.493 98.6423 130.023 98.8838C129.554 99.1253 129.037 99.2461 128.472 99.2461C127.793 99.2461 127.237 99.041 126.804 98.6309C126.375 98.2161 126.161 97.6989 126.161 97.0791C126.161 96.4001 126.373 95.8737 126.797 95.5C127.221 95.1263 127.777 94.8962 128.465 94.8096L130.427 94.5635ZM137.386 98.1729C137.96 98.1729 138.436 97.9336 138.814 97.4551C139.197 96.972 139.389 96.252 139.389 95.2949C139.389 94.7116 139.304 94.2103 139.136 93.791C138.817 92.9844 138.233 92.5811 137.386 92.5811C136.534 92.5811 135.95 93.0072 135.636 93.8594C135.467 94.3151 135.383 94.8939 135.383 95.5957C135.383 96.1608 135.467 96.6416 135.636 97.0381C135.955 97.7946 136.538 98.1729 137.386 98.1729ZM134.2 91.7129H135.396V92.6836C135.643 92.3509 135.911 92.0934 136.203 91.9111C136.618 91.6377 137.105 91.501 137.666 91.501C138.495 91.501 139.2 91.82 139.778 92.458C140.357 93.0915 140.646 93.9984 140.646 95.1787C140.646 96.7738 140.229 97.9131 139.396 98.5967C138.867 99.0296 138.252 99.2461 137.55 99.2461C136.998 99.2461 136.536 99.1253 136.162 98.8838C135.943 98.7471 135.7 98.5124 135.431 98.1797V101.919H134.2V91.7129ZM146.423 92.0684V91.125C147.312 91.0384 147.931 90.8949 148.282 90.6943C148.633 90.4893 148.895 90.0085 149.068 89.252H150.039V99H148.727V92.0684H146.423ZM156.663 89.2109C157.93 89.2109 158.846 89.7327 159.411 90.7764C159.849 91.583 160.067 92.6882 160.067 94.0918C160.067 95.4225 159.869 96.5231 159.473 97.3936C158.898 98.6423 157.96 99.2666 156.656 99.2666C155.48 99.2666 154.605 98.7562 154.031 97.7354C153.553 96.8831 153.313 95.7393 153.313 94.3037C153.313 93.1917 153.457 92.237 153.744 91.4395C154.282 89.9538 155.255 89.2109 156.663 89.2109ZM156.649 98.1455C157.287 98.1455 157.796 97.863 158.174 97.2979C158.552 96.7327 158.741 95.68 158.741 94.1396C158.741 93.0277 158.604 92.1139 158.331 91.3984C158.058 90.6784 157.527 90.3184 156.738 90.3184C156.014 90.3184 155.483 90.6602 155.146 91.3438C154.813 92.0228 154.646 93.0254 154.646 94.3516C154.646 95.3496 154.754 96.1517 154.968 96.7578C155.296 97.6829 155.856 98.1455 156.649 98.1455ZM164.456 89.2109C165.723 89.2109 166.639 89.7327 167.204 90.7764C167.642 91.583 167.86 92.6882 167.86 94.0918C167.86 95.4225 167.662 96.5231 167.266 97.3936C166.691 98.6423 165.753 99.2666 164.449 99.2666C163.273 99.2666 162.398 98.7562 161.824 97.7354C161.346 96.8831 161.106 95.7393 161.106 94.3037C161.106 93.1917 161.25 92.237 161.537 91.4395C162.075 89.9538 163.048 89.2109 164.456 89.2109ZM164.442 98.1455C165.08 98.1455 165.589 97.863 165.967 97.2979C166.345 96.7327 166.534 95.68 166.534 94.1396C166.534 93.0277 166.397 92.1139 166.124 91.3984C165.851 90.6784 165.32 90.3184 164.531 90.3184C163.807 90.3184 163.276 90.6602 162.938 91.3438C162.606 92.0228 162.439 93.0254 162.439 94.3516C162.439 95.3496 162.547 96.1517 162.761 96.7578C163.089 97.6829 163.649 98.1455 164.442 98.1455ZM177.813 94.8848L176.289 90.4482L174.669 94.8848H177.813ZM175.578 88.958H177.116L180.76 99H179.27L178.251 95.9922H174.279L173.192 99H171.798L175.578 88.958ZM181.997 88.958H183.357V97.8037H188.443V99H181.997V88.958ZM189.92 88.958H194.438C195.332 88.958 196.052 89.2109 196.599 89.7168C197.146 90.2181 197.419 90.9245 197.419 91.8359C197.419 92.6198 197.175 93.3034 196.688 93.8867C196.2 94.4655 195.45 94.7549 194.438 94.7549H191.28V99H189.92V88.958ZM196.045 91.8428C196.045 91.1045 195.771 90.6032 195.225 90.3389C194.924 90.1976 194.511 90.127 193.987 90.127H191.28V93.6064H193.987C194.598 93.6064 195.092 93.4766 195.471 93.2168C195.854 92.957 196.045 92.499 196.045 91.8428ZM199.162 88.958H200.536V93.1074H205.759V88.958H207.133V99H205.759V94.3037H200.536V99H199.162V88.958ZM214.399 94.8848L212.875 90.4482L211.255 94.8848H214.399ZM212.164 88.958H213.702L217.346 99H215.855L214.837 95.9922H210.865L209.778 99H208.384L212.164 88.958ZM219.472 95.7598C219.504 96.3294 219.638 96.792 219.875 97.1475C220.326 97.8128 221.121 98.1455 222.261 98.1455C222.771 98.1455 223.236 98.0726 223.655 97.9268C224.466 97.6442 224.872 97.1383 224.872 96.4092C224.872 95.8623 224.701 95.4727 224.359 95.2402C224.013 95.0124 223.471 94.8141 222.732 94.6455L221.372 94.3379C220.483 94.1374 219.854 93.9163 219.485 93.6748C218.847 93.2555 218.528 92.6289 218.528 91.7949C218.528 90.8926 218.84 90.152 219.465 89.5732C220.089 88.9945 220.973 88.7051 222.117 88.7051C223.17 88.7051 224.063 88.9603 224.797 89.4707C225.535 89.9766 225.904 90.7878 225.904 91.9043H224.626C224.558 91.3665 224.412 90.9541 224.188 90.667C223.774 90.1429 223.07 89.8809 222.076 89.8809C221.274 89.8809 220.698 90.0495 220.347 90.3867C219.996 90.724 219.82 91.1159 219.82 91.5625C219.82 92.0547 220.025 92.4147 220.436 92.6426C220.704 92.7884 221.313 92.9707 222.261 93.1895L223.669 93.5107C224.348 93.6657 224.872 93.8776 225.241 94.1465C225.879 94.6159 226.198 95.2972 226.198 96.1904C226.198 97.3024 225.793 98.0977 224.981 98.5762C224.175 99.0547 223.236 99.2939 222.165 99.2939C220.916 99.2939 219.939 98.9749 219.232 98.3369C218.526 97.7035 218.18 96.8444 218.193 95.7598H219.472Z" fill="black"/>
<path d="M134.864 54.5049C134.946 55.2067 135.272 55.6921 135.842 55.9609C136.133 56.0977 136.471 56.166 136.854 56.166C137.583 56.166 138.123 55.9336 138.474 55.4688C138.825 55.0039 139 54.4889 139 53.9238C139 53.2402 138.79 52.7116 138.371 52.3379C137.956 51.9642 137.457 51.7773 136.874 51.7773C136.45 51.7773 136.086 51.8594 135.78 52.0234C135.479 52.1875 135.222 52.4154 135.008 52.707L133.941 52.6455L134.687 47.375H139.772V48.5645H135.609L135.192 51.2852C135.42 51.112 135.637 50.9821 135.842 50.8955C136.206 50.7451 136.628 50.6699 137.106 50.6699C138.004 50.6699 138.765 50.9593 139.39 51.5381C140.014 52.1169 140.326 52.8506 140.326 53.7393C140.326 54.6644 140.039 55.4801 139.465 56.1865C138.895 56.8929 137.984 57.2461 136.73 57.2461C135.933 57.2461 135.227 57.0228 134.611 56.5762C134.001 56.125 133.659 55.4346 133.586 54.5049H134.864ZM142.124 55.5098H143.553V57H142.124V55.5098ZM148.611 47.2109C149.878 47.2109 150.794 47.7327 151.359 48.7764C151.797 49.583 152.016 50.6882 152.016 52.0918C152.016 53.4225 151.817 54.5231 151.421 55.3936C150.847 56.6423 149.908 57.2666 148.604 57.2666C147.429 57.2666 146.554 56.7562 145.979 55.7354C145.501 54.8831 145.262 53.7393 145.262 52.3037C145.262 51.1917 145.405 50.237 145.692 49.4395C146.23 47.9538 147.203 47.2109 148.611 47.2109ZM148.598 56.1455C149.236 56.1455 149.744 55.863 150.122 55.2979C150.5 54.7327 150.689 53.68 150.689 52.1396C150.689 51.0277 150.553 50.1139 150.279 49.3984C150.006 48.6784 149.475 48.3184 148.687 48.3184C147.962 48.3184 147.431 48.6602 147.094 49.3438C146.761 50.0228 146.595 51.0254 146.595 52.3516C146.595 53.3496 146.702 54.1517 146.916 54.7578C147.244 55.6829 147.805 56.1455 148.598 56.1455ZM156.404 47.2109C157.671 47.2109 158.587 47.7327 159.152 48.7764C159.59 49.583 159.809 50.6882 159.809 52.0918C159.809 53.4225 159.61 54.5231 159.214 55.3936C158.64 56.6423 157.701 57.2666 156.397 57.2666C155.222 57.2666 154.347 56.7562 153.772 55.7354C153.294 54.8831 153.055 53.7393 153.055 52.3037C153.055 51.1917 153.198 50.237 153.485 49.4395C154.023 47.9538 154.996 47.2109 156.404 47.2109ZM156.391 56.1455C157.029 56.1455 157.537 55.863 157.915 55.2979C158.293 54.7327 158.482 53.68 158.482 52.1396C158.482 51.0277 158.346 50.1139 158.072 49.3984C157.799 48.6784 157.268 48.3184 156.479 48.3184C155.755 48.3184 155.224 48.6602 154.887 49.3438C154.554 50.0228 154.388 51.0254 154.388 52.3516C154.388 53.3496 154.495 54.1517 154.709 54.7578C155.037 55.6829 155.598 56.1455 156.391 56.1455ZM164.977 55.8242H172.188V57H164.977V55.8242ZM165.079 47.1152H172.093V48.291H165.079V47.1152ZM165.605 51.2305H171.56V52.4062H165.605V51.2305Z" fill="white"/>
<path d="M0.408 15.17H5.95V32H12.988V9.254H4.658L0.408 15.17ZM31.1198 8.88C21.4638 8.88 16.6018 12.484 16.6018 20.61C16.6018 28.736 21.4638 32.374 31.1198 32.374C40.7758 32.374 45.6378 28.736 45.6378 20.61C45.6378 12.484 40.7758 8.88 31.1198 8.88ZM31.1198 26.458C25.5438 26.458 23.5378 25.506 23.5378 20.61C23.5378 15.714 25.5438 14.796 31.1198 14.796C36.6958 14.796 38.7018 15.714 38.7018 20.61C38.7018 25.506 36.6958 26.458 31.1198 26.458ZM63.028 8.88C53.372 8.88 48.51 12.484 48.51 20.61C48.51 28.736 53.372 32.374 63.028 32.374C72.684 32.374 77.546 28.736 77.546 20.61C77.546 12.484 72.684 8.88 63.028 8.88ZM63.028 26.458C57.452 26.458 55.446 25.506 55.446 20.61C55.446 15.714 57.452 14.796 63.028 14.796C68.604 14.796 70.61 15.714 70.61 20.61C70.61 25.506 68.604 26.458 63.028 26.458ZM130.222 32L116.01 11.43C115.024 10.002 113.63 8.88 111.522 8.88C109.312 8.88 107.918 10.104 106.966 11.43L92.3799 32H100.71L111.386 16.904L115.466 22.922C116.214 24.01 117.166 25.404 117.778 26.22C116.69 26.152 115.092 26.152 113.732 26.152H108.02L103.77 32H130.222ZM139.768 26.152V9.254H132.73V32H152.824L157.38 26.152H139.768ZM189.746 17.788C189.746 12.722 185.632 9.254 178.594 9.254H164.314L159.656 15.17H179.24C181.416 15.17 182.674 16.156 182.674 17.754C182.674 19.318 181.416 20.372 179.24 20.372H159.656V32H166.66V26.186H178.56C185.632 26.186 189.746 22.82 189.746 17.788ZM220.934 9.254H213.93V17.312H200.398V9.254H193.326V32H200.398V23.228H213.93V32H220.934V9.254ZM261.341 32L247.129 11.43C246.143 10.002 244.749 8.88 242.641 8.88C240.431 8.88 239.037 10.104 238.085 11.43L223.499 32H231.829L242.505 16.904L246.585 22.922C247.333 24.01 248.285 25.404 248.897 26.22C247.809 26.152 246.211 26.152 244.851 26.152H239.139L234.889 32H261.341ZM272.553 18.332C270.921 18.332 270.139 17.89 270.139 16.734C270.139 15.578 270.921 15.17 272.553 15.17H288.329L292.851 9.254H273.097C266.195 9.254 263.339 12.042 263.339 16.326C263.339 20.236 266.025 22.854 271.873 22.854H284.249C285.915 22.854 286.663 23.33 286.663 24.486C286.663 25.676 285.915 26.152 284.249 26.152H267.045L262.523 32H283.705C290.641 32 293.463 29.212 293.463 24.554C293.463 20.406 290.471 18.332 284.929 18.332H272.553Z" fill="white"/>
<defs>
<clipPath id="clip0_900_962">
<rect width="24" height="24" fill="white" transform="translate(64 81)"/>
</clipPath>
</defs>
</svg>
